<svg width="24" height="24" viewBox="0 0 24 24" fill="none" xmlns="http://www.w3.org/2000/svg">
<path d="M3.19305 19.1475C4.66491 15.2413 8.78021 13.5173 12.5475 13.6992L12.6501 13.709C13.1511 13.7846 13.5237 14.23 13.4987 14.7471C13.4719 15.2983 13.0031 15.7236 12.4518 15.6973L12.1501 15.6875C9.60146 15.6449 7.16356 16.6291 5.79852 18.499L11.4987 18.5C12.051 18.5 12.4987 18.9478 12.4987 19.5C12.4987 20.0176 12.1062 20.4437 11.6022 20.4951L11.4987 20.5H4.12957C3.80144 20.4999 3.49306 20.3392 3.30633 20.0693C3.11973 19.7995 3.07749 19.4545 3.19305 19.1475Z" fill="#202327"/>
<path fill-rule="evenodd" clip-rule="evenodd" d="M12.0016 2.25C13.1525 2.25028 14.1065 2.89496 14.735 3.76074C15.3645 4.62789 15.7233 5.77655 15.7233 7C15.7233 8.21367 15.3829 9.36262 14.7585 10.2344C14.1302 11.1113 13.1723 11.7497 12.0016 11.75C10.8307 11.75 9.87225 11.1114 9.24383 10.2344C8.61935 9.3626 8.27899 8.21374 8.27899 7C8.27899 5.77649 8.63777 4.62791 9.26727 3.76074C9.89599 2.89482 10.8505 2.25 12.0016 2.25ZM12.0016 4.25C11.6496 4.25 11.2419 4.4446 10.8854 4.93555C10.5297 5.42562 10.279 6.15245 10.279 7C10.279 7.85733 10.5221 8.58388 10.8698 9.06934C11.2136 9.54915 11.6173 9.75 12.0016 9.75C12.3858 9.74974 12.7889 9.54891 13.1325 9.06934C13.4802 8.58388 13.7233 7.85725 13.7233 7C13.7233 6.15253 13.4726 5.42561 13.1169 4.93555C12.7606 4.44487 12.3536 4.25027 12.0016 4.25Z" fill="#202327"/>
<path d="M18.0554 11.5C18.792 11.5 19.4983 11.7927 20.0192 12.3135C20.5401 12.8343 20.8326 13.5408 20.8327 14.2773V15.0605C21.8243 15.1179 22.611 15.9384 22.611 16.9443V19.6113C22.6109 20.6543 21.7653 21.4998 20.7223 21.5H15.3884C14.3453 21.4999 13.4998 20.6544 13.4997 19.6113V16.9443C13.4997 15.9387 14.2858 15.1183 15.277 15.0605V14.2773C15.2771 13.5408 15.5707 12.8343 16.0915 12.3135C16.6124 11.7927 17.3188 11.5 18.0554 11.5ZM15.4997 19.5H20.611V17.0557H15.4997V19.5ZM18.0554 13.5C17.8492 13.5 17.6514 13.5818 17.5055 13.7275C17.3598 13.8733 17.2771 14.0712 17.277 14.2773V15.0557H18.8327V14.2773L18.8288 14.2012C18.8112 14.023 18.7328 13.8552 18.6052 13.7275C18.4593 13.5818 18.2615 13.5 18.0554 13.5Z" fill="#202327"/>
</svg>
