<svg width="24" height="24" viewBox="0 0 24 24" fill="none" xmlns="http://www.w3.org/2000/svg">
<path d="M18.0576 11.5C18.7942 11.5 19.5006 11.7927 20.0215 12.3135C20.5423 12.8343 20.8348 13.5408 20.835 14.2773V15.0605C21.8265 15.1179 22.6132 15.9384 22.6133 16.9443V19.6113C22.6132 20.6543 21.7675 21.4998 20.7246 21.5H15.3906C14.3476 21.4999 13.5021 20.6544 13.502 19.6113V16.9443C13.502 15.9387 14.2881 15.1183 15.2793 15.0605V14.2773C15.2794 13.5408 15.5729 12.8343 16.0938 12.3135C16.6147 11.7927 17.321 11.5 18.0576 11.5ZM15.502 19.5H20.6133V17.0557H15.502V19.5ZM18.0576 13.5C17.8515 13.5 17.6536 13.5818 17.5078 13.7275C17.3621 13.8733 17.2794 14.0712 17.2793 14.2773V15.0557H18.835V14.2773L18.8311 14.2012C18.8134 14.023 18.7351 13.8552 18.6074 13.7275C18.4616 13.5818 18.2638 13.5 18.0576 13.5Z" fill="#202327"/>
<path d="M12.0026 13.6865C12.4832 13.6866 12.9682 13.7186 13.4499 13.7812C12.551 14.7603 12.0026 16.0661 12.0026 17.5C12.0026 18.6073 12.3312 19.637 12.8942 20.5H4.13247C3.80449 20.4998 3.4969 20.338 3.31021 20.0684C3.12376 19.7985 3.08135 19.4544 3.19692 19.1475C4.59837 15.4284 8.40192 13.6867 12.0026 13.6865Z" fill="#202327"/>
<path d="M12.0045 2.25C13.1554 2.25029 14.1094 2.89497 14.7379 3.76074C15.3674 4.62789 15.7262 5.77656 15.7262 7C15.7262 8.21366 15.3858 9.36262 14.7614 10.2344C14.1331 11.1113 13.1752 11.7497 12.0045 11.75C10.8336 11.75 9.87514 11.1114 9.24673 10.2344C8.62225 9.3626 8.28188 8.21374 8.28188 7C8.28188 5.77649 8.64067 4.62791 9.27017 3.76074C9.89889 2.89483 10.8534 2.25 12.0045 2.25Z" fill="#202327"/>
</svg>
