<svg width="24" height="24" viewBox="0 0 24 24" fill="none" xmlns="http://www.w3.org/2000/svg">
<path d="M12.1211 1.00488C12.3643 1.02475 12.5989 1.10421 12.8047 1.23535L12.9053 1.30469L13 1.38281C13.1817 1.54565 13.3206 1.75064 13.4053 1.97949L13.4434 2.0957L13.4492 2.11523L15.0303 8.25098C15.0749 8.42386 15.1647 8.58174 15.291 8.70801C15.4173 8.83423 15.5752 8.92411 15.748 8.96875L21.8828 10.5498L21.8994 10.5547C22.1762 10.6311 22.4243 10.7849 22.6152 10.9971L22.6943 11.0918L22.7646 11.1924C22.9183 11.4328 23.0009 11.713 23.001 12C23.001 12.3283 22.8932 12.648 22.6943 12.9092C22.5203 13.1377 22.2847 13.311 22.0166 13.4092L21.8994 13.4463C21.894 13.4478 21.8883 13.4488 21.8828 13.4502L15.748 15.0312C15.5751 15.0759 15.4173 15.1666 15.291 15.293C15.1649 15.4191 15.074 15.5764 15.0293 15.749L15.0303 15.75L13.4482 21.8848L13.4424 21.9043C13.3542 22.2195 13.1651 22.4975 12.9043 22.6953C12.6435 22.8931 12.3254 23.001 11.998 23.001C11.6707 23.001 11.3526 22.8931 11.0918 22.6953C10.8636 22.5222 10.6897 22.2885 10.5908 22.0215L10.5537 21.9043C10.5519 21.8978 10.5495 21.8913 10.5479 21.8848L8.9668 15.75C8.92216 15.5771 8.8323 15.4193 8.70605 15.293C8.61119 15.1981 8.49848 15.1234 8.375 15.0732L8.24902 15.0312L2.11426 13.4492L2.09082 13.4434C1.77683 13.3542 1.5005 13.1647 1.30371 12.9043C1.1315 12.6764 1.02794 12.4051 1.00488 12.1221L1 12L1.00488 11.8779C1.02802 11.5951 1.1316 11.3235 1.30371 11.0957L1.38086 11.002C1.5699 10.79 1.81603 10.6356 2.09082 10.5576L2.11328 10.5508L8.24902 8.96777L8.375 8.92578C8.4984 8.87571 8.61122 8.80179 8.70605 8.70703C8.83214 8.58104 8.92198 8.42348 8.9668 8.25098L10.5488 2.11523L10.5547 2.0957C10.6429 1.7805 10.832 1.50251 11.0928 1.30469L11.1924 1.23535C11.4326 1.08212 11.7124 1 11.999 1L12.1211 1.00488ZM2.99902 19C2.44674 19 1.99805 18.5523 1.99805 18C1.99818 17.4478 2.44682 17 2.99902 17C2.99916 16.4478 3.44682 16 3.99902 16C4.51671 16.0002 4.94216 16.3941 4.99316 16.8984L4.99902 17L5.10059 17.0059C5.60483 17.057 5.9989 17.4823 5.99902 18C5.99902 18.5521 5.55108 18.9997 4.99902 19C4.99902 19.5521 4.55108 19.9997 3.99902 20C3.44674 20 2.99902 19.5523 2.99902 19ZM18.999 7V6H17.999C17.4467 6 16.999 5.55228 16.999 5C16.9992 4.44783 17.4468 4 17.999 4H18.999V3C18.9992 2.44783 19.4468 2 19.999 2C20.551 2.00026 20.9989 2.44799 20.999 3V4H21.999C22.551 4.00026 22.9989 4.44799 22.999 5C22.999 5.55212 22.5511 5.99974 21.999 6H20.999V7C20.999 7.55212 20.5511 7.99974 19.999 8C19.4467 8 18.999 7.55228 18.999 7Z" fill="black"/>
</svg>
