<svg width="24" height="24" viewBox="0 0 24 24" fill="none" xmlns="http://www.w3.org/2000/svg">
<g clip-path="url(#clip0_2299_1491)">
<path fill-rule="evenodd" clip-rule="evenodd" d="M5 2C3.34315 2 2 3.34315 2 5V17C2 18.6569 3.34315 20 5 20H9.86224C10.6886 20 11.2038 19.0084 10.9592 18.2191C10.7909 17.6759 10.7002 17.0985 10.7002 16.5C10.7002 13.2967 13.2969 10.7 16.5002 10.7C18.1837 10.7 19.6998 11.4172 20.7593 12.5629C21.0671 12.8957 22 12.6577 22 12.2044V5C22 3.34315 20.6569 2 19 2H5ZM11.9998 5.30005C12.3864 5.30005 12.6998 5.61345 12.6998 6.00005V6.80005H13.4998C13.8864 6.80005 14.1998 7.11345 14.1998 7.50005C14.1998 7.88665 13.8864 8.20005 13.4998 8.20005H12.6998V9.00005C12.6998 9.38665 12.3864 9.70005 11.9998 9.70005C11.6132 9.70005 11.2998 9.38665 11.2998 9.00005V8.20005H10.4998C10.1132 8.20005 9.7998 7.88665 9.7998 7.50005C9.7998 7.11345 10.1132 6.80005 10.4998 6.80005H11.2998V6.00005C11.2998 5.61345 11.6132 5.30005 11.9998 5.30005ZM7.5002 9.19995C7.94202 9.19995 8.3002 9.55812 8.3002 9.99995V10.7H9.0002C9.44202 10.7 9.8002 11.0581 9.8002 11.5C9.8002 11.9418 9.44202 12.3 9.0002 12.3H8.3002V13C8.3002 13.4418 7.94202 13.8 7.5002 13.8C7.05837 13.8 6.7002 13.4418 6.7002 13V12.3H6.0002C5.55837 12.3 5.2002 11.9418 5.2002 11.5C5.2002 11.0581 5.55837 10.7 6.0002 10.7H6.7002V9.99995C6.7002 9.55812 7.05837 9.19995 7.5002 9.19995ZM16.5 14C15.1193 14 14 15.1193 14 16.5C14 17.8807 15.1193 19 16.5 19C17.8807 19 19 17.8807 19 16.5C19 15.1193 17.8807 14 16.5 14ZM12 16.5C12 14.0147 14.0147 12 16.5 12C18.9853 12 21 14.0147 21 16.5C21 17.3805 20.7471 18.202 20.31 18.8957L21.7072 20.2928C22.0977 20.6834 22.0977 21.3165 21.7072 21.7071C21.3167 22.0976 20.6835 22.0976 20.293 21.7071L18.8958 20.3099C18.2021 20.7471 17.3806 21 16.5 21C14.0147 21 12 18.9853 12 16.5Z" fill="#202327"/>
</g>
<defs>
<clipPath id="clip0_2299_1491">
<rect width="24" height="24" fill="white"/>
</clipPath>
</defs>
</svg>
