<svg width="24" height="24" viewBox="0 0 24 24" fill="none" xmlns="http://www.w3.org/2000/svg">
<g clip-path="url(#clip0_18_13323)">
<path fill-rule="evenodd" clip-rule="evenodd" d="M11.9922 15C12.2744 15 12.5439 15.119 12.7334 15.3281L17.2646 20.3291C17.5299 20.6222 17.5977 21.0448 17.4375 21.4062C17.277 21.7673 16.9186 22.001 16.5234 22.001H7.46094C7.06573 22.001 6.70737 21.7673 6.54688 21.4062C6.38664 21.0448 6.45443 20.6222 6.71973 20.3291L11.251 15.3281L11.3262 15.2539C11.5085 15.0911 11.7453 15 11.9922 15ZM9.7168 20.001H14.2676L11.9922 17.4893L9.7168 20.001Z" fill="#202327"/>
<path d="M20 2C21.6569 2 23 3.34315 23 5V16C23 17.6569 21.6569 19 20 19H19C18.4477 19 18 18.5523 18 18C18 17.4477 18.4477 17 19 17H20C20.5523 17 21 16.5523 21 16V5C21 4.44772 20.5523 4 20 4H4C3.44772 4 3 4.44772 3 5V16C3 16.5523 3.44772 17 4 17H5C5.55228 17 6 17.4477 6 18C6 18.5523 5.55228 19 5 19H4C2.34315 19 1 17.6569 1 16V5C1 3.34315 2.34315 2 4 2H20Z" fill="#202327"/>
</g>
<defs>
<clipPath id="clip0_18_13323">
<rect width="24" height="24" fill="white"/>
</clipPath>
</defs>
</svg>
