<svg width="24" height="24" viewBox="0 0 24 24" fill="none" xmlns="http://www.w3.org/2000/svg">
<g clip-path="url(#clip0_18_13329)">
<path d="M12 15C12.2718 15.0001 12.53 15.1153 12.7041 15.3145L17.2871 20.5645C17.5148 20.8252 17.5638 21.1887 17.4131 21.4961C17.2621 21.8033 16.9385 22 16.583 22H7.41699C7.0615 21.9998 6.73674 21.8034 6.58594 21.4961C6.43535 21.1888 6.48449 20.8251 6.71191 20.5645L11.2959 15.3145C11.47 15.1153 11.7283 15.0001 12 15Z" fill="#202327"/>
<path d="M20 2C21.6569 2 23 3.34315 23 5V16C23 17.6569 21.6569 19 20 19H19C18.4477 19 18 18.5523 18 18C18 17.4477 18.4477 17 19 17H20C20.5523 17 21 16.5523 21 16V5C21 4.44772 20.5523 4 20 4H4C3.44772 4 3 4.44772 3 5V16C3 16.5523 3.44772 17 4 17H5C5.55228 17 6 17.4477 6 18C6 18.5523 5.55228 19 5 19H4C2.34315 19 1 17.6569 1 16V5C1 3.34315 2.34315 2 4 2H20Z" fill="#202327"/>
</g>
<defs>
<clipPath id="clip0_18_13329">
<rect width="24" height="24" fill="white"/>
</clipPath>
</defs>
</svg>
