<svg width="24" height="24" viewBox="0 0 24 24" fill="none" xmlns="http://www.w3.org/2000/svg">
<path d="M11.9991 22.0001C10.8172 22.0001 9.64687 21.7673 8.55494 21.315C7.46301 20.8627 6.47086 20.1998 5.63513 19.364C4.79941 18.5283 4.13647 17.5362 3.68418 16.4442C3.23189 15.3523 2.99909 14.182 2.99909 13.0001C2.99909 11.8182 3.23189 10.6479 3.68418 9.55592C4.13647 8.46399 4.79941 7.47184 5.63513 6.63611C6.47086 5.80038 7.46301 5.13745 8.55494 4.68515C9.64687 4.23286 10.8172 4.00007 11.9991 4.00007C14.386 4.00007 16.6752 4.94828 18.3631 6.63611C20.0509 8.32394 20.9991 10.6131 20.9991 13.0001C20.9991 15.387 20.0509 17.6762 18.3631 19.364C16.6752 21.0519 14.386 22.0001 11.9991 22.0001ZM12.9991 13.0001V8.00007H10.9991V15.0001H15.9991V13.0001H12.9991ZM1.74609 6.28207L5.28109 2.74707L6.69609 4.16107L3.15909 7.69707L1.74609 6.28207ZM18.7161 2.74707L22.2521 6.28207L20.8381 7.69707L17.3021 4.16107L18.7171 2.74707H18.7161Z" fill="#202327"/>
</svg>
