<svg width="24" height="24" viewBox="0 0 24 24" fill="none" xmlns="http://www.w3.org/2000/svg">
<path d="M11.9991 22.0001C10.8172 22.0001 9.64687 21.7673 8.55494 21.315C7.46301 20.8627 6.47086 20.1998 5.63513 19.364C4.79941 18.5283 4.13647 17.5362 3.68418 16.4442C3.23189 15.3523 2.99909 14.182 2.99909 13.0001C2.99909 11.8182 3.23189 10.6479 3.68418 9.55592C4.13647 8.46399 4.79941 7.47184 5.63513 6.63611C6.47086 5.80038 7.46301 5.13745 8.55494 4.68515C9.64687 4.23286 10.8172 4.00007 11.9991 4.00007C14.386 4.00007 16.6752 4.94828 18.3631 6.63611C20.0509 8.32394 20.9991 10.6131 20.9991 13.0001C20.9991 15.387 20.0509 17.6762 18.3631 19.364C16.6752 21.0519 14.386 22.0001 11.9991 22.0001ZM11.9991 20.0001C12.9183 20.0001 13.8286 19.819 14.6779 19.4672C15.5272 19.1154 16.2988 18.5998 16.9488 17.9498C17.5989 17.2998 18.1145 16.5281 18.4663 15.6789C18.818 14.8296 18.9991 13.9193 18.9991 13.0001C18.9991 12.0808 18.818 11.1706 18.4663 10.3213C18.1145 9.47201 17.5989 8.70033 16.9488 8.05032C16.2988 7.40031 15.5272 6.8847 14.6779 6.53291C13.8286 6.18113 12.9183 6.00007 11.9991 6.00007C10.1426 6.00007 8.3621 6.73757 7.04935 8.05032C5.73659 9.36308 4.99909 11.1436 4.99909 13.0001C4.99909 14.8566 5.73659 16.6371 7.04935 17.9498C8.3621 19.2626 10.1426 20.0001 11.9991 20.0001ZM12.9991 13.0001H15.9991V15.0001H10.9991V8.00007H12.9991V13.0001ZM1.74609 6.28207L5.28109 2.74707L6.69609 4.16107L3.15909 7.69707L1.74609 6.28207ZM18.7161 2.74707L22.2521 6.28207L20.8381 7.69707L17.3021 4.16107L18.7171 2.74707H18.7161Z" fill="#202327"/>
</svg>
