<svg width="24" height="24" viewBox="0 0 24 24" fill="none" xmlns="http://www.w3.org/2000/svg">
<g clip-path="url(#clip0_18_15841)">
<path d="M21 5C21.5523 5 22 5.44772 22 6V19.5C22 20.8807 20.8807 22 19.5 22H6C5.44772 22 5 21.5523 5 21C5 20.4477 5.44772 20 6 20H19.5C19.7762 20 20 19.7762 20 19.5V6C20 5.44772 20.4477 5 21 5ZM17 2C18.1046 2 19 2.89543 19 4V17C19 18.1046 18.1046 19 17 19H4C2.89543 19 2 18.1046 2 17V4C2 2.89543 2.89543 2 4 2H17ZM8.83789 8.36523C8.12865 7.7204 7.07062 7.67417 6.31152 8.23047L6.16406 8.34961L4 10.2734V12.9482L7.49219 9.84473L12.3271 14.2402L12.4062 14.3047C12.8138 14.6062 13.3919 14.556 13.7402 14.1729C14.0883 13.7898 14.0835 13.2101 13.7451 12.833L13.6729 12.7598L12.418 11.6191L14.0322 10.2744L17 12.499V10L15.2324 8.6748C14.5372 8.15343 13.5919 8.14408 12.8896 8.63379L12.752 8.73828L10.9238 10.2607L8.83789 8.36523Z" fill="#202327"/>
</g>
<defs>
<clipPath id="clip0_18_15841">
<rect width="24" height="24" fill="white"/>
</clipPath>
</defs>
</svg>
