<svg width="24" height="24" viewBox="0 0 24 24" fill="none" xmlns="http://www.w3.org/2000/svg">
<g clip-path="url(#clip0_18_14764)">
<path d="M12.1865 1.99316C12.6482 2.02371 13.0977 2.16069 13.499 2.39453C13.9564 2.66108 14.3351 3.04374 14.5967 3.50391L22.5947 17.5L22.6875 17.6738C22.8903 18.0852 22.9959 18.5386 22.9961 18.999C22.9962 19.5253 22.8586 20.0431 22.5957 20.499C22.3328 20.955 21.9537 21.3332 21.4981 21.5967C21.0424 21.8602 20.5254 21.9995 19.999 22H3.99805V21.999C3.47241 22.0021 2.95514 21.8682 2.49805 21.6084C2.03823 21.347 1.65518 20.9686 1.38868 20.5117C1.12231 20.0549 0.981647 19.5356 0.980476 19.0068C0.979327 18.4793 1.11772 17.9611 1.38087 17.5039H1.37989L9.37989 3.50391C9.64148 3.04358 10.021 2.66112 10.4785 2.39453C10.9369 2.12746 11.4578 1.98636 11.9883 1.98633L12.1865 1.99316ZM11.8565 3.99512C11.726 4.01249 11.5998 4.05543 11.4854 4.12207C11.3325 4.21113 11.2054 4.33927 11.1182 4.49316L11.1172 4.49609L3.11719 18.4961L3.11426 18.5C3.02611 18.6527 2.98009 18.8266 2.98048 19.0029C2.98094 19.1789 3.02761 19.3518 3.11622 19.5039C3.20505 19.6562 3.33306 19.783 3.48634 19.8701C3.6395 19.9571 3.81312 20.0015 3.98926 20H19.9971C20.1725 19.9998 20.3452 19.954 20.4971 19.8662C20.6488 19.7784 20.7747 19.6518 20.8623 19.5C20.95 19.348 20.9961 19.1754 20.9961 19C20.9961 18.8246 20.95 18.6519 20.8623 18.5L20.8604 18.4961L12.8604 4.49609L12.8584 4.49316C12.7712 4.33935 12.645 4.21111 12.4922 4.12207C12.3394 4.03301 12.1652 3.98633 11.9883 3.98633L11.8565 3.99512ZM12.0088 16C12.5608 16.0002 13.0087 16.448 13.0088 17C13.0088 17.5522 12.5609 17.9998 12.0088 18H11.9981C11.4459 17.9998 10.9981 17.5522 10.9981 17C10.9982 16.4479 11.446 16.0002 11.9981 16H12.0088ZM10.9981 13V9C10.9982 8.44795 11.446 8.0002 11.9981 8C12.5503 8 12.9979 8.44783 12.9981 9V13C12.9981 13.5523 12.5503 14 11.9981 14C11.4459 13.9998 10.9981 13.5522 10.9981 13Z" fill="#202327"/>
</g>
<defs>
<clipPath id="clip0_18_14764">
<rect width="24" height="24" fill="white"/>
</clipPath>
</defs>
</svg>
