<svg width="24" height="24" viewBox="0 0 24 24" fill="none" xmlns="http://www.w3.org/2000/svg">
<g clip-path="url(#clip0_18_14770)">
<path d="M12.1865 1.99316C12.6482 2.02371 13.0977 2.16069 13.499 2.39453C13.9563 2.66108 14.3352 3.04377 14.5967 3.50391L22.5947 17.5L22.6875 17.6738C22.8902 18.0852 22.9959 18.5387 22.9961 18.999C22.9962 19.5253 22.8586 20.0431 22.5957 20.499C22.3328 20.9549 21.9536 21.3332 21.4981 21.5967C21.0425 21.8601 20.5253 21.9995 19.999 22H3.99805V21.999C3.47245 22.0021 2.95511 21.8682 2.49805 21.6084C2.0383 21.3471 1.65518 20.9685 1.38868 20.5117C1.12235 20.055 0.98169 19.5355 0.980476 19.0068C0.979328 18.4794 1.11779 17.961 1.38087 17.5039H1.37989L9.37989 3.50391C9.64146 3.04363 10.0211 2.66111 10.4785 2.39453C10.9369 2.12747 11.4578 1.98637 11.9883 1.98633L12.1865 1.99316ZM11.9981 16C11.4458 16 10.9981 16.4477 10.9981 17C10.9981 17.5523 11.4458 18 11.9981 18H12.0078L12.1104 17.9951C12.6146 17.9439 13.0078 17.5178 13.0078 17C13.0078 16.4822 12.6146 16.0561 12.1104 16.0049L12.0078 16H11.9981ZM11.9981 8C11.4458 8 10.9981 8.44772 10.9981 9V13C10.9981 13.5523 11.4458 14 11.9981 14C12.5503 14 12.9981 13.5523 12.9981 13V9C12.9981 8.44772 12.5503 8 11.9981 8Z" fill="#202327"/>
</g>
<defs>
<clipPath id="clip0_18_14770">
<rect width="24" height="24" fill="white"/>
</clipPath>
</defs>
</svg>
