<svg width="24" height="24" viewBox="0 0 24 24" fill="none" xmlns="http://www.w3.org/2000/svg">
<g clip-path="url(#clip0_18_13926)">
<path fill-rule="evenodd" clip-rule="evenodd" d="M2.29289 8.29289C1.90237 8.68342 1.90237 9.31658 2.29289 9.70711L5.29289 12.7071C5.68342 13.0976 6.31658 13.0976 6.70711 12.7071L9.70711 9.70711C10.0976 9.31658 10.0976 8.68342 9.70711 8.29289C9.31658 7.90237 8.68342 7.90237 8.29289 8.29289L7 9.58579L7 6C7 5.73478 7.10536 5.48043 7.29289 5.29289C7.48043 5.10536 7.73478 5 8 5L11 5C11.5523 5 12 4.55228 12 4C12 3.44772 11.5523 3 11 3L8 3C7.20435 3 6.44129 3.31607 5.87868 3.87868C5.31607 4.44129 5 5.20435 5 6L5 9.58579L3.70711 8.29289C3.31658 7.90237 2.68342 7.90237 2.29289 8.29289ZM5 16L5 18C5 18.7956 5.31607 19.5587 5.87868 20.1213C6.44129 20.6839 7.20435 21 8 21H19C19.7957 21 20.5587 20.6839 21.1213 20.1213C21.6839 19.5587 22 18.7957 22 18L22 6C22 5.20435 21.6839 4.44129 21.1213 3.87868C20.5587 3.31607 19.7957 3 19 3L15 3C14.4477 3 14 3.44772 14 4C14 4.55228 14.4477 5 15 5L19 5C19.2652 5 19.5196 5.10536 19.7071 5.29289C19.8946 5.48043 20 5.73478 20 6L20 18C20 18.2652 19.8946 18.5196 19.7071 18.7071C19.5196 18.8946 19.2652 19 19 19H8C7.73478 19 7.48043 18.8946 7.29289 18.7071C7.10536 18.5196 7 18.2652 7 18L7 16C7 15.4477 6.55228 15 6 15C5.44772 15 5 15.4477 5 16Z" fill="#202327"/>
</g>
<defs>
<clipPath id="clip0_18_13926">
<rect width="24" height="24" fill="white"/>
</clipPath>
</defs>
</svg>
