<svg width="24" height="24" viewBox="0 0 24 24" fill="none" xmlns="http://www.w3.org/2000/svg">
<g clip-path="url(#clip0_18_13930)">
<path fill-rule="evenodd" clip-rule="evenodd" d="M15.7071 1.29289C15.3166 0.902369 14.6834 0.902369 14.2929 1.29289L11.2929 4.29289C10.9024 4.68342 10.9024 5.31658 11.2929 5.70711L14.2929 8.70711C14.6834 9.09763 15.3166 9.09763 15.7071 8.70711C16.0976 8.31658 16.0976 7.68342 15.7071 7.29289L14.4142 6H18C18.2652 6 18.5196 6.10536 18.7071 6.29289C18.8946 6.48043 19 6.73478 19 7V10C19 10.5523 19.4477 11 20 11C20.5523 11 21 10.5523 21 10L21 7C21 6.20435 20.6839 5.44129 20.1213 4.87868C19.5587 4.31607 18.7956 4 18 4L14.4142 4L15.7071 2.70711C16.0976 2.31658 16.0976 1.68342 15.7071 1.29289ZM8 4L6 4C5.20435 4 4.44129 4.31607 3.87868 4.87868C3.31607 5.44129 3 6.20435 3 7L3 18C3 18.7957 3.31607 19.5587 3.87868 20.1213C4.44129 20.6839 5.20435 21 6 21L18 21C18.7957 21 19.5587 20.6839 20.1213 20.1213C20.6839 19.5587 21 18.7957 21 18V14C21 13.4477 20.5523 13 20 13C19.4477 13 19 13.4477 19 14V18C19 18.2652 18.8946 18.5196 18.7071 18.7071C18.5196 18.8946 18.2652 19 18 19L6 19C5.73478 19 5.48043 18.8946 5.29289 18.7071C5.10536 18.5196 5 18.2652 5 18L5 7C5 6.73478 5.10536 6.48043 5.29289 6.29289C5.48043 6.10536 5.73478 6 6 6H8C8.55229 6 9 5.55228 9 5C9 4.44772 8.55229 4 8 4Z" fill="#202327"/>
</g>
<defs>
<clipPath id="clip0_18_13930">
<rect width="24" height="24" fill="white"/>
</clipPath>
</defs>
</svg>
