<svg width="24" height="24" viewBox="0 0 24 24" fill="none" xmlns="http://www.w3.org/2000/svg">
<g clip-path="url(#clip0_18_13922)">
<path fill-rule="evenodd" clip-rule="evenodd" d="M2.29289 7.29289C1.90237 7.68342 1.90237 8.31658 2.29289 8.70711L5.29289 11.7071C5.68342 12.0976 6.31658 12.0976 6.70711 11.7071L9.70711 8.70711C10.0976 8.31658 10.0976 7.68342 9.70711 7.29289C9.31658 6.90237 8.68342 6.90237 8.29289 7.29289L7 8.58579L7 5C7 4.73478 7.10536 4.48043 7.29289 4.29289C7.48043 4.10536 7.73478 4 8 4L11 4C11.5523 4 12 3.55228 12 3C12 2.44772 11.5523 2 11 2L8 2C7.20435 2 6.44129 2.31607 5.87868 2.87868C5.31607 3.44129 5 4.20435 5 5L5 8.58579L3.70711 7.29289C3.31658 6.90237 2.68342 6.90237 2.29289 7.29289ZM5 15L5 17C5 17.7956 5.31607 18.5587 5.87868 19.1213C6.44129 19.6839 7.20435 20 8 20H19C19.7957 20 20.5587 19.6839 21.1213 19.1213C21.6839 18.5587 22 17.7957 22 17L22 5C22 4.20435 21.6839 3.44129 21.1213 2.87868C20.5587 2.31607 19.7957 2 19 2L15 2C14.4477 2 14 2.44772 14 3C14 3.55228 14.4477 4 15 4L19 4C19.2652 4 19.5196 4.10536 19.7071 4.29289C19.8946 4.48043 20 4.73478 20 5L20 17C20 17.2652 19.8946 17.5196 19.7071 17.7071C19.5196 17.8946 19.2652 18 19 18H8C7.73478 18 7.48043 17.8946 7.29289 17.7071C7.10536 17.5196 7 17.2652 7 17L7 15C7 14.4477 6.55228 14 6 14C5.44772 14 5 14.4477 5 15Z" fill="#202327"/>
</g>
<defs>
<clipPath id="clip0_18_13922">
<rect width="24" height="24" fill="white"/>
</clipPath>
</defs>
</svg>
