<svg width="24" height="24" viewBox="0 0 24 24" fill="none" xmlns="http://www.w3.org/2000/svg">
<path d="M9.85059 13.0068C10.4962 13.0723 11 13.6174 11 14.2803V17.5C11 19.9853 8.98528 22 6.5 22C4.01472 22 2 19.9853 2 17.5C2 15.0147 4.01472 13 6.5 13H9.71973L9.85059 13.0068ZM17.5 13C19.9853 13 22 15.0147 22 17.5C22 19.9853 19.9853 22 17.5 22C15.0147 22 13 19.9853 13 17.5V14.2803C13 13.5733 13.5733 13 14.2803 13H17.5ZM6.5 2C8.98528 2 11 4.01472 11 6.5V9.71973C11 10.4267 10.4267 11 9.71973 11H6.5C4.01472 11 2 8.98528 2 6.5C2 4.01472 4.01472 2 6.5 2ZM17.5 2C19.9853 2 22 4.01472 22 6.5C22 8.98528 19.9853 11 17.5 11H14.2803C13.5733 11 13 10.4267 13 9.71973V6.5C13 4.01472 15.0147 2 17.5 2Z" fill="#202327"/>
</svg>
