<svg width="24" height="24" viewBox="0 0 24 24" fill="none" xmlns="http://www.w3.org/2000/svg">
<path d="M23 12C23 18.0751 18.0751 23 12 23C5.92486 23 0.999999 18.0751 1 12C1 5.92486 5.92487 0.999999 12 1C18.0751 1 23 5.92487 23 12ZM16.957 12.707C17.3231 12.3409 17.3457 11.7619 17.0254 11.3691L16.957 11.293L12.457 6.79297C12.0665 6.40244 11.4335 6.40244 11.043 6.79297C10.6524 7.18349 10.6524 7.81651 11.043 8.20703L13.8359 11L7.25 11C6.69772 11 6.25 11.4477 6.25 12C6.25 12.5523 6.69772 13 7.25 13L13.8359 13L11.043 15.793L10.9746 15.8691C10.6543 16.2619 10.6769 16.8409 11.043 17.207C11.4091 17.5731 11.9881 17.5957 12.3809 17.2754L12.457 17.207L16.957 12.707Z" fill="#202327"/>
</svg>
