<svg width="24" height="24" viewBox="0 0 24 24" fill="none" xmlns="http://www.w3.org/2000/svg">
<path d="M21.7071 6.93303C21.3166 6.54251 20.6834 6.54251 20.2929 6.93303L15.9026 11.3233C15.5252 11.7007 15.5107 12.3081 15.8698 12.7031L20.2601 17.5323C20.6316 17.941 21.264 17.9711 21.6727 17.5996C22.0813 17.2281 22.1114 16.5956 21.7399 16.187L17.9911 12.0633L21.7071 8.34724C22.0976 7.95672 22.0976 7.32355 21.7071 6.93303Z" fill="#202327"/>
<path d="M8.09734 6.93303C7.70682 6.54251 7.07365 6.54251 6.68313 6.93303L2.29289 11.3233C1.91544 11.7007 1.90099 12.3081 2.26005 12.7031L6.6503 17.5323C7.0218 17.941 7.65425 17.9711 8.06291 17.5996C8.47157 17.2281 8.50168 16.5956 8.13018 16.187L4.38134 12.0633L8.09734 8.34724C8.48787 7.95672 8.48787 7.32355 8.09734 6.93303Z" fill="#202327"/>
<path d="M13.2685 6.93303C13.659 6.54251 14.2922 6.54251 14.6827 6.93303C15.0732 7.32355 15.0732 7.95672 14.6827 8.34724L10.9667 12.0633L14.7155 16.187C15.087 16.5956 15.0569 17.2281 14.6483 17.5996C14.2396 17.9711 13.6072 17.941 13.2357 17.5323L8.84542 12.7031C8.48635 12.3081 8.5008 11.7007 8.87825 11.3233L13.2685 6.93303Z" fill="#202327"/>
</svg>
