<svg width="24" height="24" viewBox="0 0 24 24" fill="none" xmlns="http://www.w3.org/2000/svg">
<g clip-path="url(#clip0_18_12604)">
<path d="M19.8679 18.7446C19.8535 19.2757 19.4267 19.7025 18.8956 19.7168L5.8141 20.0704C5.40506 20.0813 5.03046 19.8421 4.86876 19.4662C4.7072 19.0903 4.79079 18.6535 5.08007 18.3641L8.61562 14.8286L2.95876 9.1717C2.56855 8.78121 2.56848 8.14794 2.95877 7.75749L7.90853 2.80772L7.98449 2.73867C8.37717 2.41856 8.95668 2.44191 9.32275 2.80772L14.9796 8.46457L18.5152 4.92902L18.6305 4.83028C18.913 4.62269 19.2883 4.57643 19.6172 4.71772C19.9933 4.87945 20.2325 5.25389 20.2215 5.66306L19.8679 18.7446Z" fill="#202327"/>
</g>
<defs>
<clipPath id="clip0_18_12604">
<rect width="24" height="24" fill="white"/>
</clipPath>
</defs>
</svg>
