<svg width="24" height="24" viewBox="0 0 24 24" fill="none" xmlns="http://www.w3.org/2000/svg">
<g clip-path="url(#clip0_2281_814)">
<path d="M10.5 16.5C10.5 16.8719 10.2933 17.2131 9.96387 17.3857C9.63445 17.5582 9.23642 17.5339 8.93066 17.3222L2.43066 12.8222C2.1609 12.6354 2.00001 12.3281 2 12C2 11.6718 2.1609 11.3645 2.43066 11.1777L8.93066 6.67769C9.23642 6.46601 9.63444 6.44169 9.96387 6.61422C10.2933 6.78684 10.5 7.12802 10.5 7.49996L10.5 16.5ZM22 12C22 12.3281 21.8391 12.6354 21.5693 12.8222L15.0693 17.3222C14.7636 17.5339 14.3656 17.5582 14.0361 17.3857C13.7067 17.2131 13.5 16.8719 13.5 16.5L13.5 7.49996C13.5 7.12802 13.7067 6.78684 14.0361 6.61422C14.3656 6.44169 14.7636 6.46601 15.0693 6.67769L21.5693 11.1777L21.665 11.2529C21.8768 11.4413 22 11.7127 22 12Z" fill="#202327"/>
</g>
<defs>
<clipPath id="clip0_2281_814">
<rect width="24" height="24" fill="white"/>
</clipPath>
</defs>
</svg>
