<svg width="24" height="24" viewBox="0 0 24 24" fill="none" xmlns="http://www.w3.org/2000/svg">
<path d="M8.29289 5.29287C8.68341 4.90239 9.31644 4.90236 9.70695 5.29287C10.0974 5.68339 10.0974 6.31642 9.70695 6.70693L5.41398 10.9999H20.9999L21.1025 11.0048C21.6066 11.0561 21.9999 11.4822 21.9999 11.9999C21.9999 12.5176 21.6066 12.9437 21.1025 12.995L20.9999 12.9999H5.41398L9.70695 17.2929L9.77531 17.369C10.0956 17.7618 10.073 18.3408 9.70695 18.7069C9.34085 19.073 8.76183 19.0956 8.36906 18.7753L8.29289 18.7069L2.29289 12.7069C1.90237 12.3164 1.90237 11.6834 2.29289 11.2929L8.29289 5.29287Z" fill="#202327"/>
</svg>
