<svg width="24" height="24" viewBox="0 0 24 24" fill="none" xmlns="http://www.w3.org/2000/svg">
<g clip-path="url(#clip0_18_12632)">
<path d="M2.5 13.7498C2.5 10.2857 5.31107 7.49977 8.75 7.49977H18.5859L16.793 5.7068L16.7246 5.63063C16.4043 5.23785 16.4269 4.65885 16.793 4.29273C17.1591 3.92662 17.7381 3.90402 18.1309 4.22437L18.207 4.29273L21.707 7.79273L21.7754 7.86891C22.0957 8.26168 22.0731 8.84068 21.707 9.2068L18.207 12.7068C17.8165 13.0973 17.1835 13.0973 16.793 12.7068C16.4024 12.3163 16.4024 11.6833 16.793 11.2927L18.5859 9.49977H8.75C6.41064 9.49977 4.5 11.3953 4.5 13.7498C4.5 16.1152 6.40936 17.9998 8.75 17.9998H21C21.5523 17.9998 22 18.4475 22 18.9998C22 19.5521 21.5523 19.9998 21 19.9998H8.75C5.31299 19.9998 2.5 17.228 2.5 13.7498Z" fill="#202327"/>
</g>
<defs>
<clipPath id="clip0_18_12632">
<rect width="24" height="24" fill="white"/>
</clipPath>
</defs>
</svg>
