<svg width="24" height="24" viewBox="0 0 24 24" fill="none" xmlns="http://www.w3.org/2000/svg">
<g clip-path="url(#clip0_18_12626)">
<path fill-rule="evenodd" clip-rule="evenodd" d="M7.70711 6.29289C8.09763 6.68342 8.09763 7.31658 7.70711 7.70711L3.41421 12L7.70711 16.2929C8.09763 16.6834 8.09763 17.3166 7.70711 17.7071C7.31658 18.0976 6.68342 18.0976 6.29289 17.7071L1.29289 12.7071C0.902369 12.3166 0.902369 11.6834 1.29289 11.2929L6.29289 6.29289C6.68342 5.90237 7.31658 5.90237 7.70711 6.29289ZM12.7071 6.29289C13.0976 6.68342 13.0976 7.31658 12.7071 7.70711L9.41421 11H18C19.3261 11 20.5979 11.5268 21.5355 12.4645C22.4732 13.4021 23 14.6739 23 16V18C23 18.5523 22.5523 19 22 19C21.4477 19 21 18.5523 21 18V16C21 15.2044 20.6839 14.4413 20.1213 13.8787C19.5587 13.3161 18.7956 13 18 13H9.41421L12.7071 16.2929C13.0976 16.6834 13.0976 17.3166 12.7071 17.7071C12.3166 18.0976 11.6834 18.0976 11.2929 17.7071L6.29289 12.7071C5.90237 12.3166 5.90237 11.6834 6.29289 11.2929L11.2929 6.29289C11.6834 5.90237 12.3166 5.90237 12.7071 6.29289Z" fill="#202327"/>
</g>
<defs>
<clipPath id="clip0_18_12626">
<rect width="24" height="24" fill="white"/>
</clipPath>
</defs>
</svg>
