<svg width="24" height="24" viewBox="0 0 24 24" fill="none" xmlns="http://www.w3.org/2000/svg">
<path d="M5.29287 15.7071C4.90239 15.3166 4.90236 14.6836 5.29287 14.293C5.68339 13.9026 6.31642 13.9026 6.70693 14.293L10.9999 18.586L10.9999 3.00008L11.0048 2.89754C11.0561 2.39341 11.4822 2.00008 11.9999 2.00008C12.5176 2.00008 12.9437 2.39341 12.995 2.89754L12.9999 3.00008L12.9999 18.586L17.2929 14.293L17.369 14.2247C17.7618 13.9044 18.3408 13.927 18.7069 14.293C19.073 14.6592 19.0956 15.2382 18.7753 15.6309L18.7069 15.7071L12.7069 21.7071C12.3164 22.0976 11.6834 22.0976 11.2929 21.7071L5.29287 15.7071Z" fill="#202327"/>
</svg>
