<svg width="24" height="24" viewBox="0 0 24 24" fill="none" xmlns="http://www.w3.org/2000/svg">
<path d="M12 1C18.0751 1 23 5.92487 23 12C23 18.0751 18.0751 23 12 23C5.92487 23 1 18.0751 1 12C1 5.92487 5.92487 1 12 1ZM12.707 7.04297C12.3409 6.67685 11.7619 6.65426 11.3691 6.97461L11.293 7.04297L6.79297 11.543C6.40244 11.9335 6.40244 12.5665 6.79297 12.957C7.18349 13.3476 7.81651 13.3476 8.20703 12.957L11 10.1641V16.75C11 17.3023 11.4477 17.75 12 17.75C12.5523 17.75 13 17.3023 13 16.75V10.1641L15.793 12.957L15.8691 13.0254C16.2619 13.3457 16.8409 13.3231 17.207 12.957C17.5731 12.5909 17.5957 12.0119 17.2754 11.6191L17.207 11.543L12.707 7.04297Z" fill="#202327"/>
</svg>
