<svg width="24" height="24" viewBox="0 0 24 24" fill="none" xmlns="http://www.w3.org/2000/svg">
<g clip-path="url(#clip0_18_12622)">
<path d="M4.5 7H13C16.5899 7 19.5 9.91015 19.5 13.5V13.5C19.5 17.0899 16.5899 20 13 20H4.5" stroke="#202327" stroke-width="2" stroke-linecap="round" stroke-linejoin="round"/>
<path d="M7 3.36523L3.5 7.17285L7 10.9805" stroke="#202327" stroke-width="2" stroke-linecap="round" stroke-linejoin="round"/>
<path d="M6.33692 2.61754C6.71585 2.28083 7.29552 2.27886 7.67676 2.62926C8.05774 2.97959 8.10505 3.55741 7.80176 3.96325L7.73633 4.04235L5.9375 6.00036H13C17.1421 6.00036 20.5 9.35822 20.5 13.5004C20.4999 17.6424 17.1421 21.0004 13 21.0004H4.5C3.94778 21.0003 3.50007 20.5526 3.5 20.0004C3.5 19.4481 3.94774 19.0004 4.5 19.0004H13C16.0375 19.0004 18.4999 16.5379 18.5 13.5004C18.5 10.4628 16.0376 8.00036 13 8.00036H5.61914L7.73633 10.3041C8.1099 10.7107 8.0833 11.3435 7.67676 11.7172C7.2702 12.0907 6.63739 12.064 6.26367 11.6576L2.76367 7.84997C2.41207 7.46741 2.41215 6.87906 2.76367 6.49645L6.26367 2.68883L6.33692 2.61754Z" fill="#202327"/>
</g>
<defs>
<clipPath id="clip0_18_12622">
<rect width="24" height="24" fill="white"/>
</clipPath>
</defs>
</svg>
