<svg width="24" height="24" viewBox="0 0 24 24" fill="none" xmlns="http://www.w3.org/2000/svg">
<g clip-path="url(#clip0_18_12449)">
<path d="M4.13603 5.60945C4.15038 5.07834 4.5772 4.65152 5.1083 4.63717L18.1898 4.28359C18.5988 4.27273 18.9734 4.51188 19.1351 4.8878C19.2967 5.26374 19.2131 5.70049 18.9238 5.9899L15.3883 9.52545L21.0451 15.1823C21.4354 15.5728 21.4354 16.2061 21.0451 16.5965L16.0954 21.5463L16.0194 21.6153C15.6267 21.9354 15.0472 21.9121 14.6812 21.5463L9.0243 15.8894L5.48876 19.425L5.37344 19.5237C5.09092 19.7313 4.71557 19.7776 4.38666 19.6363C4.01064 19.4746 3.77145 19.1001 3.78244 18.6909L4.13603 5.60945Z" fill="#202327"/>
</g>
<defs>
<clipPath id="clip0_18_12449">
<rect width="24" height="24" fill="white"/>
</clipPath>
</defs>
</svg>
