<svg width="24" height="24" viewBox="0 0 24 24" fill="none" xmlns="http://www.w3.org/2000/svg">
<path d="M1.77405 12.6882C1.40865 12.3025 1.40865 11.6989 1.77405 11.3132L10.774 1.81315C11.0556 1.51623 11.4896 1.42046 11.8697 1.57194C12.2498 1.72352 12.4995 2.09146 12.4996 2.50065L12.4996 7.50067L20.4996 7.50067C21.0517 7.50087 21.4995 7.94861 21.4996 8.50068L21.4996 15.5007L21.4947 15.6032C21.4434 16.1073 21.0171 16.5005 20.4996 16.5007L12.4996 16.5007L12.4996 21.5007L12.4879 21.6521C12.4349 21.9986 12.2022 22.2968 11.8697 22.4294C11.4895 22.581 11.0556 22.4853 10.774 22.1882L1.77405 12.6882Z" fill="#202327"/>
</svg>
