<svg width="24" height="24" viewBox="0 0 24 24" fill="none" xmlns="http://www.w3.org/2000/svg">
<path d="M21 12C21 7.02943 16.9706 3 12 3C7.02943 3 3 7.02943 3 12C3 16.9706 7.02943 21 12 21C16.9706 21 21 16.9706 21 12ZM11 16.75V10.1641L8.20703 12.957C7.81651 13.3476 7.18349 13.3476 6.79297 12.957C6.40244 12.5665 6.40244 11.9335 6.79297 11.543L11.293 7.04297L11.3691 6.97461C11.7619 6.65426 12.3409 6.67685 12.707 7.04297L17.207 11.543L17.2754 11.6191C17.5957 12.0119 17.5731 12.5909 17.207 12.957C16.8409 13.3231 16.2619 13.3457 15.8691 13.0254L15.793 12.957L13 10.1641V16.75C13 17.3023 12.5523 17.75 12 17.75C11.4477 17.75 11 17.3023 11 16.75ZM23 12C23 18.0751 18.0751 23 12 23C5.92487 23 1 18.0751 1 12C1 5.92487 5.92487 1 12 1C18.0751 1 23 5.92487 23 12Z" fill="#202327"/>
</svg>
