<svg width="24" height="24" viewBox="0 0 24 24" fill="none" xmlns="http://www.w3.org/2000/svg">
<path d="M3 12C3 16.9706 7.02943 21 12 21C16.9706 21 21 16.9706 21 12C21 7.02943 16.9706 3 12 3C7.02943 3 3 7.02944 3 12ZM13 7.25L13 13.8359L15.793 11.043C16.1835 10.6524 16.8165 10.6524 17.207 11.043C17.5976 11.4335 17.5976 12.0665 17.207 12.457L12.707 16.957L12.6309 17.0254C12.2381 17.3457 11.6591 17.3231 11.293 16.957L6.79297 12.457L6.72461 12.3809C6.40426 11.9881 6.42685 11.4091 6.79297 11.043C7.15908 10.6769 7.73808 10.6543 8.13086 10.9746L8.20703 11.043L11 13.8359L11 7.25C11 6.69772 11.4477 6.25 12 6.25C12.5523 6.25 13 6.69772 13 7.25ZM0.999999 12C0.999999 5.92487 5.92486 1 12 1C18.0751 1 23 5.92487 23 12C23 18.0751 18.0751 23 12 23C5.92487 23 1 18.0751 0.999999 12Z" fill="#202327"/>
</svg>
