<svg width="24" height="24" viewBox="0 0 24 24" fill="none" xmlns="http://www.w3.org/2000/svg">
<path d="M12 21C16.9706 21 21 16.9706 21 12C21 7.02943 16.9706 3 12 3C7.02943 3 3 7.02943 3 12C3 16.9706 7.02943 21 12 21ZM7.25 11L13.8359 11L11.043 8.20703C10.6524 7.81651 10.6524 7.18349 11.043 6.79297C11.4335 6.40244 12.0665 6.40244 12.457 6.79297L16.957 11.293L17.0254 11.3691C17.3457 11.7619 17.3231 12.3409 16.957 12.707L12.457 17.207L12.3809 17.2754C11.9881 17.5957 11.4091 17.5731 11.043 17.207C10.6769 16.8409 10.6543 16.2619 10.9746 15.8691L11.043 15.793L13.8359 13L7.25 13C6.69772 13 6.25 12.5523 6.25 12C6.25 11.4477 6.69772 11 7.25 11ZM12 23C5.92486 23 0.999999 18.0751 1 12C1 5.92486 5.92487 0.999999 12 1C18.0751 1 23 5.92487 23 12C23 18.0751 18.0751 23 12 23Z" fill="#202327"/>
</svg>
