<svg width="24" height="24" viewBox="0 0 24 24" fill="none" xmlns="http://www.w3.org/2000/svg">
<g clip-path="url(#clip0_18_12495)">
<path d="M9.87844 4.63633C9.32618 4.63636 8.87855 5.08396 8.87855 5.63622C8.87858 6.18846 9.3262 6.63609 9.87844 6.63611L15.9496 6.63611L4.92869 17.657L4.85964 17.733C4.53946 18.1258 4.56264 18.7052 4.92869 19.0712C5.29475 19.4373 5.87418 19.4605 6.26695 19.1403L6.34291 19.0712L17.3638 8.05033L17.3638 14.1215L17.3694 14.2237C17.4206 14.7279 17.846 15.1214 18.3637 15.1214C18.8815 15.1214 19.3069 14.7279 19.3581 14.2237L19.3636 14.1215L19.3636 5.63622C19.3636 5.08394 18.916 4.63633 18.3637 4.63633L9.87844 4.63633Z" fill="#202327"/>
</g>
<defs>
<clipPath id="clip0_18_12495">
<rect width="24" height="24" fill="white"/>
</clipPath>
</defs>
</svg>
