<svg width="24" height="24" viewBox="0 0 24 24" fill="none" xmlns="http://www.w3.org/2000/svg">
<g clip-path="url(#clip0_18_12546)">
<path d="M14.1216 19.3637C14.6738 19.3636 15.1214 18.916 15.1215 18.3638C15.1214 17.8115 14.6738 17.3639 14.1216 17.3639L8.05038 17.3639L19.0713 6.34296L19.1404 6.267C19.4605 5.87423 19.4374 5.2948 19.0713 4.92875C18.7053 4.5627 18.1258 4.53952 17.7331 4.8597L17.6571 4.92875L6.63617 15.9497L6.63617 9.8785L6.63065 9.7763C6.57941 9.27208 6.154 8.87863 5.63628 8.8786C5.11853 8.87861 4.69315 9.27207 4.64191 9.7763L4.63638 9.8785L4.63638 18.3638C4.63639 18.9161 5.084 19.3637 5.63628 19.3637L14.1216 19.3637Z" fill="#202327"/>
</g>
<defs>
<clipPath id="clip0_18_12546">
<rect width="24" height="24" fill="white"/>
</clipPath>
</defs>
</svg>
