<svg width="24" height="24" viewBox="0 0 24 24" fill="none" xmlns="http://www.w3.org/2000/svg">
<path d="M15.7071 5.29287C15.3166 4.90239 14.6836 4.90236 14.293 5.29287C13.9026 5.68339 13.9026 6.31642 14.293 6.70693L18.586 10.9999H3.00008L2.89754 11.0048C2.39341 11.0561 2.00008 11.4822 2.00008 11.9999C2.00008 12.5176 2.39341 12.9437 2.89754 12.995L3.00008 12.9999H18.586L14.293 17.2929L14.2247 17.369C13.9044 17.7618 13.927 18.3408 14.293 18.7069C14.6592 19.073 15.2382 19.0956 15.6309 18.7753L15.7071 18.7069L21.7071 12.7069C22.0976 12.3164 22.0976 11.6834 21.7071 11.2929L15.7071 5.29287Z" fill="#202327"/>
</svg>
