<svg width="24" height="24" viewBox="0 0 24 24" fill="none" xmlns="http://www.w3.org/2000/svg">
<g clip-path="url(#clip0_18_12638)">
<path fill-rule="evenodd" clip-rule="evenodd" d="M16.2929 6.29289C15.9024 6.68342 15.9024 7.31658 16.2929 7.70711L20.5858 12L16.2929 16.2929C15.9024 16.6834 15.9024 17.3166 16.2929 17.7071C16.6834 18.0976 17.3166 18.0976 17.7071 17.7071L22.7071 12.7071C23.0976 12.3166 23.0976 11.6834 22.7071 11.2929L17.7071 6.29289C17.3166 5.90237 16.6834 5.90237 16.2929 6.29289ZM11.2929 6.29289C10.9024 6.68342 10.9024 7.31658 11.2929 7.70711L14.5858 11H6C4.67392 11 3.40215 11.5268 2.46447 12.4645C1.52678 13.4021 1 14.6739 1 16V18C1 18.5523 1.44772 19 2 19C2.55228 19 3 18.5523 3 18V16C3 15.2044 3.31607 14.4413 3.87868 13.8787C4.44129 13.3161 5.20435 13 6 13H14.5858L11.2929 16.2929C10.9024 16.6834 10.9024 17.3166 11.2929 17.7071C11.6834 18.0976 12.3166 18.0976 12.7071 17.7071L17.7071 12.7071C18.0976 12.3166 18.0976 11.6834 17.7071 11.2929L12.7071 6.29289C12.3166 5.90237 11.6834 5.90237 11.2929 6.29289Z" fill="#202327"/>
</g>
<defs>
<clipPath id="clip0_18_12638">
<rect width="24" height="24" fill="white"/>
</clipPath>
</defs>
</svg>
