<svg width="24" height="24" viewBox="0 0 24 24" fill="none" xmlns="http://www.w3.org/2000/svg">
<g clip-path="url(#clip0_18_12552)">
<path d="M5.11091 19.364C4.57981 19.3496 4.15299 18.9228 4.13863 18.3917L3.78505 5.3102C3.77419 4.90115 4.01335 4.52655 4.38927 4.36486C4.76521 4.20329 5.20196 4.28688 5.49136 4.57616L9.02691 8.11171L14.6838 2.45486C15.0743 2.06465 15.7075 2.06457 16.098 2.45486L21.0477 7.40463L21.1168 7.48059C21.4369 7.87326 21.4136 8.45278 21.0478 8.81884L15.3909 14.4757L18.9264 18.0112L19.0252 18.1266C19.2328 18.4091 19.279 18.7844 19.1378 19.1133C18.976 19.4894 18.6016 19.7285 18.1924 19.7176L5.11091 19.364Z" fill="#202327"/>
</g>
<defs>
<clipPath id="clip0_18_12552">
<rect width="24" height="24" fill="white"/>
</clipPath>
</defs>
</svg>
