<svg width="24" height="24" viewBox="0 0 24 24" fill="none" xmlns="http://www.w3.org/2000/svg">
<g clip-path="url(#clip0_756_90)">
<path d="M16.5 13.5C16.8719 13.5 17.2131 13.7067 17.3857 14.0361C17.5582 14.3656 17.5339 14.7636 17.3222 15.0693L12.8222 21.5693C12.6354 21.8391 12.3281 22 12 22C11.6718 22 11.3645 21.8391 11.1777 21.5693L6.67769 15.0693C6.46602 14.7636 6.44169 14.3656 6.61422 14.0361C6.78684 13.7067 7.12802 13.5 7.49996 13.5H16.5ZM12 2C12.3281 2.00001 12.6354 2.1609 12.8222 2.43066L17.3222 8.93066C17.5339 9.23642 17.5582 9.63445 17.3857 9.96387C17.2131 10.2933 16.8719 10.5 16.5 10.5H7.49996C7.12802 10.5 6.78684 10.2933 6.61422 9.96387C6.44169 9.63444 6.46602 9.23642 6.67769 8.93066L11.1777 2.43066L11.2529 2.33496C11.4413 2.12325 11.7127 2 12 2Z" fill="#202327"/>
</g>
<defs>
<clipPath id="clip0_756_90">
<rect width="24" height="24" fill="white"/>
</clipPath>
</defs>
</svg>
