<svg width="24" height="24" viewBox="0 0 24 24" fill="none" xmlns="http://www.w3.org/2000/svg">
<path d="M12.1877 21.7264C11.802 22.0918 11.1984 22.0918 10.8127 21.7264L1.31266 12.7264C1.01575 12.4449 0.91997 12.0109 1.07145 11.6307C1.22304 11.2507 1.59097 11.0009 2.00017 11.0009L7.00019 11.0009L7.00019 3.00086C7.00039 2.44881 7.44813 2.00097 8.00019 2.00086L15.0002 2.00086L15.1028 2.00574C15.6068 2.05706 16 2.48335 16.0002 3.00086L16.0002 11.0009L21.0002 11.0009L21.1516 11.0126C21.4982 11.0656 21.7963 11.2983 21.929 11.6307C22.0805 12.011 21.9848 12.4449 21.6877 12.7264L12.1877 21.7264Z" fill="#202327"/>
</svg>
