<svg width="24" height="24" viewBox="0 0 24 24" fill="none" xmlns="http://www.w3.org/2000/svg">
<path d="M1 12C0.999999 5.92487 5.92486 1 12 1C18.0751 0.999999 23 5.92486 23 12C23 18.0751 18.0751 23 12 23C5.92487 23 1 18.0751 1 12ZM7.04297 11.293C6.67685 11.6591 6.65426 12.2381 6.97461 12.6309L7.04297 12.707L11.543 17.207C11.9335 17.5976 12.5665 17.5976 12.957 17.207C13.3476 16.8165 13.3476 16.1835 12.957 15.793L10.1641 13L16.75 13C17.3023 13 17.75 12.5523 17.75 12C17.75 11.4477 17.3023 11 16.75 11L10.1641 11L12.957 8.20703L13.0254 8.13086C13.3457 7.73809 13.3231 7.15908 12.957 6.79297C12.5909 6.42685 12.0119 6.40426 11.6191 6.72461L11.543 6.79297L7.04297 11.293Z" fill="#202327"/>
</svg>
