<svg width="24" height="24" viewBox="0 0 24 24" fill="none" xmlns="http://www.w3.org/2000/svg">
<path d="M2.2929 6.93303C2.68342 6.54251 3.31659 6.54251 3.70711 6.93303L8.09736 11.3233C8.47481 11.7007 8.48926 12.3081 8.13019 12.7031L3.73995 17.5323C3.36844 17.941 2.73599 17.9711 2.32733 17.5996C1.91868 17.2281 1.88856 16.5956 2.26007 16.187L6.00891 12.0633L2.2929 8.34724C1.90238 7.95672 1.90238 7.32355 2.2929 6.93303Z" fill="#202327"/>
<path d="M15.9027 6.93303C16.2932 6.54251 16.9263 6.54251 17.3169 6.93303L21.7071 11.3233C22.0846 11.7007 22.099 12.3081 21.7399 12.7031L17.3497 17.5323C16.9782 17.941 16.3457 17.9711 15.9371 17.5996C15.5284 17.2281 15.4983 16.5956 15.8698 16.187L19.6187 12.0633L15.9027 8.34724C15.5121 7.95672 15.5121 7.32355 15.9027 6.93303Z" fill="#202327"/>
<path d="M10.7315 6.93303C10.341 6.54251 9.70782 6.54251 9.31729 6.93303C8.92677 7.32355 8.92677 7.95672 9.31729 8.34724L13.0333 12.0633L9.28446 16.187C8.91295 16.5956 8.94307 17.2281 9.35173 17.5996C9.76038 17.9711 10.3928 17.941 10.7643 17.5323L15.1546 12.7031C15.5136 12.3081 15.4992 11.7007 15.1217 11.3233L10.7315 6.93303Z" fill="#202327"/>
</svg>
