<svg width="24" height="24" viewBox="0 0 24 24" fill="none" xmlns="http://www.w3.org/2000/svg">
<path d="M18.7071 8.29289C19.0976 8.68341 19.0976 9.31644 18.7071 9.70695C18.3166 10.0974 17.6836 10.0974 17.2931 9.70695L13.0001 5.41398L13.0001 20.9999L12.9952 21.1025C12.9439 21.6066 12.5178 21.9999 12.0001 21.9999C11.4824 21.9999 11.0563 21.6066 11.005 21.1025L11.0001 20.9999L11.0001 5.41398L6.70713 9.70695L6.63096 9.77531C6.2382 10.0956 5.65917 10.073 5.29307 9.70695C4.92697 9.34085 4.9044 8.76183 5.22471 8.36906L5.29307 8.29289L11.2931 2.29289C11.6836 1.90237 12.3166 1.90237 12.7071 2.29289L18.7071 8.29289Z" fill="#202327"/>
</svg>
