<svg width="24" height="24" viewBox="0 0 24 24" fill="none" xmlns="http://www.w3.org/2000/svg">
<g clip-path="url(#clip0_18_12499)">
<path d="M17.893 4.63749C18.4241 4.65185 18.8509 5.07866 18.8653 5.60977L19.2189 18.6913C19.2297 19.1003 18.9906 19.4749 18.6146 19.6366C18.2387 19.7982 17.802 19.7146 17.5125 19.4253L13.977 15.8898L8.32014 21.5466C7.92965 21.9368 7.29637 21.9369 6.90592 21.5466L1.95616 16.5968L1.8871 16.5209C1.567 16.1282 1.59035 15.5487 1.95615 15.1826L7.61301 9.52577L4.07746 5.99022L3.97871 5.8749C3.77113 5.59239 3.72486 5.21703 3.86615 4.88813C4.02789 4.51211 4.40233 4.27292 4.8115 4.28391L17.893 4.63749Z" fill="#202327"/>
</g>
<defs>
<clipPath id="clip0_18_12499">
<rect width="24" height="24" fill="white"/>
</clipPath>
</defs>
</svg>
