<svg width="24" height="24" viewBox="0 0 24 24" fill="none" xmlns="http://www.w3.org/2000/svg">
<path d="M12 3C7.02943 3 3 7.02943 3 12C3 16.9706 7.02943 21 12 21C16.9706 21 21 16.9706 21 12C21 7.02943 16.9706 3 12 3ZM16.75 13L10.1641 13L12.957 15.793C13.3476 16.1835 13.3476 16.8165 12.957 17.207C12.5665 17.5976 11.9335 17.5976 11.543 17.207L7.04297 12.707L6.97461 12.6309C6.65426 12.2381 6.67685 11.6591 7.04297 11.293L11.543 6.79297L11.6191 6.72461C12.0119 6.40426 12.5909 6.42685 12.957 6.79297C13.3231 7.15908 13.3457 7.73809 13.0254 8.13086L12.957 8.20703L10.1641 11L16.75 11C17.3023 11 17.75 11.4477 17.75 12C17.75 12.5523 17.3023 13 16.75 13ZM12 1C18.0751 0.999999 23 5.92486 23 12C23 18.0751 18.0751 23 12 23C5.92487 23 1 18.0751 1 12C0.999999 5.92487 5.92486 1 12 1Z" fill="#202327"/>
</svg>
