<svg width="24" height="24" viewBox="0 0 24 24" fill="none" xmlns="http://www.w3.org/2000/svg">
<path d="M12 23C5.92487 23 1 18.0751 0.999999 12C0.999999 5.92487 5.92486 1 12 1C18.0751 1 23 5.92487 23 12C23 18.0751 18.0751 23 12 23ZM11.293 16.957C11.6591 17.3231 12.2381 17.3457 12.6309 17.0254L12.707 16.957L17.207 12.457C17.5976 12.0665 17.5976 11.4335 17.207 11.043C16.8165 10.6524 16.1835 10.6524 15.793 11.043L13 13.8359L13 7.25C13 6.69772 12.5523 6.25 12 6.25C11.4477 6.25 11 6.69772 11 7.25L11 13.8359L8.20703 11.043L8.13086 10.9746C7.73808 10.6543 7.15908 10.6769 6.79297 11.043C6.42685 11.4091 6.40426 11.9881 6.72461 12.3809L6.79297 12.457L11.293 16.957Z" fill="#202327"/>
</svg>
