<svg width="24" height="24" viewBox="0 0 24 24" fill="none" xmlns="http://www.w3.org/2000/svg">
<g clip-path="url(#clip0_18_12598)">
<path d="M19.3627 9.87893C19.3627 9.32667 18.9151 8.87904 18.3628 8.87904C17.8106 8.87907 17.3629 9.32669 17.3629 9.87893L17.3629 15.9501L6.34199 4.92918L6.26603 4.86013C5.87326 4.53995 5.29383 4.56313 4.92777 4.92918C4.56172 5.29524 4.53854 5.87467 4.85872 6.26744L4.92777 6.3434L15.9487 17.3643L9.87752 17.3643L9.77532 17.3698C9.27111 17.4211 8.87766 17.8465 8.87763 18.3642C8.87763 18.882 9.2711 19.3073 9.77532 19.3586L9.87752 19.3641L18.3628 19.3641C18.9151 19.3641 19.3627 18.9165 19.3627 18.3642L19.3627 9.87893Z" fill="#202327"/>
</g>
<defs>
<clipPath id="clip0_18_12598">
<rect width="24" height="24" fill="white"/>
</clipPath>
</defs>
</svg>
