<svg width="24" height="24" viewBox="0 0 24 24" fill="none" xmlns="http://www.w3.org/2000/svg">
<g clip-path="url(#clip0_18_12443)">
<path d="M14.1216 4.63633C14.6738 4.63636 15.1214 5.08396 15.1215 5.63622C15.1214 6.18846 14.6738 6.63609 14.1216 6.63611L8.05038 6.63611L19.0713 17.657L19.1404 17.733C19.4605 18.1258 19.4374 18.7052 19.0713 19.0712C18.7053 19.4373 18.1258 19.4605 17.7331 19.1403L17.6571 19.0712L6.63617 8.05033L6.63617 14.1215L6.63065 14.2237C6.57941 14.7279 6.154 15.1214 5.63628 15.1214C5.11853 15.1214 4.69315 14.7279 4.64191 14.2237L4.63638 14.1215L4.63638 5.63622C4.63639 5.08394 5.084 4.63633 5.63628 4.63633L14.1216 4.63633Z" fill="#202327"/>
</g>
<defs>
<clipPath id="clip0_18_12443">
<rect width="24" height="24" fill="white"/>
</clipPath>
</defs>
</svg>
