<svg width="24" height="24" viewBox="0 0 24 24" fill="none" xmlns="http://www.w3.org/2000/svg">
<g clip-path="url(#clip0_18_15076)">
<path d="M18 2C20.2091 2 22 3.79086 22 6V18C22 20.2091 20.2091 22 18 22H6C3.79086 22 2 20.2091 2 18V6C2 3.79086 3.79086 2 6 2H18ZM17 12C16.4477 12 16 12.4477 16 13V15.8887C16 15.9181 15.9886 15.9469 15.9678 15.9678C15.9469 15.9886 15.9181 16 15.8887 16H13C12.4477 16 12 16.4477 12 17C12 17.5523 12.4477 18 13 18H15.8887C16.4486 18 16.9859 17.7777 17.3818 17.3818C17.7777 16.9859 18 16.4486 18 15.8887V13C18 12.4477 17.5523 12 17 12ZM8.11133 6C7.55143 6 7.01407 6.22225 6.61816 6.61816C6.22225 7.01407 6 7.55143 6 8.11133V11C6 11.5523 6.44772 12 7 12C7.55228 12 8 11.5523 8 11V8.11133C8 8.08186 8.01139 8.05306 8.03223 8.03223C8.05306 8.01139 8.08186 8 8.11133 8H11C11.5523 8 12 7.55228 12 7C12 6.44772 11.5523 6 11 6H8.11133Z" fill="#202327"/>
</g>
<defs>
<clipPath id="clip0_18_15076">
<rect width="24" height="24" fill="white"/>
</clipPath>
</defs>
</svg>
