<svg width="24" height="24" viewBox="0 0 24 24" fill="none" xmlns="http://www.w3.org/2000/svg">
<g clip-path="url(#clip0_18_15070)">
<path d="M20 6C20 4.89543 19.1046 4 18 4H6C4.89543 4 4 4.89543 4 6V18C4 19.1046 4.89543 20 6 20H18C19.1046 20 20 19.1046 20 18V6ZM16 15.8887V13C16 12.4477 16.4477 12 17 12C17.5523 12 18 12.4477 18 13V15.8887C18 16.4486 17.7777 16.9859 17.3818 17.3818C16.9859 17.7777 16.4486 18 15.8887 18H13C12.4477 18 12 17.5523 12 17C12 16.4477 12.4477 16 13 16H15.8887C15.9181 16 15.9469 15.9886 15.9678 15.9678C15.9886 15.9469 16 15.9181 16 15.8887ZM6 11V8.11133C6 7.55143 6.22225 7.01407 6.61816 6.61816C7.01407 6.22225 7.55143 6 8.11133 6H11C11.5523 6 12 6.44772 12 7C12 7.55228 11.5523 8 11 8H8.11133C8.08186 8 8.05306 8.01139 8.03223 8.03223C8.01139 8.05306 8 8.08186 8 8.11133V11C8 11.5523 7.55228 12 7 12C6.44772 12 6 11.5523 6 11ZM22 18C22 20.2091 20.2091 22 18 22H6C3.79086 22 2 20.2091 2 18V6C2 3.79086 3.79086 2 6 2H18C20.2091 2 22 3.79086 22 6V18Z" fill="#202327"/>
</g>
<defs>
<clipPath id="clip0_18_15070">
<rect width="24" height="24" fill="white"/>
</clipPath>
</defs>
</svg>
