<svg width="24" height="24" viewBox="0 0 24 24" fill="none" xmlns="http://www.w3.org/2000/svg">
<path d="M14.8293 7.75689L9.17326 13.4139C9.07775 13.5061 9.00157 13.6165 8.94916 13.7385C8.89675 13.8605 8.86917 13.9917 8.86801 14.1245C8.86686 14.2573 8.89216 14.3889 8.94244 14.5118C8.99272 14.6347 9.06698 14.7464 9.16087 14.8403C9.25476 14.9342 9.36641 15.0084 9.48931 15.0587C9.61221 15.109 9.74389 15.1343 9.87667 15.1331C10.0094 15.132 10.1407 15.1044 10.2627 15.052C10.3847 14.9996 10.495 14.9234 10.5873 14.8279L16.2443 9.17189C16.8069 8.60923 17.123 7.8461 17.123 7.05039C17.123 6.25467 16.8069 5.49154 16.2443 4.92889C15.6816 4.36623 14.9185 4.05013 14.1228 4.05013C13.327 4.05013 12.5639 4.36623 12.0013 4.92889L6.34426 10.5859C5.87034 11.048 5.49289 11.5996 5.23382 12.2088C4.97475 12.8179 4.83921 13.4724 4.83506 14.1344C4.83091 14.7963 4.95824 15.4525 5.20966 16.0648C5.46108 16.6771 5.83158 17.2334 6.29968 17.7015C6.76778 18.1695 7.32415 18.5399 7.93652 18.7913C8.54889 19.0426 9.20507 19.1698 9.867 19.1656C10.5289 19.1614 11.1834 19.0257 11.7925 18.7666C12.4016 18.5074 12.9532 18.1299 13.4153 17.6559L19.0723 11.9999L20.4863 13.4139L14.8293 19.0709C14.1792 19.7209 13.4075 20.2366 12.5582 20.5884C11.7089 20.9402 10.7986 21.1212 9.87926 21.1212C8.95996 21.1212 8.04966 20.9402 7.20034 20.5884C6.35102 20.2366 5.57931 19.7209 4.92926 19.0709C4.27922 18.4208 3.76358 17.6491 3.41178 16.7998C3.05998 15.9505 2.87891 15.0402 2.87891 14.1209C2.87891 13.2016 3.05998 12.2913 3.41178 11.442C3.76358 10.5926 4.27922 9.82093 4.92926 9.17089L10.5873 3.51489C11.5303 2.6041 12.7933 2.10013 14.1043 2.11152C15.4153 2.12291 16.6693 2.64875 17.5964 3.57579C18.5234 4.50284 19.0492 5.7569 19.0606 7.06788C19.072 8.37887 18.5681 9.64188 17.6573 10.5849L12.0013 16.2439C11.7226 16.5225 11.3918 16.7435 11.0277 16.8942C10.6637 17.045 10.2735 17.1225 9.87941 17.1225C9.48536 17.1224 9.09519 17.0448 8.73115 16.894C8.36712 16.7431 8.03636 16.5221 7.75776 16.2434C7.47916 15.9647 7.25818 15.6339 7.10743 15.2698C6.95668 14.9058 6.87911 14.5156 6.87916 14.1215C6.8792 13.7275 6.95686 13.3373 7.1077 12.9733C7.25854 12.6092 7.4796 12.2785 7.75826 11.9999L13.4153 6.34289L14.8293 7.75689Z" fill="#151826"/>
</svg>
