<svg width="24" height="24" viewBox="0 0 24 24" fill="none" xmlns="http://www.w3.org/2000/svg">
<path d="M19 5C20.6569 5 22 6.34315 22 8V20C22 21.6569 20.6569 23 19 23H5C3.34315 23 2 21.6569 2 20V8C2 6.34315 3.34315 5 5 5H19ZM10.5547 9.16797C10.2479 8.96346 9.85343 8.94428 9.52832 9.11816C9.24386 9.2704 9.05311 9.54905 9.00977 9.86328L9 10V18C9 18.3688 9.20317 18.7078 9.52832 18.8818C9.85344 19.0557 10.2479 19.0366 10.5547 18.832L16.5547 14.832C16.8329 14.6466 17 14.3343 17 14C17 13.6657 16.8329 13.3534 16.5547 13.168L10.5547 9.16797ZM17 1C17.5523 1 18 1.44772 18 2C18 2.55228 17.5523 3 17 3H7C6.44772 3 6 2.55228 6 2C6 1.44772 6.44772 1 7 1H17Z" fill="#202327"/>
</svg>
