<svg width="24" height="24" viewBox="0 0 24 24" fill="none" xmlns="http://www.w3.org/2000/svg">
<path d="M19 5C20.6569 5 22 6.34315 22 8V20C22 21.6569 20.6569 23 19 23H5C3.34315 23 2 21.6569 2 20V8C2 6.34315 3.34315 5 5 5H19ZM5 7C4.44772 7 4 7.44772 4 8V20C4 20.5523 4.44772 21 5 21H19C19.5523 21 20 20.5523 20 20V8C20 7.44771 19.5523 7 19 7H5ZM9.52832 9.11816C9.85343 8.94427 10.2479 8.96345 10.5547 9.16797L16.5547 13.168C16.8329 13.3534 17 13.6657 17 14C17 14.3343 16.8329 14.6466 16.5547 14.832L10.5547 18.832C10.2479 19.0366 9.85344 19.0557 9.52832 18.8818C9.20317 18.7078 9 18.3688 9 18V10L9.00977 9.86328C9.05311 9.54904 9.24386 9.2704 9.52832 9.11816ZM11 16.1309L14.1973 14L11 11.8682V16.1309ZM17 1C17.5523 1 18 1.44772 18 2C18 2.55228 17.5523 3 17 3H7C6.44772 3 6 2.55228 6 2C6 1.44772 6.44772 1 7 1H17Z" fill="#202327"/>
</svg>
