<svg width="24" height="24" viewBox="0 0 24 24" fill="none" xmlns="http://www.w3.org/2000/svg">
<path d="M10.7344 2.19141C11.9206 2.19158 12.8993 2.51908 13.5537 2.99023C14.203 3.45782 14.4989 4.03136 14.499 4.5957C14.499 6.16203 13.5307 6.99965 12.7764 7C12.3841 7 12.0677 6.89888 11.8828 6.78125C11.7947 6.72508 11.7552 6.67798 11.7412 6.65625C11.7313 6.64078 11.7334 6.6377 11.7334 6.6377C11.733 6.08576 11.2854 5.63777 10.7334 5.6377C10.1814 5.63778 9.73375 6.08576 9.7334 6.6377C9.7334 7.485 10.2393 8.10582 10.8096 8.46875C11.3736 8.82765 12.0793 9 12.7764 9C15.0172 8.99969 16.4989 6.84134 16.499 4.5957C16.499 4.00659 17.1469 3.41029 17.6334 3.74245C18.359 4.2378 19.016 4.82614 19.5869 5.49121C19.6312 5.52346 19.6736 5.5594 19.7129 5.59961L19.7803 5.67676L19.9648 5.91602C20.415 6.51667 20.7916 7.16564 21.0947 7.84766C21.3482 8.40203 21.5536 8.98277 21.7031 9.58594C22.006 9.80864 22.2673 10.085 22.4688 10.4062C22.7681 10.8838 22.9268 11.4364 22.9268 12C22.9268 12.5636 22.7681 13.1162 22.4688 13.5938C22.2675 13.9147 22.0056 14.1895 21.7031 14.4121C20.6237 18.7695 16.6891 22 11.998 22C7.30694 22 3.37132 18.7696 2.29199 14.4121C1.9901 14.1897 1.72924 13.9142 1.52832 13.5938C1.22901 13.1162 1.07031 12.5636 1.07031 12C1.07031 11.4364 1.22901 10.8838 1.52832 10.4062C1.72945 10.0855 1.98973 9.80852 2.29199 9.58594C3.20468 5.90424 6.15714 3.03009 9.88086 2.22754C10.164 2.2054 10.4487 2.19201 10.7344 2.19141ZM10.4219 15.0947C9.96323 14.8793 9.40704 15.0416 9.14062 15.4854C8.87422 15.9294 8.99232 16.4974 9.39844 16.8008L9.4834 16.8574L9.74609 17.001C10.3799 17.3176 11.1601 17.5 11.998 17.5C12.9557 17.5 13.8383 17.2621 14.5127 16.8574C14.9861 16.5732 15.1395 15.9588 14.8555 15.4854C14.5713 15.0119 13.9569 14.8585 13.4834 15.1426C13.1579 15.3379 12.6402 15.5 11.998 15.5C11.4361 15.5 10.9695 15.3757 10.6436 15.2139L10.5127 15.1426L10.4219 15.0947ZM8.99805 11C8.44576 11 7.99805 11.4477 7.99805 12C7.99805 12.5523 8.44576 13 8.99805 13H9.00781L9.11035 12.9951C9.61453 12.9438 10.0078 12.5177 10.0078 12C10.0078 11.4823 9.61453 11.0562 9.11035 11.0049L9.00781 11H8.99805ZM14.998 11C14.4458 11 13.998 11.4477 13.998 12C13.998 12.5523 14.4458 13 14.998 13H15.0078L15.1104 12.9951C15.6145 12.9438 16.0078 12.5177 16.0078 12C16.0078 11.4823 15.6145 11.0562 15.1104 11.0049L15.0078 11H14.998Z" fill="#202327"/>
</svg>
