<svg width="24" height="24" viewBox="0 0 24 24" fill="none" xmlns="http://www.w3.org/2000/svg">
<path d="M13.5742 15.0947C14.033 14.879 14.59 15.0413 14.8564 15.4854C15.1405 15.9589 14.9863 16.5733 14.5127 16.8574L14.251 17.001C13.6172 17.3177 12.837 17.4999 11.999 17.5C11.0414 17.5 10.1588 17.262 9.48438 16.8574L10.5127 15.1426C10.8382 15.3379 11.3567 15.5 11.999 15.5C12.6411 15.4999 13.1589 15.3379 13.4844 15.1426L13.5742 15.0947ZM9.14062 15.4854C9.42473 15.0118 10.0391 14.8586 10.5127 15.1426L9.48438 16.8574C9.01082 16.5733 8.85654 15.9589 9.14062 15.4854ZM9.00879 11L9.11035 11.0049C9.61482 11.0559 10.0088 11.4821 10.0088 12C10.0088 12.5179 9.61482 12.9441 9.11035 12.9951L9.00879 13H8.99902C8.44674 13 7.99902 12.5523 7.99902 12C7.99902 11.4477 8.44674 11 8.99902 11H9.00879ZM15.0088 11C15.561 11.0001 16.0088 11.4478 16.0088 12C16.0088 12.5522 15.561 12.9999 15.0088 13H14.999C14.4467 13 13.999 12.5523 13.999 12C13.999 11.4477 14.4467 11 14.999 11H15.0088ZM14.498 5.5C14.498 5.18861 14.3376 4.84111 13.9141 4.53613C13.4855 4.22772 12.8237 4.00009 11.999 4C10.1584 4.00407 8.37577 4.64305 6.95117 5.80859C5.52617 6.97451 4.54695 8.59639 4.17871 10.4004C4.11635 10.7054 3.91492 10.9638 3.63477 11.0996C3.4657 11.1815 3.32243 11.3096 3.22266 11.4688C3.1229 11.6279 3.07031 11.8122 3.07031 12C3.07031 12.1878 3.1229 12.3721 3.22266 12.5312C3.29745 12.6506 3.39666 12.7521 3.5127 12.8301L3.63477 12.9004L3.73438 12.9561C3.9594 13.0989 4.12022 13.3271 4.17676 13.5908C4.56058 15.3804 5.54633 16.9842 6.96973 18.1348C8.39312 19.2853 10.1678 19.913 11.998 19.9131C13.8284 19.9131 15.6038 19.2854 17.0273 18.1348C18.4507 16.9842 19.4365 15.3804 19.8203 13.5908L19.8516 13.4795C19.9369 13.2273 20.1199 13.0179 20.3623 12.9004C20.5314 12.8185 20.6746 12.6904 20.7744 12.5312C20.8742 12.3721 20.9268 12.1878 20.9268 12C20.9268 11.8122 20.8742 11.6279 20.7744 11.4688C20.6746 11.3096 20.5314 11.1815 20.3623 11.0996C20.079 10.9622 19.8764 10.6997 19.8164 10.3906C19.6014 9.2814 19.1547 8.23178 18.5068 7.31055L18.2168 6.92383L18.1572 6.84082C17.8826 6.41469 17.9702 5.84154 18.375 5.51855C18.7798 5.19561 19.3584 5.23719 19.7129 5.59961L19.7803 5.67676L19.9648 5.91602C20.7808 7.00484 21.3641 8.24854 21.6826 9.57031C21.9943 9.79557 22.2627 10.0777 22.4688 10.4062C22.7681 10.8838 22.9268 11.4364 22.9268 12C22.9268 12.5636 22.7681 13.1162 22.4688 13.5938C22.261 13.9251 21.9899 14.2094 21.6748 14.4355C21.1365 16.5007 19.9508 18.344 18.2852 19.6904C16.5057 21.1288 14.2861 21.9131 11.998 21.9131C9.71017 21.913 7.49121 21.1287 5.71191 19.6904C4.0462 18.344 2.85954 16.5008 2.32129 14.4355C2.00646 14.2095 1.73594 13.9249 1.52832 13.5938C1.22901 13.1162 1.07031 12.5636 1.07031 12C1.07031 11.4364 1.22901 10.8838 1.52832 10.4062C1.73492 10.0767 2.00356 9.79295 2.31641 9.56738C2.83825 7.48628 4.01796 5.62434 5.68457 4.26074C7.46572 2.80344 9.69475 2.00474 11.9961 2H11.998L12.2178 2.00391C13.3084 2.04145 14.3129 2.35867 15.083 2.91309C15.9094 3.50811 16.498 4.41139 16.498 5.5C16.498 7.23955 15.3414 9 13.498 9C12.9459 8.99992 12.3765 8.86384 11.9121 8.56836C11.4413 8.26873 10.998 7.73886 10.998 7C10.998 6.44788 11.446 6.00026 11.998 6C12.511 6 12.9326 6.38634 12.9902 6.88379C13.0773 6.93747 13.255 6.99992 13.498 7C13.8547 7 14.498 6.56045 14.498 5.5Z" fill="#202327"/>
</svg>
