<svg width="24" height="24" viewBox="0 0 24 24" fill="none" xmlns="http://www.w3.org/2000/svg">
<path d="M5.10699 2.46777L22.4578 21.962L22.4567 21.9608H19.1739L18.9657 21.7272H17.7627C17.669 21.2286 17.5753 20.6746 17.4978 20.0777L15.8738 18.2535C15.9524 19.6092 16.1571 20.8041 16.3781 21.7272H13.7084C13.4678 20.6642 13.2873 19.3594 13.2468 17.8938H15.5545L15.0548 17.3316H4.17468L4.45576 15.3039H11.6413L11.8622 13.8592H5.86118L6.14226 11.8523H10.1769L8.89063 10.4075H6.20241L6.5714 7.80141L1.82422 2.46777H5.10699Z" fill="black"/>
<path fill-rule="evenodd" clip-rule="evenodd" d="M9.61473 4.50591H13.167L12.6245 8.39944H12.4036C12.2231 7.41622 12.082 6.19125 12.0022 4.90729H9.95481C9.97794 5.39196 10.0069 5.86737 10.045 6.32775L14.798 11.6672L14.9727 10.4075H21.0744L22.1906 2.47818H7.32674L7.22957 3.1618L9.45395 5.66032L9.61473 4.50476V4.50591ZM15.7962 4.50591H19.3092L18.7667 8.39944H17.603C18.0646 7.37574 18.5469 6.17159 18.968 4.90729H16.9206C16.4591 6.19241 15.9767 7.41622 15.5152 8.39944H15.2537L15.7962 4.50591Z" fill="black"/>
<path d="M18.2624 11.8499C18.2427 11.8499 18.223 11.8505 18.2034 11.8511C18.1837 11.8517 18.1641 11.8522 18.1444 11.8522H14.9634L16.7505 13.8592H20.2531L20.5284 11.8488H18.2624V11.8499Z" fill="black"/>
<path d="M3.57318 21.9678L3.97456 19.1581V19.1569C4.61654 18.7556 5.01793 18.3137 5.29901 17.8926H8.08902C7.30708 19.4785 6.02196 21.2252 3.57318 21.9678Z" fill="black"/>
<path d="M9.61357 21.7272C9.41346 20.6642 9.21219 19.3594 9.19253 17.8938H11.7813C11.8218 19.3987 12.0624 20.7231 12.2833 21.7272H9.61357Z" fill="black"/>
<path d="M21.5324 15.3051L21.256 17.3316H19.8413L18.0368 15.3051H21.5324Z" fill="black"/>
</svg>
