<svg width="24" height="24" viewBox="0 0 24 24" fill="none" xmlns="http://www.w3.org/2000/svg">
<g clip-path="url(#clip0_18_14007)">
<path d="M5.5 12C6.60457 12 7.5 12.8954 7.5 14V19.5C7.5 20.6046 6.60457 21.5 5.5 21.5H4C2.89543 21.5 2 20.6046 2 19.5V14C2 12.8954 2.89543 12 4 12H5.5ZM13 2C14.1046 2 15 2.89543 15 4V19.5C15 20.6046 14.1046 21.5 13 21.5H11.5C10.3954 21.5 9.5 20.6046 9.5 19.5V4C9.5 2.89543 10.3954 2 11.5 2H13ZM20 8C21.1046 8 22 8.89543 22 10V19.5C22 20.6046 21.1046 21.5 20 21.5H18.5C17.3954 21.5 16.5 20.6046 16.5 19.5V10C16.5 8.89543 17.3954 8 18.5 8H20Z" fill="#202327"/>
</g>
<defs>
<clipPath id="clip0_18_14007">
<rect width="24" height="24" fill="white"/>
</clipPath>
</defs>
</svg>
