<svg width="24" height="24" viewBox="0 0 24 24" fill="none" xmlns="http://www.w3.org/2000/svg">
<g clip-path="url(#clip0_18_14003)">
<path fill-rule="evenodd" clip-rule="evenodd" d="M11 2C9.89543 2 9 2.89543 9 4V19.5C9 20.6046 9.89543 21.5 11 21.5H13C14.1046 21.5 15 20.6046 15 19.5V4C15 2.89543 14.1046 2 13 2H11ZM11 4H13V19.5H11V4ZM16 10C16 8.89543 16.8954 8 18 8H20C21.1046 8 22 8.89543 22 10V19.5C22 20.6046 21.1046 21.5 20 21.5H18C16.8954 21.5 16 20.6046 16 19.5V10ZM20 10H18V19.5H20V10ZM2 14C2 12.8954 2.89543 12 4 12H6C7.10457 12 8 12.8954 8 14V19.5C8 20.6046 7.10457 21.5 6 21.5H4C2.89543 21.5 2 20.6046 2 19.5V14ZM6 14H4V19.5H6V14Z" fill="#202327"/>
</g>
<defs>
<clipPath id="clip0_18_14003">
<rect width="24" height="24" fill="white"/>
</clipPath>
</defs>
</svg>
