<svg width="24" height="24" viewBox="0 0 24 24" fill="none" xmlns="http://www.w3.org/2000/svg">
<path d="M12.002 13.0002L18.002 22.0002H6.00197L12.002 13.0002ZM12.002 16.6002L9.74197 20.0002H14.262L12.002 16.6002ZM10.942 10.5602C10.7946 10.4229 10.6764 10.2573 10.5944 10.0733C10.5124 9.88928 10.4683 9.69065 10.4648 9.48925C10.4612 9.28784 10.4983 9.08778 10.5737 8.90101C10.6492 8.71423 10.7615 8.54456 10.9039 8.40213C11.0463 8.25969 11.216 8.1474 11.4028 8.07196C11.5896 7.99652 11.7896 7.95947 11.991 7.96302C12.1924 7.96657 12.391 8.01066 12.575 8.09264C12.759 8.17462 12.9246 8.29283 13.062 8.4402C13.3269 8.72455 13.4712 9.10065 13.4643 9.48925C13.4575 9.87785 13.3 10.2486 13.0252 10.5234C12.7504 10.7983 12.3796 10.9557 11.991 10.9626C11.6024 10.9694 11.2263 10.8252 10.942 10.5602ZM5.28297 2.7832L6.69797 4.1982C5.29163 5.6047 4.50157 7.51223 4.50157 9.5012C4.50157 11.4902 5.29163 13.3977 6.69797 14.8042L5.28297 16.2192C4.40067 15.337 3.70078 14.2897 3.22328 13.137C2.74577 11.9843 2.5 10.7489 2.5 9.5012C2.5 8.25353 2.74577 7.01808 3.22328 5.86539C3.70078 4.71271 4.40067 3.66538 5.28297 2.7832ZM18.719 2.7832C19.6013 3.66538 20.3012 4.71271 20.7787 5.86539C21.2562 7.01808 21.5019 8.25353 21.5019 9.5012C21.5019 10.7489 21.2562 11.9843 20.7787 13.137C20.3012 14.2897 19.6013 15.337 18.719 16.2192L17.304 14.8042C18.7103 13.3977 19.5004 11.4902 19.5004 9.5012C19.5004 7.51223 18.7103 5.6047 17.304 4.1982L18.719 2.7832ZM8.11197 5.6112L9.52597 7.0252C9.20093 7.35021 8.94309 7.73607 8.76717 8.16073C8.59126 8.58539 8.50072 9.04055 8.50072 9.5002C8.50072 9.95986 8.59126 10.415 8.76717 10.8397C8.94309 11.2643 9.20093 11.6502 9.52597 11.9752L8.11197 13.3892C7.08057 12.3578 6.50115 10.9589 6.50115 9.5002C6.50115 8.04156 7.08057 6.64265 8.11197 5.6112ZM15.89 5.6112C16.9214 6.64265 17.5008 8.04156 17.5008 9.5002C17.5008 10.9589 16.9214 12.3578 15.89 13.3892L14.476 11.9752C14.801 11.6502 15.0589 11.2643 15.2348 10.8397C15.4107 10.415 15.5012 9.95986 15.5012 9.5002C15.5012 9.04055 15.4107 8.58539 15.2348 8.16073C15.0589 7.73607 14.801 7.35021 14.476 7.0252L15.89 5.6112Z" fill="#151826"/>
</svg>
