<svg width="24" height="24" viewBox="0 0 24 24" fill="none" xmlns="http://www.w3.org/2000/svg">
<path fill-rule="evenodd" clip-rule="evenodd" d="M10.7666 6H4C2.34315 6 1 7.34315 1 9V15C1 16.6569 2.34315 18 4 18H6.53857L10.234 13.0001H8.0002C7.63993 13.0001 7.30751 12.8063 7.13 12.4928C6.95249 12.1792 6.95735 11.7945 7.14271 11.4856L10.7666 6ZM8.97193 18H16C17.6569 18 19 16.6569 19 15V9C19 7.34315 17.6569 6 16 6H13.1057C13.0821 6.08376 13.0471 6.16581 13.0002 6.24402L9.76639 11.0001H12.0002C12.3605 11.0001 12.6929 11.1938 12.8704 11.5074C13.0479 11.8209 13.0431 12.2056 12.8577 12.5146L8.97193 18ZM23 11C23 10.4477 22.5523 10 22 10C21.4477 10 21 10.4477 21 11V13C21 13.5523 21.4477 14 22 14C22.5523 14 23 13.5523 23 13V11Z" fill="#202327"/>
</svg>
