<svg width="24" height="24" viewBox="0 0 24 24" fill="none" xmlns="http://www.w3.org/2000/svg">
<path fill-rule="evenodd" clip-rule="evenodd" d="M11.5145 6.14266C11.9881 6.42681 12.1416 7.04107 11.8575 7.51465L9.76619 11.0002H12C12.3603 11.0002 12.6927 11.1939 12.8702 11.5075C13.0477 11.821 13.0429 12.2057 12.8575 12.5146L9.85749 17.5146C9.57334 17.9882 8.95908 18.1418 8.4855 17.8576C8.01192 17.5735 7.85836 16.9592 8.14251 16.4857L10.2338 13.0002H8C7.63973 13.0002 7.30731 12.8064 7.1298 12.4928C6.95229 12.1793 6.95715 11.7946 7.14251 11.4857L10.1425 6.48566C10.4267 6.01208 11.0409 5.85851 11.5145 6.14266ZM1.87868 6.87883C2.44129 6.31622 3.20435 6.00015 4 6.00015H6C6.55228 6.00015 7 6.44787 7 7.00015C7 7.55244 6.55228 8.00015 6 8.00015H4C3.73478 8.00015 3.48043 8.10551 3.29289 8.29304C3.10536 8.48058 3 8.73493 3 9.00015V15.0002C3 15.2654 3.10536 15.5197 3.29289 15.7073C3.48043 15.8948 3.73478 16.0002 4 16.0002H5C5.55228 16.0002 6 16.4479 6 17.0002C6 17.5524 5.55228 18.0002 5 18.0002H4C3.20435 18.0002 2.44129 17.6841 1.87868 17.1215C1.31607 16.5589 1 15.7958 1 15.0002V9.00015C1 8.2045 1.31607 7.44144 1.87868 6.87883ZM14 7.00015C14 6.44787 14.4477 6.00015 15 6.00015H16C16.7956 6.00015 17.5587 6.31622 18.1213 6.87883C18.6839 7.44144 19 8.2045 19 9.00015V15.0002C19 15.7958 18.6839 16.5589 18.1213 17.1215C17.5587 17.6841 16.7957 18.0002 16 18.0002H14C13.4477 18.0002 13 17.5524 13 17.0002C13 16.4479 13.4477 16.0002 14 16.0002H16C16.2652 16.0002 16.5196 15.8948 16.7071 15.7073C16.8946 15.5197 17 15.2654 17 15.0002V9.00015C17 8.73494 16.8946 8.48058 16.7071 8.29304C16.5196 8.10551 16.2652 8.00015 16 8.00015H15C14.4477 8.00015 14 7.55244 14 7.00015ZM22 10.0002C22.5523 10.0002 23 10.4479 23 11.0002V13.0002C23 13.5524 22.5523 14.0002 22 14.0002C21.4477 14.0002 21 13.5524 21 13.0002V11.0002C21 10.4479 21.4477 10.0002 22 10.0002Z" fill="#202327"/>
</svg>
