<svg width="24" height="24" viewBox="0 0 24 24" fill="none" xmlns="http://www.w3.org/2000/svg">
<path fill-rule="evenodd" clip-rule="evenodd" d="M7.04952 3.05025C8.36228 1.7375 10.1428 1 11.9993 1C13.8558 1 15.6363 1.7375 16.949 3.05025C18.2618 4.36301 18.9993 6.14349 18.9993 8C18.9993 10.1449 19.3352 11.479 19.7747 12.4093C20.2153 13.3419 20.7913 13.9444 21.457 14.6307C21.4644 14.6384 21.4717 14.6461 21.4789 14.654C21.7398 14.9407 21.9117 15.297 21.9738 15.6796C22.0359 16.0622 21.9855 16.4546 21.8287 16.809C21.6719 17.1635 21.4155 17.4648 21.0906 17.6762C20.7659 17.8876 20.3867 18.0001 19.9993 18H3.99927C3.61163 17.9997 3.23169 17.8868 2.90705 17.6749C2.58241 17.4631 2.32633 17.1615 2.16995 16.8068C2.01358 16.4521 1.96365 16.0596 2.02625 15.677C2.08885 15.2945 2.26127 14.9384 2.52254 14.652C2.52924 14.6447 2.53606 14.6374 2.54298 14.6303C3.20751 13.9442 3.78314 13.3419 4.2237 12.4092C4.66316 11.479 4.99927 10.1447 4.99927 8C4.99927 6.14348 5.73677 4.36301 7.04952 3.05025ZM9.76717 20.134C10.2454 19.8578 10.857 20.0217 11.1332 20.5C11.221 20.652 11.3472 20.7782 11.4992 20.866C11.6512 20.9537 11.8237 20.9999 11.9992 20.9999C12.1747 20.9999 12.3472 20.9537 12.4992 20.866C12.6512 20.7782 12.7774 20.652 12.8652 20.5C13.1414 20.0217 13.753 19.8578 14.2313 20.134C14.7095 20.4102 14.8734 21.0218 14.5972 21.5C14.3339 21.9561 13.9552 22.3347 13.4991 22.598C13.0431 22.8613 12.5258 22.9999 11.9992 22.9999C11.4726 22.9999 10.9553 22.8613 10.4993 22.598C10.0432 22.3347 9.66453 21.9561 9.40121 21.5C9.12505 21.0218 9.28889 20.4102 9.76717 20.134Z" fill="#202327"/>
</svg>
