<svg width="24" height="24" viewBox="0 0 24 24" fill="none" xmlns="http://www.w3.org/2000/svg">
<path fill-rule="evenodd" clip-rule="evenodd" d="M14.3577 3.59029C13.5593 3.16339 12.66 2.96126 11.7557 3.00548C10.8515 3.0497 9.97621 3.33861 9.2233 3.84137C8.76401 4.14808 8.14304 4.02437 7.83634 3.56508C7.52964 3.10578 7.65334 2.48482 8.11264 2.17812C9.1667 1.47425 10.3921 1.06978 11.6581 1.00787C12.924 0.945959 14.183 1.22894 15.3007 1.8266C16.4185 2.42426 17.3529 3.31418 18.0044 4.4014C18.6559 5.4886 19 6.73229 19 7.99975C19 10.4824 19.7076 12.2555 20.5375 13.4927C20.8451 13.9514 20.7227 14.5726 20.264 14.8802C19.8053 15.1879 19.1841 15.0654 18.8765 14.6068C17.8323 13.05 17 10.8911 17 7.99975V7.99971C17 7.09437 16.7542 6.20601 16.2889 5.42943C15.8235 4.65285 15.156 4.01719 14.3577 3.59029ZM1.29289 1.29265C1.68342 0.902125 2.31658 0.902125 2.70711 1.29265L6.95227 5.53781C6.96059 5.54584 6.96875 5.55401 6.97677 5.56231L22.7071 21.2926C23.0976 21.6832 23.0976 22.3163 22.7071 22.7069C22.3166 23.0974 21.6834 23.0974 21.2929 22.7069L16.5858 17.9998H4.00035C4.00023 17.9998 4.00011 17.9998 3.99999 17.9998C3.61252 17.9999 3.23337 17.8874 2.90862 17.676C2.58377 17.4646 2.32736 17.1633 2.17057 16.8088C2.01378 16.4544 1.96337 16.062 2.02547 15.6794C2.08757 15.2968 2.2595 14.9405 2.52035 14.6538C2.52752 14.6459 2.53482 14.6382 2.54223 14.6305C3.20797 13.9443 3.78399 13.3417 4.22457 12.4091C4.66408 11.4789 4.99997 10.1448 4.99999 8.00006M14.5858 15.9998L6.99615 8.41012C6.95553 10.5471 6.59552 12.0726 6.03291 13.2635C5.44275 14.5126 4.65996 15.3199 4.00035 15.9998H14.5858ZM5.14878 6.56275C5.04986 7.03482 4.99989 7.51639 4.99999 7.99981L5.14878 6.56275ZM5.14878 6.56275L1.29289 2.70686C0.902369 2.31634 0.902369 1.68317 1.29289 1.29265M9.7679 20.1338C10.2462 19.8576 10.8578 20.0214 11.1339 20.4997C11.2217 20.6517 11.348 20.7779 11.5 20.8657C11.652 20.9535 11.8244 20.9997 11.9999 20.9997C12.1755 20.9997 12.3479 20.9535 12.4999 20.8657C12.6519 20.7779 12.7782 20.6517 12.8659 20.4997C13.1421 20.0214 13.7537 19.8576 14.232 20.1338C14.7103 20.4099 14.8741 21.0215 14.5979 21.4998C14.3346 21.9558 13.9559 22.3345 13.4999 22.5978C13.0438 22.8611 12.5265 22.9997 11.9999 22.9997C11.4734 22.9997 10.9561 22.8611 10.5 22.5978C10.044 22.3345 9.66526 21.9558 9.40194 21.4998C9.12578 21.0215 9.28962 20.4099 9.7679 20.1338Z" fill="#202327"/>
</svg>
