<svg width="24" height="24" viewBox="0 0 24 24" fill="none" xmlns="http://www.w3.org/2000/svg">
<path fill-rule="evenodd" clip-rule="evenodd" d="M19.3697 14.9917C19.1576 14.9639 18.9537 14.8682 18.7929 14.7074L7.83634 3.56557C7.52964 3.10627 7.65334 2.48531 8.11264 2.17861C9.1667 1.47474 10.3921 1.07027 11.6581 1.00836C12.924 0.946448 14.183 1.22942 15.3007 1.82709C15.7234 2.0531 16.1199 2.32091 16.4848 2.62537C16.614 2.69712 16.7256 2.79668 16.8117 2.91595C17.273 3.3526 17.6749 3.85201 18.0044 4.40189C18.6559 5.48909 19 6.73278 19 8.00023C19 10.4829 19.7076 12.2559 20.5375 13.4932C20.8451 13.9519 20.7227 14.5731 20.264 14.8807C19.9901 15.0645 19.6582 15.0948 19.3697 14.9917ZM2.70711 1.29314C2.31658 0.902613 1.68342 0.902613 1.29289 1.29314C0.902369 1.68366 0.902369 2.31683 1.29289 2.70735L5.14878 6.56324C5.14878 6.56324 4.66408 11.4794 4.22457 12.4096C3.78399 13.3422 3.20797 13.9447 2.54223 14.631C2.53482 14.6387 2.52752 14.6464 2.52035 14.6543C2.2595 14.941 2.08757 15.2973 2.02547 15.6799C1.96337 16.0625 2.01378 16.4549 2.17057 16.8093C2.32736 17.1638 2.58377 17.4651 2.90862 17.6765C3.23337 17.8879 3.61288 18.0004 4.00035 18.0003H16.5858L21.2929 22.7074C21.6834 23.0979 22.3166 23.0979 22.7071 22.7074C23.0976 22.3168 23.0976 21.6837 22.7071 21.2931L6.97677 5.5628C6.96875 5.5545 6.96059 5.54633 6.95227 5.5383L2.70711 1.29314ZM11.1339 20.5002C10.8578 20.0219 10.2462 19.8581 9.7679 20.1342C9.28962 20.4104 9.12578 21.022 9.40194 21.5003C9.66526 21.9563 10.044 22.335 10.5 22.5983C10.9561 22.8616 11.4734 23.0002 11.9999 23.0002C12.5265 23.0002 13.0438 22.8616 13.4999 22.5983C13.9559 22.335 14.3346 21.9563 14.5979 21.5003C14.8741 21.022 14.7103 20.4104 14.232 20.1342C13.7537 19.8581 13.1421 20.0219 12.8659 20.5002C12.7782 20.6522 12.6519 20.7784 12.4999 20.8662C12.3479 20.954 12.1755 21.0002 11.9999 21.0002C11.8244 21.0002 11.652 20.954 11.5 20.8662C11.348 20.7784 11.2217 20.6522 11.1339 20.5002Z" fill="#202327"/>
</svg>
