<svg width="24" height="24" viewBox="0 0 24 24" fill="none" xmlns="http://www.w3.org/2000/svg">
<g clip-path="url(#clip0_308_50)">
<path d="M5 6.5L12 3L19 6.5L12 10.5L5 6.5Z" fill="#202327" stroke="#202327" stroke-width="2" stroke-linejoin="round"/>
<path d="M3 17.5V9.5L10 14V21.5L3 17.5Z" fill="#202327" stroke="#202327" stroke-width="2" stroke-linejoin="round"/>
<path d="M21 17.5V9.5L14 14V21.5L21 17.5Z" fill="#202327" stroke="#202327" stroke-width="2" stroke-linejoin="round"/>
<path d="M2.52051 8.62217C2.84158 8.44688 3.23331 8.46147 3.54102 8.65928L10.541 13.1593C10.827 13.3433 11 13.66 11 14.0001V21.5001C11 21.8566 10.8103 22.1864 10.502 22.3653C10.1937 22.5442 9.81337 22.5451 9.50391 22.3683L2.50391 18.3683C2.19233 18.1902 2 17.859 2 17.5001V9.5001C2 9.13435 2.19952 8.79749 2.52051 8.62217ZM20.459 8.65928C20.7667 8.46147 21.1584 8.44688 21.4795 8.62217C21.8005 8.79749 22 9.13435 22 9.5001V17.5001C22 17.859 21.8077 18.1902 21.4961 18.3683L14.4961 22.3683C14.1866 22.5451 13.8063 22.5442 13.498 22.3653C13.1897 22.1864 13 21.8566 13 21.5001V14.0001C13 13.66 13.173 13.3433 13.459 13.1593L20.459 8.65928ZM11.5527 2.10557C11.8343 1.96481 12.1657 1.96481 12.4473 2.10557L19.4473 5.60557C19.7771 5.7705 19.9898 6.10411 20 6.47276C20.0101 6.84126 19.8162 7.18536 19.4961 7.36827L12.4961 11.3683C12.1887 11.5439 11.8113 11.5439 11.5039 11.3683L4.50391 7.36827C4.18382 7.18536 3.98992 6.84126 4 6.47276C4.01023 6.10411 4.22287 5.7705 4.55273 5.60557L11.5527 2.10557Z" fill="#202327"/>
</g>
<defs>
<clipPath id="clip0_308_50">
<rect width="24" height="24" fill="white"/>
</clipPath>
</defs>
</svg>
