<svg width="24" height="24" viewBox="0 0 24 24" fill="none" xmlns="http://www.w3.org/2000/svg">
<g clip-path="url(#clip0_18_14255)">
<path d="M11 2C12.6569 2 14 3.34315 14 5V6H15C16.6569 6 18 7.34315 18 9V10H19C20.6569 10 22 11.3431 22 13V19C22 20.6569 20.6569 22 19 22H13C11.3431 22 10 20.6569 10 19V18H9C7.34315 18 6 16.6569 6 15V14H5C3.34315 14 2 12.6569 2 11V5C2 3.34315 3.34315 2 5 2H11ZM9 8C8.44772 8 8 8.44772 8 9V15C8 15.5523 8.44772 16 9 16H15C15.5523 16 16 15.5523 16 15V9C16 8.44772 15.5523 8 15 8H9Z" fill="#202327"/>
</g>
<defs>
<clipPath id="clip0_18_14255">
<rect width="24" height="24" fill="white"/>
</clipPath>
</defs>
</svg>
