<svg width="24" height="24" viewBox="0 0 24 24" fill="none" xmlns="http://www.w3.org/2000/svg">
<g clip-path="url(#clip0_18_15839)">
<path d="M4.19049 1.19281C4.58098 0.802323 5.21402 0.802388 5.60455 1.19281C5.99507 1.58334 5.99507 2.21635 5.60455 2.60688C2.20486 6.00667 2.09895 11.5249 5.28619 15.0571L5.60455 15.393L5.67389 15.4682C5.99431 15.861 5.97069 16.4409 5.60455 16.8071C5.23842 17.173 4.65936 17.1957 4.26666 16.8754L4.19049 16.8071L3.80084 16.3969C-0.0957861 12.0796 0.0341415 5.34926 4.19049 1.19281ZM21.0225 8.94965C21.0225 7.77167 20.7902 6.60514 20.3389 5.51703C19.944 4.5649 19.3877 3.68877 18.6963 2.92719L18.3917 2.60785L18.3223 2.53168C18.0019 2.13935 18.0243 1.56022 18.3897 1.19379C18.7555 0.827224 19.3355 0.803323 19.7286 1.12348L19.8038 1.19184L20.1768 1.58246C21.0227 2.5141 21.7024 3.58565 22.1856 4.75043C22.7378 6.08156 23.0225 7.50854 23.0225 8.94965C23.0225 10.3907 22.7377 11.8177 22.1856 13.1489C21.6334 14.4801 20.8239 15.6894 19.8038 16.7075C19.4128 17.0975 18.7798 17.0974 18.3897 16.7065C17.9996 16.3156 18.0008 15.6825 18.3917 15.2924C19.2256 14.4602 19.8875 13.4715 20.3389 12.3832C20.7904 11.295 21.0225 10.1278 21.0225 8.94965ZM15.4903 4.0932C15.8564 3.72709 16.4364 3.70351 16.8292 4.02387L16.9044 4.0932L17.1192 4.31684C19.2678 6.66573 19.4846 10.1504 17.8477 12.7963C17.5571 13.2657 16.9413 13.4109 16.4717 13.1205C16.0021 12.83 15.857 12.2133 16.1475 11.7436C17.3391 9.81719 17.1571 7.32141 15.6417 5.66449L15.4903 5.50727L15.4219 5.4311C15.1017 5.03843 15.1245 4.45933 15.4903 4.0932ZM7.07818 4.00531C7.46166 3.60804 8.09486 3.5966 8.49224 3.97992C8.88952 4.36334 8.90082 4.99657 8.51764 5.39399C7.7235 6.21682 7.22589 7.28131 7.10455 8.4184C6.98325 9.55557 7.24497 10.7014 7.84771 11.6733L7.89752 11.7622C8.11982 12.2177 7.96451 12.7764 7.52447 13.0493C7.05512 13.3403 6.43859 13.1963 6.14752 12.727L5.99615 12.4711C5.26702 11.1782 4.95831 9.68737 5.11627 8.20649C5.28477 6.62685 5.97498 5.14837 7.07818 4.00531ZM14.9981 9.00043C14.9979 10.1845 14.3099 11.2051 13.3135 11.6928L16.9376 21.6586L16.9678 21.7563C17.0918 22.2475 16.8262 22.7629 16.3399 22.9399C15.8533 23.1168 15.3182 22.8924 15.0977 22.436L15.0577 22.3413L13.8428 19.0004H10.1524L8.93756 22.3413L8.89752 22.436C8.6771 22.8922 8.14279 23.1166 7.65631 22.9399C7.13743 22.7512 6.86927 22.1775 7.05767 21.6586L10.6807 11.6928C9.68493 11.2049 8.99829 10.1841 8.9981 9.00043C8.9981 7.34358 10.3412 6.00043 11.9981 6.00043C13.6548 6.00063 14.9981 7.3437 14.9981 9.00043Z" fill="#202327"/>
</g>
<defs>
<clipPath id="clip0_18_15839">
<rect width="24" height="24" fill="white"/>
</clipPath>
</defs>
</svg>
