<svg width="24" height="24" viewBox="0 0 24 24" fill="none" xmlns="http://www.w3.org/2000/svg">
<g clip-path="url(#clip0_18_13942)">
<path fill-rule="evenodd" clip-rule="evenodd" d="M4.58579 22.3141C4.96086 22.6892 5.46957 22.8999 6 22.8999H18C18.5304 22.8999 19.0391 22.6892 19.4142 22.3141C19.7893 21.939 20 21.4303 20 20.8999V12.632C20.1501 12.5453 20.2895 12.4388 20.4142 12.3141C20.7893 11.939 21 11.4303 21 10.8999V9.8999C21 9.10425 20.6839 8.34119 20.1213 7.77858C19.5587 7.21597 18.7957 6.8999 18 6.8999L15 6.8999V3.9999C15 3.20425 14.6839 2.44119 14.1213 1.87858C13.5587 1.31597 12.7957 0.999903 12 0.999903C11.2043 0.999903 10.4413 1.31597 9.87868 1.87858C9.31607 2.44119 9 3.20425 9 3.9999V6.8999H6C5.20435 6.8999 4.44129 7.21597 3.87868 7.77858C3.31607 8.34119 3 9.10425 3 9.8999V10.8999C3 11.4303 3.21071 11.939 3.58579 12.3141C3.71046 12.4388 3.8499 12.5453 4 12.632V20.8999C4 21.4303 4.21071 21.939 4.58579 22.3141ZM6 12.8999H18V20.8999H15V17.8999C15 17.3476 14.5523 16.8999 14 16.8999C13.4477 16.8999 13 17.3476 13 17.8999V20.8999H11V19.8999C11 19.3476 10.5523 18.8999 10 18.8999C9.44772 18.8999 9 19.3476 9 19.8999V20.8999H6L6 12.8999Z" fill="#202327"/>
</g>
<defs>
<clipPath id="clip0_18_13942">
<rect width="24" height="24" fill="white"/>
</clipPath>
</defs>
</svg>
