<svg width="24" height="24" viewBox="0 0 24 24" fill="none" xmlns="http://www.w3.org/2000/svg">
<g clip-path="url(#clip0_18_13938)">
<path d="M5 10.8999V9.8999C5 9.63469 5.10543 9.38041 5.29297 9.19287C5.48051 9.00533 5.73478 8.8999 6 8.8999H9C9.53043 8.8999 10.039 8.68904 10.4141 8.31396C10.7891 7.93889 11 7.43034 11 6.8999V3.99951C11.0001 3.73444 11.1055 3.47993 11.293 3.29248C11.4805 3.10506 11.7349 2.99951 12 2.99951C12.2651 2.99951 12.5195 3.10506 12.707 3.29248C12.8945 3.47993 12.9999 3.73444 13 3.99951V6.8999C13 7.43034 13.2109 7.93889 13.5859 8.31396C13.961 8.68904 14.4696 8.8999 15 8.8999H18C18.2652 8.8999 18.5195 9.00533 18.707 9.19287C18.8946 9.38041 19 9.63469 19 9.8999V10.8999H5ZM15 20.8999V17.8999C15 17.3476 14.5523 16.8999 14 16.8999C13.4477 16.8999 13 17.3476 13 17.8999V20.8999H11V19.8999C11 19.3476 10.5523 18.8999 10 18.8999C9.44772 18.8999 9 19.3476 9 19.8999V20.8999H6V12.8999H18V20.8999H15ZM20 12.6304C20.1498 12.5438 20.2896 12.4384 20.4141 12.314C20.7891 11.9389 21 11.4303 21 10.8999V9.8999C21 9.10425 20.6837 8.34142 20.1211 7.77881C19.5585 7.2162 18.7957 6.8999 18 6.8999H15V3.99951C14.9999 3.204 14.6836 2.44094 14.1211 1.87842C13.5585 1.31593 12.7956 0.999512 12 0.999512C11.2044 0.999512 10.4415 1.31593 9.87891 1.87842C9.31639 2.44094 9.0001 3.204 9 3.99951V6.8999H6C5.20435 6.8999 4.44151 7.2162 3.87891 7.77881C3.3163 8.34142 3 9.10425 3 9.8999V10.8999C3 11.4303 3.21087 11.9389 3.58594 12.314C3.71042 12.4384 3.85017 12.5438 4 12.6304V20.8999C4 21.4303 4.21087 21.9389 4.58594 22.314C4.96101 22.689 5.46957 22.8999 6 22.8999H18C18.5304 22.8999 19.039 22.689 19.4141 22.314C19.7891 21.9389 20 21.4303 20 20.8999V12.6304Z" fill="#202327"/>
</g>
<defs>
<clipPath id="clip0_18_13938">
<rect width="24" height="24" fill="white"/>
</clipPath>
</defs>
</svg>
