<svg width="24" height="24" viewBox="0 0 24 24" fill="none" xmlns="http://www.w3.org/2000/svg">
<g clip-path="url(#clip0_2296_884)">
<path d="M11.5186 1.12328C11.8675 0.931565 12.3054 0.963444 12.625 1.21899L22.625 9.21902C22.8621 9.40873 22.9999 9.69661 23 10.0003V22.0003C23 22.5526 22.5523 23.0003 22 23.0003H16C15.4477 23.0003 15 22.5526 15 22.0003V14.0003H9V22.0003C9 22.5526 8.55228 23.0003 8 23.0003H2C1.44772 23.0003 1 22.5526 1 22.0003V10.0003C1.0001 9.69661 1.13787 9.40873 1.375 9.21902L11.375 1.21899L11.5186 1.12328ZM12 16.0003C12.5522 16.0003 12.9998 16.4482 13 17.0003V22.0003C13 22.5526 12.5523 23.0003 12 23.0003C11.4477 23.0003 11 22.5526 11 22.0003V17.0003C11.0002 16.4482 11.4478 16.0003 12 16.0003Z" fill="#202327"/>
</g>
<defs>
<clipPath id="clip0_2296_884">
<rect width="24" height="24" fill="white"/>
</clipPath>
</defs>
</svg>
