<svg width="24" height="24" viewBox="0 0 24 24" fill="none" xmlns="http://www.w3.org/2000/svg">
<g clip-path="url(#clip0_18_11591)">
<path d="M11.5186 1.12338C11.8676 0.931546 12.3054 0.96339 12.625 1.21908L22.625 9.21908C22.8622 9.40885 23 9.69655 23 10.0003V22.0003C23 22.5526 22.5523 23.0003 22 23.0003H16C15.4477 23.0003 15 22.5526 15 22.0003V14.0003H9V22.0003C9 22.5526 8.55228 23.0003 8 23.0003H2C1.44772 23.0003 1 22.5526 1 22.0003V10.0003C1 9.69655 1.13778 9.40885 1.375 9.21908L11.375 1.21908L11.5186 1.12338ZM11 22.0003V17.0003C11 16.448 11.4477 16.0003 12 16.0003C12.5523 16.0003 13 16.448 13 17.0003V22.0003C13 22.5526 12.5523 23.0003 12 23.0003C11.4477 23.0003 11 22.5526 11 22.0003ZM3 10.4808V21.0003H7V13.0003C7 12.448 7.44772 12.0003 8 12.0003H16C16.5523 12.0003 17 12.448 17 13.0003V21.0003H21V10.4808L12 3.28158L3 10.4808Z" fill="#202327"/>
</g>
<defs>
<clipPath id="clip0_18_11591">
<rect width="24" height="24" fill="white"/>
</clipPath>
</defs>
</svg>
