<svg width="24" height="24" viewBox="0 0 24 24" fill="none" xmlns="http://www.w3.org/2000/svg">
<g clip-path="url(#clip0_18_12651)">
<path d="M19 1C20.1046 1 21 1.89543 21 3V20H22C22.5523 20 23 20.4477 23 21C23 21.5523 22.5523 22 22 22H2C1.44772 22 1 21.5523 1 21C1 20.4477 1.44772 20 2 20H3V12C3 10.8954 3.89543 10 5 10H9V3C9 1.89543 9.89543 1 11 1H19ZM6 15.0039C5.4478 15.0039 5.00013 15.4517 5 16.0039C5 16.5562 5.44772 17.0039 6 17.0039H8C8.55228 17.0039 9 16.5562 9 16.0039C8.99987 15.4517 8.5522 15.0039 8 15.0039H6ZM14 15.0039C13.4478 15.0039 13.0001 15.4517 13 16.0039C13 16.5562 13.4477 17.0039 14 17.0039H16C16.5523 17.0039 17 16.5562 17 16.0039C16.9999 15.4517 16.5522 15.0039 16 15.0039H14ZM14 10.5039C13.4478 10.5039 13.0001 10.9517 13 11.5039C13 12.0562 13.4477 12.5039 14 12.5039H16C16.5523 12.5039 17 12.0562 17 11.5039C16.9999 10.9517 16.5522 10.5039 16 10.5039H14ZM14 6.00391C13.4478 6.00391 13.0001 6.45173 13 7.00391C13 7.55619 13.4477 8.00391 14 8.00391H16C16.5523 8.00391 17 7.55619 17 7.00391C16.9999 6.45173 16.5522 6.00391 16 6.00391H14Z" fill="#202327"/>
</g>
<defs>
<clipPath id="clip0_18_12651">
<rect width="24" height="24" fill="white"/>
</clipPath>
</defs>
</svg>
