<svg width="24" height="24" viewBox="0 0 24 24" fill="none" xmlns="http://www.w3.org/2000/svg">
<g clip-path="url(#clip0_18_12647)">
<path d="M11 3V20H19V3H11ZM8 15.0039L8.10254 15.0098C8.60655 15.0611 8.99988 15.4864 9 16.0039C9 16.5216 8.60666 16.9477 8.10254 16.999L8 17.0039H6C5.44772 17.0039 5 16.5562 5 16.0039C5.00013 15.4517 5.4478 15.0039 6 15.0039H8ZM16 15.0039L16.1025 15.0098C16.6066 15.0611 16.9999 15.4864 17 16.0039C17 16.5216 16.6067 16.9477 16.1025 16.999L16 17.0039H14C13.4477 17.0039 13 16.5562 13 16.0039C13.0001 15.4517 13.4478 15.0039 14 15.0039H16ZM16 10.5039L16.1025 10.5098C16.6066 10.5611 16.9999 10.9864 17 11.5039C17 12.0216 16.6067 12.4477 16.1025 12.499L16 12.5039H14C13.4477 12.5039 13 12.0562 13 11.5039C13.0001 10.9517 13.4478 10.5039 14 10.5039H16ZM16 6.00391L16.1025 6.00977C16.6066 6.06112 16.9999 6.48636 17 7.00391C17 7.52157 16.6067 7.94768 16.1025 7.99902L16 8.00391H14C13.4477 8.00391 13 7.55619 13 7.00391C13.0001 6.45173 13.4478 6.00391 14 6.00391H16ZM5 20H9V12H5V20ZM21 20H22C22.5523 20 23 20.4477 23 21C23 21.5523 22.5523 22 22 22H2C1.44772 22 1 21.5523 1 21C1 20.4477 1.44772 20 2 20H3V12C3 10.8954 3.89543 10 5 10H9V3C9 1.89543 9.89543 1 11 1H19C20.1046 1 21 1.89543 21 3V20Z" fill="#202327"/>
</g>
<defs>
<clipPath id="clip0_18_12647">
<rect width="24" height="24" fill="white"/>
</clipPath>
</defs>
</svg>
