<svg width="24" height="24" viewBox="0 0 24 24" fill="none" xmlns="http://www.w3.org/2000/svg">
<g clip-path="url(#clip0_18_14039)">
<path d="M22 20C22 21.6569 20.6569 23 19 23H5C3.34315 23 2 21.6569 2 20V11H22V20ZM10 15C9.44772 15 9 15.4477 9 16C9 16.5523 9.44772 17 10 17H14C14.5523 17 15 16.5523 15 16C15 15.4477 14.5523 15 14 15H10ZM16 1C16.5523 1 17 1.44772 17 2V3H19C20.6569 3 22 4.34315 22 6V9H2V6C2 4.34315 3.34315 3 5 3H7V2C7 1.44772 7.44772 1 8 1C8.55228 1 9 1.44772 9 2V3H15V2C15 1.44772 15.4477 1 16 1Z" fill="#202327"/>
</g>
<defs>
<clipPath id="clip0_18_14039">
<rect width="24" height="24" fill="white"/>
</clipPath>
</defs>
</svg>
