<svg width="24" height="24" viewBox="0 0 24 24" fill="none" xmlns="http://www.w3.org/2000/svg">
<g clip-path="url(#clip0_18_15092)">
<path d="M14.5 3C14.7967 3 15.0786 3.13144 15.2686 3.35938L17.4688 6H20C20.7957 6 21.5585 6.3163 22.1211 6.87891C22.6837 7.44151 23 8.20435 23 9V18C23 18.7957 22.6837 19.5585 22.1211 20.1211C21.5585 20.6837 20.7957 21 20 21H4C3.20435 21 2.44152 20.6837 1.87891 20.1211C1.3163 19.5585 1 18.7956 1 18V9C1 8.20435 1.3163 7.44152 1.87891 6.87891C2.44152 6.3163 3.20435 6 4 6H6.53125L8.73145 3.35938C8.92144 3.13144 9.20326 3 9.5 3H14.5ZM12 9C9.79086 9 8 10.7909 8 13C8 15.2091 9.79086 17 12 17C14.2091 17 16 15.2091 16 13C16 10.7909 14.2091 9 12 9Z" fill="#202327"/>
</g>
<defs>
<clipPath id="clip0_18_15092">
<rect width="24" height="24" fill="white"/>
</clipPath>
</defs>
</svg>
