<svg width="24" height="24" viewBox="0 0 24 24" fill="none" xmlns="http://www.w3.org/2000/svg">
<g clip-path="url(#clip0_18_15830)">
<path fill-rule="evenodd" clip-rule="evenodd" d="M3.92625 8.01871C3.33323 9.21901 3 10.5706 3 12C3 13.0519 3.18046 14.0617 3.51212 15H7.95769L6.52771 12.5237C6.5185 12.5087 6.50971 12.4934 6.50133 12.478L3.92625 8.01871ZM3.09483 5.54126C1.77715 7.35492 1 9.5867 1 12C1 13.5416 1.31714 15.0092 1.88973 16.341C1.90424 16.381 1.92123 16.4198 1.94051 16.4573C3.48333 19.934 6.77571 22.4621 10.7003 22.924C10.7459 22.9323 10.7918 22.9374 10.8376 22.9393C11.2196 22.9794 11.6074 23 12 23C15.5959 23 18.7887 21.2746 20.7959 18.6065C20.8372 18.5603 20.8738 18.5106 20.9054 18.4584C22.223 16.6448 23 14.4131 23 12C23 10.4585 22.6829 8.991 22.1104 7.65927C22.0958 7.61907 22.0788 7.58008 22.0594 7.54247C20.5163 4.06536 17.2233 1.53724 13.2981 1.07579C13.2534 1.06769 13.2084 1.06273 13.1635 1.06081C12.7812 1.02061 12.393 1 12 1C8.40394 1 5.21092 2.72558 3.20379 5.39389C3.16269 5.4399 3.12631 5.48928 3.09483 5.54126ZM5.15815 6.1526L7.37999 10.0002L8.81993 7.50662C8.8222 7.50263 8.82449 7.49866 8.82681 7.49471L11.4114 3.01894C8.91153 3.18032 6.68964 4.36235 5.15815 6.1526ZM13.6452 3.15003L11.422 7H14.2909C14.3031 6.99978 14.3152 6.99978 14.3274 7H19.4845C18.1607 5.02237 16.0739 3.59866 13.6452 3.15003ZM20.4879 9H16.0423L17.4771 11.4847C17.4828 11.4942 17.4884 11.5038 17.4937 11.5135L20.0737 15.9813C20.6668 14.781 21 13.4294 21 12C21 10.9481 20.8195 9.93834 20.4879 9ZM18.8418 17.8474L16.6199 13.9997L15.1868 16.4813C15.1802 16.4934 15.1733 16.5054 15.1661 16.5172L12.5884 20.9811C15.0883 20.8197 17.3103 19.6377 18.8418 17.8474ZM10.3546 20.8499L12.5778 17H9.71213C9.69795 17.0003 9.68378 17.0003 9.66964 17H4.51555C5.8393 18.9776 7.92603 20.4013 10.3546 20.8499ZM10.2672 15H13.7327L15.4651 12L13.7328 9H10.2671L8.53475 11.9999L10.2672 15Z" fill="#202327"/>
</g>
<defs>
<clipPath id="clip0_18_15830">
<rect width="24" height="24" fill="white"/>
</clipPath>
</defs>
</svg>
