<svg width="24" height="24" viewBox="0 0 24 24" fill="none" xmlns="http://www.w3.org/2000/svg">
<g clip-path="url(#clip0_18_15829)">
<path fill-rule="evenodd" clip-rule="evenodd" d="M12.1127 1.19544C12.1621 1.10814 12.1003 1 12 1C8.92049 1 6.13654 2.26546 4.13979 4.30473C3.98619 4.4616 3.96169 4.70212 4.07288 4.89143L6.66592 9.30636C6.86104 9.63858 7.34276 9.63458 7.53234 9.29917L12.1127 1.19544ZM3.00981 7.03057C2.81809 6.70414 2.34971 6.70275 2.1788 7.04054C1.42481 8.53073 1 10.2158 1 12C1 12.908 1.11001 13.7903 1.31744 14.6343C1.37084 14.8516 1.56851 14.9999 1.79224 14.9999L6.81695 14.9999C7.20351 14.9999 7.44386 14.58 7.24809 14.2467L3.00981 7.03057ZM3.01651 16.9999C2.64287 16.9999 2.40373 17.3939 2.59806 17.713C3.97642 19.9766 6.14919 21.7031 8.72911 22.5055C8.94426 22.5724 9.17493 22.478 9.28955 22.284L11.9662 17.7543C12.1632 17.421 11.9229 16.9999 11.5357 16.9999L9.46006 16.9999C9.44569 17.0002 9.43133 17.0002 9.41698 16.9999L3.01651 16.9999ZM11.6104 22.2878C11.4246 22.6023 11.6348 23 12 23C15.0239 23 17.7629 21.7798 19.7514 19.8049C19.9106 19.6467 19.9357 19.3999 19.8194 19.2079L17.0181 14.5839C16.8222 14.2606 16.3523 14.2632 16.16 14.5886L11.6104 22.2878ZM20.906 17.1416C21.0989 17.4599 21.5576 17.4619 21.7315 17.1329C22.5414 15.6005 23 13.8538 23 12C23 11.1134 22.8951 10.2513 22.6971 9.42545C22.6448 9.20769 22.4477 9.05817 22.2238 9.05717L16.8835 9.03327C16.4929 9.03152 16.2512 9.45826 16.4536 9.79234L20.906 17.1416ZM21.4346 6.34094C21.627 6.66095 21.386 7.0534 21.0127 7.05173L11.9776 7.01129C11.5957 7.00958 11.3566 6.59771 11.5445 6.26526L14.1934 1.57883C14.3015 1.38763 14.5221 1.28822 14.7349 1.34266C17.5702 2.0681 19.9644 3.8952 21.4346 6.34094Z" fill="#202327"/>
</g>
<defs>
<clipPath id="clip0_18_15829">
<rect width="24" height="24" fill="white"/>
</clipPath>
</defs>
</svg>
