<svg width="24" height="24" viewBox="0 0 24 24" fill="none" xmlns="http://www.w3.org/2000/svg">
<g clip-path="url(#clip0_18_15102)">
<path fill-rule="evenodd" clip-rule="evenodd" d="M2.70711 1.29289C2.31658 0.902369 1.68342 0.902369 1.29289 1.29289C0.902369 1.68342 0.902369 2.31658 1.29289 2.70711L4.58579 6H4C3.20435 6 2.44129 6.31607 1.87868 6.87868C1.31607 7.44129 1 8.20435 1 9V18C1 18.7957 1.31607 19.5587 1.87868 20.1213C2.44129 20.6839 3.20435 21 4 21H19.5858L21.2929 22.7071C21.6834 23.0976 22.3166 23.0976 22.7071 22.7071C23.0976 22.3166 23.0976 21.6834 22.7071 21.2929L2.70711 1.29289ZM14.6138 16.028L8.97201 10.3862C8.36633 11.0873 8 12.0009 8 13C8 15.2091 9.79086 17 12 17C12.9991 17 13.9127 16.6337 14.6138 16.028ZM23 9V16.5789C23 17.0243 22.4614 17.2474 22.1464 16.9324L8.65999 3.44597L8.73178 3.35982C8.92177 3.13182 9.20322 3 9.5 3H14.5C14.7968 3 15.0782 3.13182 15.2682 3.35982L17.4684 6H20C20.7957 6 21.5587 6.31607 22.1213 6.87868C22.6839 7.44129 23 8.20435 23 9Z" fill="#202327"/>
</g>
<defs>
<clipPath id="clip0_18_15102">
<rect width="24" height="24" fill="white"/>
</clipPath>
</defs>
</svg>
