<svg width="24" height="24" viewBox="0 0 24 24" fill="none" xmlns="http://www.w3.org/2000/svg">
<path d="M21.226 11.3133C21.5913 11.699 21.5913 12.3026 21.226 12.6883L12.226 22.1883C11.9444 22.4852 11.5104 22.581 11.1303 22.4295C10.7502 22.2779 10.5005 21.91 10.5004 21.5008L10.5004 16.5008L2.50037 16.5008C1.94833 16.5006 1.50049 16.0529 1.50037 15.5008L1.50037 8.50076L1.50525 8.39822C1.55657 7.89421 1.98286 7.50094 2.50037 7.50076L10.5004 7.50075L10.5004 2.50073L10.5121 2.34937C10.5651 2.00281 10.7978 1.70469 11.1303 1.57202C11.5105 1.4205 11.9444 1.51613 12.226 1.81323L21.226 11.3133Z" fill="#202327"/>
</svg>
