<svg width="24" height="24" viewBox="0 0 24 24" fill="none" xmlns="http://www.w3.org/2000/svg">
<g clip-path="url(#clip0_18_14584)">
<path d="M21 10C21 9.44771 20.5523 9 20 9H10C9.44771 9 9 9.44771 9 10V20C9 20.5523 9.44771 21 10 21H20C20.5523 21 21 20.5523 21 20V10ZM17.293 12.293C17.6835 11.9024 18.3165 11.9024 18.707 12.293C19.0976 12.6835 19.0976 13.3165 18.707 13.707L14.707 17.707C14.3165 18.0976 13.6835 18.0976 13.293 17.707L11.293 15.707L11.2246 15.6309C10.9043 15.2381 10.9269 14.6591 11.293 14.293C11.6591 13.9269 12.2381 13.9043 12.6309 14.2246L12.707 14.293L14 15.5859L17.293 12.293ZM15 4C15 3.45228 14.5477 3 14 3H4C3.45228 3 3 3.45228 3 4V14C3 14.5477 3.45228 15 4 15C4.55228 15 5 15.4477 5 16C5 16.5523 4.55228 17 4 17C2.34772 17 1 15.6523 1 14V4C1 2.34772 2.34772 1 4 1H14C15.6523 1 17 2.34772 17 4C17 4.55228 16.5523 5 16 5C15.4477 5 15 4.55228 15 4ZM23 20C23 21.6569 21.6569 23 20 23H10C8.34315 23 7 21.6569 7 20V10C7 8.34315 8.34315 7 10 7H20C21.6569 7 23 8.34315 23 10V20Z" fill="#202327"/>
</g>
<defs>
<clipPath id="clip0_18_14584">
<rect width="24" height="24" fill="white"/>
</clipPath>
</defs>
</svg>
