<svg width="24" height="24" viewBox="0 0 24 24" fill="none" xmlns="http://www.w3.org/2000/svg">
<g clip-path="url(#clip0_18_14588)">
<path d="M20 7C21.6569 7 23 8.34315 23 10V20C23 21.6569 21.6569 23 20 23H10C8.34315 23 7 21.6569 7 20V10C7 8.34315 8.34315 7 10 7H20ZM18.707 12.293C18.341 11.9269 17.7619 11.9044 17.3691 12.2246L17.293 12.293L14 15.5859L12.707 14.293L12.6309 14.2246C12.2381 13.9043 11.6591 13.927 11.293 14.293C10.9269 14.6591 10.9043 15.2381 11.2246 15.6309L11.293 15.707L13.293 17.707L13.3691 17.7754C13.7619 18.0956 14.341 18.0731 14.707 17.707L18.707 13.707L18.7754 13.6309C19.0956 13.2381 19.073 12.6591 18.707 12.293ZM14 1C15.6523 1 17 2.34772 17 4C17 4.55228 16.5523 5 16 5C15.4477 5 15 4.55228 15 4C15 3.45228 14.5477 3 14 3H4C3.45228 3 3 3.45228 3 4V14C3 14.5477 3.45228 15 4 15C4.55228 15 5 15.4477 5 16C5 16.5523 4.55228 17 4 17C2.34772 17 1 15.6523 1 14V4C1 2.34772 2.34772 1 4 1H14Z" fill="#202327"/>
</g>
<defs>
<clipPath id="clip0_18_14588">
<rect width="24" height="24" fill="white"/>
</clipPath>
</defs>
</svg>
