<svg width="24" height="24" viewBox="0 0 24 24" fill="none" xmlns="http://www.w3.org/2000/svg">
<g clip-path="url(#clip0_18_15114)">
<path d="M20.0006 12.0001H4.00063V19.0001C4.00063 19.2654 4.10606 19.5196 4.2936 19.7072C4.48113 19.8947 4.73541 20.0001 5.00063 20.0001H19.0006C19.2658 20.0001 19.5201 19.8947 19.7077 19.7072C19.8952 19.5196 20.0006 19.2654 20.0006 19.0001V12.0001ZM3.68715 7.05678L3.68813 7.05776C3.25209 7.18857 2.91033 7.70435 3.05824 8.30581L3.61098 9.78042L7.56996 8.63003L5.81801 6.42592L3.68715 7.05678ZM7.88539 5.81362L9.64516 8.02651L13.7877 6.82241L12.0495 4.57924L7.88539 5.81362ZM18.443 3.68764C18.3102 3.24488 17.78 2.89797 17.1666 3.06362L14.1071 3.96987L15.8532 6.2228L18.9459 5.32338L18.445 3.69448L18.443 3.68764ZM22.0006 19.0001C22.0006 19.7958 21.6843 20.5586 21.1217 21.1212C20.5591 21.6838 19.7963 22.0001 19.0006 22.0001H5.00063C4.20498 22.0001 3.44214 21.6838 2.87953 21.1212C2.31692 20.5586 2.00063 19.7958 2.00063 19.0001V11.1818L1.16469 8.95131C1.15387 8.92246 1.1435 8.89315 1.13539 8.86342C0.703058 7.2782 1.55668 5.60984 3.11293 5.14272L3.11684 5.14174L11.8834 2.54311C12.0322 2.45312 12.1976 2.40759 12.3629 2.40151L16.6168 1.14174L16.6373 1.13491C18.2203 0.703202 19.8862 1.55366 20.3561 3.10561L21.1559 5.7062L21.1813 5.80288C21.2271 6.03062 21.192 6.26846 21.0807 6.47475C20.9536 6.71042 20.7372 6.88525 20.4801 6.9601L16.0104 8.25893C15.8614 8.34762 15.697 8.39255 15.5319 8.3976L10.0221 10.0001H21.0006C21.5529 10.0001 22.0006 10.4479 22.0006 11.0001V19.0001Z" fill="#202327"/>
</g>
<defs>
<clipPath id="clip0_18_15114">
<rect width="24" height="24" fill="white"/>
</clipPath>
</defs>
</svg>
