<svg width="24" height="24" viewBox="0 0 24 24" fill="none" xmlns="http://www.w3.org/2000/svg">
<g clip-path="url(#clip0_2297_1307)">
<path fill-rule="evenodd" clip-rule="evenodd" d="M21.7071 8.29289C22.0976 8.68342 22.0976 9.31658 21.7071 9.70711L18.7071 12.7071C18.3166 13.0976 17.6834 13.0976 17.2929 12.7071L14.2929 9.70711C13.9024 9.31658 13.9024 8.68342 14.2929 8.29289C14.6834 7.90237 15.3166 7.90237 15.7071 8.29289L17 9.58579V6C17 5.73478 16.8946 5.48043 16.7071 5.29289C16.5196 5.10536 16.2652 5 16 5L13 5C12.4477 5 12 4.55228 12 4C12 3.44772 12.4477 3 13 3L16 3C16.7956 3 17.5587 3.31607 18.1213 3.87868C18.6839 4.44129 19 5.20435 19 6L19 9.58579L20.2929 8.29289C20.6834 7.90237 21.3166 7.90237 21.7071 8.29289ZM19 16V18C19 18.7956 18.6839 19.5587 18.1213 20.1213C17.5587 20.6839 16.7957 21 16 21H5C4.20435 21 3.44129 20.6839 2.87868 20.1213C2.31607 19.5587 2 18.7957 2 18L2 6C2 5.20435 2.31607 4.44129 2.87868 3.87868C3.44129 3.31607 4.20435 3 5 3L9 3C9.55229 3 10 3.44772 10 4C10 4.55228 9.55229 5 9 5L5 5C4.73478 5 4.48043 5.10536 4.29289 5.29289C4.10536 5.48043 4 5.73478 4 6L4 18C4 18.2652 4.10536 18.5196 4.29289 18.7071C4.48043 18.8946 4.73479 19 5 19H16C16.2652 19 16.5196 18.8946 16.7071 18.7071C16.8946 18.5196 17 18.2652 17 18V16C17 15.4477 17.4477 15 18 15C18.5523 15 19 15.4477 19 16Z" fill="#202327"/>
</g>
<defs>
<clipPath id="clip0_2297_1307">
<rect width="24" height="24" fill="white"/>
</clipPath>
</defs>
</svg>
