<svg width="24" height="24" viewBox="0 0 24 24" fill="none" xmlns="http://www.w3.org/2000/svg">
<g clip-path="url(#clip0_18_15125)">
<path d="M11.2441 3H20C21.6569 3 23 4.34315 23 6V18C23 19.6569 21.6569 21 20 21H4C2.34315 21 1 19.6569 1 18V6C1 4.34315 2.34315 3 4 3H4.24414H7H11.2441ZM4 5C3.44772 5 3 5.44772 3 6V18C3 18.5523 3.44772 19 4 19H20C20.5523 19 21 18.5523 21 18V6C21 5.44772 20.5523 5 20 5H4ZM7.58594 10.585C7.22378 10.9469 7 11.4473 7 12C7 13.105 7.895 14 9 14C9.19538 14 9.38415 13.9721 9.5625 13.9199C10.0925 13.7649 10.7305 13.7309 11.1211 14.1211L11.1904 14.1973C11.5106 14.5908 11.4856 15.1759 11.041 15.4404C10.4434 15.7959 9.74536 16 9 16C6.792 16 5 14.208 5 12C5 10.896 5.44788 9.89587 6.17188 9.17188L7.58594 10.585ZM14.5859 10.585C14.2238 10.9469 14 11.4473 14 12C14 13.105 14.895 14 16 14C16.1956 14 16.3848 13.9723 16.5635 13.9199C17.0934 13.7645 17.7306 13.7306 18.1211 14.1211L18.1895 14.1973C18.5098 14.591 18.4859 15.1758 18.041 15.4404C17.4434 15.7959 16.7453 16 16 16C13.792 16 12 14.208 12 12C12 10.8958 12.4476 9.89494 13.1719 9.1709L14.5859 10.585ZM9 8C9.74646 8 10.4451 8.20438 11.043 8.56055C11.5168 8.84285 11.5129 9.48873 11.123 9.87891C10.7323 10.2696 10.0937 10.2355 9.56348 10.0801C9.38483 10.0277 9.19569 10 9 10C8.44775 10 7.94777 10.2234 7.58594 10.585L6.17188 9.17188C6.89587 8.44788 7.896 8 9 8ZM16 8C16.7465 8 17.4451 8.20438 18.043 8.56055C18.5168 8.84285 18.5129 9.48873 18.123 9.87891C17.7323 10.2696 17.0937 10.2355 16.5635 10.0801C16.3848 10.0277 16.1957 10 16 10C15.4477 10 14.9478 10.2234 14.5859 10.585L13.1719 9.1709C13.8958 8.44719 14.8962 8 16 8Z" fill="#202327"/>
</g>
<defs>
<clipPath id="clip0_18_15125">
<rect width="24" height="24" fill="white"/>
</clipPath>
</defs>
</svg>
