<svg width="24" height="24" viewBox="0 0 24 24" fill="none" xmlns="http://www.w3.org/2000/svg">
<g clip-path="url(#clip0_18_15130)">
<path d="M20 3C21.6569 3 23 4.34315 23 6V18C23 19.6569 21.6569 21 20 21H4C2.34315 21 1 19.6569 1 18V6C1 4.34315 2.34315 3 4 3H20ZM9 8C6.792 8 5 9.792 5 12C5 14.208 6.792 16 9 16C9.74536 16 10.4434 15.7959 11.041 15.4404C11.5152 15.1583 11.5113 14.5113 11.1211 14.1211C10.7305 13.7309 10.0925 13.7649 9.5625 13.9199C9.38415 13.9721 9.19538 14 9 14C7.895 14 7 13.105 7 12C7 10.895 7.895 10 9 10C9.19569 10 9.38483 10.0277 9.56348 10.0801C10.0937 10.2355 10.7323 10.2696 11.123 9.87891C11.5129 9.48873 11.5168 8.84285 11.043 8.56055C10.4451 8.20438 9.74646 8 9 8ZM16 8C13.792 8 12 9.792 12 12C12 14.208 13.792 16 16 16C16.7453 16 17.4434 15.7959 18.041 15.4404C18.5155 15.1581 18.5114 14.5115 18.1211 14.1211C17.7306 13.7306 17.0934 13.7645 16.5635 13.9199C16.3848 13.9723 16.1956 14 16 14C14.895 14 14 13.105 14 12C14 10.895 14.895 10 16 10C16.1957 10 16.3848 10.0277 16.5635 10.0801C17.0937 10.2355 17.7323 10.2696 18.123 9.87891C18.5129 9.48873 18.5168 8.84285 18.043 8.56055C17.4451 8.20438 16.7465 8 16 8Z" fill="#202327"/>
</g>
<defs>
<clipPath id="clip0_18_15130">
<rect width="24" height="24" fill="white"/>
</clipPath>
</defs>
</svg>
