<svg width="24" height="24" viewBox="0 0 24 24" fill="none" xmlns="http://www.w3.org/2000/svg">
<path d="M19.3691 3.22437C19.7618 2.90402 20.3408 2.92662 20.707 3.29273C21.0731 3.65885 21.0957 4.23785 20.7753 4.63063L20.707 4.7068L13.414 11.9998L20.707 19.2927L20.7753 19.3689C21.0957 19.7617 21.0731 20.3407 20.707 20.7068C20.3408 21.0729 19.7618 21.0955 19.3691 20.7752L19.2929 20.7068L11.9999 13.4138L4.70696 20.7068C4.31643 21.0973 3.68342 21.0973 3.29289 20.7068C2.90237 20.3163 2.90237 19.6833 3.29289 19.2927L10.5859 11.9998L3.29289 4.7068L3.22453 4.63063C2.90418 4.23785 2.92678 3.65885 3.29289 3.29273C3.65901 2.92662 4.23801 2.90402 4.63078 3.22437L4.70696 3.29273L11.9999 10.5857L19.2929 3.29273L19.3691 3.22437Z" fill="#202327"/>
</svg>
