<svg width="24" height="24" viewBox="0 0 24 24" fill="none" xmlns="http://www.w3.org/2000/svg">
<g clip-path="url(#clip0_18_15800)">
<path fill-rule="evenodd" clip-rule="evenodd" d="M2.70711 1.29289C2.31658 0.902369 1.68342 0.902369 1.29289 1.29289C0.902369 1.68342 0.902369 2.31658 1.29289 2.70711L4.89854 6.31276C4.32446 7.41616 4 8.67019 4 10C4 10.2634 4.01276 10.524 4.03774 10.7813C2.22469 11.8126 1 13.7623 1 16C1 19.3137 3.68629 22 7 22H12H17C18.036 22 19.0106 21.7374 19.861 21.2752L21.2929 22.7071C21.6834 23.0976 22.3166 23.0976 22.7071 22.7071C23.0976 22.3166 23.0976 21.6834 22.7071 21.2929L21.4447 20.0305L21.459 20.0147L20.0419 18.5975C20.0373 18.603 20.0326 18.6084 20.028 18.6138L7.47453 6.06031C7.47921 6.05494 7.48389 6.04958 7.48859 6.04423L6.07211 4.62775C6.06733 4.63302 6.06256 4.6383 6.05779 4.64358L2.70711 1.29289ZM6.40761 7.82182C6.14442 8.49704 6 9.23165 6 10C6 10.4003 6.03906 10.7905 6.11329 11.1673L6.27316 11.9789L5.50592 12.2881C4.03515 12.8808 3 14.3207 3 16C3 18.2091 4.79086 20 7 20H12H17.0001C17.4619 20 17.9188 19.92 18.3508 19.765L6.40761 7.82182ZM15.4253 10.2103C15.1889 10.2746 15.1234 10.5678 15.2967 10.7411L16.1912 11.6356C16.4358 11.8802 16.7784 11.9912 17.1241 12.0019C17.3768 12.0098 17.6291 12.0416 17.8776 12.0974C18.5139 12.2405 19.1056 12.537 19.601 12.9611C20.0965 13.3852 20.4808 13.924 20.7204 14.5306C20.8862 14.9504 20.9792 15.3939 20.9969 15.842C20.999 15.8944 21 15.9471 21 16C21 16.0527 20.999 16.1051 20.997 16.1573C20.9904 16.3251 21.0467 16.4911 21.1655 16.6098L22.3038 17.7482C22.4568 17.9011 22.7156 17.8435 22.7744 17.6354C22.9049 17.1739 22.9815 16.6897 22.997 16.1902C23.001 16.064 23.0011 15.9379 22.9971 15.8119C22.9549 14.4408 22.4528 13.1862 21.6404 12.1964C21.4175 11.9245 21.1705 11.6718 20.9015 11.4417C20.8411 11.39 20.7797 11.3395 20.7175 11.2903C20.4796 11.1024 20.2272 10.932 19.9623 10.7813C19.9872 10.524 20 10.2634 20 10C20 5.58172 16.4183 2 12 2C10.9114 2 9.87355 2.21744 8.92756 2.61126C8.3097 2.86847 8.21824 3.6626 8.69148 4.13585C9.01275 4.45712 9.50249 4.52388 9.9289 4.36705C10.5744 4.12962 11.2721 4 12 4C15.3137 4 18 6.68629 18 10C18 10.028 17.9998 10.0559 17.9994 10.0838C17.1436 9.93925 16.2653 9.98187 15.4253 10.2103Z" fill="#202327"/>
</g>
<defs>
<clipPath id="clip0_18_15800">
<rect width="24" height="24" fill="white"/>
</clipPath>
</defs>
</svg>
