<svg width="24" height="24" viewBox="0 0 24 24" fill="none" xmlns="http://www.w3.org/2000/svg">
<g clip-path="url(#clip0_18_15799)">
<path d="M1.29269 1.29322C1.65881 0.927106 2.23782 0.904512 2.63059 1.22486L2.70677 1.29322L4.21166 2.79811C4.21479 2.80116 4.21833 2.80381 4.22143 2.8069L21.8993 20.4847C21.9021 20.4875 21.9044 20.4907 21.9071 20.4935L22.7069 21.2933L22.7753 21.3695C23.0952 21.7623 23.0729 22.3414 22.7069 22.7074C22.341 23.0734 21.7618 23.0957 21.369 22.7758L21.2928 22.7074L20.493 21.9076C20.4902 21.9049 20.487 21.9025 20.4842 21.8998L19.1776 20.5922C18.4834 20.8625 17.7448 21.0011 16.9998 21.0004H6.99977C5.58299 21.0012 4.21084 20.5005 3.12767 19.5873C2.04464 18.674 1.3203 17.4065 1.08176 16.0101C0.84327 14.6137 1.10646 13.1783 1.82493 11.9573C2.5435 10.7363 3.67083 9.80865 5.00757 9.33916C4.96477 8.47031 5.08403 7.60061 5.36011 6.77567L2.80638 4.22195C2.80328 4.21885 2.80063 4.21531 2.79759 4.21218L1.29269 2.70729L1.22433 2.63112C0.903982 2.23835 0.926576 1.65934 1.29269 1.29322ZM16.9998 9.0003C18.0516 9.001 19.0849 9.27743 19.996 9.80303C20.9071 10.3287 21.6642 11.0851 22.1913 11.9954C22.7183 12.9058 22.9967 13.9387 22.9989 14.9906C23.0011 16.0425 22.7272 17.077 22.204 17.9896L14.0096 9.7962C14.8896 9.29021 15.9098 9.0003 16.9998 9.0003ZM11.9998 2.00026C13.542 2.00047 15.0413 2.50923 16.2645 3.44851C17.4876 4.38777 18.3663 5.70481 18.7645 7.19462C17.7061 6.95703 16.6104 6.93645 15.5438 7.13407C14.4771 7.33173 13.4615 7.74392 12.5584 8.34502L7.69313 3.47976C8.92232 2.51829 10.4392 1.99764 11.9998 2.00026Z" fill="#202327"/>
</g>
<defs>
<clipPath id="clip0_18_15799">
<rect width="24" height="24" fill="white"/>
</clipPath>
</defs>
</svg>
