<svg width="24" height="24" viewBox="0 0 24 24" fill="none" xmlns="http://www.w3.org/2000/svg">
<g clip-path="url(#clip0_18_15797)">
<path d="M12 2C16.4183 2 20 5.58172 20 10C20 10.1435 19.9949 10.286 19.9873 10.4277C19.6534 10.3102 19.3113 10.214 18.9619 10.1445C17.7522 9.90391 16.5016 9.96521 15.3213 10.3232C14.4612 10.5842 13.6574 10.9969 12.9473 11.5391C12.5086 11.8742 12.5122 12.5128 12.9023 12.9033C13.2929 13.2938 13.9223 13.2852 14.377 12.9717C14.8427 12.6506 15.3572 12.4027 15.9023 12.2373C16.7677 11.9748 17.6843 11.9291 18.5713 12.1055C19.4582 12.2819 20.2882 12.6745 20.9873 13.248C21.6865 13.8218 22.2339 14.5599 22.5801 15.3955C22.7632 15.8378 22.8854 16.2188 22.9482 16.7715C23.2978 19.8444 20.0522 22 17 22H7C3.68629 22 1 19.3137 1 16C1 13.7623 2.22504 11.8125 4.03809 10.7812C4.01311 10.524 4 10.2634 4 10C4 5.58172 7.58172 2 12 2Z" fill="#202327"/>
<path d="M23 17C23 19.7614 20.7614 22 18 22C15.2386 22 13 19.7614 13 17C13 14.2386 15.2386 12 18 12C20.7614 12 23 14.2386 23 17Z" fill="#202327"/>
</g>
<defs>
<clipPath id="clip0_18_15797">
<rect width="24" height="24" fill="white"/>
</clipPath>
</defs>
</svg>
