<svg width="24" height="24" viewBox="0 0 24 24" fill="none" xmlns="http://www.w3.org/2000/svg">
<g clip-path="url(#clip0_18_15798)">
<path fill-rule="evenodd" clip-rule="evenodd" d="M4 10C4 5.58172 7.58172 2 12 2C16.4183 2 20 5.58172 20 10C20 10.2634 19.9872 10.524 19.9623 10.7813C21.7753 11.8126 23 13.7623 23 16C23 19.3137 20.3137 22 17 22H12V20H17C19.2091 20 21 18.2091 21 16C21 14.3207 19.9649 12.8808 18.4941 12.2881L17.7268 11.9789L17.8867 11.1673C17.9609 10.7905 18 10.4003 18 10C18 6.68629 15.3137 4 12 4C8.68629 4 6 6.68629 6 10C6 10.4003 6.03906 10.7905 6.11329 11.1673L6.27316 11.9789L5.50592 12.2881C4.03515 12.8808 3 14.3207 3 16C3 18.2091 4.79086 20 7 20H12V22H7C3.68629 22 1 19.3137 1 16C1 13.7623 2.22469 11.8126 4.03774 10.7813C4.01276 10.524 4 10.2634 4 10Z" fill="#202327"/>
<path fill-rule="evenodd" clip-rule="evenodd" d="M15.4253 10.2103C16.3694 9.95357 17.3618 9.93154 18.3163 10.1462C19.2708 10.3608 20.1583 10.8055 20.9015 11.4417C21.6448 12.0778 22.2212 12.886 22.5806 13.796C22.9399 14.7059 23.0714 15.6898 22.9634 16.6622C22.8554 17.6345 22.5114 18.5657 21.9611 19.3746C21.4109 20.1835 20.6712 20.8456 19.8065 21.3032C18.9418 21.7608 17.9783 22 17 22V20C17.6522 20 18.2946 19.8405 18.871 19.5355C19.4475 19.2304 19.9406 18.789 20.3074 18.2497C20.6743 17.7105 20.9036 17.0897 20.9756 16.4414C21.0476 15.7932 20.96 15.1372 20.7204 14.5306C20.4808 13.924 20.0965 13.3852 19.601 12.9611C19.1056 12.537 18.5139 12.2405 17.8776 12.0974C17.2412 11.9544 16.5796 11.969 15.9503 12.1402C15.6442 12.2235 15.3503 12.3425 15.0743 12.4941C14.5902 12.76 13.9609 12.7526 13.5835 12.3494Lnan nanL13.5835 12.3494C13.2061 11.9462 13.2235 11.3051 13.6837 10.9998C14.2165 10.6464 14.8043 10.3793 15.4253 10.2103Z" fill="#202327"/>
</g>
<defs>
<clipPath id="clip0_18_15798">
<rect width="24" height="24" fill="white"/>
</clipPath>
</defs>
</svg>
