<svg width="24" height="24" viewBox="0 0 24 24" fill="none" xmlns="http://www.w3.org/2000/svg">
<g clip-path="url(#clip0_308_57)">
<path d="M19 2C20.6569 2 22 3.34315 22 5V19C22 20.6569 20.6569 22 19 22H5C3.34315 22 2 20.6569 2 19V5C2 3.34315 3.34315 2 5 2H19ZM10.625 8.71875C10.1937 8.37396 9.56369 8.44382 9.21875 8.875L7.21875 11.375C6.92677 11.7401 6.92678 12.2598 7.21875 12.625L9.21875 15.125L9.28711 15.2012C9.64204 15.5629 10.2207 15.6045 10.625 15.2812C11.0294 14.9578 11.116 14.3838 10.8408 13.958L10.7812 13.875L9.28125 12L10.7812 10.125C11.1263 9.69374 11.0563 9.06376 10.625 8.71875ZM14.7129 8.79883C14.3579 8.43722 13.7792 8.39535 13.375 8.71875C12.9709 9.04223 12.8842 9.61632 13.1592 10.042L13.2188 10.125L14.7188 12L13.2188 13.875C12.874 14.3062 12.944 14.9362 13.375 15.2812C13.8062 15.6262 14.4362 15.5561 14.7812 15.125L16.7812 12.625C17.0734 12.2598 17.0734 11.7402 16.7812 11.375L14.7812 8.875L14.7129 8.79883Z" fill="#202327"/>
</g>
<defs>
<clipPath id="clip0_308_57">
<rect width="24" height="24" fill="white"/>
</clipPath>
</defs>
</svg>
