<svg width="24" height="24" viewBox="0 0 24 24" fill="none" xmlns="http://www.w3.org/2000/svg">
<g clip-path="url(#clip0_867_106)">
<path d="M20.0938 1.5C21.4227 1.5 22.5 2.57732 22.5 3.90625V16.0938C22.5 17.4227 21.4227 18.5 20.0938 18.5H18.5V20.0938C18.5 21.4227 17.4227 22.5 16.0938 22.5H3.90625C2.57732 22.5 1.5 21.4227 1.5 20.0938V7.90625C1.5 6.57732 2.57732 5.5 3.90625 5.5H5.5V3.90625C5.5 2.57732 6.57732 1.5 7.90625 1.5H20.0938ZM7.90625 3.5C7.68188 3.5 7.5 3.68188 7.5 3.90625V5.5H16.0938C17.4227 5.5 18.5 6.57732 18.5 7.90625V16.5H20.0938C20.3181 16.5 20.5 16.3181 20.5 16.0938V3.90625C20.5 3.68188 20.3181 3.5 20.0938 3.5H7.90625Z" fill="#202327"/>
</g>
<defs>
<clipPath id="clip0_867_106">
<rect width="24" height="24" fill="white"/>
</clipPath>
</defs>
</svg>
