<svg width="24" height="24" viewBox="0 0 24 24" fill="none" xmlns="http://www.w3.org/2000/svg">
<g clip-path="url(#clip0_18_14483)">
<path d="M9 15C10.1046 15 11 15.8954 11 17V20C11 21.1046 10.1046 22 9 22H4C2.89543 22 2 21.1046 2 20V17C2 15.8954 2.89543 15 4 15H9ZM20 11C21.1046 11 22 11.8954 22 13V20C22 21.1046 21.1046 22 20 22H15C13.8954 22 13 21.1046 13 20V13C13 11.8954 13.8954 11 15 11H20ZM9 2C10.1046 2 11 2.89543 11 4V11C11 12.1046 10.1046 13 9 13H4C2.89543 13 2 12.1046 2 11V4C2 2.89543 2.89543 2 4 2H9ZM20 2C21.1046 2 22 2.89543 22 4V7C22 8.10457 21.1046 9 20 9H15C13.8954 9 13 8.10457 13 7V4C13 2.89543 13.8954 2 15 2H20Z" fill="#202327"/>
</g>
<defs>
<clipPath id="clip0_18_14483">
<rect width="24" height="24" fill="white"/>
</clipPath>
</defs>
</svg>
