<svg width="24" height="24" viewBox="0 0 24 24" fill="none" xmlns="http://www.w3.org/2000/svg">
<path d="M5.94233 4.10897C7.54381 3.40832 9.6863 3 12 3C14.3137 3 16.4562 3.40832 18.0577 4.10897C18.8569 4.45864 19.5665 4.90084 20.0903 5.44258C20.6187 5.98914 21 6.68589 21 7.5C21 8.31411 20.6187 9.01086 20.0903 9.55742C19.5665 10.0992 18.8569 10.5414 18.0577 10.891C16.4562 11.5917 14.3137 12 12 12C9.6863 12 7.54381 11.5917 5.94233 10.891C5.14307 10.5414 4.43348 10.0992 3.90973 9.55742C3.38133 9.01086 3 8.31411 3 7.5C3 6.68589 3.38133 5.98914 3.90973 5.44258C4.43348 4.90084 5.14307 4.45864 5.94233 4.10897Z" fill="#202327"/>
<path d="M20.2408 10.8063L19.5682 15.7172L22.0236 16.0534L17.0345 22.0407L17.7071 17.1299L15.2517 16.7936L20.2408 10.8063Z" fill="#202327"/>
<path d="M14.9643 21.7502L15.4047 18.6669C14.3545 18.8816 13.2049 19 12 19C7.02944 19 3 16.9853 3 14.5V17.5C3 19.9853 7.02944 22 12 22C13.0386 22 14.036 21.912 14.9643 21.7502Z" fill="#202327"/>
<path d="M12 17C12.4516 17 12.8955 16.9834 13.3292 16.9513L15.2856 13.6907C14.2677 13.8904 13.1595 14 12 14C7.02944 14 3 11.9853 3 9.5V12.5C3 14.9853 7.02944 17 12 17Z" fill="#202327"/>
</svg>
