<svg width="24" height="24" viewBox="0 0 24 24" fill="none" xmlns="http://www.w3.org/2000/svg">
<g clip-path="url(#clip0_1906_195)">
<path d="M12.0001 1C14.5629 1 16.9252 1.34454 18.6808 1.92969C19.5532 2.2205 20.3317 2.58938 20.9123 3.04688C21.4815 3.4956 22.0001 4.14818 22.0001 5V8C22.0001 8.55228 21.5524 9 21.0001 9C20.448 8.99985 20.0001 8.55219 20.0001 8V7.52441C19.5988 7.72968 19.1541 7.91253 18.6808 8.07031C16.9252 8.65546 14.5629 9 12.0001 9C9.4374 8.99997 7.07501 8.65549 5.31948 8.07031C4.84619 7.91252 4.40143 7.72969 4.00014 7.52441V11.999C4.00053 12.0012 4.00215 12.0065 4.00502 12.0146C4.01086 12.0311 4.02522 12.0634 4.05873 12.1104C4.12895 12.2087 4.26715 12.3494 4.51381 12.5127C5.01254 12.8428 5.80598 13.1703 6.87319 13.4346C7.79726 13.6634 8.86545 13.8298 10.0099 13.9199L10.505 13.9531L10.6066 13.9648C11.1068 14.0454 11.4745 14.4931 11.4445 15.0098C11.4143 15.5267 10.9968 15.9295 10.4904 15.9512L10.3878 15.9502L9.85463 15.9141C8.61741 15.8167 7.43897 15.6351 6.39272 15.376C5.49064 15.1526 4.67504 14.8664 4.00014 14.5205V19.0137C4.00047 19.0156 4.00216 19.0211 4.00502 19.0293C4.01091 19.0459 4.02524 19.079 4.05971 19.127C4.13322 19.2291 4.27893 19.3751 4.5392 19.5439C5.06523 19.8851 5.90175 20.2197 7.01967 20.4844C8.12591 20.7462 9.42414 20.9192 10.8019 20.9834C11.3535 21.0092 11.7797 21.4777 11.754 22.0293C11.7283 22.581 11.2598 23.0071 10.7081 22.9814C9.22854 22.9125 7.80598 22.7256 6.55971 22.4307C5.32531 22.1385 4.24417 21.7359 3.45131 21.2217C2.6923 20.7293 1.98856 19.9881 2.00014 18.9883V5C2.00014 4.14827 2.5188 3.4956 3.08803 3.04688C3.66857 2.58936 4.44714 2.22052 5.31948 1.92969C7.07501 1.34451 9.4374 1.00003 12.0001 1ZM13.8693 15.0449C13.9966 14.8635 14.2704 14.8775 14.3781 15.0713L15.6476 17.3564C15.8327 17.6897 15.5913 18.0996 15.2101 18.0996H14.5138C14.5632 18.6407 14.7458 19.1632 15.047 19.6191C15.4036 20.1589 15.9109 20.5822 16.506 20.8359C17.1009 21.0896 17.7575 21.1632 18.3937 21.0469C19.0301 20.9304 19.6184 20.6286 20.0851 20.1807C20.2273 20.0444 20.4602 20.0798 20.5558 20.252L21.004 21.0596C21.0728 21.1834 21.0456 21.3389 20.9386 21.4316C20.0675 22.1865 18.9526 22.6012 17.7999 22.5996C15.1492 22.5993 13.0001 20.4507 13.0001 17.7998C13.0002 16.7751 13.3221 15.8245 13.8693 15.0449ZM17.7999 13C20.4508 13.0001 22.5996 15.1489 22.5998 17.7998C22.5998 18.8247 22.2789 19.776 21.7316 20.5557C21.6043 20.7366 21.3315 20.7225 21.2238 20.5293L19.9533 18.2432C19.7681 17.91 20.0088 17.5003 20.3898 17.5H21.0861C21.0367 16.9589 20.8551 16.4364 20.5539 15.9805C20.1972 15.4407 19.689 15.0174 19.0939 14.7637C18.4989 14.5102 17.8424 14.4373 17.2062 14.5537C16.5699 14.6702 15.9815 14.971 15.5148 15.4189C15.3726 15.5551 15.1406 15.5198 15.0451 15.3477L14.5958 14.54C14.5271 14.416 14.5549 14.2606 14.6623 14.168C15.5332 13.4133 16.6475 12.9986 17.7999 13ZM12.0001 3C9.59255 3.00003 7.45399 3.32658 5.95229 3.82715C5.19634 4.07916 4.65645 4.35799 4.32631 4.61816C4.16444 4.7458 4.0777 4.84987 4.0353 4.91895C4.01537 4.95146 4.00651 4.97319 4.00307 4.98438C3.99994 4.99467 4.00014 4.99927 4.00014 5C4.00014 5.00073 3.99994 5.00533 4.00307 5.01562C4.00651 5.02681 4.01537 5.04854 4.0353 5.08105C4.0777 5.15013 4.16444 5.2542 4.32631 5.38184C4.65645 5.64201 5.19634 5.92084 5.95229 6.17285C7.45399 6.67342 9.59255 6.99997 12.0001 7C14.4077 7 16.5462 6.67339 18.048 6.17285C18.8039 5.92086 19.3438 5.642 19.674 5.38184C19.8359 5.25422 19.9225 5.15016 19.965 5.08105C19.9849 5.04855 19.9938 5.02685 19.9972 5.01562C20.0004 5.00527 20.0001 5.00073 20.0001 5C20.0001 4.99927 20.0004 4.99473 19.9972 4.98438C19.9938 4.97315 19.9849 4.95145 19.965 4.91895C19.9225 4.84984 19.8359 4.74578 19.674 4.61816C19.3438 4.358 18.8039 4.07914 18.048 3.82715C16.5462 3.32661 14.4077 3 12.0001 3Z" fill="#202327"/>
</g>
<defs>
<clipPath id="clip0_1906_195">
<rect width="24" height="24" fill="white"/>
</clipPath>
</defs>
</svg>
