<svg width="24" height="24" viewBox="0 0 24 24" fill="none" xmlns="http://www.w3.org/2000/svg">
<path fill-rule="evenodd" clip-rule="evenodd" d="M6.53047 13.8931C5.46101 13.3584 5 12.8134 5 12.5V10.4071C5.29406 10.5847 5.61046 10.7458 5.94233 10.891C7.54381 11.5917 9.6863 12 12 12C14.3137 12 16.4562 11.5917 18.0577 10.891C18.8569 10.5414 19.5665 10.0992 20.0903 9.55742C20.6187 9.01086 21 8.31411 21 7.5C21 6.68589 20.6187 5.98914 20.0903 5.44258C19.5665 4.90083 18.8569 4.45864 18.0577 4.10897C16.4562 3.40832 14.3137 3 12 3C9.6863 3 7.54381 3.40832 5.94233 4.10897C5.14307 4.45864 4.43348 4.90083 3.90973 5.44258C3.38133 5.98914 3 6.68589 3 7.5V17.5C3 19.9853 7.02944 22 12 22C13.0386 22 14.036 21.912 14.9643 21.7502L15.264 19.6518C14.2691 19.8764 13.1585 20 12 20C9.87677 20 7.91405 19.5849 6.53047 18.8931C5.46101 18.3584 5 17.8134 5 17.5V15.3287C6.64996 16.3482 9.17273 17 12 17C12.4516 17 12.8955 16.9834 13.3292 16.9513L14.6333 14.7778C13.8083 14.9222 12.9192 15 12 15C9.87677 15 7.91405 14.5849 6.53047 13.8931ZM17.4695 8.89313C16.0859 9.58492 14.1232 10 12 10C9.87677 10 7.91405 9.58492 6.53047 8.89313C5.46101 8.3584 5 7.81342 5 7.5C5 7.18658 5.46101 6.6416 6.53047 6.10687C7.91405 5.41508 9.87677 5 12 5C14.1232 5 16.0859 5.41508 17.4695 6.10687C18.539 6.6416 19 7.18658 19 7.5C19 7.81342 18.539 8.3584 17.4695 8.89313Z" fill="#202327"/>
<path d="M20.2408 10.8063L19.5682 15.7172L22.0236 16.0534L17.0345 22.0407L17.7071 17.1299L15.2517 16.7936L20.2408 10.8063Z" fill="#202327"/>
</svg>
