<svg width="24" height="24" viewBox="0 0 24 24" fill="none" xmlns="http://www.w3.org/2000/svg">
<g clip-path="url(#clip0_1906_214)">
<path d="M14.8098 16.594C14.995 16.9273 14.754 17.3369 14.3727 17.3369H13.6201C13.6713 17.8977 13.8607 18.4387 14.1728 18.9111C14.5424 19.4704 15.068 19.909 15.6846 20.1719C16.3012 20.4347 16.9822 20.5113 17.6416 20.3906C18.3008 20.2699 18.9101 19.9573 19.3935 19.4932C19.5406 19.352 19.7815 19.3882 19.8806 19.5664L20.3456 20.4026C20.4174 20.5316 20.3889 20.6933 20.2773 20.79C19.3747 21.572 18.2196 22.0015 17.0254 22C14.2785 21.9998 12.052 19.7732 12.0518 17.0264C12.0518 15.9643 12.385 14.9788 12.9521 14.1709C13.084 13.9831 13.3669 13.9979 13.4784 14.1985L14.8098 16.594ZM2 13.917C2 16.2852 5.53064 18.2399 10.1036 18.5392C10.6335 18.5739 11.0827 18.9379 11.288 19.4276C11.4432 19.7979 11.6332 20.1499 11.8539 20.4797C12.1748 20.959 11.903 21.6894 11.3262 21.6894C6.17554 21.6893 2.00018 19.6017 2 17.0264V13.917ZM17.0254 12.0518C19.7724 12.0521 22 14.2793 22 17.0264C21.9999 18.088 21.6664 19.0732 21.0996 19.8809C20.9678 20.0687 20.6848 20.0539 20.5733 19.8533L19.242 17.4577C19.0568 17.1245 19.2977 16.7148 19.679 16.7148H20.4316C20.3805 16.1542 20.1909 15.613 19.8789 15.1406C19.5094 14.5814 18.9828 14.1428 18.3662 13.8799C17.7497 13.6171 17.0694 13.5416 16.4102 13.6621C15.7507 13.7828 15.1409 14.0944 14.6572 14.5586C14.5102 14.6997 14.2693 14.6635 14.1704 14.4853L13.7054 13.648C13.6341 13.5196 13.6625 13.3589 13.7734 13.2627C14.6761 12.4806 15.8311 12.0502 17.0254 12.0518ZM2 8.73633C2.00048 11.3115 6.17572 13.3993 11.3262 13.3994C11.5945 13.3994 11.7612 13.7066 11.6278 13.9394C11.3585 14.4095 11.149 14.918 11.0093 15.4549C10.8591 16.032 10.3639 16.4927 9.76965 16.4428C5.35986 16.0723 2 14.155 2 11.8447V8.73633ZM11.3262 2C13.7238 2 15.9449 2.42334 17.6045 3.14941C18.4326 3.51175 19.1683 3.96993 19.7109 4.53125C20.2583 5.09756 20.6532 5.81964 20.6533 6.66308C20.6533 7.50651 20.2583 8.2286 19.7109 8.79492C19.1682 9.35628 18.4327 9.81538 17.6045 10.1777C15.9449 10.9038 13.7238 11.3262 11.3262 11.3262C8.92867 11.3261 6.70833 10.9038 5.04883 10.1777C4.22061 9.81538 3.48511 9.3563 2.94238 8.79492C2.39502 8.22859 2 7.50653 2 6.66308C2.00007 5.81962 2.39496 5.09756 2.94238 4.53125C3.48507 3.96991 4.22069 3.51176 5.04883 3.14941C6.70833 2.42338 8.92867 2.00005 11.3262 2Z" fill="#202327"/>
</g>
<defs>
<clipPath id="clip0_1906_214">
<rect width="24" height="24" fill="white"/>
</clipPath>
</defs>
</svg>
