<svg width="24" height="24" viewBox="0 0 24 24" fill="none" xmlns="http://www.w3.org/2000/svg">
<path d="M6.53646 3H21.0013C21.5536 3 22.0013 3.44772 22.0013 4V20C22.0013 20.5523 21.5536 21 21.0013 21H6.53646C6.2021 21 5.88987 20.8329 5.70441 20.5547L0.371075 12.5547C0.147142 12.2188 0.147142 11.7812 0.371075 11.4453L5.70441 3.4453C5.88987 3.1671 6.2021 3 6.53646 3ZM7.07164 5L2.40497 12L7.07164 19H20.0013V5H7.07164ZM13.0013 10.5858L15.8297 7.75736L17.244 9.17157L14.4155 12L17.244 14.8284L15.8297 16.2426L13.0013 13.4142L10.1729 16.2426L8.75863 14.8284L11.5871 12L8.75863 9.17157L10.1729 7.75736L13.0013 10.5858Z" fill="#202327"/>
</svg>
