<svg width="24" height="24" viewBox="0 0 24 24" fill="none" xmlns="http://www.w3.org/2000/svg">
<path fill-rule="evenodd" clip-rule="evenodd" d="M13.2222 9H21V3.007C21 2.449 20.556 2 20.008 2H1.99204C1.45504 2 1.00004 2.451 1.00004 3.007V15.993C0.998854 16.1243 1.02359 16.2546 1.07284 16.3763C1.12209 16.498 1.19488 16.6088 1.28703 16.7024C1.37919 16.7959 1.4889 16.8704 1.60988 16.9215C1.73086 16.9725 1.86073 16.9992 1.99204 17H10V19H6.00004V21H12.0036C12.0012 20.9724 12 20.9446 12 20.9167V10.0833C12 9.79601 12.1288 9.52047 12.358 9.3173C12.5872 9.11414 12.8981 9 13.2222 9ZM22 11H15C14.7348 11 14.4804 11.1054 14.2929 11.2929C14.1054 11.4804 14 11.7348 14 12V22C14 22.2652 14.1054 22.5196 14.2929 22.7071C14.4804 22.8946 14.7348 23 15 23H22C22.2652 23 22.5196 22.8946 22.7071 22.7071C22.8946 22.5196 23 22.2652 23 22V12C23 11.7348 22.8946 11.4804 22.7071 11.2929C22.5196 11.1054 22.2652 11 22 11Z" fill="#151826"/>
</svg>
