<svg width="24" height="24" viewBox="0 0 24 24" fill="none" xmlns="http://www.w3.org/2000/svg">
<path fill-rule="evenodd" clip-rule="evenodd" d="M12 3C7.02944 3 3 7.02944 3 12C3 16.9706 7.02944 21 12 21C16.9706 21 21 16.9706 21 12C21 7.02944 16.9706 3 12 3ZM1 12C1 5.92487 5.92487 1 12 1C18.0751 1 23 5.92487 23 12C23 18.0751 18.0751 23 12 23C5.92487 23 1 18.0751 1 12ZM8.53994 7.12738C8.91145 7.53603 8.88133 8.16848 8.47267 8.53999C7.58454 9.34738 7 10.5772 7 12C7 12.5523 6.55228 13 6 13C5.44772 13 5 12.5523 5 12C5 10.0229 5.81546 8.25272 7.12733 7.06011C7.53598 6.6886 8.16843 6.71872 8.53994 7.12738ZM12 11C11.4477 11 11 11.4477 11 12C11 12.5523 11.4477 13 12 13C12.5523 13 13 12.5523 13 12C13 11.4477 12.5523 11 12 11ZM9 12C9 10.3431 10.3431 9 12 9C13.6569 9 15 10.3431 15 12C15 13.6569 13.6569 15 12 15C10.3431 15 9 13.6569 9 12ZM18 11C18.5522 11 19 11.4477 19 12C19 13.9771 18.1845 15.7473 16.8726 16.9399C16.464 17.3114 15.8315 17.2813 15.46 16.8727C15.0885 16.464 15.1186 15.8316 15.5273 15.4601C16.4154 14.6527 17 13.4229 17 12C17 11.4477 17.4477 11 18 11Z" fill="#202327"/>
</svg>
