<svg width="24" height="24" viewBox="0 0 24 24" fill="none" xmlns="http://www.w3.org/2000/svg">
<path d="M12 1C18.0751 1 23 5.92487 23 12C23 18.0751 18.0751 23 12 23C5.92487 23 1 18.0751 1 12C1 5.92487 5.92487 1 12 1ZM18 11C17.4478 11 17.0001 11.4478 17 12C16.9999 13.3338 16.4863 14.4982 15.6904 15.3037L15.5273 15.46C15.1188 15.8314 15.0888 16.4634 15.46 16.8721C15.8083 17.2552 16.3864 17.3063 16.7939 17.0049L16.873 16.9395C18.1846 15.7469 18.9999 13.9768 19 12C18.9999 11.4478 18.5522 11 18 11ZM12 9C10.3432 9 9.00012 10.3432 9 12C9.00013 13.6567 10.3432 15 12 15C13.6568 15 14.9999 13.6567 15 12C14.9999 10.3432 13.6568 9 12 9ZM8.54004 7.12695C8.19166 6.74391 7.61358 6.69364 7.20605 6.99512L7.12695 7.05957C5.81516 8.25214 5.00006 10.023 5 12C5.00011 12.5522 5.44778 13 6 13C6.55222 13 6.99989 12.5522 7 12C7.00006 10.5773 7.58466 9.34739 8.47266 8.54004L8.54492 8.4668C8.88329 8.0897 8.88822 7.50995 8.54004 7.12695Z" fill="#202327"/>
</svg>
