<svg width="24" height="24" viewBox="0 0 24 24" fill="none" xmlns="http://www.w3.org/2000/svg">
<path d="M12.446 2.31299H9.94602V4.81299H12.446V2.31299Z" fill="#202327"/>
<path d="M3.49902 5.54556H5.99902V8.04556H3.49902V5.54556Z" fill="#202327"/>
<path d="M0.34375 8.80865H2.84375V11.3086H0.34375V8.80865Z" fill="#202327"/>
<path d="M5.99902 8.80865H3.49902V11.3086H5.99902V8.80865Z" fill="#202327"/>
<path d="M6.6918 8.80865H9.1918V11.3086H6.6918V8.80865Z" fill="#202327"/>
<path d="M12.446 8.80865H9.94602V11.3086H12.446V8.80865Z" fill="#202327"/>
<path d="M13.231 8.80865H15.731V11.3086H13.231V8.80865Z" fill="#202327"/>
<path d="M6.6918 5.54556H9.1918V8.04556H6.6918V5.54556Z" fill="#202327"/>
<path d="M12.446 5.54556H9.94602V8.04556H12.446V5.54556Z" fill="#202327"/>
<path fill-rule="evenodd" clip-rule="evenodd" d="M23.6096 10.5266C23.0211 10.1305 21.4752 9.96164 20.3512 10.2642C20.2908 9.14456 19.7133 8.2009 18.657 7.37813L18.2662 7.11572L18.0056 7.50933C17.4936 8.28659 17.2778 9.32269 17.3538 10.2646C17.4143 10.8449 17.6159 11.497 18.0056 11.9702C16.8005 12.6692 15.6727 12.6618 11.976 12.6374C11.1845 12.6322 10.2752 12.6262 9.22215 12.6262H0.00207575C-0.0249469 13.9749 0.191946 16.5687 1.8414 18.6804C2.02344 18.9136 2.22327 19.1394 2.44016 19.3566C3.78134 20.6996 5.80769 21.6845 8.83778 21.687C13.4601 21.6913 17.4207 19.1924 19.83 13.151L19.9327 13.1531C20.7909 13.1712 22.7569 13.2126 23.7394 11.3142C23.7643 11.2808 24 10.7894 24 10.7894L23.6096 10.5266ZM6.70605 16.5125C6.70605 17.1011 6.22883 17.5784 5.64014 17.5784C5.05145 17.5784 4.57422 17.1011 4.57422 16.5125C4.57422 15.9238 5.05145 15.4465 5.64014 15.4465C6.22883 15.4465 6.70605 15.9238 6.70605 16.5125Z" fill="#202327"/>
</svg>
