<svg width="24" height="24" viewBox="0 0 24 24" fill="none" xmlns="http://www.w3.org/2000/svg">
<g clip-path="url(#clip0_1707_178)">
<path d="M12.4414 2.28271H9.94141V4.78271H12.4414V2.28271Z" fill="#202327"/>
<path d="M5.99219 5.5127H3.49219V8.0127H5.99219V5.5127Z" fill="#202327"/>
<path d="M5.03804 15.5929C5.214 15.4754 5.42087 15.4126 5.6325 15.4126C5.91628 15.4126 6.18844 15.5253 6.3891 15.726C6.58977 15.9267 6.7025 16.1988 6.7025 16.4826C6.7025 16.6942 6.63975 16.9011 6.52217 17.0771C6.4046 17.253 6.23749 17.3902 6.04197 17.4711C5.84645 17.5521 5.63131 17.5733 5.42375 17.532C5.21619 17.4908 5.02554 17.3888 4.8759 17.2392C4.72625 17.0896 4.62435 16.8989 4.58306 16.6913C4.54177 16.4838 4.56296 16.2686 4.64395 16.0731C4.72494 15.8776 4.86208 15.7105 5.03804 15.5929Z" fill="#202327"/>
<path fill-rule="evenodd" clip-rule="evenodd" d="M23.6022 10.4928C23.3647 10.3514 23.104 10.2532 22.8322 10.2028L22.3422 10.1228H22.1422C21.5375 10.0794 20.9297 10.1334 20.3422 10.2828C20.3234 9.79374 20.2043 9.31381 19.9922 8.87276C19.9196 8.73512 19.8395 8.60158 19.7522 8.47276C19.4471 8.04685 19.0797 7.66928 18.6622 7.35276L18.2722 7.08276L17.9922 7.48276C17.71 7.92201 17.5132 8.41055 17.4122 8.92276C17.3239 9.37042 17.3004 9.82842 17.3422 10.2828C17.3836 10.6252 17.4676 10.9611 17.5922 11.2828C17.6934 11.5351 17.8315 11.7711 18.0022 11.9828C17.3899 12.3309 16.7054 12.5329 16.0022 12.5728C14.671 12.666 13.3358 12.6894 12.0022 12.6428H-0.0078125V13.0628C0.00300512 13.5924 0.053143 14.1205 0.142188 14.6428C0.352837 16.1173 0.934327 17.5143 1.83219 18.7028C2.01586 18.9402 2.21638 19.1641 2.43219 19.3728C3.28409 20.1765 4.29118 20.7977 5.3917 21.1983C6.49222 21.599 7.66297 21.7706 8.83219 21.7028C13.4322 21.7028 17.3722 19.2428 19.8322 13.2628V13.1728H19.9922C21.0117 13.2627 22.0313 13.0016 22.8822 12.4328L22.9922 12.2828C23.3029 11.9996 23.5573 11.6603 23.7422 11.2828L24.0022 10.7628L23.6022 10.4928ZM13.9922 18.0428C12.5041 19.1332 10.6964 19.6994 8.85219 19.6528C7.94395 19.7218 7.03123 19.6029 6.17098 19.3035C5.31072 19.0041 4.52138 18.5307 3.85219 17.9128C3.69461 17.7596 3.54761 17.5959 3.41219 17.4228C2.78529 16.5882 2.36081 15.6194 2.17219 14.5928H15.3922C15.9288 14.5664 16.4632 14.5063 16.9922 14.4128C16.2638 15.8238 15.2407 17.0617 13.9922 18.0428Z" fill="#202327"/>
<path d="M0.332031 8.78271H2.83203V11.2827H0.332031V8.78271Z" fill="#202327"/>
<path d="M5.99219 8.78271H3.49219V11.2827H5.99219V8.78271Z" fill="#202327"/>
<path d="M6.68359 8.78271H9.18359V11.2827H6.68359V8.78271Z" fill="#202327"/>
<path d="M12.4414 8.78271H9.94141V11.2827H12.4414V8.78271Z" fill="#202327"/>
<path d="M13.2227 8.78271H15.7227V11.2827H13.2227V8.78271Z" fill="#202327"/>
<path d="M9.18359 5.5127H6.68359V8.0127H9.18359V5.5127Z" fill="#202327"/>
<path d="M9.94141 5.5127H12.4414V8.0127H9.94141V5.5127Z" fill="#202327"/>
</g>
<defs>
<clipPath id="clip0_1707_178">
<rect width="24" height="24" fill="white"/>
</clipPath>
</defs>
</svg>
