<svg width="24" height="24" viewBox="0 0 24 24" fill="none" xmlns="http://www.w3.org/2000/svg">
<path d="M19.4189 6.679C20.4489 7.773 21.0019 9 21.0019 10.989C21.0019 14.489 18.5449 17.626 14.9719 19.177L14.0789 17.799C17.4139 15.995 18.0659 13.654 18.3259 12.178C17.7889 12.456 17.0859 12.553 16.3969 12.489C14.5929 12.322 13.1709 10.841 13.1709 9C13.1709 8.07174 13.5396 7.1815 14.196 6.52513C14.8524 5.86875 15.7426 5.5 16.6709 5.5C17.7439 5.5 18.7699 5.99 19.4189 6.679ZM9.41887 6.679C10.4489 7.773 11.0019 9 11.0019 10.989C11.0019 14.489 8.54487 17.626 4.97187 19.177L4.07888 17.799C7.41388 15.995 8.06588 13.654 8.32588 12.178C7.78888 12.456 7.08588 12.553 6.39687 12.489C4.59287 12.322 3.17188 10.841 3.17188 9C3.17188 8.07174 3.54062 7.1815 4.197 6.52513C4.85338 5.86875 5.74362 5.5 6.67188 5.5C7.74487 5.5 8.77087 5.99 9.41988 6.679H9.41887Z" fill="#151826"/>
</svg>
