<svg width="24" height="24" viewBox="0 0 24 24" fill="none" xmlns="http://www.w3.org/2000/svg">
<path d="M19 20C19.5523 20 20 20.4477 20 21C20 21.5523 19.5523 22 19 22H5C4.44772 22 4 21.5523 4 21C4 20.4477 4.44772 20 5 20H19Z" fill="#202327"/>
<path d="M12 2C12.5523 2 13 2.44771 13 3V10H18C18.4044 10 18.769 10.2436 18.9238 10.6172C19.0786 10.9909 18.993 11.421 18.707 11.707L12.707 17.707C12.3165 18.0976 11.6835 18.0976 11.293 17.707L5.29297 11.707C5.00697 11.421 4.92139 10.9909 5.07617 10.6172C5.23098 10.2436 5.59558 10 6 10H11V3C11 2.44771 11.4477 2 12 2Z" fill="#202327"/>
</svg>
