<svg width="24" height="24" viewBox="0 0 24 24" fill="none" xmlns="http://www.w3.org/2000/svg">
<path d="M12.9989 13V18.585L14.8269 16.757L16.2419 18.172L11.9989 22.414L7.75592 18.172L9.17092 16.757L10.9989 18.585V13H12.9989ZM11.9989 2C13.7159 2.00008 15.373 2.63111 16.6551 3.77312C17.9372 4.91512 18.755 6.48846 18.9529 8.194C20.1972 8.53332 21.2826 9.2991 22.0196 10.3575C22.7565 11.416 23.0981 12.6997 22.9845 13.9844C22.871 15.2691 22.3096 16.473 21.3985 17.3858C20.4873 18.2986 19.2844 18.8622 17.9999 18.978V16.964C18.4601 16.8983 18.9026 16.7416 19.3015 16.503C19.7004 16.2644 20.0479 15.9487 20.3235 15.5744C20.5991 15.2001 20.7974 14.7746 20.9068 14.3228C21.0162 13.8711 21.0345 13.402 20.9606 12.9431C20.8868 12.4841 20.7222 12.0445 20.4766 11.6498C20.231 11.2552 19.9093 10.9134 19.5301 10.6445C19.151 10.3755 18.7221 10.1848 18.2684 10.0834C17.8148 9.98203 17.3455 9.97203 16.8879 10.054C17.0445 9.32489 17.0361 8.56997 16.8631 7.84455C16.6902 7.11913 16.3572 6.44158 15.8885 5.86153C15.4198 5.28147 14.8273 4.81361 14.1544 4.49219C13.4815 4.17078 12.7452 4.00397 11.9994 4.00397C11.2537 4.00397 10.5174 4.17078 9.84445 4.49219C9.17152 4.81361 8.57901 5.28147 8.11032 5.86153C7.64163 6.44158 7.30863 7.11913 7.1357 7.84455C6.96277 8.56997 6.95431 9.32489 7.11092 10.054C6.19857 9.88267 5.25554 10.0808 4.48926 10.6048C3.72299 11.1287 3.19625 11.9357 3.02492 12.848C2.85359 13.7603 3.0517 14.7034 3.57568 15.4697C4.09966 16.2359 4.90657 16.7627 5.81892 16.934L5.99892 16.964V18.978C4.71437 18.8623 3.51132 18.2989 2.60005 17.3862C1.68878 16.4735 1.12724 15.2696 1.01359 13.9848C0.899939 12.7001 1.2414 11.4163 1.97829 10.3578C2.71518 9.29926 3.80062 8.53339 5.04492 8.194C5.24262 6.48838 6.06032 4.91491 7.3425 3.77287C8.62467 2.63082 10.2819 1.99986 11.9989 2Z" fill="#202327"/>
</svg>
