<svg width="24" height="24" viewBox="0 0 24 24" fill="none" xmlns="http://www.w3.org/2000/svg">
<path fill-rule="evenodd" clip-rule="evenodd" d="M11.2929 15.7071C11.4889 15.9031 11.7461 16.0008 12.003 16C12.2579 15.9992 12.5126 15.9016 12.7071 15.7071L17.7071 10.7071C17.7212 10.693 17.7349 10.6785 17.748 10.6637C17.8896 10.5045 17.9715 10.3109 17.9938 10.1118C18.0231 9.84958 17.9489 9.57798 17.7711 9.36323C17.7376 9.32263 17.701 9.2849 17.6618 9.25032C17.5011 9.10812 17.3055 9.02651 17.1048 9.00548C17.0859 9.00349 17.067 9.00205 17.048 9.00114C17.0321 9.00038 17.0161 9 17 9H13V3C13 2.44771 12.5523 2 12 2C11.4477 2 11 2.44771 11 3V9H7.00003L6.99765 9C6.74917 9.00058 6.50087 9.0932 6.30827 9.27784C6.29288 9.29257 6.27795 9.30781 6.26349 9.32355C5.90263 9.71588 5.91243 10.3266 6.29289 10.7071L11.2929 15.7071ZM4 15C4 14.4477 3.55228 14 3 14C2.44772 14 2 14.4477 2 15V19C2 19.7957 2.31607 20.5587 2.87868 21.1213C3.44129 21.6839 4.20435 22 5 22H19C19.7957 22 20.5587 21.6839 21.1213 21.1213C21.6839 20.5587 22 19.7957 22 19V15C22 14.4477 21.5523 14 21 14C20.4477 14 20 14.4477 20 15V19C20 19.2652 19.8946 19.5196 19.7071 19.7071C19.5196 19.8946 19.2652 20 19 20H5C4.73478 20 4.48043 19.8946 4.29289 19.7071C4.10536 19.5196 4 19.2652 4 19V15Z" fill="#202327"/>
</svg>
