<svg width="24" height="24" viewBox="0 0 24 24" fill="none" xmlns="http://www.w3.org/2000/svg">
<path d="M12.4062 2.0625C16.4138 2.25014 19.6929 5.20416 20.3877 9.05762C22.1903 10.3446 23.3691 12.455 23.3691 14.8428L23.3604 15.208C23.1761 18.8409 20.2629 21.7543 16.6299 21.9385L16.2646 21.9473C16.1592 21.9473 16.0571 21.942 15.96 21.9375C15.9124 21.9423 15.8548 21.9472 15.792 21.9473H8.21191C8.14844 21.9473 8.09025 21.9423 8.04199 21.9375L7.73828 21.9473C3.93692 21.9473 0.832047 18.9622 0.641602 15.208L0.632812 14.8428C0.632812 12.4558 1.81041 10.3449 3.6123 9.05762C4.33034 5.07475 7.81103 2.05287 12.001 2.05273L12.4062 2.0625ZM12.001 3.94727C8.62577 3.94739 5.83872 6.4705 5.42383 9.7334C5.3924 9.98065 5.26557 10.2045 5.07227 10.3574L4.98535 10.418C3.5074 11.3398 2.52734 12.9773 2.52734 14.8428L2.53418 15.1104C2.67381 17.8633 4.95049 20.0527 7.73828 20.0527L8.03027 20.043H8.12109C8.15113 20.0442 8.18112 20.0467 8.21094 20.0508L8.22656 20.0527H15.7754C15.779 20.0523 15.784 20.0517 15.791 20.0508L15.8818 20.043C15.9118 20.0418 15.9417 20.0413 15.9717 20.043C16.076 20.0487 16.1726 20.0527 16.2646 20.0527L16.5322 20.0459C19.2851 19.9064 21.4743 17.6303 21.4746 14.8428L21.4629 14.4961C21.3574 12.8903 20.5245 11.4829 19.2871 10.5996L19.0156 10.418C18.774 10.2673 18.6131 10.0159 18.5771 9.7334C18.1751 6.57231 15.5477 4.10619 12.3154 3.95508L12.001 3.94727ZM12.001 9C12.5533 9 13.001 9.44772 13.001 10V14.0859L14.2939 12.793C14.6845 12.4024 15.3175 12.4024 15.708 12.793C16.0985 13.1835 16.0985 13.8165 15.708 14.207L12.708 17.207C12.3419 17.5731 11.7629 17.5957 11.3701 17.2754L11.2939 17.207L8.29395 14.207L8.22559 14.1309C7.90524 13.7381 7.92783 13.1591 8.29395 12.793C8.66006 12.4269 9.23906 12.4043 9.63184 12.7246L9.70801 12.793L11.001 14.0859V10C11.001 9.44772 11.4487 9 12.001 9Z" fill="#202327"/>
</svg>
