<svg width="24" height="24" viewBox="0 0 24 24" fill="none" xmlns="http://www.w3.org/2000/svg">
<path fill-rule="evenodd" clip-rule="evenodd" d="M3.29403 19.4581C4.33854 20.3445 5.63643 20.8783 7.00238 20.9832V21.0022H17.0024V20.9832C18.3683 20.8783 19.6662 20.3445 20.7107 19.4581C21.7552 18.5716 22.4929 17.3778 22.8185 16.0471C23.1441 14.7163 23.0409 13.3168 22.5237 12.0482C22.0064 10.7796 21.1016 9.70689 19.9384 8.98321C19.6909 7.05329 18.7486 5.27971 17.2879 3.99436C15.8271 2.70902 13.9481 2 12.0024 2C10.0567 2 8.17761 2.70902 6.71689 3.99436C5.25617 5.27971 4.31389 7.05329 4.06638 8.98321C2.90315 9.70689 1.99832 10.7796 1.48108 12.0482C0.963844 13.3168 0.86065 14.7163 1.18623 16.0471C1.51182 17.3778 2.24953 18.5716 3.29403 19.4581ZM11.1081 16.8065L16.848 10.6784L15.4338 9.26419L10.8919 14.1943L8.08128 12.1867L6.91881 13.8141L11.1081 16.8065Z" fill="#202327"/>
</svg>
