<svg width="24" height="24" viewBox="0 0 24 24" fill="none" xmlns="http://www.w3.org/2000/svg">
<path d="M6.88184 16.5L7.60547 17.9473C7.77486 18.286 8.12123 18.5 8.5 18.5H15.5C15.8788 18.5 16.2251 18.286 16.3945 17.9473L17.1182 16.5H22V19.5C22 20.8807 20.8807 22 19.5 22H4.5C3.11929 22 2 20.8807 2 19.5V16.5H6.88184ZM19.5 2C20.8807 2 22 3.11929 22 4.5V14.5H16.5C16.1685 14.5 15.8617 14.6637 15.6768 14.9316L15.6055 15.0527L14.8818 16.5H9.11816L8.39453 15.0527C8.22514 14.714 7.87877 14.5 7.5 14.5H2V4.5C2 3.11929 3.11929 2 4.5 2H19.5ZM12 5C11.4477 5 11 5.44772 11 6V11.5859L9.70703 10.293L9.63086 10.2246C9.23809 9.90426 8.65908 9.92685 8.29297 10.293C7.92685 10.6591 7.90426 11.2381 8.22461 11.6309L8.29297 11.707L11.293 14.707C11.6835 15.0976 12.3165 15.0976 12.707 14.707L15.707 11.707C16.0976 11.3165 16.0976 10.6835 15.707 10.293C15.3165 9.90244 14.6835 9.90244 14.293 10.293L13 11.5859V6C13 5.44772 12.5523 5 12 5Z" fill="#202327"/>
</svg>
