<svg width="24" height="24" viewBox="0 0 24 24" fill="none" xmlns="http://www.w3.org/2000/svg">
<path d="M20 16.5H17.1182L16.3945 17.9473C16.2251 18.286 15.8788 18.5 15.5 18.5H8.5C8.12123 18.5 7.77486 18.286 7.60547 17.9473L6.88184 16.5H4V19.5C4 19.7761 4.22386 20 4.5 20H19.5C19.7761 20 20 19.7761 20 19.5V16.5ZM11 6C11 5.44772 11.4477 5 12 5C12.5523 5 13 5.44772 13 6V11.5859L14.293 10.293C14.6835 9.90244 15.3165 9.90244 15.707 10.293C16.0976 10.6835 16.0976 11.3165 15.707 11.707L12.707 14.707C12.3165 15.0976 11.6835 15.0976 11.293 14.707L8.29297 11.707L8.22461 11.6309C7.90426 11.2381 7.92685 10.6591 8.29297 10.293C8.65908 9.92685 9.23809 9.90426 9.63086 10.2246L9.70703 10.293L11 11.5859V6ZM20 4.5C20 4.22386 19.7761 4 19.5 4H4.5C4.22386 4 4 4.22386 4 4.5V14.5H7.5C7.87877 14.5 8.22514 14.714 8.39453 15.0527L9.11816 16.5H14.8818L15.6055 15.0527L15.6768 14.9316C15.8617 14.6637 16.1685 14.5 16.5 14.5H20V4.5ZM22 19.5C22 20.8807 20.8807 22 19.5 22H4.5C3.11929 22 2 20.8807 2 19.5V4.5C2 3.11929 3.11929 2 4.5 2H19.5C20.8807 2 22 3.11929 22 4.5V19.5Z" fill="#202327"/>
</svg>
