<svg width="24" height="24" viewBox="0 0 24 24" fill="none" xmlns="http://www.w3.org/2000/svg">
<path d="M12.4062 2.00977C16.4315 2.19798 19.7264 5.16015 20.4336 9.02734C22.2396 10.3249 23.4199 12.445 23.4199 14.8428L23.4102 15.2109C23.2244 18.8706 20.2906 21.8045 16.6309 21.9902L16.2627 22C16.1582 22 16.0571 21.9946 15.9609 21.9902C15.9125 21.995 15.8539 21.9999 15.79 22H8.20996C8.1437 22 8.08306 21.9953 8.0332 21.9902L7.73633 22C3.9069 22 0.779876 18.9928 0.587891 15.2109L0.578125 14.8428C0.578125 12.4458 1.75715 10.3252 3.5625 9.02734C4.29338 5.03022 7.79051 2.00014 11.999 2L12.4062 2.00977ZM11.999 9C11.4467 9 10.999 9.44772 10.999 10V14.0859L9.70605 12.793L9.62988 12.7246C9.23711 12.4043 8.65811 12.4269 8.29199 12.793C7.92588 13.1591 7.90328 13.7381 8.22363 14.1309L8.29199 14.207L11.292 17.207L11.3682 17.2754C11.7609 17.5957 12.3399 17.5731 12.7061 17.207L15.7061 14.207C16.0966 13.8165 16.0966 13.1835 15.7061 12.793C15.3155 12.4024 14.6825 12.4024 14.292 12.793L12.999 14.0859V10C12.999 9.44772 12.5513 9 11.999 9Z" fill="#202327"/>
</svg>
