<svg width="24" height="24" viewBox="0 0 24 24" fill="none" xmlns="http://www.w3.org/2000/svg">
<g clip-path="url(#clip0_18_15149)">
<path d="M20.5 3C21.6046 3 22.5 3.89543 22.5 5V19C22.5 20.1046 21.6046 21 20.5 21H3.5C2.39543 21 1.5 20.1046 1.5 19V5C1.5 3.89543 2.39543 3 3.5 3H20.5ZM3.5 19H5.5V17H3.5V19ZM7.5 19H20.5V5H7.5V19ZM14 6.5C17.0376 6.5 19.5 8.96243 19.5 12C19.5 15.0376 17.0376 17.5 14 17.5C10.9624 17.5 8.5 15.0376 8.5 12C8.5 8.96243 10.9624 6.5 14 6.5ZM3.5 15H5.5V13H3.5V15ZM14 10.5C13.1716 10.5 12.5 11.1716 12.5 12C12.5 12.8284 13.1716 13.5 14 13.5C14.8284 13.5 15.5 12.8284 15.5 12C15.5 11.1716 14.8284 10.5 14 10.5ZM3.5 11H5.5V9H3.5V11ZM3.5 7H5.5V5H3.5V7Z" fill="#202327"/>
</g>
<defs>
<clipPath id="clip0_18_15149">
<rect width="24" height="24" fill="white"/>
</clipPath>
</defs>
</svg>
