<svg width="24" height="24" viewBox="0 0 24 24" fill="none" xmlns="http://www.w3.org/2000/svg">
<g clip-path="url(#clip0_18_13950)">
<path fill-rule="evenodd" clip-rule="evenodd" d="M15.6679 2.91463C16.2535 2.329 17.0478 2 17.876 2C18.7042 2 19.4985 2.329 20.0841 2.91463C20.6697 3.50025 20.9987 4.29453 20.9987 5.12273C20.9987 5.95094 20.6697 6.74522 20.0841 7.33084L8.07414 19.3418C7.71741 19.6985 7.27644 19.9596 6.7921 20.1007L3.9201 20.9387C3.66195 21.014 3.38821 21.0185 3.12773 20.9518C2.86725 20.8851 2.62949 20.7495 2.43934 20.5594C2.2492 20.3693 2.11367 20.1315 2.04693 19.871C1.98019 19.6105 1.98471 19.3369 2.06 19.0787L2.89803 16.2066C3.03934 15.7227 3.30036 15.282 3.65689 14.9256L15.6679 2.91463ZM10.999 19.9998C10.999 19.4475 11.4467 18.9998 11.999 18.9998H20.999C21.5513 18.9998 21.999 19.4475 21.999 19.9998C21.999 20.552 21.5513 20.9998 20.999 20.9998H11.999C11.4467 20.9998 10.999 20.552 10.999 19.9998Z" fill="#202327"/>
</g>
<defs>
<clipPath id="clip0_18_13950">
<rect width="24" height="24" fill="white"/>
</clipPath>
</defs>
</svg>
