<svg width="24" height="24" viewBox="0 0 24 24" fill="none" xmlns="http://www.w3.org/2000/svg">
<g clip-path="url(#clip0_18_15161)">
<path d="M19.8622 14.4932C20.0294 14.7776 20.0469 15.1306 19.9012 15.4336C19.7347 15.7799 19.3842 16 18.9999 16L2.99988 16C2.61559 16 2.26509 15.7799 2.09851 15.4336C1.93199 15.0871 1.97849 14.6752 2.21863 14.375L10.2186 4.375C10.4084 4.13778 10.6961 4 10.9999 4C11.3037 4 11.5914 4.13778 11.7811 4.375L19.7811 14.375L19.8622 14.4932ZM2.99988 18L18.9999 18C19.5522 18 19.9999 18.4477 19.9999 19C19.9999 19.5523 19.5522 20 18.9999 20L2.99988 20C2.44759 20 1.99988 19.5523 1.99988 19C1.99988 18.4477 2.44759 18 2.99988 18Z" fill="#202327"/>
</g>
<defs>
<clipPath id="clip0_18_15161">
<rect width="24" height="24" fill="white"/>
</clipPath>
</defs>
</svg>
