<svg width="24" height="24" viewBox="0 0 24 24" fill="none" xmlns="http://www.w3.org/2000/svg">
<path d="M12 19C12.3978 19 12.7794 19.158 13.0607 19.4393C13.342 19.7206 13.5 20.1022 13.5 20.5C13.5 20.8978 13.342 21.2794 13.0607 21.5607C12.7794 21.842 12.3978 22 12 22C11.6022 22 11.2206 21.842 10.9393 21.5607C10.658 21.2794 10.5 20.8978 10.5 20.5C10.5 20.1022 10.658 19.7206 10.9393 19.4393C11.2206 19.158 11.6022 19 12 19ZM6.5 19C6.89782 19 7.27936 19.158 7.56066 19.4393C7.84196 19.7206 8 20.1022 8 20.5C8 20.8978 7.84196 21.2794 7.56066 21.5607C7.27936 21.842 6.89782 22 6.5 22C6.10218 22 5.72064 21.842 5.43934 21.5607C5.15804 21.2794 5 20.8978 5 20.5C5 20.1022 5.15804 19.7206 5.43934 19.4393C5.72064 19.158 6.10218 19 6.5 19ZM17.5 19C17.8978 19 18.2794 19.158 18.5607 19.4393C18.842 19.7206 19 20.1022 19 20.5C19 20.8978 18.842 21.2794 18.5607 21.5607C18.2794 21.842 17.8978 22 17.5 22C17.1022 22 16.7206 21.842 16.4393 21.5607C16.158 21.2794 16 20.8978 16 20.5C16 20.1022 16.158 19.7206 16.4393 19.4393C16.7206 19.158 17.1022 19 17.5 19ZM12 2C12.5523 2 13 2.44772 13 3V4H18C18.5523 4 19 4.44772 19 5C19 5.55228 18.5523 6 18 6H17.032C16.2604 8.32251 15.029 10.4658 13.411 12.302C14.7122 13.4648 16.2082 14.3846 17.8277 15.0206C18.3297 15.2178 18.6238 15.7553 18.4794 16.275C18.3277 16.8213 17.7524 17.1362 17.2229 16.9333C15.3016 16.1969 13.5302 15.1104 12 13.726C10.4694 15.11 8.69789 16.1962 6.7766 16.9324C6.24738 17.1352 5.67229 16.8206 5.52056 16.2745C5.37621 15.755 5.67002 15.2178 6.17183 15.0206C7.79134 14.3843 9.28749 13.4645 10.589 12.302C9.80724 11.417 9.11495 10.4585 8.52142 9.44063C8.14029 8.78703 8.63538 8.002 9.39198 8.002C9.77097 8.002 10.1172 8.2109 10.3105 8.53685C10.802 9.36541 11.3674 10.1483 12 10.876C13.2501 9.43506 14.2352 7.78428 14.91 6H6C5.44772 6 5 5.55228 5 5C5 4.44772 5.44772 4 6 4H11V3C11 2.44772 11.4477 2 12 2Z" fill="#202327"/>
</svg>
