<svg width="24" height="24" viewBox="0 0 24 24" fill="none" xmlns="http://www.w3.org/2000/svg">
<path d="M14 11C14 10.4477 14.4477 10 15 10H15.243C15.6611 10 16 10.3389 16 10.757C16.6777 10.3042 17.4656 10.044 18.2796 10.0041C19.0936 9.96414 19.9032 10.146 20.6219 10.5303C21.3406 10.9147 21.9415 11.4869 22.3603 12.1861C22.7791 12.8852 23.0002 13.685 23 14.5V19C23 19.5523 22.5523 20 22 20C21.4477 20 21 19.5523 21 19V14.5C21 13.07 19.825 12 18.5 12C17.175 12 16 13.07 16 14.5V19C16 19.5523 15.5523 20 15 20C14.4477 20 14 19.5523 14 19V11ZM11 4C11.5523 4 12 4.44772 12 5C12 5.55228 11.5523 6 11 6H4V11H11C11.5523 11 12 11.4477 12 12C12 12.5523 11.5523 13 11 13H4V18H11C11.5523 18 12 18.4477 12 19C12 19.5523 11.5523 20 11 20H2.57143C2.25584 20 2 19.7442 2 19.4286V4.57143C2 4.25584 2.25584 4 2.57143 4H11Z" fill="#202327"/>
</svg>
