<svg width="24" height="24" viewBox="0 0 24 24" fill="none" xmlns="http://www.w3.org/2000/svg">
<path d="M20 7H11H20Z" fill="#202327"/>
<path d="M14 17H5H14Z" fill="#202327"/>
<path d="M17 20C18.6569 20 20 18.6569 20 17C20 15.3431 18.6569 14 17 14C15.3431 14 14 15.3431 14 17C14 18.6569 15.3431 20 17 20Z" fill="#202327"/>
<path d="M7 10C8.65685 10 10 8.65685 10 7C10 5.34315 8.65685 4 7 4C5.34315 4 4 5.34315 4 7C4 8.65685 5.34315 10 7 10Z" fill="#202327"/>
<path fill-rule="evenodd" clip-rule="evenodd" d="M7 5C5.89543 5 5 5.89543 5 7C5 8.10457 5.89543 9 7 9C8.10457 9 9 8.10457 9 7C9 5.89543 8.10457 5 7 5ZM3 7C3 4.79086 4.79086 3 7 3C8.86658 3 10.4345 4.27853 10.8759 6.00762C10.9166 6.00259 10.958 6 11 6H20C20.5523 6 21 6.44772 21 7C21 7.55228 20.5523 8 20 8H11C10.958 8 10.9166 7.99741 10.8759 7.99238C10.4345 9.72147 8.86658 11 7 11C4.79086 11 3 9.20914 3 7ZM17 15C15.8954 15 15 15.8954 15 17C15 18.1046 15.8954 19 17 19C18.1046 19 19 18.1046 19 17C19 15.8954 18.1046 15 17 15ZM13.126 16C13.5701 14.2748 15.1362 13 17 13C19.2091 13 21 14.7909 21 17C21 19.2091 19.2091 21 17 21C15.1362 21 13.5701 19.7252 13.126 18H5C4.44772 18 4 17.5523 4 17C4 16.4477 4.44772 16 5 16H13.126Z" fill="#202327"/>
</svg>
