<svg width="24" height="24" viewBox="0 0 24 24" fill="none" xmlns="http://www.w3.org/2000/svg">
<path d="M12.0039 22.0029C6.48107 22.0029 2.00391 17.5258 2.00391 12.0029C2.00391 6.48008 6.48107 2.00293 12.0039 2.00293C17.5267 2.00293 22.0039 6.48008 22.0039 12.0029C22.0039 17.5258 17.5267 22.0029 12.0039 22.0029ZM12.0039 20.0029C16.4222 20.0029 20.0039 16.4212 20.0039 12.0029C20.0039 7.58465 16.4222 4.00293 12.0039 4.00293C7.58563 4.00293 4.00391 7.58465 4.00391 12.0029C4.00391 16.4212 7.58563 20.0029 12.0039 20.0029ZM7.00391 13.0029H16.0039V15.0029H12.0039V18.0029L7.00391 13.0029ZM12.0039 9.00293V6.00293L17.0039 11.0029H8.00391V9.00293H12.0039Z" fill="#202327"/>
</svg>
