<svg width="24" height="24" viewBox="0 0 24 24" fill="none" xmlns="http://www.w3.org/2000/svg">
<path fill-rule="evenodd" clip-rule="evenodd" d="M1.29338 1.29289C1.68391 0.902369 2.31707 0.902369 2.7076 1.29289L22.7076 21.2929C23.0981 21.6834 23.0981 22.3166 22.7076 22.7071C22.3171 23.0976 21.6839 23.0976 21.2934 22.7071L17.3155 18.7292C16.0452 19.3735 14.6664 19.7824 13.2458 19.9338C11.5701 20.1124 9.8756 19.9284 8.27724 19.3944C6.67889 18.8603 5.21412 17.9888 3.9823 16.8387C2.75048 15.6887 1.78045 14.2872 1.13802 12.7292C1.13349 12.7183 1.12915 12.7072 1.12501 12.696C0.95833 12.247 0.95833 11.7531 1.12501 11.304C1.12915 11.2929 1.13349 11.2818 1.13802 11.2708C1.94504 9.31375 3.26247 7.61858 4.94254 6.35626L1.29338 2.70711C0.902857 2.31658 0.902857 1.68342 1.29338 1.29289ZM6.3739 7.78763C4.87965 8.84353 3.70829 10.302 3.00076 12C3.53389 13.2795 4.33375 14.4307 5.34714 15.3768C6.36928 16.3311 7.58474 17.0543 8.91103 17.4975C10.2373 17.9406 11.6434 18.0932 13.0339 17.9451C13.9924 17.8429 14.928 17.5995 15.8109 17.2246L14.032 15.4457C13.4112 15.8118 12.6977 16.0064 11.9655 16C10.9167 15.9909 9.91345 15.5702 9.17182 14.8286C8.43018 14.0869 8.00951 13.0837 8.0004 12.0349C7.99403 11.3027 8.18864 10.5891 8.55466 9.96839L6.3739 7.78763ZM10.0685 11.4822C10.0221 11.6553 9.99874 11.8352 10.0003 12.0175C10.0049 12.5419 10.2152 13.0435 10.586 13.4144C10.9568 13.7852 11.4585 13.9955 11.9829 14.0001C12.1652 14.0017 12.3451 13.9783 12.5182 13.9319L10.0685 11.4822ZM16.9362 7.34052C15.1012 6.26379 12.9643 5.81721 10.8517 6.06897C10.3033 6.13432 9.80578 5.74273 9.74043 5.19433C9.67507 4.64592 10.0667 4.14837 10.6151 4.08302C13.1613 3.77958 15.7368 4.31783 17.9484 5.61556C20.1599 6.91329 21.886 8.89919 22.863 11.27C22.8675 11.2809 22.8718 11.2919 22.8759 11.303C23.0426 11.752 23.0426 12.246 22.8759 12.695C22.8717 12.7062 22.8674 12.7173 22.8629 12.7283C22.4612 13.7022 21.9303 14.6176 21.2845 15.45C20.9459 15.8863 20.3178 15.9656 19.8814 15.6271C19.4451 15.2885 19.3658 14.6604 19.7043 14.224C20.2328 13.5428 20.6685 12.7946 21.0001 11.999C20.1872 10.0465 18.7608 8.41122 16.9362 7.34052Z" fill="#202327"/>
</svg>
