<svg width="24" height="24" viewBox="0 0 24 24" fill="none" xmlns="http://www.w3.org/2000/svg">
<path d="M12.0009 4.00098C14.3276 4.00113 16.6024 4.69218 18.5361 5.98633C20.3487 7.19965 21.7859 8.89203 22.6894 10.8711L22.8632 11.2715L22.8759 11.3047C23.0216 11.6975 23.04 12.125 22.9306 12.5264L22.8759 12.6963C22.8718 12.7073 22.8677 12.7186 22.8632 12.7295C21.976 14.8806 20.4698 16.7204 18.5361 18.0146C16.7233 19.2279 14.6106 19.9104 12.4364 19.9912L12.0009 20C9.67403 20 7.39853 19.3088 5.46476 18.0146C3.65183 16.8013 2.21499 15.1083 1.31144 13.1289L1.13761 12.7295C1.13315 12.7187 1.12899 12.7073 1.12491 12.6963C0.958314 12.2474 0.958411 11.7536 1.12491 11.3047L1.13761 11.2715C2.02479 9.12036 3.53104 7.2806 5.46476 5.98633C7.39857 4.69209 9.67394 4.00098 12.0009 4.00098ZM11.9999 8C9.79078 8 7.99992 9.79086 7.99992 12C7.99992 14.2091 9.79078 16 11.9999 16C14.209 16 15.9999 14.2091 15.9999 12C15.9999 9.79089 14.209 8.00005 11.9999 8ZM11.9999 10C13.1044 10 13.9999 10.8955 13.9999 12C13.9999 13.1045 13.1044 14 11.9999 14C10.8953 14 9.99992 13.1046 9.99992 12C9.99992 10.8954 10.8953 10 11.9999 10Z" fill="#202327"/>
</svg>
