<svg width="24" height="24" viewBox="0 0 24 24" fill="none" xmlns="http://www.w3.org/2000/svg">
<path fill-rule="evenodd" clip-rule="evenodd" d="M12.0005 6.00098C10.0696 6.00098 8.18216 6.57431 6.57748 7.6483C4.98279 8.71561 3.73872 10.2296 3.00076 12.0004C3.73872 13.7711 4.98279 15.2851 6.57748 16.3524C8.18216 17.4264 10.0696 17.9997 12.0005 17.9997C13.9314 17.9997 15.8189 17.4264 17.4235 16.3524C19.0182 15.2851 20.2623 13.7711 21.0002 12.0004C20.2623 10.2296 19.0182 8.71561 17.4235 7.6483C15.8189 6.57431 13.9314 6.00098 12.0005 6.00098ZM5.46507 5.98622C7.39891 4.69192 9.67351 4.00098 12.0005 4.00098C14.3275 4.00098 16.6021 4.69192 18.5359 5.98622C20.4698 7.28051 21.9758 9.11986 22.863 11.2711C22.8675 11.2821 22.8719 11.2932 22.876 11.3044C23.0427 11.7534 23.0427 12.2473 22.876 12.6964C22.8719 12.7075 22.8675 12.7186 22.863 12.7296C21.9758 14.8809 20.4698 16.7202 18.5359 18.0145C16.6021 19.3088 14.3275 19.9997 12.0005 19.9997C9.67351 19.9997 7.39891 19.3088 5.46507 18.0145C3.53123 16.7202 2.02525 14.8809 1.13804 12.7296C1.1335 12.7186 1.12916 12.7075 1.12501 12.6964C0.95833 12.2473 0.95833 11.7534 1.12501 11.3044C1.12916 11.2932 1.1335 11.2821 1.13804 11.2711C2.02525 9.11986 3.53123 7.28051 5.46507 5.98622ZM12.0005 10.0002C10.8959 10.0002 10.0005 10.8957 10.0005 12.0002C10.0005 13.1048 10.8959 14.0002 12.0005 14.0002C13.1051 14.0002 14.0005 13.1048 14.0005 12.0002C14.0005 10.8957 13.1051 10.0002 12.0005 10.0002ZM8.00049 12.0002C8.00049 9.79111 9.79135 8.00024 12.0005 8.00024C14.2096 8.00024 16.0005 9.79111 16.0005 12.0002C16.0005 14.2094 14.2096 16.0002 12.0005 16.0002C9.79135 16.0002 8.00049 14.2094 8.00049 12.0002Z" fill="#202327"/>
</svg>
