<svg width="24" height="24" viewBox="0 0 24 24" fill="none" xmlns="http://www.w3.org/2000/svg">
<path d="M1.29285 1.79321C1.65897 1.42712 2.23797 1.40451 2.63074 1.72485L2.70691 1.79321L22.207 21.2933L22.2753 21.3694C22.5954 21.7622 22.573 22.3413 22.207 22.7073C21.841 23.0733 21.2619 23.0957 20.8691 22.7757L20.7929 22.7073L16.9755 18.8899C15.5549 19.5544 14.0126 19.9329 12.4364 19.9915L12.0009 20.0003C9.67417 20.0003 7.39843 19.3089 5.46474 18.0149C3.65191 16.8016 2.21497 15.1084 1.3114 13.1292L1.13757 12.7298C1.13316 12.7191 1.12891 12.7074 1.12488 12.6966C0.958301 12.2478 0.958447 11.7538 1.12488 11.305L1.13757 11.2717C1.89777 9.42855 3.11319 7.81496 4.662 6.57643L1.29285 3.20728L1.22449 3.13111C0.904136 2.73833 0.92673 2.15933 1.29285 1.79321ZM12.0009 4.00123C14.3275 4.00145 16.6025 4.69249 18.5361 5.98658C20.3485 7.19989 21.786 8.89242 22.6894 10.8714L22.8632 11.2717L22.8759 11.305C23.0215 11.6977 23.04 12.1254 22.9306 12.5266L22.8759 12.6966C22.8719 12.7075 22.8677 12.719 22.8632 12.7298C22.3222 14.0415 21.5488 15.2359 20.5908 16.263L15.9833 11.6555C15.8181 9.72098 14.2775 8.17933 12.3427 8.01491L8.78018 4.4524C9.8222 4.15544 10.9058 4.00123 12.0009 4.00123ZM8.38076 10.2952C8.13675 10.8124 7.9999 11.3904 7.9999 12.0003C8.00006 14.2093 9.79086 16.0003 11.9999 16.0003C12.6093 16.0002 13.1853 15.8605 13.7021 15.6165L12.0819 13.9964C12.0547 13.9975 12.0274 14.0003 11.9999 14.0003C10.8954 14.0003 10.0001 13.1047 9.99991 12.0003C9.99991 11.9725 10.0017 11.9447 10.0028 11.9173L8.38076 10.2952Z" fill="#202327"/>
</svg>
