<svg width="24" height="24" viewBox="0 0 24 24" fill="none" xmlns="http://www.w3.org/2000/svg">
<path fill-rule="evenodd" clip-rule="evenodd" d="M1.65747 6.06038C2.17629 5.87105 2.75036 6.13816 2.93968 6.65698C3.59237 8.4456 4.7592 9.99942 6.29115 11.1245C6.3071 11.1354 6.32282 11.1469 6.33829 11.1589C6.38237 11.1908 6.42674 11.2224 6.47141 11.2537C8.09214 12.3875 10.0223 12.9957 12.0003 12.9957C13.9782 12.9957 15.9084 12.3875 17.5291 11.2537C17.5734 11.2227 17.6174 11.1914 17.6611 11.1597C17.6773 11.1471 17.6937 11.1351 17.7104 11.1237C19.2419 9.99873 20.4083 8.4452 21.0609 6.65698C21.2502 6.13816 21.8243 5.87105 22.3431 6.06038C22.8619 6.2497 23.129 6.82376 22.9397 7.34258C22.2703 9.17691 21.1531 10.8067 19.6982 12.0884L20.7652 13.3557C21.1209 13.7781 21.0667 14.409 20.6443 14.7647C20.2218 15.1204 19.5909 15.0663 19.2352 14.6438L18.086 13.2789C17.2611 13.7846 16.3795 14.1835 15.4625 14.4691L15.9765 16.7829C16.0963 17.3221 15.7564 17.8562 15.2172 17.976C14.6781 18.0958 14.1439 17.7558 14.0241 17.2167L13.5089 14.8975C13.0107 14.9626 12.5068 14.9957 12.0003 14.9957C11.4938 14.9957 10.9899 14.9626 10.4917 14.8975L9.97647 17.2167C9.8567 17.7558 9.32255 18.0958 8.78341 17.976C8.24426 17.8562 7.9043 17.3221 8.02407 16.7829L8.5381 14.4691C7.62104 14.1835 6.7394 13.7846 5.91445 13.2789L4.76524 14.6438C4.40953 15.0663 3.77869 15.1204 3.35621 14.7647C2.93372 14.409 2.87959 13.7781 3.2353 13.3557L4.3023 12.0884C2.84746 10.8067 1.73022 9.17689 1.06086 7.34258C0.87154 6.82376 1.13865 6.2497 1.65747 6.06038Z" fill="#202327"/>
</svg>
