<svg width="24" height="24" viewBox="0 0 24 24" fill="none" xmlns="http://www.w3.org/2000/svg">
<g clip-path="url(#clip0_2439_721)">
<path d="M13.9268 14.9045C14.1481 14.7577 14.4194 14.7049 14.6797 14.758C14.94 14.8111 15.1692 14.9668 15.3154 15.1887L18.3457 19.7912C18.6486 20.2513 18.5224 20.8704 18.0635 21.175C16.3248 22.3285 14.2392 23.0002 12 23.0002C9.76081 23.0002 7.67518 22.3285 5.93652 21.175C5.47762 20.8704 5.3514 20.2513 5.6543 19.7912L8.68457 15.1887L8.74316 15.1086C8.88841 14.9294 9.09235 14.8045 9.32031 14.758C9.58058 14.7049 9.85185 14.7577 10.0732 14.9045C10.6257 15.2709 11.2865 15.4846 12 15.4846C12.7135 15.4846 13.3743 15.2709 13.9268 14.9045ZM7.16895 2.06657C7.38398 1.98415 7.62234 1.97762 7.84277 2.05094C8.09478 2.13483 8.30327 2.31623 8.42188 2.55387L10.8818 7.48845C11.1277 7.98159 10.9279 8.58084 10.4355 8.82829C9.28689 9.40557 8.50015 10.5969 8.5 11.9719C8.5 12.0429 8.50177 12.1135 8.50586 12.1828C8.5385 12.7336 8.11911 13.2071 7.56836 13.2404L2.07812 13.5705C1.81317 13.5864 1.55203 13.4967 1.35352 13.3205C1.15525 13.1443 1.03513 12.8958 1.01953 12.631C1.0067 12.413 1 12.1929 1 11.9719C1.00015 7.65452 3.47532 3.91664 7.07812 2.10661L7.16895 2.06657ZM16.1572 2.05094C16.4092 1.96712 16.6845 1.98746 16.9219 2.10661C20.5247 3.91664 22.9998 7.65453 23 11.9719C23 12.193 22.9933 12.413 22.9805 12.631C22.9649 12.8958 22.8448 13.1443 22.6465 13.3205C22.448 13.4967 22.1868 13.5864 21.9219 13.5705L16.4316 13.2404C15.8809 13.2071 15.4615 12.7336 15.4941 12.1828C15.4982 12.1135 15.5 12.0429 15.5 11.9719C15.4998 10.5969 14.7131 9.40557 13.5645 8.82829C13.0721 8.58084 12.8723 7.98159 13.1182 7.48845L15.5781 2.55387L15.627 2.46793C15.7497 2.27289 15.9366 2.12438 16.1572 2.05094ZM12 10.5002C12.8284 10.5002 13.4999 11.1718 13.5 12.0002C13.5 12.8286 12.8285 13.5002 12 13.5002C11.1716 13.5002 10.5 12.8286 10.5 12.0002C10.5001 11.1718 11.1717 10.5002 12 10.5002Z" fill="#202327"/>
</g>
<defs>
<clipPath id="clip0_2439_721">
<rect width="24" height="24" fill="white"/>
</clipPath>
</defs>
</svg>
