<svg width="24" height="24" viewBox="0 0 24 24" fill="none" xmlns="http://www.w3.org/2000/svg">
<path d="M12.3604 5.50145C12.7034 5.33364 13.1126 5.37634 13.4141 5.61082L20.6143 11.2104C20.8577 11.3998 20.9999 11.6911 21 11.9995C21 12.3081 20.8578 12.6001 20.6143 12.7895L13.4141 18.3891C13.1126 18.6236 12.7034 18.6663 12.3604 18.4985C12.0174 18.3307 11.7999 17.9819 11.7998 17.6001V12.7993L4.61426 18.3891C4.31279 18.6236 3.90363 18.6663 3.56055 18.4985C3.21751 18.3307 3.00007 17.9819 3 17.6001V6.39988C3 6.01796 3.21747 5.66926 3.56055 5.50145C3.90364 5.33364 4.31278 5.37634 4.61426 5.61082L11.7998 11.1997V6.39988C11.7998 6.01802 12.0174 5.66929 12.3604 5.50145ZM5 15.5552L9.57031 11.9995L5 8.44383V15.5552ZM13.7998 15.5552L18.3701 11.9995L13.7998 8.44383V15.5552Z" fill="#202327"/>
</svg>
