<svg width="24" height="24" viewBox="0 0 24 24" fill="none" xmlns="http://www.w3.org/2000/svg">
<path d="M11.6396 5.50145C11.2966 5.33364 10.8874 5.37634 10.5859 5.61082L3.38574 11.2104C3.14235 11.3998 3.00012 11.6911 3 11.9995C3 12.3081 3.14219 12.6001 3.38574 12.7895L10.5859 18.3891C10.8874 18.6236 11.2966 18.6663 11.6396 18.4985C11.9826 18.3307 12.2001 17.9819 12.2002 17.6001V12.7993L19.3857 18.3891C19.6872 18.6236 20.0964 18.6663 20.4395 18.4985C20.7825 18.3307 20.9999 17.9819 21 17.6001V6.39988C21 6.01796 20.7825 5.66926 20.4395 5.50145C20.0964 5.33364 19.6872 5.37634 19.3857 5.61082L12.2002 11.1997V6.39988C12.2002 6.01802 11.9826 5.66929 11.6396 5.50145Z" fill="#151826"/>
</svg>
