<svg width="24" height="24" viewBox="0 0 24 24" fill="none" xmlns="http://www.w3.org/2000/svg">
<g clip-path="url(#clip0_18_12991)">
<path d="M15.0986 1.00488C15.3276 1.02757 15.5429 1.12883 15.707 1.29297L20.707 6.29297C20.8946 6.4805 21 6.73478 21 7V20C21 20.7957 20.6837 21.5585 20.1211 22.1211C19.5585 22.6837 18.7957 23 18 23H16C15.4477 23 15 22.5523 15 22C15 21.4477 15.4477 21 16 21H18C18.2652 21 18.5195 20.8946 18.707 20.707C18.8946 20.5195 19 20.2652 19 20V9H16C15.2044 9 14.4415 8.6837 13.8789 8.12109C13.3163 7.55849 13 6.79565 13 6V3H6C5.73478 3 5.4805 3.10543 5.29297 3.29297C5.10543 3.4805 5 3.73478 5 4V7C5 7.55228 4.55228 8 4 8C3.44772 8 3 7.55228 3 7V4C3 3.20435 3.3163 2.44152 3.87891 1.87891C4.44152 1.3163 5.20435 1 6 1H15L15.0986 1.00488ZM6.66699 11C7.77141 11.0002 8.66699 11.8955 8.66699 13V13.333C8.66699 13.8852 8.21913 14.3328 7.66699 14.333C7.11471 14.333 6.66699 13.8853 6.66699 13.333V13H4V19H6.66699V17.667H6.33301C5.78098 17.6668 5.33318 17.219 5.33301 16.667C5.33301 16.1148 5.78087 15.6672 6.33301 15.667H7.66699C8.21913 15.6672 8.66699 16.1148 8.66699 16.667V19C8.66699 20.1045 7.77141 20.9998 6.66699 21H4C2.89543 21 2 20.1046 2 19V13C2 11.8954 2.89543 11 4 11H6.66699ZM10.2666 11C10.8189 11 11.2666 11.4477 11.2666 12V20C11.2666 20.5523 10.8189 21 10.2666 21C9.71432 21 9.2666 20.5523 9.2666 20V12C9.2666 11.4477 9.71432 11 10.2666 11ZM16.3027 11.0049C16.8068 11.0563 17.2002 11.4824 17.2002 12C17.2002 12.5176 16.8068 12.9437 16.3027 12.9951L16.2002 13H13.8672V15.333H15.5342L15.6357 15.3389C16.1398 15.3901 16.534 15.8154 16.5342 16.333C16.5342 16.8507 16.1399 17.2769 15.6357 17.3281L15.5342 17.333H13.8672V20C13.8672 20.5521 13.4192 20.9997 12.8672 21C12.3149 21 11.8672 20.5523 11.8672 20V12L11.8721 11.8975C11.9234 11.3934 12.3495 11 12.8672 11H16.2002L16.3027 11.0049ZM15 6C15 6.26522 15.1054 6.51949 15.293 6.70703C15.4805 6.89457 15.7348 7 16 7H18.5859L15 3.41406V6Z" fill="#202327"/>
</g>
<defs>
<clipPath id="clip0_18_12991">
<rect width="24" height="24" fill="white"/>
</clipPath>
</defs>
</svg>
