<svg width="24" height="24" viewBox="0 0 24 24" fill="none" xmlns="http://www.w3.org/2000/svg">
<g clip-path="url(#clip0_18_13093)">
<path d="M13 16C13 13.2386 10.7614 11 8 11C5.23858 11 3 13.2386 3 16C3 18.7614 5.23858 21 8 21C10.7614 21 13 18.7614 13 16ZM7 14C7 13.4477 7.44772 13 8 13C8.55228 13 9 13.4477 9 14V15.7803L10.1406 16.7314L10.2158 16.8008C10.5704 17.1629 10.6 17.7429 10.2686 18.1406C9.93707 18.5383 9.36154 18.6135 8.94141 18.3301L8.85938 18.2686L7.35938 17.0186C7.13144 16.8286 7 16.5467 7 16.25V14ZM3 7V4C3 3.20435 3.3163 2.44152 3.87891 1.87891C4.44152 1.3163 5.20435 1 6 1H15L15.0986 1.00488C15.3276 1.02757 15.5429 1.12883 15.707 1.29297L20.707 6.29297C20.8946 6.4805 21 6.73478 21 7V20C21 20.7957 20.6837 21.5585 20.1211 22.1211C19.5585 22.6837 18.7957 23 18 23H16C15.4477 23 15 22.5523 15 22C15 21.4477 15.4477 21 16 21H18C18.2652 21 18.5195 20.8946 18.707 20.707C18.8946 20.5195 19 20.2652 19 20V9H16C15.2044 9 14.4415 8.6837 13.8789 8.12109C13.3163 7.55849 13 6.79565 13 6V3H6C5.73478 3 5.4805 3.10543 5.29297 3.29297C5.10543 3.4805 5 3.73478 5 4V7C5 7.55228 4.55228 8 4 8C3.44772 8 3 7.55228 3 7ZM15 16C15 19.866 11.866 23 8 23C4.13401 23 1 19.866 1 16C1 12.134 4.13401 9 8 9C11.866 9 15 12.134 15 16ZM15 6C15 6.26522 15.1054 6.51949 15.293 6.70703C15.4805 6.89457 15.7348 7 16 7H18.5859L15 3.41406V6Z" fill="#202327"/>
</g>
<defs>
<clipPath id="clip0_18_13093">
<rect width="24" height="24" fill="white"/>
</clipPath>
</defs>
</svg>
