<svg width="24" height="24" viewBox="0 0 24 24" fill="none" xmlns="http://www.w3.org/2000/svg">
<g clip-path="url(#clip0_746_104)">
<path d="M7 13C7 11.1073 7.65814 9.36918 8.75586 8H3V18H8.75586C7.65814 16.6308 7 14.8927 7 13ZM17 13C17 12.4477 17.4477 12 18 12C18.5523 12 19 12.4477 19 13C19 15.2091 17.2091 17 15 17C14.4477 17 14 16.5523 14 16C14 15.4477 14.4477 15 15 15C16.1046 15 17 14.1046 17 13ZM4 15V11C4 10.4477 4.44772 10 5 10C5.55228 10 6 10.4477 6 11V15C6 15.5523 5.55228 16 5 16C4.44772 16 4 15.5523 4 15ZM11 13C11 10.7909 12.7909 9 15 9C15.5523 9 16 9.44772 16 10C16 10.5523 15.5523 11 15 11C13.8954 11 13 11.8954 13 13C13 13.5523 12.5523 14 12 14C11.4477 14 11 13.5523 11 13ZM5 6H7.5V5.5H5V6ZM9 13C9 15.1813 10.1633 17.092 11.9082 18.1436L12.2539 18.3359C13.076 18.76 14.0088 19 15 19C16.1327 19 17.1896 18.6871 18.0918 18.1436L18.4004 17.9443C19.1048 17.4587 19.7008 16.8264 20.1436 16.0918L20.3359 15.7461C20.76 14.924 21 13.9912 21 13C21 12.0088 20.76 11.076 20.3359 10.2539L20.1436 9.9082C19.7008 9.17361 19.1048 8.54125 18.4004 8.05566L18.0918 7.85645C17.1896 7.31287 16.1327 7 15 7C14.0088 7 13.076 7.23996 12.2539 7.66406L11.9082 7.85645C10.1633 8.90796 9 10.8187 9 13ZM23 13C23 14.4042 22.6371 15.7262 22 16.875V19C22 19.5523 21.5523 20 21 20H18.875C17.7262 20.6371 16.4042 21 15 21C13.5958 21 12.2738 20.6371 11.125 20H1V6H3V4.5L3.00488 4.39746C3.05621 3.89333 3.48232 3.5 4 3.5H8.5L8.60254 3.50488C9.10667 3.55621 9.5 3.98232 9.5 4.5V6H11.125C12.2738 5.36289 13.5958 5 15 5C16.4042 5 17.7262 5.36289 18.875 6H21L21.1025 6.00488C21.6067 6.05621 22 6.48232 22 7V9.12402C22.6374 10.273 23 11.5955 23 13Z" fill="#202327"/>
</g>
<defs>
<clipPath id="clip0_746_104">
<rect width="24" height="24" fill="white"/>
</clipPath>
</defs>
</svg>
