<svg width="24" height="24" viewBox="0 0 24 24" fill="none" xmlns="http://www.w3.org/2000/svg">
<g clip-path="url(#clip0_18_13057)">
<path d="M13 6C13 7.65685 14.3431 9 16 9H21V20C21 20.7957 20.6837 21.5585 20.1211 22.1211C19.5585 22.6837 18.7957 23 18 23H6C5.20435 23 4.44152 22.6837 3.87891 22.1211C3.3163 21.5585 3 20.7957 3 20V4C3 3.20435 3.3163 2.44152 3.87891 1.87891C4.44152 1.3163 5.20435 1 6 1H13V6ZM8 16C7.44772 16 7 16.4477 7 17C7 17.5523 7.44772 18 8 18H16C16.5523 18 17 17.5523 17 17C17 16.4477 16.5523 16 16 16H8ZM8 12C7.44772 12 7 12.4477 7 13C7 13.5523 7.44772 14 8 14H16C16.5523 14 17 13.5523 17 13C17 12.4477 16.5523 12 16 12H8ZM8 8C7.44772 8 7 8.44772 7 9C7 9.55229 7.44772 10 8 10H10C10.5523 10 11 9.55229 11 9C11 8.44772 10.5523 8 10 8H8ZM15 1C15.2652 1 15.5195 1.10543 15.707 1.29297L20.707 6.29297C20.8946 6.4805 21 6.73478 21 7H16C15.4477 7 15 6.55228 15 6V1Z" fill="#202327"/>
</g>
<defs>
<clipPath id="clip0_18_13057">
<rect width="24" height="24" fill="white"/>
</clipPath>
</defs>
</svg>
