<svg width="24" height="24" viewBox="0 0 24 24" fill="none" xmlns="http://www.w3.org/2000/svg">
<g clip-path="url(#clip0_18_13000)">
<path d="M13 6C13 7.65685 14.3431 9 16 9H21V20C21 20.7957 20.6837 21.5585 20.1211 22.1211C19.5585 22.6837 18.7957 23 18 23H6C5.20435 23 4.44152 22.6837 3.87891 22.1211C3.5064 21.7486 3.24463 21.2876 3.1084 20.7881C3.37711 20.9223 3.6792 21 4 21H6.66699C7.77141 20.9998 8.66699 20.1045 8.66699 19V16.667C8.66699 16.1148 8.21913 15.6672 7.66699 15.667H6.33301C5.78087 15.6672 5.33301 16.1148 5.33301 16.667C5.33318 17.219 5.78098 17.6668 6.33301 17.667H6.66699V19H4V13H6.66699V13.333C6.66699 13.8853 7.11471 14.333 7.66699 14.333C8.21913 14.3328 8.66699 13.8852 8.66699 13.333V13C8.66699 11.8955 7.77141 11.0002 6.66699 11H4C3.63536 11 3.29437 11.0991 3 11.2695V4C3 3.20435 3.3163 2.44152 3.87891 1.87891C4.44152 1.3163 5.20435 1 6 1H13V6ZM10.2666 11C9.71432 11 9.2666 11.4477 9.2666 12V20C9.2666 20.5523 9.71432 21 10.2666 21C10.8189 21 11.2666 20.5523 11.2666 20V12C11.2666 11.4477 10.8189 11 10.2666 11ZM12.8672 11C12.3495 11 11.9234 11.3934 11.8721 11.8975L11.8672 12V20C11.8672 20.5523 12.3149 21 12.8672 21C13.4192 20.9997 13.8672 20.5521 13.8672 20V17.333H15.5342L15.6357 17.3281C16.1399 17.2769 16.5342 16.8507 16.5342 16.333C16.534 15.8154 16.1398 15.3901 15.6357 15.3389L15.5342 15.333H13.8672V13H16.2002L16.3027 12.9951C16.8068 12.9437 17.2002 12.5176 17.2002 12C17.2002 11.4824 16.8068 11.0563 16.3027 11.0049L16.2002 11H12.8672ZM15 1C15.2652 1 15.5195 1.10543 15.707 1.29297L20.707 6.29297C20.8946 6.4805 21 6.73478 21 7H16C15.4477 7 15 6.55228 15 6V1Z" fill="#202327"/>
</g>
<defs>
<clipPath id="clip0_18_13000">
<rect width="24" height="24" fill="white"/>
</clipPath>
</defs>
</svg>
