<svg width="24" height="24" viewBox="0 0 24 24" fill="none" xmlns="http://www.w3.org/2000/svg">
<g clip-path="url(#clip0_18_13081)">
<path d="M15.0986 1.00488C15.3276 1.02757 15.5429 1.12883 15.707 1.29297L20.707 6.29297C20.8946 6.4805 21 6.73478 21 7V20C21 20.7957 20.6837 21.5585 20.1211 22.1211C19.5585 22.6837 18.7957 23 18 23H6C5.20435 23 4.44151 22.6837 3.87891 22.1211C3.3163 21.5585 3 20.7957 3 20V4C3 3.20435 3.3163 2.44152 3.87891 1.87891C4.44152 1.3163 5.20435 1 6 1H15L15.0986 1.00488ZM12 12C11.4477 12 11 12.4477 11 13V17C11 17.5523 11.4477 18 12 18C12.5523 18 13 17.5523 13 17V13C13 12.4477 12.5523 12 12 12ZM12 8C11.4477 8 11 8.44772 11 9C11 9.55229 11.4477 10 12 10C12.5523 10 13 9.55229 13 9C13 8.44772 12.5523 8 12 8Z" fill="#202327"/>
</g>
<defs>
<clipPath id="clip0_18_13081">
<rect width="24" height="24" fill="white"/>
</clipPath>
</defs>
</svg>
