<svg width="24" height="24" viewBox="0 0 24 24" fill="none" xmlns="http://www.w3.org/2000/svg">
<g clip-path="url(#clip0_18_13145)">
<path d="M14.1719 1C14.9674 1.00008 15.7304 1.31637 16.293 1.87891L20.1211 5.70703L20.3203 5.92676C20.7578 6.46058 20.9999 7.13187 21 7.82812V20C21 21.6569 19.6569 23 18 23H10C11.6569 23 13 21.6569 13 20C13 18.6941 12.1647 17.5859 11 17.1738V16C11 15.4477 10.5523 15 10 15C9.44772 15 9 15.4477 9 16V17.1738C7.83532 17.5859 7 18.6941 7 20C7 21.6569 8.34315 23 10 23H6C4.34315 23 3 21.6569 3 20V4C3 2.34315 4.34315 1 6 1H14.1719ZM10 19C10.5523 19 11 19.4477 11 20C11 20.5523 10.5523 21 10 21C9.44772 21 9 20.5523 9 20C9 19.4477 9.44772 19 10 19ZM10 10C9.44772 10 9 10.4477 9 11V12C9 12.5523 9.44772 13 10 13C10.5523 13 11 12.5523 11 12V11C11 10.4477 10.5523 10 10 10ZM10 5C9.44772 5 9 5.44772 9 6V7C9 7.55228 9.44772 8 10 8C10.5523 8 11 7.55228 11 7V6C11 5.44772 10.5523 5 10 5Z" fill="#202327"/>
</g>
<defs>
<clipPath id="clip0_18_13145">
<rect width="24" height="24" fill="white"/>
</clipPath>
</defs>
</svg>
