<svg width="24" height="24" viewBox="0 0 24 24" fill="none" xmlns="http://www.w3.org/2000/svg">
<g clip-path="url(#clip0_18_13045)">
<path fill-rule="evenodd" clip-rule="evenodd" d="M3.87868 1.87868C4.44129 1.31607 5.20435 1 6 1H14.172C14.9675 1.00017 15.7306 1.31631 16.2931 1.87889L18.7071 4.29289C19.0976 4.68342 19.0976 5.31658 18.7071 5.70711C18.3166 6.09763 17.6834 6.09763 17.2929 5.70711L14.8789 3.29311C14.6915 3.10561 14.4371 3.00011 14.172 3H6C5.73478 3 5.48043 3.10536 5.29289 3.29289C5.10536 3.48043 5 3.73478 5 4V20C5 20.2652 5.10536 20.5196 5.29289 20.7071C5.48043 20.8946 5.73478 21 6 21H18C18.2652 21 18.5196 20.8946 18.7071 20.7071C18.8946 20.5196 19 20.2652 19 20C19 19.4477 19.4477 19 20 19C20.5523 19 21 19.4477 21 20C21 20.7957 20.6839 21.5587 20.1213 22.1213C19.5587 22.6839 18.7957 23 18 23H6C5.20435 23 4.44129 22.6839 3.87868 22.1213C3.31607 21.5587 3 20.7957 3 20V4C3 3.20435 3.31607 2.44129 3.87868 1.87868ZM7 18C7 17.4477 7.44772 17 8 17H9C9.55228 17 10 17.4477 10 18C10 18.5523 9.55228 19 9 19H8C7.44772 19 7 18.5523 7 18ZM19.876 7.99976C19.0474 7.99976 18.2528 8.32891 17.6669 8.9148L13.6567 12.927C13.3003 13.2833 13.0393 13.7241 12.898 14.2079L12.061 17.0779C11.9857 17.3361 11.9812 17.6097 12.0479 17.8702C12.1146 18.1307 12.2502 18.3684 12.4403 18.5586C12.6305 18.7487 12.8682 18.8842 13.1287 18.951C13.3892 19.0177 13.6628 19.0132 13.921 18.9379L16.7913 18.1008C17.275 17.9596 17.7159 17.6982 18.0723 17.3418L22.0851 13.333C22.671 12.7471 23.0001 11.9525 23.0001 11.1239C23.0001 10.2953 22.671 9.50069 22.0851 8.9148C21.4992 8.32891 20.7046 7.99976 19.876 7.99976ZM15.0713 14.3408L19.0811 10.329C19.2919 10.1183 19.5779 9.99976 19.876 9.99976C20.1741 9.99976 20.46 10.1182 20.6709 10.329C20.8817 10.5398 21.0001 10.8258 21.0001 11.1239C21.0001 11.4219 20.8815 11.708 20.6709 11.9188L16.6577 15.928C16.5389 16.0468 16.3919 16.1339 16.2307 16.181L14.2362 16.7626L14.818 14.7679C14.8651 14.6067 14.9525 14.4596 15.0713 14.3408Z" fill="#151826"/>
</g>
<defs>
<clipPath id="clip0_18_13045">
<rect width="24" height="24" fill="white"/>
</clipPath>
</defs>
</svg>
