<svg width="24" height="24" viewBox="0 0 24 24" fill="none" xmlns="http://www.w3.org/2000/svg">
<g clip-path="url(#clip0_18_12955)">
<path d="M13 6C13 7.65685 14.3431 9 16 9H21V20C21 21.6569 19.6569 23 18 23H6C4.34315 23 3 21.6569 3 20V16H9.58594L8.29297 17.293C7.90244 17.6835 7.90244 18.3165 8.29297 18.707C8.68349 19.0976 9.31651 19.0976 9.70703 18.707L12.707 15.707C13.0976 15.3165 13.0976 14.6835 12.707 14.293L9.70703 11.293C9.31651 10.9024 8.68349 10.9024 8.29297 11.293C7.90244 11.6835 7.90244 12.3165 8.29297 12.707L9.58594 14H3V4C3 2.34315 4.34315 1 6 1H13V6ZM15 1.11816C15.4842 1.25741 15.9304 1.51634 16.293 1.87891L20.1211 5.70703L20.3203 5.92676C20.5801 6.24368 20.7686 6.60972 20.8809 7H16C15.4477 7 15 6.55228 15 6V1.11816Z" fill="#202327"/>
</g>
<defs>
<clipPath id="clip0_18_12955">
<rect width="24" height="24" fill="white"/>
</clipPath>
</defs>
</svg>
