<svg width="24" height="24" viewBox="0 0 24 24" fill="none" xmlns="http://www.w3.org/2000/svg">
<g clip-path="url(#clip0_18_13049)">
<path d="M15.0986 1.00488C15.3276 1.02757 15.5429 1.12883 15.707 1.29297L20.707 6.29297C20.8946 6.4805 21 6.73478 21 7V8.21191C20.692 8.09301 20.3658 8.02054 20.0312 8.00391L19.876 8C19.0991 8 18.3524 8.28962 17.7793 8.80859L17.667 8.91504L13.6562 12.9268C13.3445 13.2385 13.1065 13.6152 12.957 14.0283L12.8984 14.208L12.0605 17.0781C11.9854 17.3361 11.9812 17.6098 12.0479 17.8701C12.1146 18.1305 12.2504 18.3685 12.4404 18.5586C12.6305 18.7487 12.8685 18.8844 13.1289 18.9512C13.3892 19.0178 13.6629 19.0137 13.9209 18.9385L16.791 18.1006C17.2746 17.9594 17.715 17.6989 18.0713 17.3428L21 14.416V20C21 20.7957 20.6837 21.5585 20.1211 22.1211C19.5585 22.6837 18.7957 23 18 23H6C5.20435 23 4.44151 22.6837 3.87891 22.1211C3.3163 21.5585 3 20.7957 3 20V4C3 3.20435 3.3163 2.44152 3.87891 1.87891C4.44152 1.3163 5.20435 1 6 1H15L15.0986 1.00488ZM8 17C7.4478 17 7.00013 17.4478 7 18C7.00013 18.5522 7.4478 19 8 19H9L9.10254 18.9951C9.60658 18.9438 9.99988 18.5176 10 18C9.99988 17.4825 9.60654 17.0572 9.10254 17.0059L9 17H8ZM19.9873 10.0059C20.2445 10.0315 20.4865 10.1447 20.6709 10.3291C20.8816 10.5399 21 10.826 21 11.124C20.9999 11.385 20.9092 11.6369 20.7451 11.8369L20.6709 11.9189L16.6572 15.9287C16.5387 16.0471 16.3922 16.1336 16.2314 16.1807L14.2363 16.7627L14.8184 14.7686L14.8604 14.6504C14.9103 14.5355 14.9822 14.4299 15.0713 14.3408L19.0811 10.3291L19.1631 10.2549C19.3632 10.0908 19.6149 10 19.876 10L19.9873 10.0059Z" fill="#151826"/>
</g>
<defs>
<clipPath id="clip0_18_13049">
<rect width="24" height="24" fill="white"/>
</clipPath>
</defs>
</svg>
