<svg width="24" height="24" viewBox="0 0 24 24" fill="none" xmlns="http://www.w3.org/2000/svg">
<g clip-path="url(#clip0_746_123)">
<path d="M8.60254 3.50488C9.10667 3.55621 9.5 3.98232 9.5 4.5V6H11.125C12.2738 5.36289 13.5958 5 15 5C16.4042 5 17.7262 5.36289 18.875 6H21L21.1025 6.00488C21.6067 6.05621 22 6.48232 22 7V9.12402C22.6374 10.273 23 11.5955 23 13C23 14.4042 22.6371 15.7262 22 16.875V19C22 19.5523 21.5523 20 21 20H18.875C17.7262 20.6371 16.4042 21 15 21C13.5958 21 12.2738 20.6371 11.125 20H1V6H3V4.5L3.00488 4.39746C3.05621 3.89333 3.48232 3.5 4 3.5H8.5L8.60254 3.50488ZM18 12C17.4477 12 17 12.4477 17 13C17 14.1046 16.1046 15 15 15C14.4477 15 14 15.4477 14 16C14 16.5523 14.4477 17 15 17C17.2091 17 19 15.2091 19 13C19 12.4477 18.5523 12 18 12ZM5 10C4.44772 10 4 10.4477 4 11V15C4 15.5523 4.44772 16 5 16C5.55228 16 6 15.5523 6 15V11C6 10.4477 5.55228 10 5 10ZM15 9C12.7909 9 11 10.7909 11 13C11 13.5523 11.4477 14 12 14C12.5523 14 13 13.5523 13 13C13 11.8954 13.8954 11 15 11C15.5523 11 16 10.5523 16 10C16 9.44772 15.5523 9 15 9Z" fill="#202327"/>
</g>
<defs>
<clipPath id="clip0_746_123">
<rect width="24" height="24" fill="white"/>
</clipPath>
</defs>
</svg>
