<svg width="24" height="24" viewBox="0 0 24 24" fill="none" xmlns="http://www.w3.org/2000/svg">
<g clip-path="url(#clip0_18_13097)">
<path d="M13 6C13 7.65685 14.3431 9 16 9H21V20C21 20.7957 20.6837 21.5585 20.1211 22.1211C19.5585 22.6837 18.7957 23 18 23H11.6064C13.6397 21.7752 15 19.5467 15 17C15 13.134 11.866 10 8 10C6.04117 10 4.27054 10.8048 3 12.1016V4C3 3.20435 3.3163 2.44152 3.87891 1.87891C4.44152 1.3163 5.20435 1 6 1H13V6ZM8 12C10.7614 12 13 14.2386 13 17C13 19.7614 10.7614 22 8 22C5.23858 22 3 19.7614 3 17C3 14.2386 5.23858 12 8 12ZM8 14C7.44772 14 7 14.4477 7 15V17.25C7 17.5467 7.13144 17.8286 7.35938 18.0186L8.85938 19.2686L8.94141 19.3301C9.36154 19.6135 9.93707 19.5383 10.2686 19.1406C10.6 18.7429 10.5704 18.1629 10.2158 17.8008L10.1406 17.7314L9 16.7803V15C9 14.4477 8.55228 14 8 14ZM15 1C15.2652 1 15.5195 1.10543 15.707 1.29297L20.707 6.29297C20.8946 6.4805 21 6.73478 21 7H16C15.4477 7 15 6.55228 15 6V1Z" fill="#202327"/>
</g>
<defs>
<clipPath id="clip0_18_13097">
<rect width="24" height="24" fill="white"/>
</clipPath>
</defs>
</svg>
