<svg width="24" height="24" viewBox="0 0 24 24" fill="none" xmlns="http://www.w3.org/2000/svg">
<path fill-rule="evenodd" clip-rule="evenodd" d="M5 4C4.44772 4 4 4.44772 4 5V6.5H6V4H5ZM5 2C3.34315 2 2 3.34315 2 5V19C2 20.6569 3.34315 22 5 22H19C20.6569 22 22 20.6569 22 19V5C22 3.34315 20.6569 2 19 2H5ZM8 4V11H16V4H8ZM18 4V6.5H20V5C20 4.44771 19.5523 4 19 4H18ZM20 8.5H18V11H20V8.5ZM20 13H18V15.5H20V13ZM20 17.5H18V20H19C19.5523 20 20 19.5523 20 19V17.5ZM16 20V13H8V20H16ZM6 20V17.5H4V19C4 19.5523 4.44771 20 5 20H6ZM4 15.5H6V13H4V15.5ZM4 11H6V8.5H4V11Z" fill="#202327"/>
</svg>
