<svg width="25" height="24" viewBox="0 0 25 24" fill="none" xmlns="http://www.w3.org/2000/svg">
<path fill-rule="evenodd" clip-rule="evenodd" d="M18.6016 4.7998V2.7998H0.601562V4.7998H1.60156L6.60156 12.2998V20.7998H10.9877C10.4576 20.2076 10.0167 19.5339 9.68607 18.7998H8.60156V11.6938L4.00556 4.7998H15.1976L12.1935 9.30583C13.1611 8.59623 14.2984 8.10438 15.5331 7.90245L17.6016 4.7998H18.6016Z" fill="#202327"/>
<path fill-rule="evenodd" clip-rule="evenodd" d="M17.4008 9C13.7557 9 10.8008 11.9549 10.8008 15.6C10.8008 19.2451 13.7557 22.2 17.4008 22.2C21.0459 22.2 24.0008 19.2451 24.0008 15.6C24.0008 11.9549 21.0459 9 17.4008 9ZM19.925 14.5243C20.1594 14.2899 20.1594 13.9101 19.925 13.6757C19.6907 13.4414 19.3108 13.4414 19.0765 13.6757L16.5008 16.2515L15.425 15.1757C15.1907 14.9414 14.8108 14.9414 14.5765 15.1757C14.3422 15.4101 14.3422 15.7899 14.5765 16.0243L16.0765 17.5243C16.3108 17.7586 16.6907 17.7586 16.925 17.5243L19.925 14.5243Z" fill="#202327"/>
</svg>
