<svg width="24" height="24" viewBox="0 0 24 24" fill="none" xmlns="http://www.w3.org/2000/svg">
<path d="M21.1461 2.00586C21.4817 2.03096 21.8064 2.14055 22.0895 2.3252C22.4131 2.53629 22.6693 2.83624 22.8258 3.18945C22.9823 3.54264 23.0332 3.93396 22.9723 4.31543C22.9113 4.69688 22.7408 5.05303 22.4821 5.33985L22.4811 5.34082L15.2584 13.3301H15.2575C15.0915 13.5137 14.9999 13.7525 14.9997 14V21L14.9957 21.127C14.9769 21.4236 14.8919 21.713 14.7467 21.9736C14.5808 22.2714 14.3413 22.5219 14.0514 22.7012C13.7615 22.8804 13.43 22.9826 13.0895 22.9981C12.7917 23.0115 12.495 22.9583 12.2213 22.8428L12.1051 22.7891L10.1051 21.7891C9.77291 21.6229 9.49275 21.3678 9.2975 21.0518C9.12671 20.7752 9.0269 20.4615 9.00453 20.1387L8.99965 20V14C8.99945 13.7833 8.92842 13.5735 8.79946 13.4014L8.74086 13.3301L1.51528 5.34082V5.33985C1.25621 5.05274 1.08591 4.69635 1.02504 4.31445C0.964245 3.93262 1.01456 3.54085 1.17153 3.1875C1.32855 2.8342 1.5857 2.53404 1.90981 2.32324C2.23385 2.11262 2.6122 2.00025 2.99867 2H21.0016L21.1461 2.00586Z" fill="#202327"/>
</svg>
