<svg width="24" height="24" viewBox="0 0 24 24" fill="none" xmlns="http://www.w3.org/2000/svg">
<path fill-rule="evenodd" clip-rule="evenodd" d="M2.99964 2L21.002 2C21.3884 2.00091 21.7663 2.11376 22.09 2.32491C22.4137 2.53605 22.6692 2.83644 22.8258 3.18975C22.9824 3.54307 23.0332 3.93417 22.9722 4.31577C22.9112 4.69737 22.7409 5.05312 22.482 5.34L15.2584 13.3297C15.0921 13.5134 14.9998 13.7526 14.9996 14.0005V20.9995C14.9996 20.9994 14.9996 20.9997 14.9996 20.9995C14.9997 21.3403 14.9127 21.676 14.7469 21.9737C14.581 22.2715 14.3417 22.522 14.0517 22.7014C13.7617 22.8807 13.4307 22.983 13.0901 22.9984C12.7495 23.0138 12.4106 22.9419 12.1056 22.7895L10.1056 21.7895C10.1056 21.7895 10.1057 21.7896 10.1056 21.7895C9.77327 21.6234 9.49354 21.3678 9.29822 21.0517C9.10294 20.7357 8.99955 20.3715 8.99964 20C8.99964 19.9998 8.99964 20.0002 8.99964 20V14.0005C8.99953 13.7526 8.90741 13.5137 8.74114 13.33L1.51528 5.34C1.25613 5.05287 1.0858 4.69675 1.02493 4.31478C0.964052 3.93282 1.01524 3.54139 1.17229 3.18793C1.32934 2.83446 1.58551 2.53411 1.90978 2.32327C2.23405 2.11243 2.61285 2.00014 2.99964 2ZM3 4L10.2241 11.988C10.2241 11.988 10.2242 11.9881 10.2241 11.988C10.7228 12.5393 10.9993 13.2562 10.9996 13.9995V20L12.9996 21.0005V14C13 13.2567 13.2762 12.5396 13.7749 11.9883C13.7748 11.9885 13.775 11.9882 13.7749 11.9883L20.9973 4L3 4Z" fill="#202327"/>
</svg>
