<svg width="25" height="24" viewBox="0 0 25 24" fill="none" xmlns="http://www.w3.org/2000/svg">
<path fill-rule="evenodd" clip-rule="evenodd" d="M19 5V3H1V5H2L8 14V21H12V20.8153C10.7566 19.4335 10 17.605 10 15.5998C10 11.9139 12.5566 8.82516 15.9933 8.01012L18 5H19Z" fill="#202327"/>
<path fill-rule="evenodd" clip-rule="evenodd" d="M17.4008 9C13.7557 9 10.8008 11.9549 10.8008 15.6C10.8008 19.2451 13.7557 22.2 17.4008 22.2C21.0459 22.2 24.0008 19.2451 24.0008 15.6C24.0008 11.9549 21.0459 9 17.4008 9ZM19.925 14.5243C20.1594 14.2899 20.1594 13.9101 19.925 13.6757C19.6907 13.4414 19.3108 13.4414 19.0765 13.6757L16.5008 16.2515L15.425 15.1757C15.1907 14.9414 14.8108 14.9414 14.5765 15.1757C14.3422 15.4101 14.3422 15.7899 14.5765 16.0243L16.0765 17.5243C16.3108 17.7586 16.6907 17.7586 16.925 17.5243L19.925 14.5243Z" fill="#202327"/>
</svg>
