<svg width="24" height="24" viewBox="0 0 24 24" fill="none" xmlns="http://www.w3.org/2000/svg">
<path fill-rule="evenodd" clip-rule="evenodd" d="M12.2863 4C10.2447 4 8.28407 4.82163 6.83638 6.2885C5.38826 7.7558 4.57239 9.74867 4.57239 11.8294C4.57331 13.1019 4.3613 14.3656 3.94518 15.5668C3.76439 16.0887 3.19479 16.3651 2.67293 16.1844C2.15108 16.0036 1.87458 15.434 2.05537 14.9121C2.39834 13.9221 2.57322 12.8799 2.57239 11.8301L2.57239 11.8294C2.57239 9.22666 3.59267 6.72796 5.4129 4.88362C7.23356 3.03883 9.70574 2 12.2863 2C14.8669 2 17.3391 3.03883 19.1597 4.88362C20.9799 6.72797 22.0002 9.22672 22.0002 11.8294V11.8299C21.9992 13.7148 21.8188 15.5952 21.4614 17.445C21.3566 17.9872 20.8321 18.3419 20.2898 18.2371C19.7475 18.1323 19.3929 17.6078 19.4977 17.0655C19.831 15.3405 19.9993 13.5868 20.0002 11.8289C20.0001 9.74838 19.1842 7.75568 17.7362 6.2885C16.2885 4.82163 14.3279 4 12.2863 4ZM12.2797 7.17511C12.0898 7.17379 11.9001 7.18478 11.7116 7.20802C11.1634 7.27561 10.6643 6.88605 10.5967 6.33792C10.5291 5.78978 10.9187 5.29064 11.4668 5.22306C11.7399 5.18938 12.0149 5.17337 12.2901 5.17514C14.0383 5.17607 15.7119 5.88039 16.9439 7.12878C18.1762 8.37736 18.8663 10.068 18.8666 11.8282C18.8687 12.9019 18.8037 13.9755 18.6721 15.0409C18.6045 15.589 18.1053 15.9785 17.5571 15.9108C17.009 15.8431 16.6195 15.3439 16.6872 14.7958C16.8086 13.8127 16.8686 12.8219 16.8666 11.8312L16.8666 11.8292C16.8666 10.5907 16.3809 9.40549 15.5204 8.53366C14.6604 7.66228 13.4969 7.17514 12.2866 7.17514H12.2797V7.17511ZM18.8666 11.8282C18.8666 11.8285 18.8666 11.8288 18.8666 11.8292H17.8666L18.8666 11.8272C18.8666 11.8275 18.8666 11.8278 18.8666 11.8282ZM9.57578 6.78765C9.92336 7.21685 9.85719 7.84654 9.428 8.19412C8.89165 8.62847 8.45768 9.18049 8.15919 9.80986C7.86067 10.4393 7.70561 11.1294 7.70601 11.8288C7.70871 14.0474 7.20523 16.237 6.23431 18.2269C5.99212 18.7232 5.39341 18.9293 4.89706 18.6871C4.40072 18.4449 4.19468 17.8462 4.43687 17.3498C5.27387 15.6345 5.70843 13.7455 5.70601 11.8307L5.70601 11.83C5.70543 10.8345 5.92608 9.85113 6.35212 8.95283C6.77817 8.05449 7.39895 7.26373 8.16931 6.63987C8.59851 6.29229 9.2282 6.35845 9.57578 6.78765ZM10.9444 10.6863C10.6337 11.162 10.5188 11.7361 10.5188 12.0185C10.5188 12.5708 10.0711 13.0185 9.51881 13.0185C8.96653 13.0185 8.51881 12.5708 8.51881 12.0185C8.51881 11.3852 8.72716 10.4236 9.26999 9.59258C9.84128 8.718 10.8209 7.94725 12.2866 7.94725C13.4722 7.94725 14.4125 8.37129 15.0745 9.13025C15.703 9.85084 16.0017 10.7826 16.1381 11.679C16.2086 12.1424 16.1755 12.8117 16.0995 13.5133C16.02 14.2463 15.8815 15.1146 15.6956 16.0253C15.3264 17.833 14.7539 19.8876 14.0391 21.4222C13.8059 21.9229 13.211 22.1397 12.7104 21.9065C12.2097 21.6733 11.9929 21.0784 12.2261 20.5778C12.8468 19.2451 13.3813 17.3621 13.736 15.6251C13.912 14.7635 14.0396 13.9577 14.1111 13.2978C14.1861 12.6064 14.1889 12.164 14.1608 11.9799C14.0535 11.2742 13.8464 10.7649 13.5673 10.4449C13.3217 10.1633 12.9524 9.94725 12.2866 9.94725C11.631 9.94725 11.2267 10.2542 10.9444 10.6863ZM12.2909 10.8601C12.8432 10.8601 13.2909 11.3078 13.2909 11.8601C13.2909 15.4159 12.245 18.9091 11.0518 21.0646C10.7843 21.5478 10.1757 21.7226 9.69254 21.4551C9.20936 21.1876 9.0345 20.5791 9.30199 20.0959C10.3316 18.2361 11.2909 15.076 11.2909 11.8601C11.2909 11.3078 11.7386 10.8601 12.2909 10.8601ZM9.5267 13.7679C10.0683 13.876 10.4197 14.4026 10.3116 14.9443C9.94276 16.7926 9.27637 18.5674 8.33882 20.1975C8.06347 20.6762 7.45215 20.8411 6.9734 20.5657C6.49465 20.2904 6.32977 19.6791 6.60512 19.2003C7.43411 17.759 8.02381 16.1889 8.35032 14.5528C8.45841 14.0112 8.98509 13.6598 9.5267 13.7679ZM17.351 17.0382C17.8855 17.177 18.2063 17.7229 18.0675 18.2574C17.9147 18.8456 17.7422 19.4312 17.5614 20.0013C17.3944 20.5277 16.8323 20.8191 16.3058 20.6521C15.7794 20.4851 15.488 19.9229 15.655 19.3965C15.8275 18.8526 15.9896 18.3017 16.1317 17.7547C16.2705 17.2201 16.8164 16.8993 17.351 17.0382Z" fill="#151826"/>
</svg>
