<svg width="24" height="24" viewBox="0 0 24 24" fill="none" xmlns="http://www.w3.org/2000/svg">
<path d="M16.9987 13V14C16.9987 16.77 16.3347 19.445 15.0837 21.846L14.8567 22.266L13.1097 21.292C14.2697 19.212 14.9197 16.882 14.9917 14.456L14.9987 14V13H16.9987ZM10.9987 10H12.9987V14L12.9937 14.379C12.9181 17.1167 11.9759 19.7598 10.3027 21.928L10.0717 22.218L8.52166 20.954C10.048 19.0899 10.9166 16.7741 10.9927 14.366L10.9987 14V10ZM11.9987 6.00001C13.3247 6.00001 14.5965 6.52679 15.5342 7.46448C16.4719 8.40216 16.9987 9.67393 16.9987 11H14.9987C14.9987 10.2044 14.6826 9.4413 14.12 8.87869C13.5574 8.31608 12.7943 8.00001 11.9987 8.00001C11.203 8.00001 10.4399 8.31608 9.87734 8.87869C9.31473 9.4413 8.99866 10.2044 8.99866 11V14C8.99866 16.235 8.17866 18.344 6.72766 19.977L6.51566 20.207L5.06766 18.827C6.23761 17.6029 6.9219 15.9948 6.99266 14.303L6.99866 14V11C6.99866 9.67393 7.52544 8.40216 8.46312 7.46448C9.4008 6.52679 10.6726 6.00001 11.9987 6.00001ZM11.9987 2.00001C14.3856 2.00001 16.6748 2.94822 18.3626 4.63605C20.0504 6.32388 20.9987 8.61306 20.9987 11V14C20.9987 15.698 20.7967 17.37 20.4017 18.99L20.2627 19.529L18.3327 19.003C18.7247 17.566 18.9457 16.081 18.9907 14.568L18.9987 14V11C18.9987 9.70087 18.6371 8.42737 17.9545 7.32201C17.2719 6.21666 16.2952 5.32307 15.1336 4.74125C13.9721 4.15943 12.6715 3.91233 11.3775 4.02762C10.0835 4.1429 8.84708 4.61601 7.80666 5.39401L6.38166 3.96801C7.97513 2.69129 9.9568 1.99698 11.9987 2.00001ZM4.96666 5.38301L6.39266 6.80801C5.53499 7.95124 5.04972 9.3306 5.00266 10.759L4.99866 11L5.00266 13C5.00266 14.12 4.73866 15.203 4.24066 16.177L4.08466 16.467L2.34766 15.475C2.72766 14.81 2.94966 14.068 2.99366 13.292L3.00266 13V11C2.99672 8.95834 3.6898 6.97615 4.96666 5.38301Z" fill="#151826"/>
</svg>
