<svg width="24" height="24" viewBox="0 0 24 24" fill="none" xmlns="http://www.w3.org/2000/svg">
<path d="M13 4C13.5523 4 14 4.44772 14 5C14 5.55228 13.5523 6 13 6H5C4.44772 6 4 6.44772 4 7V11H12C12.5523 11 13 11.4477 13 12C13 12.5523 12.5523 13 12 13H4V19C4 19.5523 3.55228 20 3 20C2.44772 20 2 19.5523 2 19V7C2 5.34315 3.34315 4 5 4H13ZM18.5 10C20.9853 10 23 12.0147 23 14.5V19C23 19.5523 22.5523 20 22 20C21.4477 20 21 19.5523 21 19V14.5C21 13.1193 19.8807 12 18.5 12C17.1193 12 16 13.1193 16 14.5V19C16 19.5523 15.5523 20 15 20C14.4477 20 14 19.5523 14 19V14.5C14 12.0147 16.0147 10 18.5 10Z" fill="#202327"/>
</svg>
