<svg width="24" height="24" viewBox="0 0 24 24" fill="none" xmlns="http://www.w3.org/2000/svg">
<path fill-rule="evenodd" clip-rule="evenodd" d="M1.87868 3.87868C2.44129 3.31607 3.20435 3 4 3H7.93C8.42666 3.00008 8.9157 3.12347 9.35291 3.35909C9.7883 3.59373 10.1589 3.93236 10.4317 4.34479L11.2453 5.55001C11.3372 5.6897 11.4627 5.80412 11.6103 5.88274C11.758 5.96135 11.923 6.00169 12.0902 6.00005L12.1 5.99995L20 6C20.7957 6 21.5587 6.31607 22.1213 6.87868C22.6839 7.44129 23 8.20435 23 9V19C23 19.7957 22.6839 20.5587 22.1213 21.1213C21.5587 21.6839 20.7957 22 20 22H4C3.20435 22 2.44129 21.6839 1.87868 21.1213C1.31607 20.5587 1 19.7957 1 19V6C1 5.20435 1.31607 4.44129 1.87868 3.87868ZM4 5C3.73478 5 3.48043 5.10536 3.29289 5.29289C3.10536 5.48043 3 5.73478 3 6V19C3 19.2652 3.10536 19.5196 3.29289 19.7071C3.48043 19.8946 3.73478 20 4 20H20C20.2652 20 20.5196 19.8946 20.7071 19.7071C20.8946 19.5196 21 19.2652 21 19V9C21 8.73478 20.8946 8.48043 20.7071 8.29289C20.5196 8.10536 20.2652 8 20 8H12.1044C11.6045 8.004 11.1115 7.88302 10.6703 7.64802C10.2292 7.41316 9.85389 7.07187 9.57826 6.65519L8.76478 5.45004C8.67373 5.31177 8.54982 5.19824 8.40408 5.1197C8.2584 5.04118 8.0955 5.00005 7.93 5C7.92994 5 7.93005 5 7.93 5H4ZM8 14C8 13.4477 8.44772 13 9 13H15C15.5523 13 16 13.4477 16 14C16 14.5523 15.5523 15 15 15H9C8.44772 15 8 14.5523 8 14Z" fill="#202327"/>
</svg>
