<svg width="24" height="24" viewBox="0 0 24 24" fill="none" xmlns="http://www.w3.org/2000/svg">
<path fill-rule="evenodd" clip-rule="evenodd" d="M8.38965 4.11736C8.24203 4.03874 8.07705 3.99841 7.9098 4.00005L7.9 4.00014L4 4.0001C3.73478 4.0001 3.48043 4.10545 3.29289 4.29299C3.10536 4.48053 3 4.73488 3 5.0001V18.0001C3 18.2653 3.10536 18.5197 3.29289 18.7072C3.48043 18.8947 3.73478 19.0001 4 19.0001H18.4567C18.6796 19.0016 18.8966 18.9286 19.0732 18.7928C19.2498 18.6569 19.376 18.4659 19.4317 18.2501L20.9718 12.2501C21.0099 12.1022 21.0137 11.9475 20.9828 11.7979C20.952 11.6483 20.8872 11.5077 20.7935 11.387C20.6999 11.2663 20.5798 11.1687 20.4426 11.1016C20.3053 11.0346 20.1545 10.9998 20.0018 11.0001L20 11.0001H9.25357C9.07568 11.0059 8.90251 11.0591 8.75197 11.1543C8.59872 11.2512 8.4747 11.3879 8.39316 11.5498L8.38827 11.5595L6.88822 14.4595C6.63449 14.9501 6.03113 15.142 5.54058 14.8883C5.05003 14.6346 4.85805 14.0312 5.11178 13.5407L6.60953 10.645C6.85417 10.1616 7.2252 9.75336 7.68325 9.46379C8.14299 9.17315 8.67308 9.01296 9.21684 9.00036L9.24 9.0001H19V8.0001C19 7.73488 18.8946 7.48053 18.7071 7.29299C18.5196 7.10545 18.2652 7.0001 18 7.0001H12.07C11.5733 7.00001 11.0843 6.87663 10.6471 6.641C10.2117 6.40637 9.84114 6.06777 9.5683 5.65535L8.75475 4.45008C8.66277 4.3104 8.53728 4.19597 8.38965 4.11736ZM21 9.17043C21 9.17043 21.2162 9.25367 21.3207 9.30472C21.7325 9.50594 22.0926 9.79883 22.3736 10.1609C22.6546 10.523 22.8489 10.9446 22.9415 11.3934C23.0342 11.842 23.0228 12.3059 22.9084 12.7494L21.3683 18.7501C21.2011 19.3974 20.8226 19.9704 20.2926 20.378C19.7637 20.7849 19.1142 21.0038 18.447 21.0001H18.45V20.0001L18.4433 21.0001L18.447 21.0001H4C3.20435 21.0001 2.44129 20.684 1.87868 20.1214C1.31607 19.5588 1 18.7957 1 18.0001V5.0001C1 4.20445 1.31607 3.44138 1.87868 2.87878C2.44129 2.31617 3.20435 2.0001 4 2.0001H7.89559L7.8902 2.00014L7.9 3.0001V2.0001H7.89559C8.39547 1.99609 8.88846 2.11707 9.32975 2.35207C9.77076 2.58694 10.1461 2.92822 10.4217 3.3449L11.2352 4.55006C11.3263 4.68832 11.4502 4.80186 11.5959 4.8804C11.7416 4.95891 11.9045 5.00004 12.07 5.0001H18C18.7957 5.0001 19.5587 5.31617 20.1213 5.87878C20.6839 6.44138 21 7.20445 21 8.0001V9.17043Z" fill="#202327"/>
</svg>
