<svg width="24" height="24" viewBox="0 0 24 24" fill="none" xmlns="http://www.w3.org/2000/svg">
<path d="M2 4C2 3.44772 2.44772 3 3 3H10.4142L12.4142 5H21C21.5523 5 22 5.44772 22 6V11H20V7H11.5858L9.58579 5H4V19H10V21H3C2.44772 21 2 20.5523 2 20V4Z" fill="#202327"/>
<path fill-rule="evenodd" clip-rule="evenodd" d="M20.9497 19.5355L19.4462 18.032C19.7981 17.4365 20 16.7418 20 16C20 13.7909 18.2091 12 16 12C13.7909 12 12 13.7909 12 16C12 18.2091 13.7909 20 16 20C16.7418 20 17.4365 19.7981 18.032 19.4462L19.5355 20.9497L20.9497 19.5355ZM18 16C18 17.1046 17.1046 18 16 18C14.8954 18 14 17.1046 14 16C14 14.8954 14.8954 14 16 14C17.1046 14 18 14.8954 18 16Z" fill="#202327"/>
</svg>
