<svg width="24" height="24" viewBox="0 0 24 24" fill="none" xmlns="http://www.w3.org/2000/svg">
<path d="M7.92969 3C8.42628 3.00008 8.91537 3.12381 9.35254 3.35938C9.78789 3.594 10.1588 3.93233 10.4316 4.34473L11.2451 5.5498C11.3371 5.68949 11.4627 5.8042 11.6104 5.88281C11.7579 5.96136 11.9227 6.00158 12.0898 6H20C20.7957 6 21.5585 6.3163 22.1211 6.87891C22.6837 7.44151 23 8.20435 23 9V19C23 19.7957 22.6837 20.5585 22.1211 21.1211C21.5585 21.6837 20.7957 22 20 22H4C3.20435 22 2.44152 21.6837 1.87891 21.1211C1.3163 20.5585 1 19.7956 1 19V6C1 5.20435 1.3163 4.44152 1.87891 3.87891C2.44152 3.3163 3.20435 3 4 3H7.92969Z" fill="#202327"/>
</svg>
