<svg width="24" height="24" viewBox="0 0 24 24" fill="none" xmlns="http://www.w3.org/2000/svg">
<path fill-rule="evenodd" clip-rule="evenodd" d="M1.87868 3.87868C2.44129 3.31607 3.20435 3 4 3H7.93C8.42666 3.00008 8.9157 3.12347 9.35291 3.35909C9.7883 3.59373 10.1589 3.93236 10.4317 4.34479L11.2453 5.55001C11.3372 5.6897 11.4627 5.80412 11.6103 5.88274C11.758 5.96135 11.923 6.00169 12.0902 6.00005L12.1 5.99995L20 6C20.7957 6 21.5587 6.31607 22.1213 6.87868C22.6839 7.44129 23 8.20435 23 9V19C23 19.7957 22.6839 20.5587 22.1213 21.1213C21.5587 21.6839 20.7957 22 20 22H4C3.20435 22 2.44129 21.6839 1.87868 21.1213C1.31607 20.5587 1 19.7957 1 19V6C1 5.20435 1.31607 4.44129 1.87868 3.87868ZM9 13C8.44772 13 8 13.4477 8 14C8 14.5523 8.44772 15 9 15H15C15.5523 15 16 14.5523 16 14C16 13.4477 15.5523 13 15 13H9Z" fill="#202327"/>
</svg>
