<svg width="24" height="24" viewBox="0 0 24 24" fill="none" xmlns="http://www.w3.org/2000/svg">
<path d="M21 5H12.414L10.414 3H3C2.73478 3 2.48043 3.10536 2.29289 3.29289C2.10536 3.48043 2 3.73478 2 4V20C2 20.2652 2.10536 20.5196 2.29289 20.7071C2.48043 20.8946 2.73478 21 3 21H12.6822C11.0655 19.9251 10 18.087 10 16C10 12.6863 12.6863 10 16 10C18.973 10 21.441 12.1623 21.917 15H22V6C22 5.73478 21.8946 5.48043 21.7071 5.29289C21.5196 5.10536 21.2652 5 21 5Z" fill="#151826"/>
<path fill-rule="evenodd" clip-rule="evenodd" d="M20.9497 19.5355L19.4462 18.032C19.7981 17.4365 20 16.7418 20 16C20 13.7909 18.2091 12 16 12C13.7909 12 12 13.7909 12 16C12 18.2091 13.7909 20 16 20C16.7418 20 17.4365 19.7981 18.032 19.4462L19.5355 20.9497L20.9497 19.5355ZM18 16C18 17.1046 17.1046 18 16 18C14.8954 18 14 17.1046 14 16C14 14.8954 14.8954 14 16 14C17.1046 14 18 14.8954 18 16Z" fill="#151826"/>
</svg>
