<svg width="24" height="24" viewBox="0 0 24 24" fill="none" xmlns="http://www.w3.org/2000/svg">
<path fill-rule="evenodd" clip-rule="evenodd" d="M21.0807 9.20013C21.0539 9.18984 21.027 9.17994 21 9.17043V8.0001C21 7.20445 20.6839 6.44138 20.1213 5.87878C19.5587 5.31617 18.7957 5.0001 18 5.0001H12.07C11.9045 5.00004 11.7416 4.95891 11.5959 4.8804C11.4502 4.80186 11.3263 4.68832 11.2352 4.55006L10.4217 3.3449C10.1461 2.92822 9.77076 2.58694 9.32975 2.35207C8.88846 2.11707 8.39547 1.99609 7.89559 2.0001H4C3.20435 2.0001 2.44129 2.31617 1.87868 2.87878C1.31607 3.44139 1 4.20445 1 5.0001V18.0001C1 18.7957 1.31607 19.5588 1.87868 20.1214C2.44129 20.684 3.20435 21.0001 4 21.0001H18.4433H18.447C19.1142 21.0038 19.7637 20.7849 20.2926 20.378C20.8226 19.9704 21.2011 19.3974 21.3683 18.7501L22.9084 12.7494Lnan nanL22.9084 12.7494C23.1242 11.9128 22.3089 11.2001 21.4449 11.2001H9.23629C8.85751 11.2001 8.51125 11.4141 8.34186 11.7529L6.89465 14.6473C6.64766 15.1413 6.04698 15.3416 5.55301 15.0946C5.05903 14.8476 4.8588 14.2469 5.10579 13.7529L6.55301 10.8585C7.06118 9.84214 8.09997 9.20013 9.23629 9.20013H21.0807ZM7.89559 2.0001H7.9V3.0001L7.8902 2.00014L7.89559 2.0001Z" fill="#202327"/>
</svg>
