<svg width="24" height="24" viewBox="0 0 24 24" fill="none" xmlns="http://www.w3.org/2000/svg">
<path d="M11.2476 15H4.75556L3.007 19.3714C2.85514 19.7511 2.48744 20 2.07855 20C1.37111 20 0.887364 19.2855 1.1501 18.6287L6.63017 4.92848C6.85448 4.36771 7.3976 4 8.00156 4C8.60553 4 9.14865 4.36771 9.37295 4.92848L14.853 18.6287C15.1158 19.2855 14.632 20 13.9246 20C13.5157 20 13.148 19.7511 12.9961 19.3714L11.2476 15ZM10.4476 13L8.00156 6.885L5.55556 13H10.4476ZM21.0016 12.535C21.0016 12.2395 21.2411 12 21.5366 12H22.0016C22.5538 12 23.0016 12.4477 23.0016 13V19C23.0016 19.5523 22.5538 20 22.0016 20H21.5366C21.2411 20 21.0016 19.7605 21.0016 19.465C20.3935 19.8157 19.7038 20.0002 19.0018 20C18.2998 19.9998 17.6102 19.8148 17.0023 19.4637C16.3945 19.1125 15.8897 18.6076 15.5388 17.9996C15.1879 17.3916 15.0031 16.702 15.0031 16C15.0031 15.298 15.1879 14.6084 15.5388 14.0004C15.8897 13.3924 16.3945 12.8875 17.0023 12.5363C17.6102 12.1852 18.2998 12.0002 19.0018 12C19.7038 11.9998 20.3935 12.1843 21.0016 12.535ZM19.0016 18C19.532 18 20.0407 17.7893 20.4158 17.4142C20.7908 17.0391 21.0016 16.5304 21.0016 16C21.0016 15.4696 20.7908 14.9609 20.4158 14.5858C20.0407 14.2107 19.532 14 19.0016 14C18.4711 14 17.9624 14.2107 17.5873 14.5858C17.2123 14.9609 17.0016 15.4696 17.0016 16C17.0016 16.5304 17.2123 17.0391 17.5873 17.4142C17.9624 17.7893 18.4711 18 19.0016 18Z" fill="#202327"/>
</svg>
