<svg width="24" height="24" viewBox="0 0 24 24" fill="none" xmlns="http://www.w3.org/2000/svg">
<g clip-path="url(#clip0_598_62)">
<path d="M19.0726 19.0711C15.1673 22.9763 8.83565 22.9763 4.93044 19.0711C1.0252 15.1658 1.0252 8.83418 4.93044 4.92893C8.83565 1.02372 15.1673 1.02369 19.0726 4.92893C22.9778 8.83414 22.9778 15.1659 19.0726 19.0711ZM6.08447 11C6.02991 11.3252 6.00151 11.6593 6.00151 12C6.00151 12.3407 6.02991 12.6748 6.08447 13L17.9186 13C17.9731 12.6748 18.0015 12.3408 18.0015 12C18.0015 11.6592 17.9731 11.3252 17.9186 11L6.08447 11Z" fill="#202327"/>
</g>
<defs>
<clipPath id="clip0_598_62">
<rect width="24" height="24" fill="white"/>
</clipPath>
</defs>
</svg>
