<svg width="24" height="24" viewBox="0 0 24 24" fill="none" xmlns="http://www.w3.org/2000/svg">
<g clip-path="url(#clip0_598_61)">
<path d="M19.0726 19.0711C15.1673 22.9763 8.83565 22.9763 4.93044 19.0711C1.0252 15.1658 1.0252 8.83418 4.93044 4.92893C8.83565 1.02372 15.1673 1.02369 19.0726 4.92893C22.9778 8.83414 22.9778 15.1659 19.0726 19.0711ZM17.6584 17.6569C20.7826 14.5326 20.7826 9.46736 17.6584 6.34315C14.5342 3.21895 9.46887 3.21894 6.34466 6.34315C3.22046 9.46734 3.22046 14.5327 6.34466 17.6569C9.46887 20.7811 14.5342 20.781 17.6584 17.6569ZM6.08447 11L17.9186 11C17.9731 11.3252 18.0015 11.6592 18.0015 12C18.0015 12.3408 17.9731 12.6748 17.9186 13L6.08447 13C6.02991 12.6748 6.00151 12.3407 6.00151 12C6.00151 11.6593 6.02991 11.3252 6.08447 11Z" fill="#202327"/>
</g>
<defs>
<clipPath id="clip0_598_61">
<rect width="24" height="24" fill="white"/>
</clipPath>
</defs>
</svg>
