<svg width="24" height="24" viewBox="0 0 24 24" fill="none" xmlns="http://www.w3.org/2000/svg">
<g clip-path="url(#clip0_523_24)">
<path d="M12 2C14.5884 2 16.9486 2.98454 18.7236 4.59766L19.0713 4.92871C19.3237 5.18112 19.6563 5.53555 20 5.90723V4.5C20 3.94772 20.4477 3.5 21 3.5C21.5523 3.5 22 3.94772 22 4.5V8.5C22 8.51047 21.9984 8.52086 21.998 8.53125C21.9976 8.5459 21.9982 8.56058 21.9971 8.5752C21.9958 8.59293 21.9934 8.61046 21.9912 8.62793C21.9887 8.6472 21.986 8.66643 21.9824 8.68555C21.9804 8.69637 21.978 8.70707 21.9756 8.71777C21.9715 8.73611 21.967 8.75434 21.9619 8.77246C21.9571 8.78957 21.952 8.80652 21.9463 8.82324C21.9424 8.83474 21.9379 8.84605 21.9336 8.85742C21.9269 8.87492 21.9198 8.89217 21.9121 8.90918C21.9039 8.92762 21.8952 8.94587 21.8857 8.96387C21.8815 8.97189 21.8765 8.97942 21.8721 8.9873C21.8629 9.0037 21.8539 9.02018 21.8438 9.03613C21.8351 9.04979 21.8257 9.06298 21.8164 9.07617C21.8058 9.09113 21.7947 9.10565 21.7832 9.12012C21.7767 9.12829 21.7704 9.13657 21.7637 9.14453C21.7547 9.15509 21.7467 9.16651 21.7373 9.17676L21.707 9.20703C21.7036 9.21045 21.6998 9.21343 21.6963 9.2168C21.6856 9.22717 21.6753 9.23806 21.6641 9.24805C21.6571 9.25421 21.6496 9.25969 21.6426 9.26562C21.6362 9.27099 21.6296 9.27604 21.623 9.28125C21.6051 9.29558 21.587 9.30936 21.5684 9.32227C21.5575 9.32977 21.5463 9.33667 21.5352 9.34375C21.5178 9.35478 21.5003 9.36515 21.4824 9.375C21.4753 9.37895 21.4682 9.38294 21.4609 9.38672C21.4409 9.39713 21.4209 9.40706 21.4004 9.41602C21.3799 9.42497 21.359 9.43283 21.3379 9.44043C21.3307 9.44301 21.3236 9.44584 21.3164 9.44824C21.3013 9.45328 21.2859 9.45758 21.2705 9.46191C21.2488 9.468 21.2271 9.47393 21.2051 9.47852C21.199 9.47979 21.1927 9.48028 21.1865 9.48145C21.1651 9.48549 21.1436 9.48858 21.1221 9.49121C21.1017 9.49369 21.0813 9.49583 21.0605 9.49707C21.0482 9.49781 21.0358 9.49776 21.0234 9.49805C21.0156 9.49823 21.0078 9.5 21 9.5H17C16.4477 9.5 16 9.05228 16 8.5C16 7.94772 16.4477 7.5 17 7.5H18.7471C18.3379 7.05417 17.9363 6.6218 17.6572 6.34277L17.3789 6.07812C15.9575 4.78605 14.0714 4 12 4C7.58173 4 4 7.58173 4 12C4 16.4183 7.58173 20 12 20C14.0714 20 15.9575 19.214 17.3789 17.9219L17.6572 17.6572L17.7324 17.5879C18.1252 17.2675 18.7051 17.2911 19.0713 17.6572C19.4371 18.0234 19.4599 18.6025 19.1396 18.9951L19.0713 19.0713L18.7236 19.4023C16.9486 21.0155 14.5884 22 12 22C6.47717 22 2 17.5228 2 12C2 6.47717 6.47717 2 12 2Z" fill="#202327"/>
<path d="M9 9C9.55228 9 10 9.44772 10 10V15C10 15.5523 9.55228 16 9 16C8.44772 16 8 15.5523 8 15V10C8 9.44772 8.44772 9 9 9Z" fill="#202327"/>
<path fill-rule="evenodd" clip-rule="evenodd" d="M14 9C15.3807 9 16.5 10.1193 16.5 11.5V13.5C16.5 14.8807 15.3807 16 14 16C12.6193 16 11.5 14.8807 11.5 13.5V11.5C11.5 10.1193 12.6193 9 14 9ZM14 11C13.7239 11 13.5 11.2239 13.5 11.5V13.5C13.5 13.7761 13.7239 14 14 14C14.2761 14 14.5 13.7761 14.5 13.5V11.5C14.5 11.2239 14.2761 11 14 11Z" fill="#202327"/>
</g>
<defs>
<clipPath id="clip0_523_24">
<rect width="24" height="24" fill="white"/>
</clipPath>
</defs>
</svg>
