<svg width="24" height="24" viewBox="0 0 24 24" fill="none" xmlns="http://www.w3.org/2000/svg">
<path d="M7 21V18C7 17.7348 6.89457 17.4805 6.70703 17.293C6.54289 17.1288 6.32763 17.0276 6.09863 17.0049L6 17H3C2.44772 17 2 16.5523 2 16C2 15.4477 2.44772 15 3 15H6L6.29688 15.0146C6.98351 15.0829 7.6289 15.3867 8.12109 15.8789C8.6837 16.4415 9 17.2044 9 18V21C9 21.5523 8.55228 22 8 22C7.44772 22 7 21.5523 7 21ZM15 21V18C15 17.2043 15.3163 16.4415 15.8789 15.8789C16.4415 15.3163 17.2043 15 18 15H21C21.5523 15 22 15.4477 22 16C22 16.5523 21.5523 17 21 17H18C17.7348 17 17.4805 17.1054 17.293 17.293C17.1054 17.4805 17 17.7348 17 18V21C17 21.5523 16.5523 22 16 22C15.4477 22 15 21.5523 15 21ZM7 6V3C7 2.44772 7.44772 2 8 2C8.55228 2 9 2.44772 9 3V6L8.98535 6.29688C8.91709 6.98351 8.61329 7.6289 8.12109 8.12109C7.6289 8.61329 6.98351 8.91709 6.29688 8.98535L6 9H3C2.44772 9 2 8.55228 2 8C2 7.44772 2.44772 7 3 7H6L6.09863 6.99512C6.32763 6.97243 6.54289 6.87117 6.70703 6.70703C6.87117 6.54289 6.97243 6.32763 6.99512 6.09863L7 6ZM15 6V3C15 2.44772 15.4477 2 16 2C16.5523 2 17 2.44772 17 3V6L17.0049 6.09863C17.0276 6.32763 17.1288 6.54289 17.293 6.70703C17.4805 6.89457 17.7348 7 18 7H21C21.5523 7 22 7.44772 22 8C22 8.55228 21.5523 9 21 9H18C17.2044 9 16.4415 8.6837 15.8789 8.12109C15.3867 7.6289 15.0829 6.98351 15.0146 6.29688L15 6Z" fill="#202327"/>
</svg>
