<svg width="24" height="24" viewBox="0 0 24 24" fill="none" xmlns="http://www.w3.org/2000/svg">
<g clip-path="url(#clip0_932_140)">
<path d="M21 11C21.5523 11 22 11.4477 22 12V19.5C22 20.8807 20.8807 22 19.5 22H6C5.44772 22 5 21.5523 5 21C5 20.4477 5.44772 20 6 20H19.5C19.7762 20 20 19.7762 20 19.5V12C20 11.4477 20.4477 11 21 11ZM13.3926 2C13.9448 2.00007 14.3926 2.44776 14.3926 3C14.3926 3.55224 13.9448 3.99993 13.3926 4H4V10.2734L6.16406 8.34961L6.31152 8.23047C7.07035 7.67433 8.12766 7.72008 8.83691 8.36426H8.83789L10.9238 10.2607L12.752 8.73828L12.8896 8.63379C13.5919 8.14403 14.5372 8.15337 15.2324 8.6748L18.5996 11.2002L18.6895 11.2754C18.8866 11.4629 19 11.7245 19 12V17C19 18.1046 18.1046 19 17 19H4C2.89543 19 2 18.1046 2 17V4C2 2.89543 2.89543 2 4 2H13.3926ZM4 12.9482V17H17V12.499L14.0322 10.2744L12.418 11.6191L13.6729 12.7598L13.7451 12.833C14.0835 13.2101 14.0884 13.7898 13.7402 14.1729C13.3919 14.556 12.8138 14.6062 12.4062 14.3047L12.3271 14.2402L7.49219 9.84473L4 12.9482ZM20 1C20.5523 1 21 1.44772 21 2V4H23C23.5523 4 24 4.44772 24 5C24 5.55228 23.5523 6 23 6H21V8C21 8.55228 20.5523 9 20 9C19.4477 9 19 8.55228 19 8V6H17C16.4477 6 16 5.55228 16 5C16 4.44772 16.4477 4 17 4H19V2C19 1.44772 19.4477 1 20 1Z" fill="#202327"/>
</g>
<defs>
<clipPath id="clip0_932_140">
<rect width="24" height="24" fill="white"/>
</clipPath>
</defs>
</svg>
