<svg width="24" height="24" viewBox="0 0 24 24" fill="none" xmlns="http://www.w3.org/2000/svg">
<path d="M22 19.5C22 20.8807 20.8807 22 19.5 22H6C5.44772 22 5 21.5523 5 21C5 20.4477 5.44772 20 6 20H19.5C19.7762 20 20 19.7762 20 19.5V10.5C20 10.2239 20.2244 10.0026 20.4992 9.97527C20.9227 9.93311 21.3306 9.83792 21.7163 9.69677C21.8518 9.64722 22 9.74448 22 9.88867V19.5ZM14.999 2C15.4112 2 15.6596 2.48265 15.4825 2.85486C15.1732 3.50489 15 4.23219 15 5C15 7.27657 16.5216 9.19729 18.6032 9.80171C18.8315 9.86802 19 10.0703 19 10.3081V17C19 18.1046 18.1046 19 17 19H4C2.89543 19 2 18.1046 2 17V4C2 2.89543 2.89543 2 4 2H14.999ZM8.83789 8.36523C8.12865 7.7204 7.07062 7.67417 6.31152 8.23047L6.16406 8.34961L4 10.2734V12.9482L7.49219 9.84473L12.3271 14.2402L12.4062 14.3047C12.8138 14.6062 13.3919 14.556 13.7402 14.1729C14.0883 13.7898 14.0835 13.2101 13.7451 12.833L13.6729 12.7598L12.418 11.6191L14.0322 10.2744L17 12.499V10L15.2324 8.6748C14.5372 8.15343 13.5919 8.14408 12.8896 8.63379L12.752 8.73828L10.9238 10.2607L8.83789 8.36523ZM20 1C20.5523 1 21 1.44772 21 2V4H23C23.5523 4 24 4.44772 24 5C24 5.55228 23.5523 6 23 6H21V8C21 8.55228 20.5523 9 20 9C19.4477 9 19 8.55228 19 8V6H17C16.4477 6 16 5.55228 16 5C16 4.44772 16.4477 4 17 4H19V2C19 1.44772 19.4477 1 20 1Z" fill="#202327"/>
</svg>
