<svg width="24" height="24" viewBox="0 0 24 24" fill="none" xmlns="http://www.w3.org/2000/svg">
<g clip-path="url(#clip0_545_27)">
<path d="M20 19.5V6C20 5.44772 20.4477 5 21 5C21.5523 5 22 5.44772 22 6V19.5C22 20.8807 20.8807 22 19.5 22H6C5.44772 22 5 21.5523 5 21C5 20.4477 5.44772 20 6 20H19.5C19.7762 20 20 19.7762 20 19.5ZM17 12.499L14.0322 10.2744L12.418 11.6191L13.6729 12.7598L13.7451 12.833C14.0835 13.2101 14.0884 13.7898 13.7402 14.1729C13.3919 14.556 12.8138 14.6062 12.4062 14.3047L12.3271 14.2402L7.49219 9.84473L4 12.9482V17H17V12.499ZM4 4V10.2734L6.16406 8.34961L6.31152 8.23047C7.07035 7.67433 8.12766 7.72008 8.83691 8.36426H8.83789L10.9238 10.2607L12.752 8.73828L12.8896 8.63379C13.5919 8.14403 14.5372 8.15337 15.2324 8.6748L17 10V4H4ZM19 17C19 18.1046 18.1046 19 17 19H4C2.89543 19 2 18.1046 2 17V4C2 2.89543 2.89543 2 4 2H17C18.1046 2 19 2.89543 19 4V17Z" fill="#202327"/>
</g>
<defs>
<clipPath id="clip0_545_27">
<rect width="24" height="24" fill="white"/>
</clipPath>
</defs>
</svg>
