<svg width="24" height="24" viewBox="0 0 24 24" fill="none" xmlns="http://www.w3.org/2000/svg">
<g clip-path="url(#clip0_18_14095)">
<path d="M7.02344 13C7.21545 17.0686 8.54738 20.3626 9.78418 22.5166C9.84406 22.6209 9.90923 22.7187 9.97852 22.8105C5.1893 21.9206 1.49145 17.9313 1.04688 13H7.02344ZM22.9531 13C22.5085 17.9317 18.8103 21.921 14.0205 22.8105C14.0899 22.7186 14.1558 22.621 14.2158 22.5166C15.4526 20.3626 16.7845 17.0686 16.9766 13H22.9531ZM14.9736 13C14.7836 16.6429 13.5872 19.5947 12.4814 21.5205C12.3483 21.7523 12.1596 21.8311 12 21.8311C11.8404 21.831 11.6517 21.7523 11.5186 21.5205C10.4128 19.5947 9.21643 16.6429 9.02637 13H14.9736ZM14.0205 1.18848C18.8104 2.07801 22.5087 6.06804 22.9531 11H16.9766C16.7846 6.93133 15.4526 3.63742 14.2158 1.4834C14.1557 1.37871 14.0901 1.28066 14.0205 1.18848ZM9.97852 1.18848C9.90906 1.28052 9.84419 1.37889 9.78418 1.4834C8.54736 3.63742 7.21541 6.93132 7.02344 11H1.04688C1.49126 6.06841 5.1891 2.07841 9.97852 1.18848ZM12 2.16895C12.1597 2.16895 12.3482 2.24751 12.4814 2.47949C13.5872 4.40532 14.7836 7.35707 14.9736 11H9.02637C9.21639 7.35711 10.4128 4.40533 11.5186 2.47949C11.6517 2.24755 11.8403 2.16897 12 2.16895Z" fill="#202327"/>
</g>
<defs>
<clipPath id="clip0_18_14095">
<rect width="24" height="24" fill="white"/>
</clipPath>
</defs>
</svg>
