<svg width="24" height="25" viewBox="0 0 24 25" fill="none" xmlns="http://www.w3.org/2000/svg">
<path d="M3.12976 19.5002C5.54803 13.082 14.452 13.082 16.8702 19.5002L3.12976 19.5002Z" stroke="#202327" stroke-width="2" stroke-linecap="round" stroke-linejoin="round"/>
<path d="M21.1707 19.5609C20.3335 17.3388 18.8732 15.7333 17.1357 14.7442" stroke="#202327" stroke-width="2" stroke-linecap="round" stroke-linejoin="round"/>
<path d="M12.7257 7C12.7257 9.07107 11.559 10.75 10.0035 10.75C8.44792 10.75 7.28125 9.07107 7.28125 7C7.28125 4.92893 8.50003 3.25 10.0035 3.25C11.5069 3.25 12.7257 4.92893 12.7257 7Z" stroke="#202327" stroke-width="2" stroke-linecap="round" stroke-linejoin="round"/>
<path d="M15 3.56641C15.9299 4.14746 16.7222 5.46609 16.7222 6.99976C16.7222 8.53343 15.9299 9.85207 15 10.4331" stroke="#202327" stroke-width="2" stroke-linecap="round" stroke-linejoin="round"/>
<path d="M16.2663 14.25C16.5395 13.7701 17.1497 13.602 17.6296 13.875L17.989 14.0908C19.7678 15.2057 21.2437 16.9199 22.1062 19.209C22.3005 19.7256 22.0387 20.3014 21.5222 20.4961C21.0056 20.6907 20.429 20.4306 20.2341 19.9141C19.4796 17.9116 18.1762 16.4876 16.6404 15.6133L16.5544 15.5586C16.1414 15.2647 16.0103 14.7 16.2663 14.25Z" fill="#202327"/>
<path d="M2.1931 19.1475C4.93669 11.8661 15.0618 11.8661 17.8054 19.1475L17.8406 19.2646C17.9073 19.5399 17.8554 19.8333 17.6921 20.0693C17.5053 20.3391 17.197 20.5 16.8689 20.5H3.12865C2.80066 20.4999 2.49308 20.339 2.30638 20.0693C2.11972 19.7995 2.07746 19.4545 2.1931 19.1475Z" fill="#202327"/>
<path d="M10.0007 2.25C11.1516 2.25016 12.1055 2.89498 12.7341 3.76074C13.3636 4.62791 13.7224 5.77649 13.7224 7C13.7224 8.21374 13.382 9.3626 12.7576 10.2344C12.1292 11.1113 11.1714 11.7498 10.0007 11.75C8.82988 11.7498 7.87124 11.1114 7.24291 10.2344C6.61852 9.36262 6.27806 8.21364 6.27806 7C6.27806 5.77658 6.63694 4.62788 7.26634 3.76074C7.89499 2.89485 8.8497 2.25016 10.0007 2.25Z" fill="#202327"/>
<path d="M14.1511 3.03613C14.4255 2.59746 14.9846 2.4454 15.4392 2.66895L15.529 2.71875L15.7585 2.875C16.8898 3.70549 17.7213 5.2673 17.7214 7C17.7213 8.84812 16.7759 10.502 15.529 11.2812L15.4392 11.3311C14.9845 11.5547 14.4255 11.4019 14.1511 10.9629C13.8588 10.4947 14.0005 9.87765 14.4685 9.58496L14.5837 9.50586C15.1588 9.07785 15.7213 8.14264 15.7214 7C15.7213 5.8572 15.1589 4.92109 14.5837 4.49316L14.4685 4.41406L14.3845 4.35547C13.9846 4.0447 13.8769 3.47495 14.1511 3.03613Z" fill="#202327"/>
</svg>
