<svg width="24" height="24" viewBox="0 0 24 24" fill="none" xmlns="http://www.w3.org/2000/svg">
<path d="M2.19292 19.1475C4.93645 11.866 15.0624 11.866 17.8059 19.1475L17.8411 19.2642C17.908 19.5396 17.8554 19.8331 17.692 20.0693C17.5052 20.3391 17.1977 20.4995 16.8695 20.4995H3.12929C2.80114 20.4995 2.49364 20.3391 2.30686 20.0693C2.12013 19.7994 2.07727 19.4546 2.19292 19.1475ZM15.2475 18.499C12.7816 14.7494 7.21724 14.7494 4.75135 18.499H15.2475Z" fill="#202327"/>
<path d="M18.0756 13.8716C19.6745 15.0753 21.007 16.7358 21.8825 18.8372L22.051 19.2639L22.0821 19.3613C22.2119 19.8512 21.952 20.3692 21.4675 20.5518C20.9832 20.734 20.4461 20.5164 20.2204 20.0629L20.1797 19.9683L20.0367 19.6085C19.2968 17.8318 18.1852 16.4576 16.8727 15.4694C16.4316 15.1373 16.3433 14.5102 16.6752 14.069C17.0074 13.6279 17.6344 13.5394 18.0756 13.8716Z" fill="#202327"/>
<path d="M11.723 7C11.723 6.15245 11.4724 5.42562 11.1166 4.93555C10.7602 4.44473 10.3534 4.25016 10.0014 4.25C9.64925 4.25 9.24166 4.44449 8.88515 4.93555C8.5294 5.42562 8.27871 6.15245 8.27871 7C8.27871 7.85733 8.52178 8.58388 8.86953 9.06934C9.21333 9.54926 9.61698 9.75 10.0014 9.75C10.3856 9.74985 10.7886 9.54904 11.1322 9.06934C11.48 8.58388 11.723 7.85733 11.723 7ZM13.723 7C13.723 8.21374 13.3827 9.3626 12.7582 10.2344C12.1299 11.1114 11.1722 11.7498 10.0014 11.75C8.83033 11.75 7.87196 11.1115 7.24355 10.2344C6.61907 9.3626 6.27871 8.21374 6.27871 7C6.27871 5.77649 6.63749 4.62791 7.26699 3.76074C7.89571 2.89475 8.85015 2.25 10.0014 2.25C11.1524 2.25016 12.1061 2.89488 12.7348 3.76074C13.3643 4.62791 13.723 5.77649 13.723 7Z" fill="#202327"/>
<path d="M15.7212 7.00003C15.7212 6.21534 15.4536 5.51085 15.0825 5.00589L14.9184 4.80178L14.854 4.72268C14.5565 4.31219 14.6129 3.73525 14.9995 3.39065C15.386 3.0461 15.9656 3.05601 16.3393 3.39846L16.4106 3.47171L16.5532 3.6387C17.2488 4.49661 17.7212 5.68839 17.7212 7.00003C17.7212 8.39924 17.1832 9.66174 16.4106 10.5283C16.0431 10.9406 15.4118 10.9768 14.9995 10.6094C14.5873 10.2419 14.551 9.61053 14.9184 9.19827C15.3723 8.68914 15.7212 7.89664 15.7212 7.00003Z" fill="#202327"/>
</svg>
