<svg width="24" height="24" viewBox="0 0 24 24" fill="none" xmlns="http://www.w3.org/2000/svg">
<path fill-rule="evenodd" clip-rule="evenodd" d="M19.9297 13.7246C20.4819 13.7246 20.9295 14.1783 20.9297 14.7305C20.9297 14.8286 20.9924 14.9164 21.083 14.9541C21.3235 15.0543 21.5479 15.1856 21.752 15.3418C21.8299 15.4014 21.9374 15.4114 22.0225 15.3623C22.5006 15.0863 23.1173 15.2466 23.3936 15.7246C23.6697 16.2029 23.5007 16.8176 23.0225 17.0938C22.9375 17.1428 22.8928 17.2406 22.9053 17.3379C22.9216 17.4645 22.9297 17.5936 22.9297 17.7246C22.9297 17.8555 22.9215 17.9848 22.9053 18.1113C22.8928 18.2086 22.9376 18.3064 23.0225 18.3555C23.5008 18.6316 23.6697 19.2463 23.3936 19.7246C23.1175 20.2028 22.5007 20.3638 22.0225 20.0879C21.9374 20.0388 21.83 20.0487 21.752 20.1084C21.548 20.2645 21.3234 20.3949 21.083 20.4951C20.9925 20.5328 20.9298 20.6207 20.9297 20.7188C20.9297 21.271 20.482 21.7246 19.9297 21.7246C19.3775 21.7245 18.9297 21.271 18.9297 20.7188C18.9296 20.6207 18.8678 20.5329 18.7773 20.4951C18.5368 20.3949 18.3115 20.2646 18.1074 20.1084C18.0295 20.0489 17.9229 20.0389 17.8379 20.0879C17.3596 20.364 16.742 20.2029 16.4658 19.7246C16.1899 19.2464 16.3589 18.6316 16.8369 18.3555C16.9218 18.3064 16.9676 18.2086 16.9551 18.1113C16.9388 17.9848 16.9297 17.8556 16.9297 17.7246C16.9297 17.5936 16.9388 17.4645 16.9551 17.3379C16.9675 17.2407 16.9218 17.1428 16.8369 17.0938C16.359 16.8175 16.1898 16.2028 16.4658 15.7246C16.742 15.2465 17.3597 15.0862 17.8379 15.3623C17.9228 15.4111 18.0296 15.4011 18.1074 15.3418C18.3115 15.1856 18.5368 15.0543 18.7773 14.9541C18.8678 14.9163 18.9297 14.8285 18.9297 14.7305C18.9299 14.1784 19.3776 13.7247 19.9297 13.7246ZM19.9297 16.7246C19.3776 16.7247 18.9298 17.1725 18.9297 17.7246C18.9297 18.2768 19.3775 18.7245 19.9297 18.7246C20.482 18.7246 20.9297 18.2769 20.9297 17.7246C20.9296 17.1724 20.4819 16.7246 19.9297 16.7246Z" fill="#202327"/>
<path fill-rule="evenodd" clip-rule="evenodd" d="M17.9688 3.00781C18.4539 3.04183 18.9247 3.19282 19.3398 3.4502C19.7548 3.70754 20.0996 4.06214 20.3457 4.48145L20.4453 4.66504L20.4922 4.77539L22.9424 11.665C23.0511 11.971 23.0045 12.3108 22.8174 12.5762C22.63 12.8417 22.325 13 22 13H3V18C3 18.2652 3.10543 18.5195 3.29297 18.707C3.48051 18.8946 3.73478 19 4 19H13.1875L13.2891 19.0049C13.7935 19.0559 14.1875 19.4821 14.1875 20C14.1875 20.5179 13.7935 20.9441 13.2891 20.9951L13.1875 21H4C3.20435 21 2.44151 20.6837 1.87891 20.1211C1.3163 19.5585 1 18.7956 1 18V12C1 11.8859 1.0194 11.7726 1.05762 11.665L3.50781 4.77539L3.55469 4.66504C3.80305 4.16524 4.18584 3.74432 4.66016 3.4502C5.13438 3.15617 5.68128 3.00034 6.23926 3H17.7607L17.9688 3.00781ZM6.10156 5.00977C5.96455 5.02907 5.83232 5.07694 5.71387 5.15039C5.56714 5.24144 5.44794 5.36943 5.36523 5.52051L3.41699 11H20.583L18.6338 5.52051C18.5511 5.36961 18.4327 5.24135 18.2861 5.15039C18.1677 5.07694 18.0355 5.02907 17.8984 5.00977L17.7598 5H6.24023L6.10156 5.00977Z" fill="#202327"/>
<path d="M6.00977 15C6.56205 15 7.00977 15.4477 7.00977 16C7.00977 16.5523 6.56205 17 6.00977 17H6C5.44772 17 5 16.5523 5 16C5 15.4477 5.44772 15 6 15H6.00977Z" fill="#202327"/>
</svg>
