<svg width="24" height="24" viewBox="0 0 24 24" fill="none" xmlns="http://www.w3.org/2000/svg">
<path fill-rule="evenodd" clip-rule="evenodd" d="M17.9688 3.00781C18.4539 3.04183 18.9247 3.19282 19.3398 3.4502C19.7548 3.70754 20.0996 4.06214 20.3457 4.48145L20.4453 4.66504L20.4922 4.77539L22.9424 11.665C23.0511 11.971 23.0045 12.3108 22.8174 12.5762C22.63 12.8417 22.325 13 22 13H3V18C3 18.2652 3.10543 18.5195 3.29297 18.707C3.48051 18.8946 3.73478 19 4 19H13.1875L13.2891 19.0049C13.7935 19.0559 14.1875 19.4821 14.1875 20C14.1875 20.5179 13.7935 20.9441 13.2891 20.9951L13.1875 21H4C3.20435 21 2.44151 20.6837 1.87891 20.1211C1.3163 19.5585 1 18.7956 1 18V12C1 11.8859 1.0194 11.7726 1.05762 11.665L3.50781 4.77539L3.55469 4.66504C3.80305 4.16524 4.18584 3.74432 4.66016 3.4502C5.13438 3.15617 5.68128 3.00034 6.23926 3H17.7607L17.9688 3.00781ZM6.10156 5.00977C5.96455 5.02907 5.83232 5.07694 5.71387 5.15039C5.56714 5.24144 5.44794 5.36943 5.36523 5.52051L3.41699 11H20.583L18.6338 5.52051C18.5511 5.36961 18.4327 5.24135 18.2861 5.15039C18.1677 5.07694 18.0355 5.02907 17.8984 5.00977L17.7598 5H6.24023L6.10156 5.00977Z" fill="#202327"/>
<path d="M20 15C20.5523 15 21 15.4477 21 16V17H22C22.5523 17 23 17.4477 23 18C23 18.5523 22.5523 19 22 19H21V20C21 20.5523 20.5523 21 20 21C19.4477 21 19 20.5523 19 20V19H18C17.4477 19 17 18.5523 17 18C17 17.4477 17.4477 17 18 17H19V16C19 15.4477 19.4477 15 20 15Z" fill="#202327"/>
<path d="M6.00977 15C6.56205 15 7.00977 15.4477 7.00977 16C7.00977 16.5523 6.56205 17 6.00977 17H6C5.44772 17 5 16.5523 5 16C5 15.4477 5.44772 15 6 15H6.00977Z" fill="#202327"/>
</svg>
