<svg width="24" height="24" viewBox="0 0 24 24" fill="none" xmlns="http://www.w3.org/2000/svg">
<g clip-path="url(#clip0_18_15041)">
<path d="M20 3C21.6569 3 23 4.34315 23 6V18C23 19.6569 21.6569 21 20 21H4C2.34315 21 1 19.6569 1 18V6C1 4.34315 2.34315 3 4 3H20ZM4 5C3.44772 5 3 5.44772 3 6V18C3 18.5523 3.44772 19 4 19H20C20.5523 19 21 18.5523 21 18V6C21 5.44772 20.5523 5 20 5H4ZM9.95801 9C10.4413 9 10.833 9.39175 10.833 9.875V15.125C10.833 15.6082 10.4413 16 9.95801 16C9.47491 15.9998 9.08301 15.6081 9.08301 15.125V13.375H6.75V15.125C6.75 15.6082 6.35825 16 5.875 16C5.39175 16 5 15.6082 5 15.125V9.875C5 9.39175 5.39175 9 5.875 9C6.35825 9 6.75 9.39175 6.75 9.875V11.625H9.08301V9.875C9.08301 9.39186 9.47491 9.00018 9.95801 9ZM16.667 9C17.2857 9.00009 17.8789 9.24609 18.3164 9.68359C18.7539 10.1211 18.9999 10.7143 19 11.333V13.667C18.9999 14.2857 18.7539 14.8789 18.3164 15.3164C17.8789 15.7539 17.2857 15.9999 16.667 16H14.167C13.6147 16 13.167 15.5523 13.167 15V10C13.167 9.44772 13.6147 9 14.167 9H16.667ZM14.917 14.25H16.667C16.8216 14.2499 16.9698 14.1884 17.0791 14.0791C17.1884 13.9698 17.2499 13.8216 17.25 13.667V11.333C17.2499 11.1784 17.1884 11.0302 17.0791 10.9209C16.9698 10.8116 16.8216 10.7501 16.667 10.75H14.917V14.25Z" fill="#202327"/>
</g>
<defs>
<clipPath id="clip0_18_15041">
<rect width="24" height="24" fill="white"/>
</clipPath>
</defs>
</svg>
