<svg width="24" height="24" viewBox="0 0 24 24" fill="none" xmlns="http://www.w3.org/2000/svg">
<g clip-path="url(#clip0_18_15029)">
<path d="M20 3C21.6569 3 23 4.34315 23 6V18C23 19.6569 21.6569 21 20 21H4C2.34315 21 1 19.6569 1 18V6C1 4.34315 2.34315 3 4 3H20ZM4 5C3.44772 5 3 5.44772 3 6V18C3 18.5523 3.44772 19 4 19H20C20.5523 19 21 18.5523 21 18V6C21 5.44772 20.5523 5 20 5H4ZM9.5 8.5C10.0523 8.5 10.5 8.94772 10.5 9.5V11.5H11C11.5523 11.5 12 11.9477 12 12.5C12 13.0523 11.5523 13.5 11 13.5H10.5V15C10.5 15.5523 10.0523 16 9.5 16C8.94772 16 8.5 15.5523 8.5 15V13.5H6.5C5.94772 13.5 5.5 13.0523 5.5 12.5V9.5C5.5 8.94772 5.94772 8.5 6.5 8.5C7.05228 8.5 7.5 8.94772 7.5 9.5V11.5H8.5V9.5C8.5 8.94772 8.94772 8.5 9.5 8.5ZM16.2188 8.875C16.5637 8.44377 17.1937 8.37384 17.625 8.71875C18.0563 9.06376 18.1263 9.69374 17.7812 10.125L16.2373 12.0537L17.832 14.4453L17.8848 14.5332C18.1218 14.9812 17.9855 15.5448 17.5547 15.832C17.1238 16.1192 16.5508 16.0281 16.2285 15.6367L16.168 15.5547L14.5 13.0527V15C14.5 15.5523 14.0523 16 13.5 16C12.9477 16 12.5 15.5523 12.5 15V9.5C12.5 8.94772 12.9477 8.5 13.5 8.5C14.0523 8.5 14.5 8.94772 14.5 9.5V11.0234L16.2188 8.875Z" fill="#202327"/>
</g>
<defs>
<clipPath id="clip0_18_15029">
<rect width="24" height="24" fill="white"/>
</clipPath>
</defs>
</svg>
