<svg width="24" height="24" viewBox="0 0 24 24" fill="none" xmlns="http://www.w3.org/2000/svg">
<g clip-path="url(#clip0_18_15035)">
<path d="M20 3C21.6569 3 23 4.34315 23 6V18C23 19.6569 21.6569 21 20 21H4C2.34315 21 1 19.6569 1 18V6C1 4.34315 2.34315 3 4 3H20ZM9.5 8.5C8.94772 8.5 8.5 8.94772 8.5 9.5V11.5H7.5V9.5C7.5 8.94772 7.05228 8.5 6.5 8.5C5.94772 8.5 5.5 8.94772 5.5 9.5V13.5H8.5V15C8.5 15.5523 8.94772 16 9.5 16C10.0523 16 10.5 15.5523 10.5 15V13.5H11C11.5523 13.5 12 13.0523 12 12.5C12 11.9477 11.5523 11.5 11 11.5H10.5V9.5C10.5 8.94772 10.0523 8.5 9.5 8.5ZM17.625 8.71875C17.1937 8.37374 16.5638 8.44374 16.2188 8.875L14.5 11.0234V9.5C14.5 8.94772 14.0523 8.5 13.5 8.5C12.9477 8.5 12.5 8.94772 12.5 9.5V15C12.5 15.5523 12.9477 16 13.5 16C14.0523 16 14.5 15.5523 14.5 15V13.0527L16.168 15.5547L16.2285 15.6367C16.5508 16.0282 17.1238 16.1193 17.5547 15.832C17.9855 15.5448 18.1218 14.9812 17.8848 14.5332L17.832 14.4453L16.2373 12.0537L17.7812 10.125C18.1263 9.69374 18.0563 9.06376 17.625 8.71875Z" fill="#202327"/>
</g>
<defs>
<clipPath id="clip0_18_15035">
<rect width="24" height="24" fill="white"/>
</clipPath>
</defs>
</svg>
