<svg width="24" height="24" viewBox="0 0 24 24" fill="none" xmlns="http://www.w3.org/2000/svg">
<g clip-path="url(#clip0_18_15047)">
<path d="M20 3C21.6569 3 23 4.34315 23 6V18C23 19.6569 21.6569 21 20 21H4C2.34315 21 1 19.6569 1 18V6C1 4.34315 2.34315 3 4 3H20ZM9.95801 9C9.47491 9.00018 9.08301 9.39186 9.08301 9.875V11.625H6.75V9.875C6.75 9.39175 6.35825 9 5.875 9C5.39175 9 5 9.39175 5 9.875V15.125C5 15.6082 5.39175 16 5.875 16C6.35825 16 6.75 15.6082 6.75 15.125V13.375H9.08301V15.125L9.08789 15.2148C9.13286 15.6558 9.50524 15.9998 9.95801 16C10.4413 16 10.833 15.6082 10.833 15.125V9.875C10.833 9.39175 10.4413 9 9.95801 9ZM14.167 9C13.6147 9 13.167 9.44772 13.167 10V15C13.167 15.5523 13.6147 16 14.167 16H16.667C17.2857 15.9999 17.8789 15.7539 18.3164 15.3164C18.7539 14.8789 18.9999 14.2857 19 13.667V11.333C18.9999 10.7143 18.7539 10.1211 18.3164 9.68359C17.8789 9.24609 17.2857 9.00009 16.667 9H14.167ZM16.667 10.75C16.8216 10.7501 16.9698 10.8116 17.0791 10.9209C17.1884 11.0302 17.2499 11.1784 17.25 11.333V13.667C17.2499 13.8216 17.1884 13.9698 17.0791 14.0791C16.9698 14.1884 16.8216 14.2499 16.667 14.25H14.917V10.75H16.667Z" fill="#202327"/>
</g>
<defs>
<clipPath id="clip0_18_15047">
<rect width="24" height="24" fill="white"/>
</clipPath>
</defs>
</svg>
