<svg width="24" height="24" viewBox="0 0 24 24" fill="none" xmlns="http://www.w3.org/2000/svg">
<path fill-rule="evenodd" clip-rule="evenodd" d="M12 4C9.87827 4 7.84344 4.84285 6.34315 6.34315C4.84285 7.84344 4 9.87827 4 12V13H6C6.79565 13 7.55871 13.3161 8.12132 13.8787C8.68393 14.4413 9 15.2044 9 16V19C9 19.7957 8.68393 20.5587 8.12132 21.1213C7.55871 21.6839 6.79565 22 6 22H5C4.20435 22 3.44129 21.6839 2.87868 21.1213C2.31607 20.5587 2 19.7957 2 19V12C2 9.34784 3.05357 6.8043 4.92893 4.92893C6.8043 3.05357 9.34784 2 12 2C14.6522 2 17.1957 3.05357 19.0711 4.92893C20.9464 6.8043 22 9.34784 22 12V19C22 19.7957 21.6839 20.5587 21.1213 21.1213C20.5587 21.6839 19.7957 22 19 22H18C17.2043 22 16.4413 21.6839 15.8787 21.1213C15.3161 20.5587 15 19.7957 15 19V16C15 15.2043 15.3161 14.4413 15.8787 13.8787C16.4413 13.3161 17.2043 13 18 13H20V12C20 9.87827 19.1571 7.84344 17.6569 6.34315C16.1566 4.84285 14.1217 4 12 4Z" fill="#202327"/>
</svg>
