<svg width="24" height="24" viewBox="0 0 24 24" fill="none" xmlns="http://www.w3.org/2000/svg">
<g clip-path="url(#clip0_18_12771)">
<path d="M16.5 2C18.2239 2 19.8777 2.68433 21.0967 3.90332C22.3157 5.12231 23 6.77609 23 8.5C23 11.2418 21.1902 13.2534 19.7031 14.7109L12.707 21.707C12.3165 22.0976 11.6835 22.0976 11.293 21.707L4.29883 14.7129C2.79442 13.2579 1 11.2493 1 8.5C1 6.77609 1.68433 5.12231 2.90332 3.90332C4.12231 2.68433 5.77609 2 7.5 2C8.48018 2 9.37344 2.14001 10.2471 2.52051C10.8599 2.78744 11.4321 3.15972 12 3.63965C12.5679 3.15972 13.1401 2.78744 13.7529 2.52051C14.6266 2.14001 15.5198 2 16.5 2Z" fill="#151826"/>
</g>
<defs>
<clipPath id="clip0_18_12771">
<rect width="24" height="24" fill="white"/>
</clipPath>
</defs>
</svg>
