<svg width="24" height="24" viewBox="0 0 24 24" fill="none" xmlns="http://www.w3.org/2000/svg">
<path d="M12 1C18.0751 1 23 5.92487 23 12C23 18.0751 18.0751 23 12 23C5.92487 23 1 18.0751 1 12C1 5.92487 5.92487 1 12 1ZM12 16C11.448 16.0001 11.0003 16.448 11 17C11.0003 17.552 11.448 17.9999 12 18H12.0098L12.1123 17.9941C12.6163 17.9429 13.0095 17.5175 13.0098 17C13.0095 16.4825 12.6163 16.0562 12.1123 16.0049L12.0098 16H12ZM12.5957 6.05273C11.665 5.89325 10.7077 6.06846 9.89355 6.54688C9.13027 6.99546 8.53829 7.6837 8.20898 8.50195L8.14648 8.66797C7.9634 9.18877 8.23715 9.75996 8.75781 9.94336C9.24632 10.1152 9.77857 9.88462 9.99414 9.42578L10.0332 9.33105C10.19 8.88581 10.4993 8.5097 10.9062 8.27051C11.3133 8.03129 11.7925 7.94375 12.2578 8.02344C12.7232 8.10326 13.146 8.34592 13.4502 8.70703C13.7163 9.02316 13.8765 9.41345 13.9121 9.82227L13.9199 9.99805V10C13.9197 10.469 13.5546 10.9584 12.8652 11.418C12.5509 11.6275 12.2292 11.7887 11.9824 11.8984C11.8605 11.9526 11.7598 11.9929 11.6924 12.0186C11.659 12.0313 11.6335 12.0405 11.6182 12.0459C11.6112 12.0484 11.6061 12.0499 11.6035 12.0508L11.6016 12.0518V12.0508C11.0792 12.226 10.7969 12.7924 10.9707 13.3154C11.1344 13.8067 11.6431 14.0865 12.1377 13.9756L12.2363 13.9482H12.2373L12.2393 13.9473C12.2403 13.9469 12.2419 13.9467 12.2432 13.9463C12.2461 13.9453 12.2497 13.9438 12.2539 13.9424C12.2626 13.9394 12.274 13.9347 12.2881 13.9297C12.3166 13.9196 12.356 13.9051 12.4043 13.8867C12.5009 13.8499 12.6357 13.7964 12.7949 13.7256C13.1105 13.5853 13.5392 13.3723 13.9746 13.082C14.7344 12.5755 15.7797 11.6549 15.9072 10.2803L15.9199 10C15.921 9.05591 15.5875 8.14122 14.9795 7.41895C14.3712 6.69667 13.5264 6.21238 12.5957 6.05273Z" fill="#202327"/>
</svg>
