<svg width="24" height="24" viewBox="0 0 24 24" fill="none" xmlns="http://www.w3.org/2000/svg">
<path fill-rule="evenodd" clip-rule="evenodd" d="M12 3C7.02944 3 3 7.02944 3 12C3 16.9706 7.02944 21 12 21C16.9706 21 21 16.9706 21 12C21 7.02944 16.9706 3 12 3ZM1 12C1 5.92487 5.92487 1 12 1C18.0751 1 23 5.92487 23 12C23 18.0751 18.0751 23 12 23C5.92487 23 1 18.0751 1 12ZM12.2581 8.0244C11.7926 7.94455 11.3138 8.03203 10.9066 8.27135C10.4994 8.51066 10.19 8.88637 10.0333 9.33192C9.85003 9.85291 9.27911 10.1267 8.75812 9.94342C8.23713 9.76014 7.96336 9.18923 8.14663 8.66824C8.4601 7.77713 9.07883 7.02571 9.89324 6.54708C10.7076 6.06845 11.6652 5.89349 12.5962 6.05319C13.5272 6.21289 14.3717 6.69694 14.9801 7.41961C15.5883 8.14213 15.9212 9.05656 15.92 10.001C15.9195 11.5313 14.7849 12.542 13.9747 13.0821C13.539 13.3726 13.1105 13.5861 12.7949 13.7264C12.6356 13.7972 12.5015 13.8509 12.4049 13.8877C12.3565 13.9061 12.3172 13.9204 12.2887 13.9306L12.2539 13.9427L12.2429 13.9465L12.239 13.9478L12.2374 13.9483C12.2371 13.9484 12.2362 13.9488 11.92 13.0001L12.2362 13.9488C11.7122 14.1234 11.1459 13.8403 10.9713 13.3163C10.7967 12.7925 11.0796 12.2264 11.6032 12.0516L11.6186 12.0461C11.634 12.0407 11.6592 12.0315 11.6929 12.0187C11.7603 11.993 11.8606 11.953 11.9826 11.8988C12.2294 11.7891 12.5509 11.6276 12.8653 11.418C13.5549 10.9583 13.92 10.4692 13.92 10.0001L13.92 9.99859C13.9207 9.52627 13.7542 9.06895 13.45 8.70761C13.1458 8.34627 12.7236 8.10425 12.2581 8.0244ZM11 17C11 16.4477 11.4477 16 12 16H12.01C12.5623 16 13.01 16.4477 13.01 17C13.01 17.5523 12.5623 18 12.01 18H12C11.4477 18 11 17.5523 11 17Z" fill="#202327"/>
</svg>
