<svg width="24" height="24" viewBox="0 0 24 24" fill="none" xmlns="http://www.w3.org/2000/svg">
<path d="M12 2.26758C12.2224 2.26758 12.4387 2.34196 12.6143 2.47852L20.6143 8.7002C20.7345 8.79375 20.8316 8.91391 20.8984 9.05078C20.9653 9.18765 21.0001 9.33792 21 9.49023V20C21 20.2652 20.8945 20.5195 20.707 20.707C20.5195 20.8946 20.2652 21 20 21H4C3.73478 21 3.48051 20.8946 3.29297 20.707C3.10552 20.5195 3 20.2652 3 20V9.49023C2.9999 9.33792 3.03472 9.18765 3.10156 9.05078C3.16844 8.91391 3.26552 8.79375 3.38574 8.7002L11.3857 2.47852C11.5613 2.34196 11.7776 2.26758 12 2.26758ZM5 9.97852V19H19V9.97852L12 4.53418L5 9.97852ZM14.9951 9.8252L16.4102 11.2393L10.7529 16.8965L7.2168 13.3604L8.63086 11.9463L10.752 14.0674L14.9951 9.82422V9.8252Z" fill="#151826"/>
</svg>
