<svg width="24" height="24" viewBox="0 0 24 24" fill="none" xmlns="http://www.w3.org/2000/svg">
<path opacity="0.3" fill-rule="evenodd" clip-rule="evenodd" d="M24 0H0V24H24V0ZM12.0938 0.375H15.9375V2.0625H12.0938V0.375ZM13.9311 2.25H15.9375V2.87309C15.3004 2.59788 14.6289 2.38742 13.9311 2.25ZM11.9062 0.375V2.0625H8.0625V0.375H11.9062ZM10.0689 2.25H8.0625V2.87309C8.69957 2.59788 9.37114 2.38742 10.0689 2.25ZM7.875 0.375V2.0625H5.8125C5.05209 2.0625 4.39741 2.51515 4.10321 3.16571C3.92448 3.24653 3.76069 3.35457 3.61711 3.48453L0.507583 0.375H7.875ZM5.8125 2.25C5.19761 2.25 4.65953 2.57887 4.36457 3.07032C4.52685 3.02451 4.69806 3 4.875 3H7.78091C7.81218 2.98531 7.84355 2.97078 7.875 2.95641V2.25H5.8125ZM3.74988 3.6173C3.82943 3.54609 3.91577 3.48231 4.00782 3.42707C3.97317 3.54981 3.95071 3.67766 3.94182 3.80924L3.74988 3.6173ZM3.80924 3.94182C3.67766 3.95071 3.54981 3.97317 3.42707 4.00782C3.48231 3.91577 3.54609 3.82943 3.6173 3.74988L3.80924 3.94182ZM4.125 3.9375H6.18927C6.57402 3.65972 6.97945 3.4088 7.4028 3.1875H4.875C4.65271 3.1875 4.44045 3.23048 4.24609 3.30859C4.16798 3.50295 4.125 3.7152 4.125 3.9375ZM5.93799 4.125C5.62306 4.36779 5.3231 4.62904 5.03973 4.90715L4.25758 4.125H5.93799ZM6.25022 4.125H7.875V7.74242L5.17232 5.03973C5.50873 4.70969 5.86898 4.40383 6.25022 4.125ZM7.875 3.9375H6.51574C6.92977 3.65532 7.36666 3.40421 7.82305 3.1875H7.875V3.9375ZM8.0625 4.125V7.875H9.06447C9.86875 7.30161 10.8478 6.95757 11.9062 6.93835V4.125H8.0625ZM11.9062 3.9375H8.0625V3.1875H11.9062V3.9375ZM12.0938 4.125V6.93835C13.1522 6.95757 14.1313 7.30161 14.9355 7.875H15.9375V4.125H12.0938ZM15.9375 3.9375H12.0938V3.1875H15.9375V3.9375ZM16.125 4.125V7.74242L18.8277 5.03973C18.4913 4.70969 18.131 4.40384 17.7498 4.125H16.125ZM17.4843 3.9375H16.125V3.1875H16.1769C16.6333 3.40421 17.0702 3.65532 17.4843 3.9375ZM18.062 4.125C18.3769 4.36779 18.6769 4.62904 18.9603 4.90715L19.7424 4.125H18.062ZM19.875 3.9375H17.8107C17.426 3.65972 17.0206 3.4088 16.5972 3.1875H19.125C19.3473 3.1875 19.5596 3.23048 19.7539 3.30859C19.832 3.50295 19.875 3.7152 19.875 3.9375ZM20.0625 4.125V6.18927C20.3403 6.57402 20.5912 6.97945 20.8125 7.4028V4.875C20.8125 4.65271 20.7695 4.44045 20.6914 4.24609C20.4971 4.16798 20.2848 4.125 20.0625 4.125ZM20.5729 4.00782C20.4502 3.97317 20.3223 3.95071 20.1908 3.94182L20.3827 3.74988C20.4539 3.82943 20.5177 3.91577 20.5729 4.00782ZM20.9297 4.36457C20.9755 4.52685 21 4.69806 21 4.875V7.78091C21.0147 7.81218 21.0292 7.84355 21.0436 7.875H21.75V5.8125C21.75 5.19761 21.4211 4.65953 20.9297 4.36457ZM21.9375 7.875V5.8125C21.9375 5.05209 21.4848 4.39741 20.8343 4.10321C20.7535 3.92448 20.6454 3.76069 20.5155 3.61711L23.625 0.507582V7.875H21.9375ZM21.75 8.0625H21.1269C21.4021 8.69957 21.6126 9.37115 21.75 10.0689V8.0625ZM21.9375 11.9062V8.0625H23.625V11.9062H21.9375ZM21.75 13.9311C21.6126 14.6289 21.4021 15.3004 21.1269 15.9375H21.75V13.9311ZM21.9375 15.9375V12.0938H23.625V15.9375H21.9375ZM21.75 16.125H21.0436C21.0292 16.1565 21.0147 16.1878 21 16.2191V19.125C21 19.3019 20.9755 19.4732 20.9297 19.6354C21.4211 19.3405 21.75 18.8024 21.75 18.1875V16.125ZM20.8343 19.8968C21.4848 19.6026 21.9375 18.9479 21.9375 18.1875V16.125H23.625V23.4924L20.5155 20.3829C20.6454 20.2393 20.7535 20.0755 20.8343 19.8968ZM20.6914 19.7539C20.7695 19.5596 20.8125 19.3473 20.8125 19.125V16.5972C20.5912 17.0206 20.3403 17.426 20.0625 17.8107V19.875C20.2848 19.875 20.4971 19.832 20.6914 19.7539ZM20.1908 20.0582C20.3223 20.0493 20.4502 20.0268 20.5729 19.9922C20.5177 20.0842 20.4539 20.1706 20.3827 20.2501L20.1908 20.0582ZM19.7424 19.875L18.9603 19.0929C18.6769 19.371 18.3769 19.6322 18.062 19.875H19.7424ZM17.8107 20.0625H19.875C19.875 20.2848 19.832 20.4971 19.7539 20.6914C19.5596 20.7695 19.3473 20.8125 19.125 20.8125H16.5972C17.0206 20.5912 17.426 20.3403 17.8107 20.0625ZM17.7498 19.875C18.131 19.5962 18.4913 19.2903 18.8277 18.9603L16.125 16.2576V19.875H17.7498ZM16.125 20.0625H17.4843C17.0702 20.3447 16.6333 20.5958 16.1769 20.8125H16.125V20.0625ZM15.9375 19.875V16.125H14.9355C14.1313 16.6984 13.1522 17.0424 12.0938 17.0616V19.875H15.9375ZM12.0938 20.0625H15.9375V20.8125H12.0938V20.0625ZM11.9062 19.875V17.0616C10.8478 17.0424 9.86875 16.6984 9.06447 16.125H8.0625V19.875H11.9062ZM8.0625 20.0625H11.9062V20.8125H8.0625V20.0625ZM7.875 19.875V16.2576L5.17232 18.9603C5.50873 19.2903 5.86897 19.5962 6.25022 19.875H7.875ZM6.51574 20.0625H7.875V20.8125H7.82305C7.36666 20.5958 6.92977 20.3447 6.51574 20.0625ZM5.93798 19.875C5.62305 19.6322 5.3231 19.371 5.03973 19.0929L4.25758 19.875H5.93798ZM4.125 20.0625L6.18927 20.0625C6.57402 20.3403 6.97945 20.5912 7.4028 20.8125H4.875C4.65271 20.8125 4.44045 20.7695 4.24609 20.6914C4.16798 20.4971 4.125 20.2848 4.125 20.0625ZM3.9375 19.875L3.9375 17.8107C3.65972 17.426 3.4088 17.0206 3.1875 16.5972V19.125C3.1875 19.3473 3.23048 19.5595 3.30859 19.7539C3.50295 19.832 3.7152 19.875 3.9375 19.875ZM3.42707 19.9922C3.54981 20.0268 3.67766 20.0493 3.80924 20.0582L3.6173 20.2501C3.54609 20.1706 3.48231 20.0842 3.42707 19.9922ZM3.07032 19.6354C3.02451 19.4732 3 19.3019 3 19.125V16.2191C2.98531 16.1878 2.97078 16.1565 2.95641 16.125H2.25V18.1875C2.25 18.8024 2.57887 19.3405 3.07032 19.6354ZM2.0625 16.125V18.1875C2.0625 18.9479 2.51515 19.6026 3.1657 19.8968C3.24653 20.0755 3.35457 20.2393 3.48453 20.3829L0.375 23.4924V16.125H2.0625ZM2.25 15.9375H2.87309C2.59788 15.3004 2.38742 14.6289 2.25 13.9311V15.9375ZM2.0625 12.0938V15.9375H0.375V12.0938H2.0625ZM2.25 10.0689C2.38742 9.37115 2.59788 8.69957 2.87309 8.0625H2.25V10.0689ZM2.0625 8.0625V11.9062H0.375V8.0625H2.0625ZM2.0625 7.875H0.375V0.507583L3.48453 3.61711C3.35457 3.76069 3.24653 3.92448 3.16571 4.1032C2.51515 4.39741 2.0625 5.05209 2.0625 5.8125L2.0625 7.875ZM2.25 7.875H2.95641C2.97078 7.84355 2.98531 7.81218 3 7.78091V4.875C3 4.69806 3.02451 4.52685 3.07032 4.36457C2.57887 4.65953 2.25 5.19761 2.25 5.8125L2.25 7.875ZM3.30859 4.24609C3.23048 4.44045 3.1875 4.6527 3.1875 4.875V7.4028C3.4088 6.97945 3.65972 6.57402 3.9375 6.18927V4.125C3.7152 4.125 3.50295 4.16798 3.30859 4.24609ZM4.125 4.25758V5.93799C4.36779 5.62306 4.62904 5.3231 4.90715 5.03973L4.125 4.25758ZM3.1875 7.82305C3.40421 7.36666 3.65532 6.92977 3.9375 6.51574V7.875H3.1875V7.82305ZM4.125 6.25022V7.875H7.74242L5.03973 5.17232C4.70969 5.50873 4.40383 5.86898 4.125 6.25022ZM3.1875 8.0625H3.9375V11.9062H3.1875V8.0625ZM4.125 8.0625V11.9062H6.93835C6.95757 10.8478 7.30161 9.86875 7.875 9.06447V8.0625H4.125ZM3.1875 12.0938H3.9375V15.9375H3.1875V12.0938ZM4.125 12.0938V15.9375H7.875V14.9355C7.30161 14.1313 6.95757 13.1522 6.93835 12.0938H4.125ZM3.1875 16.125H3.9375V17.4843C3.65532 17.0702 3.40421 16.6333 3.1875 16.1769V16.125ZM4.125 16.125V17.7498C4.40384 18.131 4.70969 18.4913 5.03973 18.8277L7.74242 16.125H4.125ZM4.125 18.062V19.7424L4.90715 18.9603C4.62904 18.6769 4.36779 18.3769 4.125 18.062ZM3.74988 20.3827L3.94182 20.1908C3.95071 20.3223 3.97317 20.4502 4.00782 20.5729C3.91577 20.5177 3.82943 20.4539 3.74988 20.3827ZM3.61711 20.5155C3.76069 20.6454 3.92448 20.7535 4.10321 20.8343C4.39741 21.4848 5.05209 21.9375 5.8125 21.9375H7.875V23.625H0.507582L3.61711 20.5155ZM5.8125 21.75H7.875V21.0436C7.84355 21.0292 7.81218 21.0147 7.78091 21H4.875C4.69806 21 4.52685 20.9755 4.36457 20.9297C4.65953 21.4211 5.19761 21.75 5.8125 21.75ZM8.0625 23.625V21.9375H11.9062V23.625H8.0625ZM8.0625 21.75H10.0689C9.37115 21.6126 8.69957 21.4021 8.0625 21.1269V21.75ZM12.0938 23.625V21.9375H15.9375V23.625H12.0938ZM13.9311 21.75H15.9375V21.1269C15.3004 21.4021 14.6289 21.6126 13.9311 21.75ZM16.125 23.625V21.9375H18.1875C18.9479 21.9375 19.6026 21.4848 19.8968 20.8343C20.0755 20.7535 20.2393 20.6454 20.3829 20.5155L23.4924 23.625H16.125ZM18.1875 21.75C18.8024 21.75 19.3405 21.4211 19.6354 20.9297C19.4732 20.9755 19.3019 21 19.125 21H16.2191C16.1878 21.0147 16.1565 21.0292 16.125 21.0436V21.75H18.1875ZM20.2501 20.3827C20.1706 20.4539 20.0842 20.5177 19.9922 20.5729C20.0268 20.4502 20.0493 20.3223 20.0582 20.1908L20.2501 20.3827ZM19.875 19.7424V18.062C19.6322 18.3769 19.371 18.6769 19.0929 18.9603L19.875 19.7424ZM20.8125 16.1769C20.5958 16.6333 20.3447 17.0702 20.0625 17.4843V16.125H20.8125V16.1769ZM19.875 17.7498V16.125H16.2576L18.9603 18.8277C19.2903 18.4913 19.5962 18.131 19.875 17.7498ZM20.8125 15.9375H20.0625V12.0938H20.8125V15.9375ZM19.875 15.9375V12.0938H17.0616C17.0424 13.1522 16.6984 14.1313 16.125 14.9355V15.9375H19.875ZM20.8125 11.9062H20.0625V8.0625H20.8125V11.9062ZM19.875 11.9062V8.0625H16.125V9.06447C16.6984 9.86875 17.0424 10.8478 17.0616 11.9062H19.875ZM20.8125 7.875H20.0625V6.51574C20.3447 6.92977 20.5958 7.36666 20.8125 7.82305V7.875ZM19.875 7.875V6.25022C19.5962 5.86898 19.2903 5.50873 18.9603 5.17232L16.2576 7.875H19.875ZM19.875 5.93799V4.25758L19.0929 5.03973C19.371 5.3231 19.6322 5.62306 19.875 5.93799ZM20.2501 3.6173L20.0582 3.80924C20.0493 3.67766 20.0268 3.54981 19.9922 3.42707C20.0842 3.48231 20.1706 3.54609 20.2501 3.6173ZM19.125 3C19.3019 3 19.4732 3.02451 19.6354 3.07032C19.3405 2.57887 18.8024 2.25 18.1875 2.25H16.125V2.95641C16.1565 2.97078 16.1878 2.98531 16.2191 3H19.125ZM18.1875 2.0625C18.9479 2.0625 19.6026 2.51515 19.8968 3.16571C20.0755 3.24653 20.2393 3.35457 20.3829 3.48453L23.4924 0.375H16.125V2.0625H18.1875ZM3 8.2434C2.52821 9.37239 2.26266 10.609 2.25044 11.9062H3V8.2434ZM3 12.0938H2.25044C2.26266 13.391 2.52821 14.6276 3 15.7566V12.0938ZM8.2434 21C9.37239 21.4718 10.609 21.7373 11.9062 21.7496V21H8.2434ZM12.0938 21V21.7496C13.391 21.7373 14.6276 21.4718 15.7566 21H12.0938ZM21 15.7566C21.4718 14.6276 21.7373 13.391 21.7496 12.0938H21V15.7566ZM21 11.9062H21.7496C21.7373 10.609 21.4718 9.37239 21 8.2434V11.9062ZM15.7566 3C14.6276 2.52821 13.391 2.26266 12.0938 2.25044V3H15.7566ZM11.9062 3V2.25044C10.609 2.26266 9.37239 2.52821 8.2434 3H11.9062ZM8.81775 15.9375H8.19508L8.48717 15.6454C8.59304 15.7474 8.70334 15.8449 8.81775 15.9375ZM11.9062 16.8741C10.9862 16.8568 10.1284 16.5845 9.40073 16.125H11.9062V16.8741ZM9.12511 15.9375H11.9062V12.2263L8.61978 15.5128C8.7783 15.6654 8.94713 15.8073 9.12511 15.9375ZM12.0938 16.8741V16.125H14.5993C13.8716 16.5845 13.0138 16.8568 12.0938 16.8741ZM12.0938 15.9375H14.8749C15.0529 15.8073 15.2217 15.6654 15.3802 15.5128L12.0938 12.2263V15.9375ZM15.8049 15.9375H15.1823C15.2967 15.8449 15.407 15.7474 15.5128 15.6454L15.8049 15.9375ZM15.8049 8.0625H15.1823C15.2967 8.15508 15.407 8.25255 15.5128 8.35459L15.8049 8.0625ZM15.3802 8.4872C15.2217 8.33462 15.0529 8.19267 14.8749 8.0625H12.0938V11.7737L15.3802 8.4872ZM12.2263 11.9062L15.5128 8.61978C15.6654 8.7783 15.8073 8.94713 15.9375 9.12511V11.9062H12.2263ZM11.7737 12.0938H8.0625V14.8749C8.19267 15.0529 8.33462 15.2217 8.4872 15.3802L11.7737 12.0938ZM8.35459 15.5128C8.25255 15.407 8.15508 15.2967 8.0625 15.1823V15.8049L8.35459 15.5128ZM15.6454 8.48717L15.9375 8.19508V8.81775C15.8449 8.70334 15.7474 8.59304 15.6454 8.48717ZM8.0625 8.81775V8.19508L8.35459 8.48717C8.25255 8.59304 8.15508 8.70334 8.0625 8.81775ZM8.19508 8.0625L8.48717 8.35459C8.59304 8.25255 8.70334 8.15508 8.81775 8.0625H8.19508ZM8.0625 9.12511C8.19267 8.94713 8.33462 8.7783 8.4872 8.61978L11.7737 11.9062H8.0625V9.12511ZM8.61978 8.4872L11.9062 11.7737V8.0625H9.12511C8.94713 8.19267 8.7783 8.33462 8.61978 8.4872ZM12.2263 12.0938L15.5128 15.3802C15.6654 15.2217 15.8073 15.0529 15.9375 14.8749V12.0938H12.2263ZM15.9375 15.8049L15.6454 15.5128C15.7474 15.407 15.8449 15.2967 15.9375 15.1823V15.8049ZM16.8741 11.9062C16.8568 10.9862 16.5845 10.1284 16.125 9.40074V11.9062H16.8741ZM7.875 11.9062V9.40073C7.4155 10.1284 7.14324 10.9862 7.12588 11.9062H7.875ZM7.12588 12.0938H7.875V14.5993C7.4155 13.8716 7.14324 13.0138 7.12588 12.0938ZM16.125 12.0938H16.8741C16.8568 13.0138 16.5845 13.8716 16.125 14.5993V12.0938ZM11.9062 7.12588C10.9862 7.14324 10.1284 7.4155 9.40074 7.875H11.9062V7.12588ZM14.5993 7.875H12.0938V7.12588C13.0138 7.14324 13.8716 7.4155 14.5993 7.875Z" fill="#FF0000"/>
<path fill-rule="evenodd" clip-rule="evenodd" d="M11.3861 1.21065C11.7472 0.929784 12.2528 0.929784 12.6139 1.21065L21.6139 8.21065C21.8575 8.4001 22 8.69141 22 9V20C22 20.7957 21.6839 21.5587 21.1213 22.1213C20.5587 22.6839 19.7957 23 19 23H5C4.20435 23 3.44129 22.6839 2.87868 22.1213C2.31607 21.5587 2 20.7957 2 20L2 9C2 8.69141 2.14247 8.4001 2.38606 8.21065L11.3861 1.21065ZM4 9.48908L4 20C4 20.2652 4.10536 20.5196 4.29289 20.7071C4.48043 20.8946 4.73478 21 5 21H19C19.2652 21 19.5196 20.8946 19.7071 20.7071C19.8946 20.5196 20 20.2652 20 20V9.48908L12 3.26686L4 9.48908Z" fill="#202327"/>
</svg>
