<svg width="24" height="24" viewBox="0 0 24 24" fill="none" xmlns="http://www.w3.org/2000/svg">
<g clip-path="url(#clip0_18_15053)">
<path d="M4.89941 3H20C21.6569 3 23 4.34315 23 6V18C23 19.6569 21.6569 21 20 21H4C2.34315 21 1 19.6569 1 18V10.5V6.30078V6C1 4.34315 2.34315 3 4 3H4.89941ZM9 9.79883V8.90039C9 8.40346 9.40254 8.00021 9.89941 8C10.3965 8 10.7998 8.40333 10.7998 8.90039V11.5986L13.2002 13.999V9.2002C13.2002 8.88194 13.3267 8.57661 13.5518 8.35156C13.7767 8.12673 14.0814 8.0001 14.3994 8H18C18.3182 8.00005 18.6236 8.12656 18.8486 8.35156C19.0736 8.57659 19.2002 8.88203 19.2002 9.2002V14C19.2002 14.3182 19.0736 14.6236 18.8486 14.8486C18.6236 15.0736 18.3182 15.2001 18 15.2002H17.0996V16.0996C17.0996 16.5965 16.6971 16.9998 16.2002 17L16.1992 16.999C15.7336 16.9987 15.3509 16.6458 15.3047 16.1924L15.2998 16.0996V15.2002H14.3994C14.0814 15.2001 13.7767 15.0734 13.5518 14.8486C13.3267 14.6236 13.2002 14.3183 13.2002 14V13.999L10.7998 11.5986V14.2998C10.7998 14.7969 10.3965 15.2002 9.89941 15.2002C9.4028 15.2 9.00042 14.7973 9 14.3008V12.5H6.59961V14.2998C6.59961 14.7967 6.19707 15.2 5.7002 15.2002C5.20314 15.2002 4.7998 14.7969 4.7998 14.2998V14.2988L3 12.5V18C3 18.5523 3.44772 19 4 19H20C20.5523 19 21 18.5523 21 18V6C21 5.44772 20.5523 5 20 5H4.2002L9 9.79883ZM4 5C3.44772 5 3 5.44772 3 6V12.5L4.7998 14.2988V8.90039C4.7998 8.40333 5.20314 8 5.7002 8C6.19707 8.00021 6.59961 8.40346 6.59961 8.90039V10.7002H9V9.79883L4.2002 5H4ZM15 13.4004H17.3994V9.7998H15V13.4004Z" fill="#202327"/>
</g>
<defs>
<clipPath id="clip0_18_15053">
<rect width="24" height="24" fill="white"/>
</clipPath>
</defs>
</svg>
