<svg width="24" height="24" viewBox="0 0 24 24" fill="none" xmlns="http://www.w3.org/2000/svg">
<g clip-path="url(#clip0_18_15059)">
<path d="M20 3C21.6569 3 23 4.34315 23 6V18C23 19.6569 21.6569 21 20 21H4C2.34315 21 1 19.6569 1 18V6C1 4.34315 2.34315 3 4 3H20ZM14.3994 8C14.0814 8.0001 13.7767 8.12673 13.5518 8.35156C13.3267 8.57661 13.2002 8.88194 13.2002 9.2002V14C13.2002 14.3183 13.3267 14.6236 13.5518 14.8486C13.7767 15.0734 14.0814 15.2001 14.3994 15.2002H15.2998V16.0996C15.2998 16.5967 15.7031 17 16.2002 17C16.6971 16.9998 17.0996 16.5965 17.0996 16.0996V15.2002H18C18.3182 15.2001 18.6236 15.0736 18.8486 14.8486C19.0736 14.6236 19.2002 14.3182 19.2002 14V9.2002C19.2002 8.88203 19.0736 8.57659 18.8486 8.35156C18.6236 8.12656 18.3182 8.00005 18 8H14.3994ZM9.89941 8C9.40254 8.00021 9 8.40346 9 8.90039V10.7002H6.59961V8.90039C6.59961 8.40346 6.19707 8.00021 5.7002 8C5.20314 8 4.7998 8.40333 4.7998 8.90039V14.2998C4.7998 14.7969 5.20314 15.2002 5.7002 15.2002C6.19707 15.2 6.59961 14.7967 6.59961 14.2998V12.5H9V14.2998C9 14.7967 9.40254 15.2 9.89941 15.2002C10.3965 15.2002 10.7998 14.7969 10.7998 14.2998V8.90039C10.7998 8.40333 10.3965 8 9.89941 8ZM17.3994 9.7998V13.4004H15V9.7998H17.3994Z" fill="#202327"/>
</g>
<defs>
<clipPath id="clip0_18_15059">
<rect width="24" height="24" fill="white"/>
</clipPath>
</defs>
</svg>
