<svg width="24" height="24" viewBox="0 0 24 24" fill="none" xmlns="http://www.w3.org/2000/svg">
<path d="M13.3271 16.3955L13.4062 16.46C13.8138 16.7615 14.3919 16.7113 14.7402 16.3281C15.0883 15.9451 15.0835 15.3653 14.7451 14.9883L14.6729 14.915L13.418 13.7744L15.0322 12.4297L22 17.9814V19C22 20.6569 20.6569 22 19 22H5C3.34315 22 2 20.6569 2 19V17.3643C2.04779 17.3366 2.09474 17.306 2.13867 17.2695L8.4668 12.0225C8.47549 12.0152 8.48374 12.0075 8.49219 12L13.3271 16.3955ZM19 2C20.6569 2 22 3.34315 22 5V15.4238L16.2559 10.8477L16.2324 10.8301L16.0908 10.7324C15.4128 10.3092 14.5452 10.3319 13.8896 10.7891L13.752 10.8936L11.9238 12.416L9.83789 10.5205C9.08949 9.84007 7.95355 9.82718 7.18945 10.4844V10.4824L2 14.7861V5C2 3.34315 3.34315 2 5 2H19Z" fill="#202327"/>
</svg>
