<svg width="24" height="24" viewBox="0 0 24 24" fill="none" xmlns="http://www.w3.org/2000/svg">
<path d="M20 16.0117L15.0479 12.4414L15.0322 12.4297L13.418 13.7744L14.6729 14.915L14.7451 14.9883C15.0835 15.3653 15.0883 15.9451 14.7402 16.3281C14.3919 16.7113 13.8138 16.7615 13.4062 16.46L13.3271 16.3955L8.49219 12L4.66406 15.4023C4.47346 15.5718 4.23642 15.6534 4 15.6533V19C4 19.5523 4.44771 20 5 20H19C19.5523 20 20 19.5523 20 19V16.0117ZM20 5C20 4.44771 19.5523 4 19 4H5C4.44772 4 4 4.44772 4 5V13.3174L7.16406 10.5049L7.31152 10.3857C8.07062 9.82945 9.12865 9.87567 9.83789 10.5205L11.9238 12.416L13.752 10.8936L13.8896 10.7891C14.5868 10.3029 15.523 10.3092 16.2168 10.8193L16.2178 10.8184L20 13.5449V5ZM22 19C22 20.6569 20.6569 22 19 22H5C3.34315 22 2 20.6569 2 19V5C2 3.34315 3.34315 2 5 2H19C20.6569 2 22 3.34315 22 5V19Z" fill="#202327"/>
</svg>
