<svg width="24" height="24" viewBox="0 0 24 24" fill="none" xmlns="http://www.w3.org/2000/svg">
<g clip-path="url(#clip0_2189_216)">
<path d="M11.3779 4H5C4.44772 4 4 4.44772 4 5V12.9404L6.62988 10.5693C7.42728 9.85031 8.65031 9.88903 9.40039 10.6572L9.55176 10.8125L6.55469 22H5C3.34315 22 2 20.6569 2 19V5C2 3.34315 3.34315 2 5 2H11.9141L11.3779 4ZM19 2C20.6569 2 22 3.34315 22 5V19C22 20.6569 20.6569 22 19 22H8.625L11.1768 12.4775L11.8887 13.207L14.7197 11.4492C15.4625 10.9882 16.419 11.0637 17.0811 11.6348L20 14.1514V5C20 4.44771 19.5523 4 19 4H13.4492L13.9844 2H19ZM16.6953 6.14355C17.5237 6.14355 18.1953 6.81513 18.1953 7.64355C18.195 8.47176 17.5236 9.14355 16.6953 9.14355C15.867 9.14355 15.1956 8.47176 15.1953 7.64355C15.1953 6.81513 15.8669 6.14355 16.6953 6.14355Z" fill="#202327"/>
</g>
<defs>
<clipPath id="clip0_2189_216">
<rect width="24" height="24" fill="white"/>
</clipPath>
</defs>
</svg>
