<svg width="24" height="24" viewBox="0 0 24 24" fill="none" xmlns="http://www.w3.org/2000/svg">
<g clip-path="url(#clip0_18_15823)">
<path d="M13 6C13 7.65685 14.3431 9 16 9H21V20C21 20.7957 20.6837 21.5585 20.1211 22.1211C19.5585 22.6837 18.7957 23 18 23H6C5.20435 23 4.44152 22.6837 3.87891 22.1211C3.3163 21.5585 3 20.7957 3 20V4C3 3.20435 3.3163 2.44152 3.87891 1.87891C4.44152 1.3163 5.20435 1 6 1H13V6ZM17 15.998C16.6728 15.998 16.3573 16.1119 16.1064 16.3174L16.0029 16.4111L11.4141 21H18C18.2652 21 18.5195 20.8946 18.707 20.707C18.8946 20.5195 19 20.2652 19 20V17.4141L17.9971 16.4111C17.7658 16.1799 17.4623 16.037 17.1396 16.0049L17 15.998ZM8 10C6.89543 10 6 10.8954 6 12C6 13.1046 6.89543 14 8 14C9.10457 14 10 13.1046 10 12C10 10.8954 9.10457 10 8 10ZM15 1C15.2652 1 15.5195 1.10543 15.707 1.29297L20.707 6.29297C20.8946 6.4805 21 6.73478 21 7H16C15.4477 7 15 6.55228 15 6V1Z" fill="#202327"/>
</g>
<defs>
<clipPath id="clip0_18_15823">
<rect width="24" height="24" fill="white"/>
</clipPath>
</defs>
</svg>
