<svg width="24" height="24" viewBox="0 0 24 24" fill="none" xmlns="http://www.w3.org/2000/svg">
<g clip-path="url(#clip0_18_15213)">
<path d="M12.5 2C13.0523 2 13.5 2.44772 13.5 3C13.5 3.55228 13.0523 4 12.5 4H5C4.73478 4 4.4805 4.10543 4.29297 4.29297C4.10543 4.4805 4 4.73478 4 5V13.3174L7.16406 10.5049L7.31152 10.3857C8.0706 9.82961 9.12872 9.87573 9.83789 10.5205L11.9238 12.416L13.752 10.8936L13.8896 10.7891C14.5869 10.303 15.5231 10.3098 16.2168 10.8203L16.2178 10.8184L20 13.5449V11.5C20 10.9477 20.4477 10.5 21 10.5C21.5523 10.5 22 10.9477 22 11.5V19C22 19.7957 21.6837 20.5585 21.1211 21.1211C20.5585 21.6837 19.7957 22 19 22H5C4.20435 22 3.44151 21.6837 2.87891 21.1211C2.3163 20.5585 2 19.7957 2 19V5C2 4.20435 2.3163 3.44152 2.87891 2.87891C3.44152 2.3163 4.20435 2 5 2H12.5ZM4.66406 15.4023C4.47356 15.5717 4.23615 15.6533 4 15.6533V19C4 19.2652 4.10543 19.5195 4.29297 19.707C4.48051 19.8946 4.73478 20 5 20H19C19.2652 20 19.5195 19.8946 19.707 19.707C19.8946 19.5195 20 19.2652 20 19V16.0117L15.0479 12.4414L15.0322 12.4297L13.418 13.7744L14.6729 14.915L14.7451 14.9883C15.0833 15.3653 15.0881 15.9452 14.7402 16.3281C14.3919 16.7113 13.8138 16.7613 13.4062 16.46L13.3271 16.3955L8.49219 12L4.66406 15.4023ZM19 1C19.5523 1 20 1.44772 20 2V4H22C22.5523 4 23 4.44772 23 5C23 5.55228 22.5523 6 22 6H20V8C20 8.55228 19.5523 9 19 9C18.4477 9 18 8.55228 18 8V6H16C15.4477 6 15 5.55228 15 5C15 4.44772 15.4477 4 16 4H18V2C18 1.44772 18.4477 1 19 1Z" fill="#202327"/>
</g>
<defs>
<clipPath id="clip0_18_15213">
<rect width="24" height="24" fill="white"/>
</clipPath>
</defs>
</svg>
