<svg width="24" height="24" viewBox="0 0 24 24" fill="none" xmlns="http://www.w3.org/2000/svg">
<g clip-path="url(#clip0_18_15231)">
<path d="M13.3271 16.3955L13.4062 16.46C13.8138 16.7613 14.3919 16.7113 14.7402 16.3281C15.0882 15.9452 15.0833 15.3653 14.7451 14.9883L14.6729 14.915L13.418 13.7744L15.0322 12.4297L22 17.9814V19C22 20.6569 20.6569 22 19 22H5C3.34315 22 2 20.6569 2 19V17.3643C2.04776 17.3366 2.09477 17.3059 2.13867 17.2695L8.4668 12.0225C8.47543 12.0153 8.48379 12.0075 8.49219 12L13.3271 16.3955ZM13.999 2C14.4111 2 14.6593 2.48232 14.4824 2.85449C14.1731 3.50452 14 4.23218 14 5C14 7.76142 16.2386 10 19 10C19.7679 9.99997 20.4955 9.8262 21.1455 9.5166C21.5176 9.33972 21.9999 9.588 22 10V15.4238L16.2559 10.8477L16.2324 10.8301L16.0908 10.7324C15.4128 10.3093 14.5452 10.3321 13.8896 10.7891L13.752 10.8936L11.9238 12.416L9.83789 10.5205C9.08954 9.84012 7.95355 9.82732 7.18945 10.4844V10.4824L2 14.7861V5C2 3.34315 3.34315 2 5 2H13.999ZM20.293 2.29297C20.6835 1.90251 21.3165 1.90246 21.707 2.29297C22.0975 2.68347 22.0975 3.31651 21.707 3.70703L17.707 7.70703C17.3165 8.09755 16.6835 8.09754 16.293 7.70703C15.9024 7.31651 15.9024 6.68349 16.293 6.29297L20.293 2.29297Z" fill="#202327"/>
</g>
<defs>
<clipPath id="clip0_18_15231">
<rect width="24" height="24" fill="white"/>
</clipPath>
</defs>
</svg>
