<svg width="24" height="24" viewBox="0 0 24 24" fill="none" xmlns="http://www.w3.org/2000/svg">
<g clip-path="url(#clip0_18_15219)">
<path d="M13.3271 16.3955L13.4062 16.46C13.8138 16.7613 14.3919 16.7113 14.7402 16.3281C15.0882 15.9452 15.0833 15.3653 14.7451 14.9883L14.6729 14.915L13.418 13.7744L15.0322 12.4297L22 17.9814V19C22 20.6569 20.6569 22 19 22H5C3.34315 22 2 20.6569 2 19V17.3643C2.04776 17.3366 2.09477 17.3059 2.13867 17.2695L8.4668 12.0225C8.47543 12.0153 8.48379 12.0075 8.49219 12L13.3271 16.3955ZM13.999 2C14.4112 2 14.6596 2.48266 14.4825 2.85486C14.1732 3.50489 14 4.23218 14 5C14 7.76142 16.2386 10 19 10C19.7679 9.99997 20.4952 9.82646 21.1451 9.51686C21.5173 9.33959 22 9.58792 22 10.0001V15.4238L16.2559 10.8477L16.2324 10.8301L16.0908 10.7324C15.4128 10.3093 14.5452 10.3321 13.8896 10.7891L13.752 10.8936L11.9238 12.416L9.83789 10.5205C9.08954 9.84012 7.95355 9.82732 7.18945 10.4844V10.4824L2 14.7861V5C2 3.34315 3.34315 2 5 2H13.999ZM19 1C19.5523 1 20 1.44772 20 2V4H22C22.5523 4 23 4.44772 23 5C23 5.55228 22.5523 6 22 6H20V8C20 8.55228 19.5523 9 19 9C18.4477 9 18 8.55228 18 8V6H16C15.4477 6 15 5.55228 15 5C15 4.44772 15.4477 4 16 4H18V2C18 1.44772 18.4477 1 19 1Z" fill="#202327"/>
</g>
<defs>
<clipPath id="clip0_18_15219">
<rect width="24" height="24" fill="white"/>
</clipPath>
</defs>
</svg>
