<svg width="24" height="24" viewBox="0 0 24 24" fill="none" xmlns="http://www.w3.org/2000/svg">
<g clip-path="url(#clip0_18_14109)">
<path fill-rule="evenodd" clip-rule="evenodd" d="M16.76 3H7.24C6.68187 3.0003 6.13437 3.15628 5.66004 3.45042C5.18617 3.74427 4.80358 4.16436 4.5552 4.66354L4.55447 4.665L1.10583 11.5523C1.03624 11.6913 1 11.8446 1 12V14V18C1 18.8235 1.33182 19.5695 1.86904 20.1116C1.87225 20.1149 1.87546 20.1181 1.87868 20.1213C1.8819 20.1245 1.88513 20.1278 1.88836 20.131C2.43047 20.6682 3.17649 21 4 21H20C20.8169 21 21.5576 20.6735 22.0986 20.1438C22.1062 20.1364 22.1138 20.1289 22.1213 20.1213C22.1289 20.1138 22.1364 20.1062 22.1438 20.0986C22.6735 19.5576 23 18.8169 23 18V14V12C23 11.8446 22.9638 11.6913 22.8942 11.5523L19.4455 4.665L19.4449 4.66368C19.1965 4.16444 18.8139 3.7443 18.34 3.45042C17.8656 3.15628 17.3181 3.0003 16.76 3ZM20 11H20.3809L17.6558 5.55773L17.6545 5.555C17.5717 5.38839 17.4441 5.24818 17.2859 5.15014C17.1279 5.05213 16.9456 5.00013 16.7597 5H7.24034C7.05436 5.00013 6.87211 5.05213 6.71405 5.15014C6.55594 5.24819 6.42832 5.38839 6.34553 5.555L6.34417 5.55773L3.61908 11H4H6.92963H8C8.33435 11 8.64658 11.1671 8.83205 11.4453L9.42488 12.3345C9.42518 12.335 9.42548 12.3354 9.42578 12.3359L10.2383 13.5547C10.4238 13.8329 10.736 14 11.0704 14H12.9296C13.2634 14 13.575 13.8335 13.7606 13.5563C13.761 13.5558 13.7613 13.5552 13.7617 13.5547L14.5742 12.3359L15.1679 11.4453C15.3534 11.1671 15.6656 11 16 11H17.0704H20Z" fill="#202327"/>
</g>
<defs>
<clipPath id="clip0_18_14109">
<rect width="24" height="24" fill="white"/>
</clipPath>
</defs>
</svg>
