<svg width="24" height="24" viewBox="0 0 24 24" fill="none" xmlns="http://www.w3.org/2000/svg">
<g clip-path="url(#clip0_18_14300)">
<path fill-rule="evenodd" clip-rule="evenodd" d="M10 6C10 5.44772 10.4477 5 11 5H21C21.5523 5 22 5.44772 22 6C22 6.55228 21.5523 7 21 7H11C10.4477 7 10 6.55228 10 6ZM2.29289 7.29289C2.68342 6.90237 3.31658 6.90237 3.70711 7.29289L7.70711 11.2929C8.09763 11.6834 8.09763 12.3166 7.70711 12.7071L3.70711 16.7071C3.31658 17.0976 2.68342 17.0976 2.29289 16.7071C1.90237 16.3166 1.90237 15.6834 2.29289 15.2929L5.58579 12L2.29289 8.70711C1.90237 8.31658 1.90237 7.68342 2.29289 7.29289ZM10 12C10 11.4477 10.4477 11 11 11H21C21.5523 11 22 11.4477 22 12C22 12.5523 21.5523 13 21 13H11C10.4477 13 10 12.5523 10 12ZM10 18C10 17.4477 10.4477 17 11 17H21C21.5523 17 22 17.4477 22 18C22 18.5523 21.5523 19 21 19H11C10.4477 19 10 18.5523 10 18Z" fill="#202327"/>
</g>
<defs>
<clipPath id="clip0_18_14300">
<rect width="24" height="24" fill="white"/>
</clipPath>
</defs>
</svg>
