<svg width="24" height="24" viewBox="0 0 24 24" fill="none" xmlns="http://www.w3.org/2000/svg">
<g clip-path="url(#clip0_18_14780)">
<path d="M12 1C18.0751 1 23 5.92487 23 12C23 18.0751 18.0751 23 12 23C5.92487 23 1 18.0751 1 12C1 5.92487 5.92487 1 12 1ZM12 11C11.4477 11 11 11.4477 11 12V16C11 16.5523 11.4477 17 12 17C12.5523 17 13 16.5523 13 16V12C13 11.4477 12.5523 11 12 11ZM12 7C11.4477 7 11 7.44772 11 8C11 8.55228 11.4477 9 12 9H12.0098L12.1123 8.99512C12.6165 8.94389 13.0098 8.51776 13.0098 8C13.0098 7.48224 12.6165 7.05611 12.1123 7.00488L12.0098 7H12Z" fill="#202327"/>
</g>
<defs>
<clipPath id="clip0_18_14780">
<rect width="24" height="24" fill="white"/>
</clipPath>
</defs>
</svg>
