<svg width="24" height="24" viewBox="0 0 24 24" fill="none" xmlns="http://www.w3.org/2000/svg">
<path d="M17.0018 14H12.6608C12.189 15.3344 11.2606 16.4591 10.0398 17.1753C8.81898 17.8914 7.38429 18.1529 5.98929 17.9136C4.5943 17.6743 3.32883 16.9495 2.41655 15.8673C1.50427 14.7852 1.00391 13.4154 1.00391 12C1.00391 10.5846 1.50427 9.21483 2.41655 8.13269C3.32883 7.05055 4.5943 6.32576 5.98929 6.08642C7.38429 5.84708 8.81898 6.1086 10.0398 6.82475C11.2606 7.5409 12.189 8.66558 12.6608 10H23.0018V14H21.0018V18H17.0018V14ZM7.00176 14C7.53219 14 8.0409 13.7893 8.41597 13.4142C8.79105 13.0392 9.00176 12.5304 9.00176 12C9.00176 11.4696 8.79105 10.9609 8.41597 10.5858C8.0409 10.2107 7.53219 10 7.00176 10C6.47133 10 5.96262 10.2107 5.58755 10.5858C5.21247 10.9609 5.00176 11.4696 5.00176 12C5.00176 12.5304 5.21247 13.0392 5.58755 13.4142C5.96262 13.7893 6.47133 14 7.00176 14Z" fill="#202327"/>
</svg>
