<svg width="24" height="24" viewBox="0 0 24 24" fill="none" xmlns="http://www.w3.org/2000/svg">
<g clip-path="url(#clip0_18_15811)">
<path d="M2.62665 15.9576C5.52354 14.2325 8.9824 14.7265 11.1979 16.1656L11.4216 16.3169C14.1546 18.2515 18.3679 19.0025 21.7008 16.9429L22.9479 20.6841C23.0492 20.9888 22.9989 21.325 22.8112 21.5855C22.6234 21.846 22.3208 22.0003 21.9997 22.0005H1.9997C1.67857 22.0005 1.37616 21.8458 1.18817 21.5855C1.00027 21.3248 0.949919 20.989 1.05145 20.6841L2.62665 15.9576ZM7.9284 2.00345C8.33155 1.97512 8.71346 2.19173 8.89422 2.55326L12.2731 9.31206L16.2926 5.2935L16.3893 5.20854C16.6259 5.02634 16.9342 4.95737 17.2292 5.02689C17.566 5.10673 17.8384 5.35577 17.9479 5.68412L21.0446 14.9742C18.5865 16.7638 15.1892 16.3993 12.8122 14.8453L12.5759 14.6841L12.5749 14.6832L12.2975 14.4947C10.0075 13.0052 6.65253 12.3096 3.48895 13.3707L7.05145 2.68412L7.10906 2.54642C7.26649 2.23755 7.5755 2.02868 7.9284 2.00345Z" fill="#202327"/>
</g>
<defs>
<clipPath id="clip0_18_15811">
<rect width="24" height="24" fill="white"/>
</clipPath>
</defs>
</svg>
