<svg width="24" height="24" viewBox="0 0 24 24" fill="none" xmlns="http://www.w3.org/2000/svg">
<g clip-path="url(#clip0_18_15815)">
<path d="M7.92847 2.00302C8.33191 1.97435 8.71341 2.19106 8.89429 2.55283L12.2732 9.31161L16.2927 5.29306L16.3894 5.2081C16.626 5.02575 16.9342 4.9569 17.2293 5.02646C17.5665 5.10606 17.8383 5.35504 17.948 5.68369L22.948 20.6837C23.0497 20.9886 22.9992 21.3243 22.8113 21.5851C22.6233 21.8458 22.3212 22.0001 21.9998 22.0001H1.99976C1.67833 22.0001 1.37619 21.8458 1.18824 21.5851C1.00028 21.3243 0.949868 20.9886 1.05152 20.6837L7.05152 2.68369L7.10913 2.54599C7.26655 2.23707 7.57554 2.02825 7.92847 2.00302ZM8.01636 15.006C6.96952 14.95 5.89032 15.2211 4.76148 15.8751L3.38648 20.0001H20.613L19.6677 17.1651C18.5065 17.7382 17.3116 18.0288 16.0916 18.0011C14.4803 17.9643 12.9186 17.3765 11.4226 16.3175L11.2 16.1642C10.0909 15.4262 9.03238 15.0602 8.01636 15.006ZM5.61109 13.3253C6.43572 13.0727 7.27401 12.9636 8.12281 13.0089C9.65889 13.091 11.1474 13.6743 12.5769 14.6837H12.5779L12.8103 14.8438C13.969 15.6145 15.0752 15.9778 16.1375 16.002C17.0684 16.0232 18.0285 15.7841 19.0271 15.2452L16.5623 7.85068L12.7068 11.7071C12.4795 11.9344 12.1569 12.0389 11.8396 11.9874C11.5223 11.9359 11.249 11.7349 11.1052 11.4474L8.18433 5.60556L5.61109 13.3253Z" fill="#202327"/>
</g>
<defs>
<clipPath id="clip0_18_15815">
<rect width="24" height="24" fill="white"/>
</clipPath>
</defs>
</svg>
