<svg width="24" height="24" viewBox="0 0 24 24" fill="none" xmlns="http://www.w3.org/2000/svg">
<path d="M19 22C18.4477 22 18 21.5523 18 21C18 20.4477 18.4477 20 19 20L22 20L22 14L19 14C18.4477 14 18 13.5523 18 13C18 12.4477 18.4477 12 19 12L23 12C23.5523 12 24 12.4477 24 13L24 21C24 21.5523 23.5523 22 23 22L19 22ZM18 18L8 18C7.44772 18 7 17.5523 7 17C7 16.4477 7.44772 16 8 16L18 16C18.5523 16 19 16.4477 19 17C19 17.5523 18.5523 18 18 18ZM8.29297 7.70703C7.92685 7.34092 7.90426 6.76191 8.22461 6.36914L8.29297 6.29297L12.293 2.29297C12.6835 1.90244 13.3165 1.90244 13.707 2.29297L17.707 6.29297C18.0976 6.68349 18.0976 7.31651 17.707 7.70703C17.3165 8.09755 16.6835 8.09755 16.293 7.70703L14 5.41406L14 13C14 13.5523 13.5523 14 13 14C12.4477 14 12 13.5523 12 13L12 5.41406L9.70703 7.70703L9.63086 7.77539C9.23809 8.09574 8.65908 8.07315 8.29297 7.70703ZM7 14L4 14L4 20L7 20C7.55228 20 8 20.4477 8 21C8 21.5523 7.55228 22 7 22L3 22L2.89746 21.9951C2.39333 21.9438 2 21.5177 2 21L2 13L2.00488 12.8975C2.05621 12.3933 2.48232 12 3 12L7 12C7.55228 12 8 12.4477 8 13C8 13.5523 7.55228 14 7 14Z" fill="#202327"/>
</svg>
