<svg width="24" height="24" viewBox="0 0 24 24" fill="none" xmlns="http://www.w3.org/2000/svg">
<path d="M19 2C18.4477 2 18 2.44772 18 3C18 3.55229 18.4477 4 19 4L22 4L22 10L19 10C18.4477 10 18 10.4477 18 11C18 11.5523 18.4477 12 19 12L23 12C23.5523 12 24 11.5523 24 11L24 3C24 2.44772 23.5523 2 23 2L19 2ZM18 6L8 6C7.44772 6 7 6.44772 7 7C7 7.55228 7.44772 8 8 8L18 8C18.5523 8 19 7.55229 19 7C19 6.44772 18.5523 6 18 6ZM8.29297 16.293C7.92685 16.6591 7.90426 17.2381 8.22461 17.6309L8.29297 17.707L12.293 21.707C12.6835 22.0976 13.3165 22.0976 13.707 21.707L17.707 17.707C18.0976 17.3165 18.0976 16.6835 17.707 16.293C17.3165 15.9024 16.6835 15.9024 16.293 16.293L14 18.5859L14 11C14 10.4477 13.5523 10 13 10C12.4477 10 12 10.4477 12 11L12 18.5859L9.70703 16.293L9.63086 16.2246C9.23809 15.9043 8.65908 15.9269 8.29297 16.293ZM7 10L4 10L4 4L7 4C7.55228 4 8 3.55228 8 3C8 2.44772 7.55228 2 7 2L3 2L2.89746 2.00488C2.39333 2.05621 2 2.48232 2 3L2 11L2.00488 11.1025C2.05621 11.6067 2.48232 12 3 12L7 12C7.55228 12 8 11.5523 8 11C8 10.4477 7.55228 10 7 10Z" fill="#202327"/>
</svg>
