<svg width="24" height="24" viewBox="0 0 24 24" fill="none" xmlns="http://www.w3.org/2000/svg">
<g clip-path="url(#clip0_18_14133)">
<path fill-rule="evenodd" clip-rule="evenodd" d="M3 2C3.55228 2 4 2.44772 4 3V19C4 19.2652 4.10536 19.5196 4.29289 19.7071C4.48043 19.8946 4.73478 20 5 20H21C21.5523 20 22 20.4477 22 21C22 21.5523 21.5523 22 21 22H5C4.20435 22 3.44129 21.6839 2.87868 21.1213C2.31607 20.5587 2 19.7957 2 19V3C2 2.44772 2.44772 2 3 2ZM20.2425 4.02986C20.7783 4.16381 21.1041 4.70674 20.9701 5.24254C20.7005 6.32125 20.0427 8.16141 19.1138 9.75387C18.6493 10.5501 18.0901 11.3315 17.4404 11.9255C16.7954 12.5152 15.9711 13 15 13C13.4554 13 12.6758 11.822 12.2265 11.143C12.2063 11.1125 12.1868 11.083 12.1679 11.0547C11.6074 10.2139 11.386 10 11 10C10.7471 10 10.4653 10.1159 10.1316 10.484C9.78854 10.8626 9.46614 11.4313 9.17308 12.1346C8.67737 13.3243 8.3489 14.6822 8.10073 15.7082C8.05461 15.8988 8.01127 16.078 7.97014 16.2425C7.83619 16.7783 7.29326 17.1041 6.75746 16.9701C6.22167 16.8362 5.89591 16.2933 6.02986 15.7575C6.06534 15.6156 6.10438 15.4535 6.14734 15.2752C6.392 14.2598 6.76365 12.7172 7.32692 11.3654C7.65886 10.5687 8.08646 9.76242 8.64964 9.14098C9.22224 8.50914 10.0029 8 11 8C12.5446 8 13.3242 9.17801 13.7735 9.85704C13.7937 9.88752 13.8132 9.91699 13.8321 9.9453C14.3926 10.7861 14.614 11 15 11C15.2789 11 15.6421 10.8598 16.0909 10.4495C16.5349 10.0435 16.9757 9.44991 17.3862 8.74613C18.2073 7.33859 18.7995 5.67875 19.0299 4.75746C19.1638 4.22167 19.7067 3.89591 20.2425 4.02986Z" fill="#202327"/>
</g>
<defs>
<clipPath id="clip0_18_14133">
<rect width="24" height="24" fill="white"/>
</clipPath>
</defs>
</svg>
