<svg width="24" height="24" viewBox="0 0 24 24" fill="none" xmlns="http://www.w3.org/2000/svg">
<g clip-path="url(#clip0_18_14335)">
<path d="M3 12C3 10.6739 3.52716 9.40253 4.46484 8.46484C5.40253 7.52716 6.67392 7 8 7H9.59961L9.70215 7.00488C10.2065 7.05604 10.5996 7.48219 10.5996 8C10.5996 8.51781 10.2065 8.94396 9.70215 8.99512L9.59961 9H8C7.20435 9 6.44152 9.3163 5.87891 9.87891C5.3163 10.4415 5 11.2044 5 12C5 12.7956 5.3163 13.5585 5.87891 14.1211C6.44152 14.6837 7.20435 15 8 15H9.59961L9.70215 15.0049C10.2065 15.056 10.5996 15.4822 10.5996 16C10.5996 16.5178 10.2065 16.944 9.70215 16.9951L9.59961 17H8C6.67392 17 5.40253 16.4728 4.46484 15.5352C3.52716 14.5975 3 13.3261 3 12ZM19 12C19 11.2044 18.6837 10.4415 18.1211 9.87891C17.6289 9.38671 16.9835 9.08291 16.2969 9.01465L16 9H14.4004C13.8481 9 13.4004 8.55228 13.4004 8C13.4004 7.44772 13.8481 7 14.4004 7H16L16.248 7.00586C17.4838 7.06719 18.6561 7.58579 19.5352 8.46484C20.4728 9.40253 21 10.6739 21 12C21 13.3261 20.4728 14.5975 19.5352 15.5352C18.6561 16.4142 17.4838 16.9328 16.248 16.9941L16 17H14.4004C13.8481 17 13.4004 16.5523 13.4004 16C13.4004 15.4477 13.8481 15 14.4004 15H16L16.2969 14.9854C16.9835 14.9171 17.6289 14.6133 18.1211 14.1211C18.6837 13.5585 19 12.7956 19 12ZM15.2002 11L15.3018 11.0049C15.8063 11.0559 16.2002 11.4821 16.2002 12C16.2002 12.5179 15.8063 12.9441 15.3018 12.9951L15.2002 13H8.7998C8.24761 12.9999 7.7998 12.5522 7.7998 12C7.7998 11.4478 8.24761 11.0001 8.7998 11H15.2002Z" fill="#202327"/>
</g>
<defs>
<clipPath id="clip0_18_14335">
<rect width="24" height="24" fill="white"/>
</clipPath>
</defs>
</svg>
