<svg width="24" height="24" viewBox="0 0 24 24" fill="none" xmlns="http://www.w3.org/2000/svg">
<g clip-path="url(#clip0_18_15772)">
<path fill-rule="evenodd" clip-rule="evenodd" d="M12.7736 2.75068C13.9052 1.65773 15.4208 1.05296 16.994 1.06663C18.5672 1.0803 20.072 1.71132 21.1845 2.82377C22.2969 3.93621 22.928 5.44109 22.9416 7.01427C22.9553 8.58745 22.3505 10.1031 21.2576 11.2347L21.2454 11.2471L18.2455 14.2469C18.2455 14.247 18.2454 14.247 18.2454 14.2471C17.6372 14.8555 16.9052 15.326 16.0991 15.6267C15.293 15.9274 14.4317 16.0512 13.5735 15.9897C12.7153 15.9283 11.8804 15.683 11.1254 15.2705C10.3704 14.858 9.71287 14.2879 9.19753 13.5989C8.86672 13.1567 8.95706 12.53 9.39931 12.1992C9.84156 11.8684 10.4682 11.9587 10.7991 12.401C11.1426 12.8603 11.5809 13.2403 12.0843 13.5153C12.5877 13.7903 13.1443 13.9539 13.7164 13.9949C14.2885 14.0358 14.8627 13.9533 15.4001 13.7528C15.9375 13.5523 16.4255 13.2386 16.8311 12.833L16.8312 12.8329L19.8247 9.83932C20.5497 9.08555 20.9508 8.07769 20.9417 7.03165C20.9326 5.98286 20.5119 4.97961 19.7703 4.23798C19.0286 3.49635 18.0254 3.07567 16.9766 3.06656C15.9301 3.05746 14.9218 3.45887 14.1679 4.18452L12.4533 5.88913C12.0617 6.27851 11.4285 6.27667 11.0391 5.88501C10.6497 5.49335 10.6516 4.86018 11.0432 4.4708L12.7632 2.7608L12.7736 2.75068ZM7.8974 8.37326C8.70351 8.07256 9.56486 7.94874 10.423 8.0102C11.2812 8.07166 12.1161 8.31697 12.8712 8.72947C13.6262 9.14198 14.2837 9.71205 14.799 10.401C15.1298 10.8433 15.0395 11.4699 14.5972 11.8007C14.155 12.1316 13.5283 12.0412 13.1975 11.599C12.8539 11.1397 12.4156 10.7596 11.9122 10.4846C11.4089 10.2096 10.8523 10.0461 10.2802 10.0051C9.70805 9.96412 9.13381 10.0467 8.59641 10.2471C8.059 10.4476 7.57099 10.7613 7.16548 11.167L7.16535 11.1671L4.17184 14.1606C3.4468 14.9144 3.04575 15.9222 3.05484 16.9683C3.06395 18.0171 3.48463 19.0203 4.22626 19.762C4.96789 20.5036 5.97114 20.9243 7.01993 20.9334C8.06599 20.9425 9.07386 20.5414 9.82764 19.8164L11.5311 18.1129C11.9217 17.7223 12.5548 17.7223 12.9454 18.1129C13.3359 18.5034 13.3359 19.1366 12.9454 19.5271L11.2354 21.2371L11.223 21.2493C10.0913 22.3422 8.57573 22.947 7.00255 22.9333C5.42937 22.9196 3.9245 22.2886 2.81205 21.1762C1.6996 20.0637 1.06858 18.5589 1.05491 16.9857C1.04124 15.4125 1.64601 13.8969 2.73896 12.7653L2.75114 12.7529L5.75101 9.753C5.75105 9.75296 5.7511 9.75292 5.75114 9.75287C6.35938 9.14445 7.09134 8.67395 7.8974 8.37326Z" fill="#202327"/>
</g>
<defs>
<clipPath id="clip0_18_15772">
<rect width="24" height="24" fill="white"/>
</clipPath>
</defs>
</svg>
