<svg width="24" height="24" viewBox="0 0 24 24" fill="none" xmlns="http://www.w3.org/2000/svg">
<g clip-path="url(#clip0_18_14345)">
<path d="M3 11.9998C3 10.6737 3.52716 9.40229 4.46484 8.46461C4.91176 8.01769 5.43451 7.66444 6.00293 7.41676L3.29297 4.7068L3.22461 4.63063C2.90426 4.23785 2.92685 3.65885 3.29297 3.29273C3.65908 2.92662 4.23809 2.90402 4.63086 3.22437L4.70703 3.29273L20.707 19.2927L20.7754 19.3689C21.0957 19.7617 21.0731 20.3407 20.707 20.7068C20.3409 21.0729 19.7619 21.0955 19.3691 20.7752L19.293 20.7068L11.5859 12.9998H8.7998C8.24761 12.9997 7.79981 12.552 7.7998 11.9998C7.7998 11.4475 8.24761 10.9999 8.7998 10.9998H9.58594L7.61328 9.02711C6.96042 9.11203 6.34951 9.40807 5.87891 9.87867C5.3163 10.4413 5 11.2041 5 11.9998C5 12.7954 5.3163 13.5583 5.87891 14.1209C6.44152 14.6835 7.20435 14.9998 8 14.9998H9.59961L9.70215 15.0046C10.2065 15.0558 10.5996 15.482 10.5996 15.9998C10.5996 16.5176 10.2065 16.9437 9.70215 16.9949L9.59961 16.9998H8C6.67392 16.9998 5.40253 16.4726 4.46484 15.5349C3.52716 14.5972 3 13.3258 3 11.9998ZM16 6.99977L16.3467 7.01148C17.1539 7.06758 17.9376 7.3196 18.6289 7.74684C19.4185 8.23492 20.0565 8.93319 20.4717 9.76344C20.8869 10.594 21.0629 11.5242 20.9795 12.449C20.8961 13.3737 20.5571 14.257 20 14.9998L19.9346 15.0789C19.591 15.4514 19.0138 15.5106 18.5996 15.2C18.1579 14.8686 18.0691 14.2413 18.4004 13.7996L18.5195 13.6287C18.783 13.2211 18.9445 12.7547 18.9883 12.2693C19.0383 11.7144 18.9328 11.1563 18.6836 10.658C18.4344 10.1597 18.051 9.74091 17.5771 9.44801C17.1624 9.19166 16.6924 9.04026 16.208 9.0066L16 8.99977H14.4004C13.8481 8.99977 13.4004 8.55205 13.4004 7.99977C13.4004 7.44748 13.8481 6.99977 14.4004 6.99977H16Z" fill="#202327"/>
</g>
<defs>
<clipPath id="clip0_18_14345">
<rect width="24" height="24" fill="white"/>
</clipPath>
</defs>
</svg>
