<svg width="24" height="24" viewBox="0 0 24 24" fill="none" xmlns="http://www.w3.org/2000/svg">
<g clip-path="url(#clip0_18_14340)">
<path d="M1 11.9998C1 10.4085 1.63259 8.8828 2.75781 7.75758C3.38336 7.13203 4.13256 6.65894 4.94824 6.36207L1.29297 2.7068L1.22461 2.63063C0.904259 2.23785 0.926853 1.65885 1.29297 1.29273C1.65908 0.926618 2.23809 0.904025 2.63086 1.22437L2.70703 1.29273L22.707 21.2927L22.7754 21.3689C23.0957 21.7617 23.0731 22.3407 22.707 22.7068C22.3409 23.0729 21.7619 23.0955 21.3691 22.7752L21.293 22.7068L11.5859 12.9998H8C7.44772 12.9998 7 12.5521 7 11.9998C7 11.4475 7.44772 10.9998 8 10.9998H9.58594L6.60449 8.01832C5.68882 8.10925 4.82824 8.51528 4.17188 9.17164C3.42173 9.92179 3 10.9389 3 11.9998C3 13.0606 3.42173 14.0777 4.17188 14.8279C4.92202 15.578 5.93913 15.9998 7 15.9998H9C9.55229 15.9998 10 16.4475 10 16.9998C10 17.552 9.55229 17.9998 9 17.9998H7C5.4087 17.9998 3.88303 17.3672 2.75781 16.242C1.63259 15.1167 1 13.5911 1 11.9998ZM17 5.99977L17.417 6.01441C18.3853 6.08187 19.325 6.38374 20.1543 6.89625C21.102 7.48198 21.8679 8.31975 22.3662 9.31617C22.8645 10.3128 23.0757 11.4291 22.9756 12.5388C22.8755 13.6484 22.4682 14.7081 21.7998 15.5994C21.4685 16.0412 20.8422 16.1308 20.4004 15.7996C19.9586 15.4682 19.869 14.842 20.2002 14.4002C20.6459 13.8059 20.9167 13.0989 20.9834 12.3591C21.0501 11.6193 20.9103 10.8751 20.5781 10.2107C20.2459 9.54628 19.7344 8.98796 19.1025 8.59742C18.5496 8.2557 17.9231 8.05441 17.2773 8.00953L17 7.99977H15C14.4477 7.99977 14 7.55205 14 6.99977C14 6.44748 14.4477 5.99977 15 5.99977H17Z" fill="#202327"/>
</g>
<defs>
<clipPath id="clip0_18_14340">
<rect width="24" height="24" fill="white"/>
</clipPath>
</defs>
</svg>
