<svg width="24" height="24" viewBox="0 0 24 24" fill="none" xmlns="http://www.w3.org/2000/svg">
<g clip-path="url(#clip0_18_14360)">
<path d="M2.00977 19L2.1123 19.0049C2.61655 19.0561 3.00977 19.4822 3.00977 20C3.00977 20.5178 2.61655 20.9439 2.1123 20.9951L2.00977 21H2C1.44772 21 1 20.5523 1 20C1 19.4477 1.44772 19 2 19H2.00977ZM22 19C22.5523 19 23 19.4477 23 20C23 20.5523 22.5523 21 22 21H7C6.44772 21 6 20.5523 6 20C6 19.4477 6.44772 19 7 19H22ZM2.00977 11L2.1123 11.0049C2.61655 11.0561 3.00977 11.4822 3.00977 12C3.00977 12.5178 2.61655 12.9439 2.1123 12.9951L2.00977 13H2C1.44772 13 1 12.5523 1 12C1 11.4477 1.44772 11 2 11H2.00977ZM22 11C22.5523 11 23 11.4477 23 12C23 12.5523 22.5523 13 22 13H7C6.44772 13 6 12.5523 6 12C6 11.4477 6.44772 11 7 11H22ZM2.00977 3L2.1123 3.00488C2.61655 3.05611 3.00977 3.48224 3.00977 4C3.00977 4.51776 2.61655 4.94389 2.1123 4.99512L2.00977 5H2C1.44772 5 1 4.55228 1 4C1 3.44772 1.44772 3 2 3H2.00977ZM22 3C22.5523 3 23 3.44772 23 4C23 4.55228 22.5523 5 22 5H7C6.44772 5 6 4.55228 6 4C6 3.44772 6.44772 3 7 3H22Z" fill="#202327"/>
</g>
<defs>
<clipPath id="clip0_18_14360">
<rect width="24" height="24" fill="white"/>
</clipPath>
</defs>
</svg>
