<svg width="24" height="24" viewBox="0 0 24 24" fill="none" xmlns="http://www.w3.org/2000/svg">
<g clip-path="url(#clip0_18_11618)">
<path fill-rule="evenodd" clip-rule="evenodd" d="M17.3838 14.582C17.5324 14.1361 18.0151 13.8953 18.4609 14.0439C18.9065 14.1927 19.1474 14.6744 18.999 15.1201L18.9658 15.2207C19.2377 15.4133 19.4798 15.6449 19.6846 15.9072L19.833 15.8477C20.2693 15.6735 20.764 15.8861 20.9385 16.3223C21.113 16.7587 20.9012 17.2542 20.4648 17.4287L20.3633 17.4688C20.3904 17.6417 20.4043 17.8194 20.4043 18C20.4043 18.126 20.3971 18.2506 20.3838 18.373L20.418 18.3838C20.8639 18.5324 21.1047 19.0151 20.9561 19.4609C20.8073 19.9065 20.3256 20.1474 19.8799 19.999L19.7793 19.9658C19.5867 20.2377 19.355 20.4798 19.0928 20.6846L19.1514 20.833C19.3257 21.2693 19.1139 21.7639 18.6777 21.9385C18.2414 22.113 17.7459 21.9012 17.5713 21.4648L17.5303 21.3633C17.3575 21.3903 17.1804 21.4043 17 21.4043C16.8741 21.4043 16.7493 21.3971 16.627 21.3838L16.6162 21.418C16.4676 21.8638 15.9849 22.1047 15.5391 21.9561C15.0935 21.8073 14.8526 21.3255 15.001 20.8799L15.0342 20.7793C14.7622 20.5866 14.5193 20.3552 14.3145 20.0928L14.167 20.1514C13.7307 20.3258 13.2362 20.1139 13.0615 19.6777C12.887 19.2413 13.0988 18.7458 13.5352 18.5713L13.6367 18.5303C13.6097 18.3575 13.5957 18.1804 13.5957 18C13.5957 17.8741 13.6029 17.7493 13.6162 17.627L13.582 17.6162C13.1362 17.4676 12.8953 16.9849 13.0439 16.5391C13.1927 16.0935 13.6745 15.8526 14.1201 16.001L14.2207 16.0342C14.4133 15.7623 14.6449 15.5202 14.9072 15.3154L14.8477 15.167C14.6734 14.7307 14.8861 14.2361 15.3223 14.0615C15.7587 13.887 16.2542 14.0988 16.4287 14.5352L16.4688 14.6367C16.6417 14.6096 16.8194 14.5957 17 14.5957C17.126 14.5957 17.2506 14.6029 17.373 14.6162L17.3838 14.582ZM17 16.2979C16.8281 16.2979 16.6623 16.3237 16.5059 16.3711C16.4434 16.4203 16.3725 16.4611 16.2949 16.4922C16.2384 16.5148 16.1807 16.531 16.123 16.541C15.6289 16.8389 15.2979 17.3809 15.2979 18C15.2979 18.1719 15.3237 18.3377 15.3711 18.4941C15.4203 18.5567 15.4611 18.6274 15.4922 18.7051C15.5148 18.7617 15.531 18.8192 15.541 18.877C15.8389 19.3711 16.381 19.7021 17 19.7021C17.1719 19.7021 17.3377 19.6763 17.4941 19.6289C17.5567 19.5797 17.6274 19.5389 17.7051 19.5078C17.7616 19.4852 17.8192 19.469 17.877 19.459C18.3711 19.1611 18.7021 18.619 18.7021 18C18.7021 17.8281 18.6763 17.6623 18.6289 17.5059C18.5797 17.4434 18.5389 17.3725 18.5078 17.2949C18.4852 17.2384 18.469 17.1807 18.459 17.123C18.1611 16.6289 17.619 16.2979 17 16.2979Z" fill="#202327"/>
<path d="M11 17C11.5523 17 12 17.4477 12 18C12 18.5523 11.5523 19 11 19H4C3.44772 19 3 18.5523 3 18C3 17.4477 3.44772 17 4 17H11Z" fill="#202327"/>
<path d="M20 11C20.5523 11 21 11.4477 21 12C21 12.5523 20.5523 13 20 13H4C3.44772 13 3 12.5523 3 12C3 11.4477 3.44772 11 4 11H20Z" fill="#202327"/>
<path d="M20 5C20.5523 5 21 5.44772 21 6C21 6.55228 20.5523 7 20 7H4C3.44772 7 3 6.55228 3 6C3 5.44772 3.44772 5 4 5H20Z" fill="#202327"/>
</g>
<defs>
<clipPath id="clip0_18_11618">
<rect width="24" height="24" fill="white"/>
</clipPath>
</defs>
</svg>
