<svg width="24" height="24" viewBox="0 0 24 24" fill="none" xmlns="http://www.w3.org/2000/svg">
<path d="M3.5 20L3.5 4L5.5 4L5.5 20L3.5 20Z" fill="#151826"/>
<path d="M18.5 20L18.5 4L20.5 4L20.5 20L18.5 20Z" fill="#151826"/>
<path fill-rule="evenodd" clip-rule="evenodd" d="M7.69922 12.0001C7.69922 9.84619 9.44531 8.1001 11.5992 8.1001H15.5992V9.9001H11.5992C10.4394 9.9001 9.49922 10.8403 9.49922 12.0001C9.49922 13.1599 10.4394 14.1001 11.5992 14.1001H15.5992V15.9001H11.5992C9.44531 15.9001 7.69922 14.154 7.69922 12.0001Z" fill="#202327"/>
<path d="M14.7744 13.7344L16.0898 15.0908L14.7744 16.3379L14.7744 13.7344Z" stroke="#151826"/>
</svg>
