<svg width="24" height="24" viewBox="0 0 24 24" fill="none" xmlns="http://www.w3.org/2000/svg">
<g clip-path="url(#clip0_18_15636)">
<path d="M12 21C12.1484 21 12.2959 20.9963 12.4424 20.9893H12.5449C13.0509 21.016 13.464 21.4225 13.4893 21.9395C13.5159 22.4911 13.0907 22.9606 12.5391 22.9873L12 23L11.4609 22.9873L11.3594 22.9766C10.858 22.9012 10.4857 22.4567 10.5107 21.9395C10.536 21.4225 10.9491 21.016 11.4551 20.9893H11.5576L12 21ZM8.55469 20.3174L8.9668 20.4766L9.06152 20.5156C9.51907 20.7337 9.74575 21.2674 9.57129 21.7549C9.39685 22.2422 8.88349 22.5101 8.3916 22.3887L8.29297 22.3594L7.78809 22.1641C7.62177 22.0951 7.45698 22.0221 7.29492 21.9453L7.72363 21.042L8.15137 20.1387C8.28399 20.2015 8.41862 20.261 8.55469 20.3174ZM15.8486 20.1387C16.3477 19.9023 16.9442 20.1152 17.1807 20.6143C17.4167 21.1131 17.2037 21.7088 16.7051 21.9453C16.381 22.0989 16.0477 22.2375 15.707 22.3594C15.1871 22.5455 14.6148 22.2748 14.4287 21.7549C14.2426 21.2349 14.5132 20.6626 15.0332 20.4766C15.3115 20.377 15.5837 20.2642 15.8486 20.1387ZM6.81934 20.6143C7.05579 20.1152 7.65229 19.9023 8.15137 20.1387L7.29492 21.9453C6.79633 21.7088 6.58331 21.1131 6.81934 20.6143ZM5.33105 18.0439C5.52908 18.2623 5.7377 18.4709 5.95605 18.6689C6.36506 19.0399 6.39612 19.6719 6.02539 20.0811C5.65438 20.4902 5.02141 20.5214 4.6123 20.1504C4.34584 19.9087 4.09127 19.6542 3.84961 19.3877L4.59082 18.7158L5.33105 18.0439ZM18.6689 18.0439C19.0399 17.6349 19.6719 17.6039 20.0811 17.9746C20.4902 18.3456 20.5214 18.9786 20.1504 19.3877C19.9087 19.6542 19.6542 19.9087 19.3877 20.1504C18.9786 20.5214 18.3456 20.4902 17.9746 20.0811C17.6039 19.6719 17.6349 19.0399 18.0439 18.6689C18.2623 18.4709 18.4709 18.2623 18.6689 18.0439ZM3.91895 17.9746C4.32806 17.6039 4.96013 17.6349 5.33105 18.0439L3.84961 19.3877C3.4786 18.9786 3.50984 18.3456 3.91895 17.9746ZM12 5C15.866 5 19 8.13401 19 12C19 15.866 15.866 19 12 19C8.13401 19 5 15.866 5 12C5 8.13401 8.13401 5 12 5ZM2.24512 14.4287C2.73262 14.2543 3.26627 14.4809 3.48438 14.9385L3.52344 15.0332L3.68262 15.4453C3.73905 15.5814 3.79849 15.716 3.86133 15.8486C4.09773 16.3477 3.88481 16.9442 3.38574 17.1807C2.8869 17.4167 2.29123 17.2037 2.05469 16.7051C1.9779 16.543 1.90493 16.3782 1.83594 16.2119L1.64062 15.707L1.61133 15.6084C1.48987 15.1165 1.75779 14.6032 2.24512 14.4287ZM21.9453 16.7051C21.7088 17.2037 21.1131 17.4167 20.6143 17.1807C20.1152 16.9442 19.9023 16.3477 20.1387 15.8486L21.9453 16.7051ZM12 7C9.23858 7 7 9.23858 7 12C7 14.7614 9.23858 17 12 17C14.7614 17 17 14.7614 17 12C17 9.23858 14.7614 7 12 7ZM20.4766 15.0332C20.6626 14.5132 21.2349 14.2426 21.7549 14.4287C22.2748 14.6148 22.5455 15.1871 22.3594 15.707C22.2375 16.0477 22.0989 16.381 21.9453 16.7051L21.042 16.2764L20.1387 15.8486C20.2642 15.5837 20.377 15.3115 20.4766 15.0332ZM12 9C13.6569 9 15 10.3431 15 12C15 13.6569 13.6569 15 12 15C10.3431 15 9 13.6569 9 12C9 10.3431 10.3431 9 12 9ZM2.06055 10.5107C2.61197 10.5376 3.0374 11.0061 3.01074 11.5576L3 12L3.01074 12.4424V12.5449C2.98398 13.0509 2.57752 13.464 2.06055 13.4893C1.54326 13.5143 1.09878 13.142 1.02344 12.6406L1.0127 12.5391L1 12C1 11.8193 1.00406 11.6396 1.0127 11.4609L1.02344 11.3594C1.09878 10.858 1.54326 10.4857 2.06055 10.5107ZM21.9395 10.5107C22.4567 10.4857 22.9012 10.858 22.9766 11.3594L22.9873 11.4609L23 12C23 12.1807 22.9959 12.3604 22.9873 12.5391L22.9766 12.6406C22.9012 13.142 22.4567 13.5143 21.9395 13.4893C21.388 13.4624 20.9626 12.9939 20.9893 12.4424L21 12L20.9893 11.5576V11.4551C21.016 10.9491 21.4225 10.536 21.9395 10.5107ZM12 11C11.4477 11 11 11.4477 11 12C11 12.5523 11.4477 13 12 13C12.5523 13 13 12.5523 13 12C13 11.4477 12.5523 11 12 11ZM22.1641 7.78809L22.3594 8.29297L22.3887 8.3916C22.5101 8.88349 22.2422 9.39685 21.7549 9.57129C21.2674 9.74575 20.7337 9.51907 20.5156 9.06152L20.4766 8.9668L20.3174 8.55469C20.261 8.41862 20.2015 8.28399 20.1387 8.15137L21.042 7.72363L21.9453 7.29492C22.0221 7.45698 22.0951 7.62177 22.1641 7.78809ZM2.10254 7.20508C2.36462 6.77143 2.91793 6.59799 3.38574 6.81934C3.88481 7.05579 4.09773 7.65229 3.86133 8.15137L3.68262 8.55469L3.52344 8.9668C3.33735 9.48679 2.76511 9.75737 2.24512 9.57129C1.72518 9.38517 1.45455 8.81293 1.64062 8.29297L1.83594 7.78809C1.90493 7.62177 1.97791 7.45698 2.05469 7.29492L2.10254 7.20508ZM20.6143 6.81934C21.1131 6.58331 21.7088 6.79633 21.9453 7.29492L20.1387 8.15137C19.9023 7.65229 20.1152 7.05579 20.6143 6.81934ZM4.69141 3.78516C5.09936 3.48397 5.67744 3.53526 6.02539 3.91895C6.39612 4.32806 6.36506 4.96013 5.95605 5.33105L5.63574 5.63574C5.53154 5.73994 5.43007 5.84687 5.33105 5.95605C4.96013 6.36506 4.32806 6.39612 3.91895 6.02539C3.50984 5.65438 3.4786 5.02141 3.84961 4.6123C4.09127 4.34584 4.34584 4.09127 4.6123 3.84961L4.69141 3.78516ZM17.9746 3.91895C18.3456 3.50984 18.9786 3.4786 19.3877 3.84961C19.6542 4.09127 19.9087 4.34584 20.1504 4.6123C20.5214 5.02141 20.4902 5.65438 20.0811 6.02539C19.6719 6.39612 19.0399 6.36506 18.6689 5.95605C18.4709 5.7377 18.2623 5.52908 18.0439 5.33105C17.6349 4.96013 17.6039 4.32806 17.9746 3.91895ZM8.29297 1.64062C8.81293 1.45455 9.38517 1.72518 9.57129 2.24512C9.75737 2.76511 9.48679 3.33735 8.9668 3.52344C8.68851 3.62303 8.4163 3.73581 8.15137 3.86133C7.65229 4.09773 7.05579 3.88481 6.81934 3.38574C6.58331 2.8869 6.79633 2.29123 7.29492 2.05469C7.61903 1.90112 7.9523 1.76254 8.29297 1.64062ZM14.4287 2.24512C14.6032 1.75779 15.1165 1.48987 15.6084 1.61133L15.707 1.64062L16.2119 1.83594C16.3782 1.90493 16.543 1.97791 16.7051 2.05469L16.7949 2.10254C17.2286 2.36462 17.402 2.91793 17.1807 3.38574C16.9442 3.88481 16.3477 4.09773 15.8486 3.86133L15.4453 3.68262L15.0332 3.52344L14.9385 3.48438C14.4809 3.26627 14.2543 2.73262 14.4287 2.24512ZM12.5391 1.0127L12.6406 1.02344C13.142 1.09878 13.5143 1.54326 13.4893 2.06055C13.4624 2.61197 12.9939 3.0374 12.4424 3.01074L12 3L11.5576 3.01074H11.4551C10.9491 2.98398 10.536 2.57752 10.5107 2.06055C10.4841 1.50891 10.9093 1.03936 11.4609 1.0127L12 1L12.5391 1.0127Z" fill="#202327"/>
</g>
<defs>
<clipPath id="clip0_18_15636">
<rect width="24" height="24" fill="white"/>
</clipPath>
</defs>
</svg>
