<svg width="24" height="24" viewBox="0 0 24 24" fill="none" xmlns="http://www.w3.org/2000/svg">
<g clip-path="url(#clip0_18_15247)">
<path d="M17 6.5C17 7.77349 16.3196 8.88765 15.3027 9.5H16.5C17.6046 9.5 18.5 10.3954 18.5 11.5V11.9609L21.5938 10.5859C21.903 10.4485 22.2611 10.4768 22.5449 10.6611C22.8288 10.8456 23 11.1615 23 11.5V19.5C23 19.8385 22.8288 20.1544 22.5449 20.3389C22.2611 20.5232 21.903 20.5515 21.5938 20.4141L18.5 19.0391V19.5C18.5 20.6046 17.6046 21.5 16.5 21.5H3C1.89543 21.5 1 20.6046 1 19.5V11.5C1 10.3954 1.89543 9.5 3 9.5H4.69727C3.68042 8.88765 3 7.77349 3 6.5C3 4.567 4.567 3 6.5 3C8.433 3 10 4.567 10 6.5C10 7.77349 9.31958 8.88765 8.30273 9.5H11.6973C10.6804 8.88765 10 7.77349 10 6.5C10 4.567 11.567 3 13.5 3C15.433 3 17 4.567 17 6.5Z" fill="#202327"/>
</g>
<defs>
<clipPath id="clip0_18_15247">
<rect width="24" height="24" fill="white"/>
</clipPath>
</defs>
</svg>
