<svg width="24" height="24" viewBox="0 0 24 24" fill="none" xmlns="http://www.w3.org/2000/svg">
<path d="M2 12C2 6.47715 6.47715 2 12 2C14.2211 2 16.2762 2.72575 17.9365 3.95215L17.3418 4.75586L16.748 5.56055C15.4201 4.57965 13.7791 4 12 4C7.58172 4 4 7.58172 4 12C4 16.4183 7.58172 20 12 20C16.4183 20 20 16.4183 20 12C20 11.4477 20.4477 11 21 11C21.5523 11 22 11.4477 22 12C22 17.5228 17.5228 22 12 22C6.47715 22 2 17.5228 2 12ZM17.9365 3.95215C18.3803 4.28039 18.4745 4.90652 18.1465 5.35059C17.8184 5.79463 17.1922 5.88845 16.748 5.56055L17.9365 3.95215Z" fill="#202327"/>
</svg>
