<svg width="24" height="24" viewBox="0 0 24 24" fill="none" xmlns="http://www.w3.org/2000/svg">
<g clip-path="url(#clip0_18_12799)">
<path fill-rule="evenodd" clip-rule="evenodd" d="M12 3C10.1435 3 8.36301 3.7375 7.05025 5.05025C5.7375 6.36301 5 8.14348 5 10C5 12.1593 6.21668 14.4867 7.79774 16.564C9.32602 18.572 11.0797 20.198 12 20.9966C12.9203 20.198 14.674 18.572 16.2023 16.564C17.7833 14.4867 19 12.1593 19 10C19 8.14348 18.2625 6.36301 16.9497 5.05025C15.637 3.7375 13.8565 3 12 3ZM5.63604 3.63604C7.32387 1.94821 9.61305 1 12 1C14.3869 1 16.6761 1.94821 18.364 3.63604C20.0518 5.32387 21 7.61305 21 10C21 12.8337 19.4472 15.6028 17.7937 17.7753C16.1171 19.9781 14.2097 21.7312 13.2545 22.5559C13.2375 22.5706 13.22 22.5847 13.202 22.5982C12.8554 22.8588 12.4336 22.9998 12 22.9998C11.5664 22.9998 11.1446 22.8588 10.798 22.5982C10.78 22.5847 10.7625 22.5706 10.7455 22.5559C9.79028 21.7312 7.88287 19.9781 6.20626 17.7753C4.55282 15.6028 3 12.8337 3 10C3 7.61305 3.94821 5.32387 5.63604 3.63604ZM12 8C10.8954 8 10 8.89543 10 10C10 11.1046 10.8954 12 12 12C13.1046 12 14 11.1046 14 10C14 8.89543 13.1046 8 12 8ZM8 10C8 7.79086 9.79086 6 12 6C14.2091 6 16 7.79086 16 10C16 12.2091 14.2091 14 12 14C9.79086 14 8 12.2091 8 10Z" fill="#202327"/>
</g>
<defs>
<clipPath id="clip0_18_12799">
<rect width="24" height="24" fill="white"/>
</clipPath>
</defs>
</svg>
