<svg width="24" height="24" viewBox="0 0 24 24" fill="none" xmlns="http://www.w3.org/2000/svg">
<g clip-path="url(#clip0_18_12803)">
<path d="M12 1C14.3869 1 16.6764 1.94791 18.3643 3.63574C20.0521 5.32357 21 7.61305 21 10C21 12.8337 19.4474 15.603 17.7939 17.7754C16.1175 19.978 14.2102 21.7308 13.2549 22.5557C13.2379 22.5704 13.2201 22.5851 13.2021 22.5986C12.8556 22.8592 12.4336 23 12 23C11.5664 23 11.1444 22.8592 10.7979 22.5986C10.7799 22.5851 10.7621 22.5704 10.7451 22.5557C9.78983 21.7308 7.88248 19.978 6.20605 17.7754C4.55262 15.603 3 12.8337 3 10C3 7.61305 3.94791 5.32357 5.63574 3.63574C7.32357 1.94791 9.61305 1 12 1ZM12 6C9.79086 6 8 7.79086 8 10C8 12.2091 9.79086 14 12 14C14.2091 14 16 12.2091 16 10C16 7.79086 14.2091 6 12 6ZM12 8C13.1046 8 14 8.89543 14 10C14 11.1046 13.1046 12 12 12C10.8954 12 10 11.1046 10 10C10 8.89543 10.8954 8 12 8Z" fill="#202327"/>
</g>
<defs>
<clipPath id="clip0_18_12803">
<rect width="24" height="24" fill="white"/>
</clipPath>
</defs>
</svg>
