<svg width="24" height="24" viewBox="0 0 24 24" fill="none" xmlns="http://www.w3.org/2000/svg">
<g clip-path="url(#clip0_18_14147)">
<path fill-rule="evenodd" clip-rule="evenodd" d="M4 3C2.34315 3 1 4.34315 1 6V18C1 19.6569 2.34315 21 4 21H20C21.6569 21 23 19.6569 23 18V6C23 4.34315 21.6569 3 20 3H4ZM4.49032 7.62842C4.00896 7.35766 3.39924 7.52838 3.12848 8.00973C2.85772 8.49109 3.02844 9.10081 3.50979 9.37157L11.5098 13.8716C11.8142 14.0428 12.1859 14.0428 12.4903 13.8716L20.4903 9.37157C20.9717 9.10081 21.1424 8.49109 20.8716 8.00973C20.6009 7.52838 19.9912 7.35766 19.5098 7.62842L12.0001 11.8526L4.49032 7.62842Z" fill="#202327"/>
</g>
<defs>
<clipPath id="clip0_18_14147">
<rect width="24" height="24" fill="white"/>
</clipPath>
</defs>
</svg>
