<svg width="24" height="24" viewBox="0 0 24 24" fill="none" xmlns="http://www.w3.org/2000/svg">
<path d="M15.7214 2.15797C15.943 2.25402 16.1444 2.39111 16.315 2.56202L21.3301 7.5822C21.5498 7.80217 21.7126 8.07232 21.8045 8.36931C21.8964 8.6663 21.9146 8.9812 21.8575 9.2868C21.8005 9.5924 21.6699 9.87952 21.477 10.1233C21.2841 10.3672 21.0348 10.5603 20.7505 10.6862L18.9735 11.4732L15.6397 14.8109L15.3755 18.4824C15.3491 18.8484 15.218 19.1992 14.9979 19.4929C14.7778 19.7866 14.4779 20.0109 14.134 20.139C13.79 20.2671 13.4165 20.2937 13.0579 20.2156C12.6993 20.1374 12.3707 19.9579 12.1112 19.6983L8.87379 16.4577L3.35701 22L2 20.6487L7.51997 15.1032L4.17084 11.7515C3.9118 11.4923 3.73261 11.1641 3.65455 10.806C3.57649 10.4479 3.60284 10.0749 3.73047 9.73134C3.8581 9.38777 4.08165 9.08804 4.37457 8.86775C4.66748 8.64746 5.01747 8.51586 5.38296 8.48858L9.15911 8.20645L12.4336 4.92817L13.2027 3.15371C13.3027 2.92293 13.4471 2.7141 13.6278 2.53916C13.8085 2.36421 14.0219 2.22658 14.2558 2.13411C14.4897 2.04164 14.7395 1.99616 14.991 2.00025C15.2425 2.00435 15.4907 2.05794 15.7214 2.15797ZM14.9599 3.9152L14.0459 6.02349L10.0119 10.0639L5.52466 10.3977L13.4657 18.3445L13.781 13.962L17.8712 9.86666L19.9757 8.93475L14.9599 3.9152Z" fill="#202327"/>
</svg>
