<svg width="24" height="24" viewBox="0 0 24 24" fill="none" xmlns="http://www.w3.org/2000/svg">
<path d="M15.6996 2.05631C15.9224 2.15288 16.1249 2.29073 16.2965 2.46258L21.3393 7.51051C21.5602 7.7317 21.7239 8.00334 21.8163 8.30197C21.9087 8.60061 21.927 8.91724 21.8696 9.22453C21.8123 9.53182 21.6809 9.82052 21.487 10.0657C21.2931 10.3109 21.0423 10.5051 20.7565 10.6317L18.9697 11.4231L15.6174 14.7791L15.3517 18.4709C15.3252 18.839 15.1934 19.1917 14.9721 19.487C14.7508 19.7824 14.4492 20.0079 14.1034 20.1367C13.7575 20.2655 13.382 20.2923 13.0214 20.2137C12.6608 20.1351 12.3304 19.9546 12.0694 19.6936L8.81413 16.435L3.26686 22.008L1.90234 20.6493L7.45282 15.0731L4.08518 11.7029C3.82471 11.4422 3.64453 11.1122 3.56604 10.7521C3.48755 10.392 3.51405 10.017 3.64238 9.67152C3.77071 9.32605 3.9955 9.02467 4.29003 8.80317C4.58457 8.58166 4.93649 8.44933 5.304 8.4219L9.10102 8.13821L12.3936 4.84182L13.167 3.05755C13.2675 2.82549 13.4127 2.61551 13.5944 2.4396C13.7761 2.26369 13.9907 2.12529 14.2259 2.03231C14.4611 1.93933 14.7123 1.8936 14.9651 1.89772C15.218 1.90183 15.4676 1.95572 15.6996 2.05631Z" fill="#202327"/>
</svg>
