<svg width="24" height="24" viewBox="0 0 24 24" fill="none" xmlns="http://www.w3.org/2000/svg">
<g clip-path="url(#clip0_550_28)">
<path d="M19 15C19 13.8954 18.1046 13 17 13C15.8954 13 15 13.8954 15 15C15 16.1046 15.8954 17 17 17C17.4806 17 17.9207 16.8294 18.2656 16.5469C18.3019 16.4923 18.3445 16.4407 18.3926 16.3926C18.4407 16.3445 18.4923 16.3019 18.5469 16.2656C18.8294 15.9207 19 15.4806 19 15ZM10 17C10.5523 17 11 17.4477 11 18C11 18.5523 10.5523 19 10 19H4C3.44772 19 3 18.5523 3 18C3 17.4477 3.44772 17 4 17H10ZM10 11C10.5523 11 11 11.4477 11 12C11 12.5523 10.5523 13 10 13H4C3.44772 13 3 12.5523 3 12C3 11.4477 3.44772 11 4 11H10ZM20 5C20.5523 5 21 5.44772 21 6C21 6.55228 20.5523 7 20 7H4C3.44772 7 3 6.55228 3 6C3 5.44772 3.44772 5 4 5H20ZM21 15C21 15.7417 20.7971 16.4358 20.4453 17.0312L21.707 18.293L21.7754 18.3691C22.0958 18.7619 22.0731 19.3409 21.707 19.707C21.3409 20.0732 20.7619 20.0958 20.3691 19.7754L20.293 19.707L19.0303 18.4453C18.435 18.7969 17.7414 19 17 19C14.7909 19 13 17.2091 13 15C13 12.7909 14.7909 11 17 11C19.2091 11 21 12.7909 21 15Z" fill="#202327"/>
</g>
<defs>
<clipPath id="clip0_550_28">
<rect width="24" height="24" fill="white"/>
</clipPath>
</defs>
</svg>
