<svg width="24" height="24" viewBox="0 0 24 24" fill="none" xmlns="http://www.w3.org/2000/svg">
<path d="M1.29274 1.79297C1.65887 1.42708 2.23794 1.40433 2.63063 1.72461L2.70681 1.79297L22.2069 21.293L22.2753 21.3691C22.5954 21.7618 22.5727 22.341 22.2069 22.707C21.8409 23.0731 21.2618 23.0955 20.869 22.7754L20.7928 22.707L16.6151 18.5293C15.5446 19.2865 14.3043 19.7731 12.9998 19.9375V22C12.9998 22.5522 12.552 22.9999 11.9998 23C11.4475 23 10.9998 22.5523 10.9998 22V19.9375C9.24686 19.7167 7.60518 18.9198 6.34257 17.6572C4.84227 16.1569 3.99978 14.1217 3.99978 12V10C3.99978 9.44772 4.4475 9 4.99979 9C5.55196 9.00013 5.99979 9.44779 5.99979 10V12C5.99979 13.5913 6.63239 15.117 7.75761 16.2422C8.88282 17.3673 10.4086 18 11.9998 18C13.1316 18 14.2289 17.6778 15.1737 17.0879L13.701 15.6152C13.1734 15.8641 12.5943 16 11.9998 16C10.939 16 9.92182 15.5782 9.17168 14.8281C8.42153 14.078 7.9998 13.0609 7.9998 12V9.91406L1.29274 3.20703L1.22438 3.13086C0.904024 2.73809 0.926618 2.15908 1.29274 1.79297ZM18.9999 9C19.552 9.00013 19.9999 9.44779 19.9999 10V12C19.9999 13.061 19.7879 14.0999 19.3895 15.0615L17.8123 13.4844C17.9352 13.0032 17.9998 12.505 17.9998 12V10C17.9998 9.44772 18.4476 9 18.9999 9ZM9.99981 12C9.99981 12.5304 10.2107 13.039 10.5857 13.4141C10.9608 13.7891 11.4694 14 11.9998 14C12.0273 14 12.0545 13.9972 12.0819 13.9961L9.99981 11.9141V12ZM11.9998 1C13.0606 1.00006 14.0779 1.42178 14.828 2.17188C15.578 2.92201 15.9998 3.93919 15.9998 5V11.6719L13.9998 9.67188V5C13.9998 4.46962 13.7889 3.961 13.4139 3.58594C13.0389 3.21092 12.5302 3.00006 11.9998 3C11.4694 3 10.9608 3.21094 10.5857 3.58594C10.2107 3.96101 9.99981 4.46957 9.99981 5V5.67188L8.1707 3.84277C8.35972 3.21742 8.70131 2.64224 9.17168 2.17188C9.92182 1.4218 10.939 1 11.9998 1Z" fill="#202327"/>
</svg>
