<svg width="24" height="24" viewBox="0 0 24 24" fill="none" xmlns="http://www.w3.org/2000/svg">
<path fill-rule="evenodd" clip-rule="evenodd" d="M9.17157 2.17157C9.92172 1.42143 10.9391 1 12 1C13.0609 1 14.0783 1.42143 14.8284 2.17157C15.5786 2.92172 16 3.93913 16 5V12C16 13.0609 15.5786 14.0783 14.8284 14.8284C14.0783 15.5786 13.0609 16 12 16C10.9391 16 9.92172 15.5786 9.17157 14.8284C8.42143 14.0783 8 13.0609 8 12V5C8 3.93913 8.42143 2.92172 9.17157 2.17157ZM5 9C5.55228 9 6 9.44772 6 10V12C6 13.5913 6.63214 15.1174 7.75736 16.2426C8.88258 17.3679 10.4087 18 12 18C13.5913 18 15.1174 17.3679 16.2426 16.2426C17.3679 15.1174 18 13.5913 18 12V10C18 9.44772 18.4477 9 19 9C19.5523 9 20 9.44772 20 10V12C20 14.1217 19.1571 16.1566 17.6569 17.6569C16.3942 18.9195 14.753 19.7165 13 19.9373V22C13 22.5523 12.5523 23 12 23C11.4477 23 11 22.5523 11 22V19.9373C9.247 19.7165 7.60577 18.9195 6.34315 17.6569C4.84285 16.1566 4 14.1217 4 12V10C4 9.44772 4.44772 9 5 9Z" fill="#202327"/>
</svg>
