<svg width="24" height="24" viewBox="0 0 24 24" fill="none" xmlns="http://www.w3.org/2000/svg">
<path d="M20.5537 18.832C19.9117 19.2593 19.1684 19.63 18.3525 19.9365C16.5546 20.6119 14.3557 21 12 21C9.64433 21 7.4454 20.6119 5.64746 19.9365C4.83157 19.63 4.08829 19.2593 3.44629 18.832L4.55371 17.168C5.04901 17.4976 5.65268 17.8013 6.35059 18.0635C7.89558 18.6439 9.85246 19 12 19C14.1475 19 16.1044 18.6439 17.6494 18.0635C18.3473 17.8013 18.951 17.4976 19.4463 17.168L20.5537 18.832ZM12 3C17.5228 3 22 6.13401 22 10C22 13.866 17.5228 17 12 17C6.47715 17 2 13.866 2 10C2 6.13401 6.47715 3 12 3ZM12 7C11.0501 7 10.1406 7.15201 9.43164 7.43555C8.78244 7.69523 8 8.20237 8 9C8 9.79763 8.78244 10.3048 9.43164 10.5645C10.1406 10.848 11.0501 11 12 11C12.9499 11 13.8594 10.848 14.5684 10.5645C15.2176 10.3048 16 9.79763 16 9C16 8.20237 15.2176 7.69523 14.5684 7.43555C13.8594 7.15201 12.9499 7 12 7Z" fill="#202327"/>
</svg>
