<svg width="24" height="24" viewBox="0 0 24 24" fill="none" xmlns="http://www.w3.org/2000/svg">
<path d="M12 1C16.6944 1 20.5 4.80557 20.5 9.5C20.5 12.9661 18.4245 15.9456 15.4492 17.2686L16.7168 21H18V23H6V21H7.28223L8.54004 17.2637C5.57057 15.9383 3.5 12.9619 3.5 9.5C3.5 4.80557 7.30557 1 12 1ZM9.3916 21H14.6045L13.585 18H10.4023L9.3916 21ZM12 5.5C9.79086 5.5 8 7.29086 8 9.5C8 11.7091 9.79086 13.5 12 13.5C14.2091 13.5 16 11.7091 16 9.5C16 7.29086 14.2091 5.5 12 5.5ZM12 7.5C13.1046 7.5 14 8.39543 14 9.5C14 10.6046 13.1046 11.5 12 11.5C10.8954 11.5 10 10.6046 10 9.5C10 8.39543 10.8954 7.5 12 7.5Z" fill="#202327"/>
</svg>
