<svg width="24" height="24" viewBox="0 0 24 24" fill="none" xmlns="http://www.w3.org/2000/svg">
<path fill-rule="evenodd" clip-rule="evenodd" d="M12 5.5C9.79086 5.5 8 7.29086 8 9.5C8 11.7091 9.79086 13.5 12 13.5C14.2091 13.5 16 11.7091 16 9.5C16 7.29086 14.2091 5.5 12 5.5ZM10 9.5C10 8.39543 10.8954 7.5 12 7.5C13.1046 7.5 14 8.39543 14 9.5C14 10.6046 13.1046 11.5 12 11.5C10.8954 11.5 10 10.6046 10 9.5Z" fill="#202327"/>
<path fill-rule="evenodd" clip-rule="evenodd" d="M12 1C7.30557 1 3.5 4.80557 3.5 9.5C3.5 12.9621 5.5698 15.9407 8.53949 17.266L7.28166 21H6V23H18V21H16.7165L15.4499 17.2707C18.4253 15.9478 20.5 12.9662 20.5 9.5C20.5 4.80557 16.6944 1 12 1ZM14.6043 21L13.5854 18H10.4027L9.39209 21H14.6043ZM18.5 9.5C18.5 13.0899 15.5899 16 12 16C8.41013 16 5.5 13.0899 5.5 9.5C5.5 5.91013 8.41013 3 12 3C15.5899 3 18.5 5.91013 18.5 9.5Z" fill="#202327"/>
</svg>
