<svg width="24" height="24" viewBox="0 0 24 24" fill="none" xmlns="http://www.w3.org/2000/svg">
<path d="M12 1C18.0751 1 23 5.92487 23 12C23 18.0751 18.0751 23 12 23C5.92487 23 1 18.0751 1 12C1 5.92487 5.92487 1 12 1ZM7 11C6.44772 11 6 11.4477 6 12C6 12.5523 6.44772 13 7 13H7.00977L7.1123 12.9951C7.61655 12.9439 8.00977 12.5178 8.00977 12C8.00977 11.4822 7.61655 11.0561 7.1123 11.0049L7.00977 11H7ZM12 11C11.4477 11 11 11.4477 11 12C11 12.5523 11.4477 13 12 13H12.0098L12.1123 12.9951C12.6165 12.9439 13.0098 12.5178 13.0098 12C13.0098 11.4822 12.6165 11.0561 12.1123 11.0049L12.0098 11H12ZM17 11C16.4477 11 16 11.4477 16 12C16 12.5523 16.4477 13 17 13H17.0098L17.1123 12.9951C17.6165 12.9439 18.0098 12.5178 18.0098 12C18.0098 11.4822 17.6165 11.0561 17.1123 11.0049L17.0098 11H17Z" fill="#202327"/>
</svg>
