<svg width="24" height="24" viewBox="0 0 24 24" fill="none" xmlns="http://www.w3.org/2000/svg">
<path fill-rule="evenodd" clip-rule="evenodd" d="M12 3C7.02944 3 3 7.02944 3 12C3 16.9706 7.02944 21 12 21C16.9706 21 21 16.9706 21 12C21 7.02944 16.9706 3 12 3ZM1 12C1 5.92487 5.92487 1 12 1C18.0751 1 23 5.92487 23 12C23 18.0751 18.0751 23 12 23C5.92487 23 1 18.0751 1 12ZM6 12C6 11.4477 6.44772 11 7 11H7.01C7.56228 11 8.01 11.4477 8.01 12C8.01 12.5523 7.56228 13 7.01 13H7C6.44772 13 6 12.5523 6 12ZM11 12C11 11.4477 11.4477 11 12 11H12.01C12.5623 11 13.01 11.4477 13.01 12C13.01 12.5523 12.5623 13 12.01 13H12C11.4477 13 11 12.5523 11 12ZM16 12C16 11.4477 16.4477 11 17 11H17.01C17.5623 11 18.01 11.4477 18.01 12C18.01 12.5523 17.5623 13 17.01 13H17C16.4477 13 16 12.5523 16 12Z" fill="#202327"/>
</svg>
