<svg width="24" height="24" viewBox="0 0 24 24" fill="none" xmlns="http://www.w3.org/2000/svg">
<path fill-rule="evenodd" clip-rule="evenodd" d="M4.79987 5C4.3313 5 3.99987 5.36215 3.99987 5.75V9.25C3.99987 9.63785 4.3313 10 4.79987 10H19.1999C19.6684 10 19.9999 9.63784 19.9999 9.25V5.75C19.9999 5.36216 19.6684 5 19.1999 5H4.79987ZM1.99987 5.75C1.99987 4.20485 3.28022 3 4.79987 3H19.1999C20.7195 3 21.9999 4.20485 21.9999 5.75V9.25C21.9999 10.7952 20.7195 12 19.1999 12H12.9999V14.1367C14.2394 14.4839 15.216 15.4604 15.5632 16.7H21.4999C22.0522 16.7 22.4999 17.1477 22.4999 17.7C22.4999 18.2523 22.0522 18.7 21.4999 18.7H15.5632C15.1269 20.2576 13.6968 21.4 11.9999 21.4C10.3029 21.4 8.87282 20.2576 8.43659 18.7H2.5C1.94772 18.7 1.5 18.2523 1.5 17.7C1.5 17.1477 1.94772 16.7 2.5 16.7H8.43659C8.78374 15.4604 9.76031 14.4839 10.9999 14.1367V12H4.79987C3.28022 12 1.99987 10.7952 1.99987 9.25V5.75ZM5.59987 7.5C5.59987 6.94772 6.04759 6.5 6.59987 6.5H6.60887C7.16116 6.5 7.60887 6.94772 7.60887 7.5C7.60887 8.05228 7.16116 8.5 6.60887 8.5H6.59987C6.04759 8.5 5.59987 8.05228 5.59987 7.5ZM9.19987 7.5C9.19987 6.94772 9.64759 6.5 10.1999 6.5H10.2089C10.7612 6.5 11.2089 6.94772 11.2089 7.5C11.2089 8.05228 10.7612 8.5 10.2089 8.5H10.1999C9.64759 8.5 9.19987 8.05228 9.19987 7.5ZM11.9999 16C11.061 16 10.2999 16.7611 10.2999 17.7C10.2999 18.6389 11.061 19.4 11.9999 19.4C12.9388 19.4 13.6999 18.6389 13.6999 17.7C13.6999 16.7611 12.9388 16 11.9999 16Z" fill="#202327"/>
</svg>
