<svg width="24" height="24" viewBox="0 0 24 24" fill="none" xmlns="http://www.w3.org/2000/svg">
<path d="M19.2002 3C20.7197 3.00017 22 4.20496 22 5.75V9.25C22 10.795 20.7197 11.9998 19.2002 12H13V14.1367C14.2395 14.4839 15.2163 15.4607 15.5635 16.7002H21.5C22.0522 16.7003 22.5 17.148 22.5 17.7002C22.4999 18.2523 22.0522 18.7001 21.5 18.7002H15.5635C15.1272 20.2577 13.6968 21.4003 12 21.4004C10.3031 21.4004 8.87281 20.2578 8.43652 18.7002H2.5C1.94778 18.7002 1.50011 18.2524 1.5 17.7002C1.5 17.1479 1.94772 16.7002 2.5 16.7002H8.43652C8.78368 15.4606 9.76044 14.4839 11 14.1367V12H4.7998C3.28018 12 2 10.7951 2 9.25V5.75C2 4.20487 3.28018 3.00004 4.7998 3H19.2002ZM12 16C11.0611 16 10.2998 16.7613 10.2998 17.7002C10.2999 18.639 11.0612 19.4004 12 19.4004C12.9388 19.4003 13.7001 18.6389 13.7002 17.7002C13.7002 16.7614 12.9388 16.0001 12 16ZM6.59961 6.5C6.04745 6.50014 5.59961 6.9478 5.59961 7.5C5.59961 8.0522 6.04745 8.49986 6.59961 8.5H6.60938C6.64365 8.49998 6.67755 8.4985 6.71094 8.49512C6.81179 8.48492 6.90831 8.45978 6.99805 8.42188C7.05796 8.39655 7.11469 8.3651 7.16797 8.3291C7.22127 8.29311 7.2711 8.25236 7.31641 8.20703C7.36151 8.1619 7.40262 8.11262 7.43848 8.05957C7.4744 8.00643 7.50497 7.9494 7.53027 7.88965C7.58097 7.76992 7.60938 7.63821 7.60938 7.5C7.60938 7.36179 7.58097 7.23008 7.53027 7.11035C7.50497 7.0506 7.4744 6.99357 7.43848 6.94043C7.40262 6.88738 7.36151 6.8381 7.31641 6.79297C7.2711 6.74764 7.22127 6.70689 7.16797 6.6709C7.11469 6.6349 7.05796 6.60345 6.99805 6.57812C6.90831 6.54022 6.81179 6.51508 6.71094 6.50488C6.67755 6.5015 6.64365 6.50002 6.60938 6.5H6.59961ZM10.2002 6.5C9.64791 6.5 9.2002 6.94772 9.2002 7.5C9.2002 8.05228 9.64791 8.5 10.2002 8.5H10.209C10.2436 8.5 10.2779 8.49854 10.3115 8.49512C10.4123 8.48484 10.5089 8.45984 10.5986 8.42188C10.6585 8.39653 10.7153 8.36511 10.7686 8.3291C10.795 8.31123 10.8202 8.29173 10.8447 8.27148C10.8942 8.23066 10.9396 8.18522 10.9805 8.13574C11.0415 8.06174 11.0929 7.97925 11.1309 7.88965C11.1562 7.82968 11.1751 7.76645 11.1885 7.70117C11.1951 7.66881 11.2007 7.63595 11.2041 7.60254C11.2075 7.56883 11.209 7.53461 11.209 7.5C11.209 7.46539 11.2075 7.43117 11.2041 7.39746C11.2007 7.36405 11.1951 7.33119 11.1885 7.29883C11.1751 7.23355 11.1562 7.17032 11.1309 7.11035C11.0929 7.02075 11.0415 6.93826 10.9805 6.86426C10.9396 6.81478 10.8942 6.76934 10.8447 6.72852C10.8202 6.70827 10.795 6.68877 10.7686 6.6709C10.7153 6.63489 10.6585 6.60347 10.5986 6.57812C10.479 6.52746 10.3471 6.50001 10.209 6.5H10.2002Z" fill="#202327"/>
</svg>
