<svg width="24" height="24" viewBox="0 0 24 24" fill="none" xmlns="http://www.w3.org/2000/svg">
<g clip-path="url(#clip0_18_15280)">
<path d="M12 1C18.0751 1 23 5.92487 23 12C23 15.722 21.1495 19.0095 18.3203 21H22C22.5523 21 23 21.4477 23 22C23 22.5523 22.5523 23 22 23H12C5.92487 23 1 18.0751 1 12C1 5.92487 5.92487 1 12 1ZM12 3C7.02943 3 3 7.02943 3 12C3 16.9706 7.02943 21 12 21C16.9706 21 21 16.9706 21 12C21 7.02943 16.9706 3 12 3ZM12 14C13.1046 14 14 14.8954 14 16C14 17.1046 13.1046 18 12 18C10.8954 18 10 17.1046 10 16C10 14.8954 10.8954 14 12 14ZM8 10C9.1046 10 10 10.8954 10 12C10 13.1046 9.1046 14 8 14C6.8954 14 6 13.1046 6 12C6 10.8954 6.8954 10 8 10ZM16 10C17.1046 10 18 10.8954 18 12C18 13.1046 17.1046 14 16 14C14.8954 14 14 13.1046 14 12C14 10.8954 14.8954 10 16 10ZM12 6C13.1046 6 14 6.8954 14 8C14 9.1046 13.1046 10 12 10C10.8954 10 10 9.1046 10 8C10 6.8954 10.8954 6 12 6Z" fill="#202327"/>
</g>
<defs>
<clipPath id="clip0_18_15280">
<rect width="24" height="24" fill="white"/>
</clipPath>
</defs>
</svg>
