<svg width="24" height="24" viewBox="0 0 24 24" fill="none" xmlns="http://www.w3.org/2000/svg">
<g clip-path="url(#clip0_18_15274)">
<path d="M19 2C20.6569 2 22 3.34315 22 5V19C22 20.6569 20.6569 22 19 22H5C3.34315 22 2 20.6569 2 19V5C2 3.34315 3.34315 2 5 2H19ZM9.27734 7.58398C9.12392 7.4817 8.92625 7.47256 8.76367 7.55957C8.6217 7.63575 8.52653 7.77469 8.50488 7.93164L8.5 8V16C8.5 16.1842 8.60137 16.3533 8.76367 16.4404C8.92625 16.5274 9.12392 16.5183 9.27734 16.416L15.2773 12.416C15.4164 12.3233 15.5 12.1672 15.5 12C15.5 11.8328 15.4164 11.6767 15.2773 11.584L9.27734 7.58398Z" fill="#202327"/>
</g>
<defs>
<clipPath id="clip0_18_15274">
<rect width="24" height="24" fill="white"/>
</clipPath>
</defs>
</svg>
