<svg width="24" height="24" viewBox="0 0 24 24" fill="none" xmlns="http://www.w3.org/2000/svg">
<g clip-path="url(#clip0_18_15285)">
<path fill-rule="evenodd" clip-rule="evenodd" d="M12 1C18.0751 1 23 5.92487 23 12C23 15.722 21.1495 19.0095 18.3203 21H22C22.5523 21 23 21.4477 23 22C23 22.5523 22.5523 23 22 23H12C5.92487 23 1 18.0751 1 12C1 5.92487 5.92487 1 12 1ZM12 3C7.02943 3 3 7.02943 3 12C3 16.9706 7.02943 21 12 21C16.9706 21 21 16.9706 21 12C21 7.02943 16.9706 3 12 3Z" fill="#202327"/>
<path d="M12.2129 2.16992C17.54 2.17019 21.8584 6.48923 21.8584 11.8164C21.8582 17.1434 17.5399 21.4617 12.2129 21.4619C6.88568 21.4619 2.5666 17.1436 2.56641 11.8164C2.56641 6.48907 6.88555 2.16992 12.2129 2.16992ZM11.999 14C10.8944 14 9.99902 14.8954 9.99902 16C9.99902 17.1046 10.8944 18 11.999 18C13.1036 18 13.999 17.1046 13.999 16C13.999 14.8954 13.1036 14 11.999 14ZM7.99902 10C6.89442 10 5.99902 10.8954 5.99902 12C5.99902 13.1046 6.89442 14 7.99902 14C9.10362 14 9.99902 13.1046 9.99902 12C9.99902 10.8954 9.10362 10 7.99902 10ZM15.999 10C14.8944 10 13.999 10.8954 13.999 12C13.999 13.1046 14.8944 14 15.999 14C17.1036 14 17.999 13.1046 17.999 12C17.999 10.8954 17.1036 10 15.999 10ZM11.999 6C10.8944 6 9.99902 6.8954 9.99902 8C9.99902 9.1046 10.8944 10 11.999 10C13.1036 10 13.999 9.1046 13.999 8C13.999 6.8954 13.1036 6 11.999 6Z" fill="#202327"/>
<path fill-rule="evenodd" clip-rule="evenodd" d="M12 1C18.0751 1 23 5.92487 23 12C23 15.722 21.1495 19.0095 18.3203 21H22C22.5523 21 23 21.4477 23 22C23 22.5523 22.5523 23 22 23H12C5.92487 23 1 18.0751 1 12C1 5.92487 5.92487 1 12 1ZM12 14C10.8954 14 10 14.8954 10 16C10 17.1046 10.8954 18 12 18C13.1046 18 14 17.1046 14 16C14 14.8954 13.1046 14 12 14ZM8 10C6.8954 10 6 10.8954 6 12C6 13.1046 6.8954 14 8 14C9.1046 14 10 13.1046 10 12C10 10.8954 9.1046 10 8 10ZM16 10C14.8954 10 14 10.8954 14 12C14 13.1046 14.8954 14 16 14C17.1046 14 18 13.1046 18 12C18 10.8954 17.1046 10 16 10ZM12 6C10.8954 6 10 6.8954 10 8C10 9.1046 10.8954 10 12 10C13.1046 10 14 9.1046 14 8C14 6.8954 13.1046 6 12 6Z" fill="#151826"/>
</g>
<defs>
<clipPath id="clip0_18_15285">
<rect width="24" height="24" fill="white"/>
</clipPath>
</defs>
</svg>
