<svg width="24" height="24" viewBox="0 0 24 24" fill="none" xmlns="http://www.w3.org/2000/svg">
<g clip-path="url(#clip0_18_15268)">
<path d="M20 5C20 4.44771 19.5523 4 19 4H5C4.44772 4 4 4.44772 4 5V19C4 19.5523 4.44771 20 5 20H19C19.5523 20 20 19.5523 20 19V5ZM8.52832 7.11816C8.85344 6.94426 9.2479 6.96344 9.55469 7.16797L15.5547 11.168C15.8329 11.3534 16 11.6656 16 12C16 12.3344 15.8329 12.6466 15.5547 12.832L9.55469 16.832C9.2479 17.0366 8.85344 17.0557 8.52832 16.8818C8.20316 16.7078 8 16.3688 8 16V8C8 7.6312 8.20316 7.29218 8.52832 7.11816ZM10 14.1309L13.1973 12L10 9.86816V14.1309ZM22 19C22 20.6569 20.6569 22 19 22H5C3.34315 22 2 20.6569 2 19V5C2 3.34315 3.34315 2 5 2H19C20.6569 2 22 3.34315 22 5V19Z" fill="#202327"/>
</g>
<defs>
<clipPath id="clip0_18_15268">
<rect width="24" height="24" fill="white"/>
</clipPath>
</defs>
</svg>
