<svg width="24" height="24" viewBox="0 0 24 24" fill="none" xmlns="http://www.w3.org/2000/svg">
<g clip-path="url(#clip0_18_15298)">
<path d="M12 2H19C20.6569 2 22 3.34315 22 5V19C22 20.6569 20.6569 22 19 22H5C3.34315 22 2 20.6569 2 19V5C2 3.34315 3.34315 2 5 2H12ZM5 4C4.44772 4 4 4.44772 4 5V19C4 19.5523 4.44771 20 5 20H19C19.5523 20 20 19.5523 20 19V5C20 4.44771 19.5523 4 19 4H5ZM16.1025 6.00488C16.6067 6.05621 17 6.48232 17 7C17 7.55228 16.5523 8 16 8H14.4141C14.1855 8 14 8.18553 14 8.41406V15C13.9997 15.6367 13.7969 16.2568 13.4209 16.7705C13.0447 17.2843 12.5141 17.6648 11.9072 17.8574C11.3004 18.05 10.6484 18.0445 10.0449 17.8418C9.44132 17.639 8.9173 17.2495 8.5498 16.7295C8.18247 16.2096 7.98966 15.5858 8 14.9492C8.01044 14.3128 8.2234 13.6961 8.60742 13.1885C8.99162 12.6807 9.52782 12.3081 10.1377 12.125C10.7475 11.942 11.3997 11.9577 12 12.1699V6.68945C12.0001 6.30873 12.3087 6.00011 12.6895 6H16L16.1025 6.00488Z" fill="#202327"/>
</g>
<defs>
<clipPath id="clip0_18_15298">
<rect width="24" height="24" fill="white"/>
</clipPath>
</defs>
</svg>
