<svg width="24" height="24" viewBox="0 0 24 24" fill="none" xmlns="http://www.w3.org/2000/svg">
<g clip-path="url(#clip0_18_15304)">
<path d="M19 2C20.6569 2 22 3.34315 22 5V19C22 20.6569 20.6569 22 19 22H5C3.34315 22 2 20.6569 2 19V5C2 3.34315 3.34315 2 5 2H12L16 6H12.6895C12.3087 6.00011 12.0001 6.30873 12 6.68945V12.1699C11.3997 11.9577 10.7475 11.942 10.1377 12.125C9.52782 12.3081 8.99162 12.6807 8.60742 13.1885C8.2234 13.6961 8.01044 14.3128 8 14.9492C7.98966 15.5858 8.18247 16.2096 8.5498 16.7295C8.9173 17.2495 9.44132 17.639 10.0449 17.8418C10.6484 18.0445 11.3004 18.05 11.9072 17.8574C12.5141 17.6648 13.0447 17.2843 13.4209 16.7705C13.7969 16.2568 13.9997 15.6367 14 15V8.41406C14 8.18553 14.1855 8 14.4141 8H16C16.5523 8 17 7.55228 17 7C17 6.48232 16.6067 6.05621 16.1025 6.00488L16 6L12 2H19Z" fill="#202327"/>
</g>
<defs>
<clipPath id="clip0_18_15304">
<rect width="24" height="24" fill="white"/>
</clipPath>
</defs>
</svg>
