<svg width="24" height="24" viewBox="0 0 24 24" fill="none" xmlns="http://www.w3.org/2000/svg">
<g clip-path="url(#clip0_308_116)">
<path d="M20 1C21.6569 1 23 2.34315 23 4V20C23 21.6569 21.6569 23 20 23H4C2.34315 23 1 21.6569 1 20V4C1 2.34315 2.34315 1 4 1H20ZM7 21H13V3H7V21ZM15 21H20C20.5523 21 21 20.5523 21 20V4C21 3.44772 20.5523 3 20 3H15V21ZM4 8C3.44772 8 3 8.44772 3 9C3 9.55229 3.44772 10 4 10C4.55228 10 5 9.55229 5 9C5 8.44772 4.55228 8 4 8ZM10 5C10.5523 5 11 5.44772 11 6V9C11 9.55228 10.5523 10 10 10C9.44772 10 9 9.55228 9 9V6C9 5.44772 9.44772 5 10 5ZM18 5C18.5523 5 19 5.44772 19 6V9C19 9.55228 18.5523 10 18 10C17.4477 10 17 9.55228 17 9V6C17 5.44772 17.4477 5 18 5ZM4 5C3.44772 5 3 5.44772 3 6C3 6.55228 3.44772 7 4 7C4.55228 7 5 6.55228 5 6C5 5.44772 4.55228 5 4 5Z" fill="#202327"/>
</g>
<defs>
<clipPath id="clip0_308_116">
<rect width="24" height="24" fill="white"/>
</clipPath>
</defs>
</svg>
