<svg width="24" height="24" viewBox="0 0 24 24" fill="none" xmlns="http://www.w3.org/2000/svg">
<path d="M22 15.9999C22 18.209 20.2091 19.9999 18 19.9999C15.7909 19.9999 14 18.209 14 15.9999C14 13.7907 15.7909 11.9999 18 11.9999C18.7288 11.9999 19.4116 12.1955 20 12.536V4.17956L10 5.84655V17.9999C10 20.209 8.20914 21.9999 6 21.9999C3.79086 21.9999 2 20.209 2 17.9999C2 15.7907 3.79086 13.9999 6 13.9999C6.72875 13.9999 7.41155 14.1955 8 14.536V4.99987C8 4.51103 8.35375 4.09391 8.83594 4.01354L20.8359 2.01354C21.1258 1.96533 21.4223 2.04724 21.6465 2.23717C21.8706 2.42717 22 2.70602 22 2.99987V15.9999Z" fill="#202327"/>
</svg>
