<svg width="24" height="24" viewBox="0 0 24 24" fill="none" xmlns="http://www.w3.org/2000/svg">
<g clip-path="url(#clip0_18_15613)">
<path d="M21 18.5001C21.5523 18.5001 22 18.9479 22 19.5001C22 20.0524 21.5523 20.5001 21 20.5001H3C2.44772 20.5001 2 20.0524 2 19.5001C2 18.9479 2.44772 18.5001 3 18.5001H21ZM21 11.5001C21.5523 11.5001 22 11.9479 22 12.5001C22 13.0524 21.5523 13.5001 21 13.5001H3C2.44772 13.5001 2 13.0524 2 12.5001C2 11.9479 2.44772 11.5001 3 11.5001H21ZM16.6865 2.41909C16.9875 1.99777 17.555 1.8796 17.9951 2.13101L18.0811 2.18667L21.5811 4.68667C21.9348 4.93934 22.0848 5.39184 21.9521 5.80581C21.8193 6.21952 21.4345 6.50015 21 6.50015H3C2.44772 6.50015 2 6.05243 2 5.50015C2 4.94786 2.44772 4.50015 3 4.50015H17.8799L16.9189 3.81362L16.8389 3.75015C16.4582 3.4154 16.3855 2.84046 16.6865 2.41909Z" fill="#202327"/>
</g>
<defs>
<clipPath id="clip0_18_15613">
<rect width="24" height="24" fill="white"/>
</clipPath>
</defs>
</svg>
