<svg width="24" height="24" viewBox="0 0 24 24" fill="none" xmlns="http://www.w3.org/2000/svg">
<g clip-path="url(#clip0_1496_165)">
<path fill-rule="evenodd" clip-rule="evenodd" d="M12 1C5.94772 1 1 5.94772 1 12C1 18.0523 5.94772 23 12 23C13.5032 23 14.648 21.781 14.648 20.312C14.648 19.5997 14.3567 18.9721 13.9594 18.5238C13.9457 18.5083 13.9315 18.4933 13.9169 18.4787C13.8336 18.3956 13.773 18.2963 13.773 18.062L13.7729 18.0448C13.7714 17.9589 13.7872 17.8736 13.8194 17.7939C13.8516 17.7143 13.8995 17.6419 13.9602 17.5812C14.0209 17.5205 14.0933 17.4726 14.1729 17.4404C14.2526 17.4082 14.3379 17.3924 14.4238 17.3939L14.441 17.394H16.437C20.0401 17.394 22.992 14.4435 22.992 10.84L22.992 10.8344C22.9613 5.35183 17.9004 1 12 1ZM3 12C3 7.05228 7.05228 3 12 3C17.0205 3 20.9669 6.67054 20.992 10.8428C20.9905 13.34 18.935 15.394 16.437 15.394H14.4486C14.0975 15.3892 13.749 15.4545 13.4235 15.5861C13.095 15.7189 12.7966 15.9164 12.546 16.167C12.2954 16.4176 12.0979 16.716 11.9651 17.0445C11.8334 17.3704 11.7681 17.7192 11.773 18.0706C11.7749 18.7649 12.0013 19.378 12.4764 19.8663C12.5847 19.9954 12.648 20.1568 12.648 20.312C12.648 20.727 12.3488 21 12 21C7.05228 21 3 16.9477 3 12ZM13.5 5C12.6716 5 12 5.67157 12 6.5C12 7.32843 12.6716 8 13.5 8C14.3284 8 15 7.32843 15 6.5C15 5.67157 14.3284 5 13.5 5ZM8.5 6C7.67157 6 7 6.67157 7 7.5C7 8.32843 7.67157 9 8.5 9C9.32843 9 10 8.32843 10 7.5C10 6.67157 9.32843 6 8.5 6ZM17.5 9C16.6716 9 16 9.67157 16 10.5C16 11.3284 16.6716 12 17.5 12C18.3284 12 19 11.3284 19 10.5C19 9.67157 18.3284 9 17.5 9ZM6.5 11C5.67157 11 5 11.6716 5 12.5C5 13.3284 5.67157 14 6.5 14C7.32843 14 8 13.3284 8 12.5C8 11.6716 7.32843 11 6.5 11Z" fill="#202327"/>
</g>
<defs>
<clipPath id="clip0_1496_165">
<rect width="24" height="24" fill="white"/>
</clipPath>
</defs>
</svg>
