<svg width="24" height="24" viewBox="0 0 24 24" fill="none" xmlns="http://www.w3.org/2000/svg">
<g clip-path="url(#clip0_867_102)">
<path d="M20.0938 1.5C21.4227 1.5 22.5 2.57732 22.5 3.90625V16.0938C22.5 17.4227 21.4227 18.5 20.0938 18.5H18.5V20.0938C18.5 21.4227 17.4227 22.5 16.0938 22.5H3.90625C2.57732 22.5 1.5 21.4227 1.5 20.0938V7.90625C1.5 6.57732 2.57732 5.5 3.90625 5.5H5.5V3.90625C5.5 2.57732 6.57732 1.5 7.90625 1.5H20.0938ZM7 15C6.44772 15 6 15.4477 6 16C6 16.5523 6.44772 17 7 17H13L13.1025 16.9951C13.6067 16.9438 14 16.5177 14 16C14 15.4823 13.6067 15.0562 13.1025 15.0049L13 15H7ZM7.90625 3.5C7.68188 3.5 7.5 3.68188 7.5 3.90625V5.5H16.0938C17.4227 5.5 18.5 6.57732 18.5 7.90625V16.5H20.0938C20.3181 16.5 20.5 16.3181 20.5 16.0938V3.90625C20.5 3.68188 20.3181 3.5 20.0938 3.5H7.90625ZM7 11C6.44772 11 6 11.4477 6 12C6 12.5523 6.44772 13 7 13H13L13.1025 12.9951C13.6067 12.9438 14 12.5177 14 12C14 11.4823 13.6067 11.0562 13.1025 11.0049L13 11H7Z" fill="#202327"/>
</g>
<defs>
<clipPath id="clip0_867_102">
<rect width="24" height="24" fill="white"/>
</clipPath>
</defs>
</svg>
