<svg width="24" height="24" viewBox="0 0 24 24" fill="none" xmlns="http://www.w3.org/2000/svg">
<g clip-path="url(#clip0_18_15338)">
<path d="M12 1C18.0751 1 23 5.92487 23 12C23 18.0751 18.0751 23 12 23C5.92487 23 1 18.0751 1 12C1 5.92487 5.92487 1 12 1ZM10 8C9.44771 8 9 8.44772 9 9V15C9 15.5523 9.44771 16 10 16C10.5523 16 11 15.5523 11 15V9C11 8.44772 10.5523 8 10 8ZM14 8C13.4477 8 13 8.44772 13 9V15C13 15.5523 13.4477 16 14 16C14.5523 16 15 15.5523 15 15V9C15 8.44772 14.5523 8 14 8Z" fill="#202327"/>
</g>
<defs>
<clipPath id="clip0_18_15338">
<rect width="24" height="24" fill="white"/>
</clipPath>
</defs>
</svg>
