<svg width="24" height="24" viewBox="0 0 24 24" fill="none" xmlns="http://www.w3.org/2000/svg">
<path d="M9.25 5.25C10.0784 5.25 10.75 5.92157 10.75 6.75V17.25C10.75 18.0784 10.0784 18.75 9.25 18.75H7.75C6.92157 18.75 6.25 18.0784 6.25 17.25V6.75C6.25 5.92157 6.92157 5.25 7.75 5.25H9.25ZM16.75 5.25C17.5784 5.25 18.25 5.92157 18.25 6.75V17.25C18.25 18.0784 17.5784 18.75 16.75 18.75H15.25C14.4216 18.75 13.75 18.0784 13.75 17.25V6.75C13.75 5.92157 14.4216 5.25 15.25 5.25H16.75Z" fill="#202327"/>
</svg>
