<svg width="24" height="24" viewBox="0 0 24 24" fill="none" xmlns="http://www.w3.org/2000/svg">
<g clip-path="url(#clip0_255_42)">
<rect x="3" y="3" width="18" height="18" rx="2" stroke="#202327" stroke-width="2"/>
<rect x="7" y="9" width="1.8" height="6" rx="0.9" fill="#202327"/>
<rect x="15.1992" y="9" width="1.8" height="6" rx="0.9" fill="#202327"/>
<rect x="11" y="9.5" width="2" height="2" rx="1" fill="#202327"/>
<rect x="11" y="12.5498" width="2" height="2" rx="1" fill="#202327"/>
<path fill-rule="evenodd" clip-rule="evenodd" d="M2 5C2 3.34315 3.34315 2 5 2H19C20.6569 2 22 3.34315 22 5V19C22 20.6569 20.6569 22 19 22H5C3.34315 22 2 20.6569 2 19V5ZM5 4C4.44772 4 4 4.44772 4 5V19C4 19.5523 4.44772 20 5 20H19C19.5523 20 20 19.5523 20 19V5C20 4.44772 19.5523 4 19 4H5ZM7 9.9C7 9.40294 7.40294 9 7.9 9C8.39706 9 8.8 9.40294 8.8 9.9V14.1C8.8 14.5971 8.39706 15 7.9 15C7.40294 15 7 14.5971 7 14.1V9.9ZM16.1 9C15.6029 9 15.2 9.40294 15.2 9.9V14.1C15.2 14.5971 15.6029 15 16.1 15C16.597 15 17 14.5971 17 14.1V9.9C17 9.40294 16.597 9 16.1 9ZM11 10.5C11 9.94772 11.4477 9.5 12 9.5C12.5523 9.5 13 9.94772 13 10.5C13 11.0523 12.5523 11.5 12 11.5C11.4477 11.5 11 11.0523 11 10.5ZM12 12.55C11.4477 12.55 11 12.9978 11 13.55C11 14.1023 11.4477 14.55 12 14.55C12.5523 14.55 13 14.1023 13 13.55C13 12.9978 12.5523 12.55 12 12.55Z" fill="#202327"/>
</g>
<defs>
<clipPath id="clip0_255_42">
<rect width="24" height="24" fill="white"/>
</clipPath>
</defs>
</svg>
