<svg width="24" height="24" viewBox="0 0 24 24" fill="none" xmlns="http://www.w3.org/2000/svg">
<g clip-path="url(#clip0_18_15359)">
<path d="M17 21H19C19.5304 21 20.0391 20.7893 20.4142 20.4142C20.7893 20.0391 21 19.5304 21 19M21 12V15M3 7V5C3 4.46957 3.21071 3.96086 3.58579 3.58579C3.96086 3.21071 4.46957 3 5 3M9 3H12" stroke="#202327" stroke-width="2" stroke-linecap="round" stroke-linejoin="round"/>
<path d="M10 13H4C3.44772 13 3 13.4477 3 14V20C3 20.5523 3.44772 21 4 21H10C10.5523 21 11 20.5523 11 20V14C11 13.4477 10.5523 13 10 13Z" stroke="#202327" stroke-width="2" stroke-linecap="round" stroke-linejoin="round"/>
<path d="M15.017 21H19C20.1046 21 21 20.1046 21 19V5C21 3.89543 20.1046 3 19 3H5C3.89543 3 3 3.89543 3 5V9" stroke="#202327" stroke-width="2" stroke-linecap="round"/>
<path d="M15.1016 9.03662L20.1016 4.03662" stroke="#202327" stroke-width="2" stroke-linecap="round" stroke-linejoin="round"/>
<path d="M18.3984 10.2392C18.6122 10.453 18.4607 10.8187 18.1583 10.8187L14.3202 10.8181C13.7679 10.818 13.3203 10.3704 13.3203 9.81813L13.3203 5.98063C13.3203 5.67822 13.6859 5.52677 13.8998 5.74061L18.3984 10.2392Z" fill="#202327"/>
<path fill-rule="evenodd" clip-rule="evenodd" d="M10 12C11.1046 12 12 12.8954 12 14V20C12 21.1046 11.1046 22 10 22H4C2.89543 22 2 21.1046 2 20V14C2 12.8954 2.89543 12 4 12H10ZM4 20H10V14H4V20Z" fill="#202327"/>
<path d="M19 2C20.6569 2 22 3.34315 22 5V19C22 20.6569 20.6569 22 19 22H15.0166C14.4645 21.9998 14.0166 21.5521 14.0166 21C14.0166 20.4479 14.4645 20.0002 15.0166 20H19C19.5523 20 20 19.5523 20 19V5.55371L16.8564 8.69727L18.3984 10.2393C18.6122 10.4531 18.4606 10.8184 18.1582 10.8184H14.3203C13.7682 10.8183 13.3204 10.3705 13.3203 9.81836V5.98047C13.3204 5.67834 13.6856 5.52698 13.8994 5.74023L15.4424 7.2832L18.7256 4H5C4.44772 4 4 4.44772 4 5V9C4 9.55228 3.55228 10 3 10C2.44772 10 2 9.55228 2 9V5C2 3.34315 3.34315 2 5 2H19Z" fill="#202327"/>
</g>
<defs>
<clipPath id="clip0_18_15359">
<rect width="24" height="24" fill="white"/>
</clipPath>
</defs>
</svg>
