<svg width="24" height="24" viewBox="0 0 24 24" fill="none" xmlns="http://www.w3.org/2000/svg">
<g clip-path="url(#clip0_18_15342)">
<path d="M11.5 10C12.8807 10 14 11.1193 14 12.5V19.5C14 20.8807 12.8807 22 11.5 22H4.5C3.11929 22 2 20.8807 2 19.5V12.5C2 11.1193 3.11929 10 4.5 10H11.5ZM17 20C17.5523 20 18 20.4477 18 21C18 21.5523 17.5523 22 17 22C16.4477 22 16 21.5523 16 21C16 20.4477 16.4477 20 17 20ZM21 20C21.5523 20 22 20.4477 22 21C22 21.5523 21.5523 22 21 22C20.4477 22 20 21.5523 20 21C20 20.4477 20.4477 20 21 20ZM7.27637 15.5186C7.1206 15.3911 6.90599 15.3704 6.73145 15.46L6.66016 15.5049L4 17.499V19.5C4 19.7761 4.22386 20 4.5 20H11.5C11.7761 20 12 19.7761 12 19.5V19.3643C11.9832 19.3545 11.9656 19.3458 11.9492 19.335L11.8672 19.2744L7.27637 15.5186ZM21 16C21.5523 16 22 16.4477 22 17C22 17.5523 21.5523 18 21 18C20.4477 18 20 17.5523 20 17C20 16.4477 20.4477 16 21 16ZM4.5 12C4.22386 12 4 12.2239 4 12.5V15L5.45996 13.9053L5.63672 13.7842C6.53801 13.2213 7.70836 13.2877 8.54297 13.9707L12 16.7988V12.5C12 12.2239 11.7761 12 11.5 12H4.5ZM21 12C21.5523 12 22 12.4477 22 13C22 13.5523 21.5523 14 21 14C20.4477 14 20 13.5523 20 13C20 12.4477 20.4477 12 21 12ZM21.1025 2.00488C21.6067 2.05621 22 2.48232 22 3V9C22 9.55228 21.5523 10 21 10C20.4477 10 20 9.55228 20 9V5.41406L15.707 9.70703C15.3165 10.0976 14.6835 10.0976 14.293 9.70703C13.9024 9.31651 13.9024 8.68349 14.293 8.29297L18.5859 4H15C14.4477 4 14 3.55228 14 3C14 2.44772 14.4477 2 15 2H21L21.1025 2.00488ZM3 6C3.55228 6 4 6.44772 4 7C4 7.55228 3.55228 8 3 8C2.44772 8 2 7.55228 2 7C2 6.44772 2.44772 6 3 6ZM3 2C3.55228 2 4 2.44772 4 3C4 3.55228 3.55228 4 3 4C2.44772 4 2 3.55228 2 3C2 2.44772 2.44772 2 3 2ZM7 2C7.55228 2 8 2.44772 8 3C8 3.55228 7.55228 4 7 4C6.44772 4 6 3.55228 6 3C6 2.44772 6.44772 2 7 2ZM11 2C11.5523 2 12 2.44772 12 3C12 3.55228 11.5523 4 11 4C10.4477 4 10 3.55228 10 3C10 2.44772 10.4477 2 11 2Z" fill="#202327"/>
</g>
<defs>
<clipPath id="clip0_18_15342">
<rect width="24" height="24" fill="white"/>
</clipPath>
</defs>
</svg>
