<svg width="24" height="24" viewBox="0 0 24 24" fill="none" xmlns="http://www.w3.org/2000/svg">
<g clip-path="url(#clip0_18_15353)">
<path d="M10 13H4C3.44772 13 3 13.4477 3 14V20C3 20.5523 3.44772 21 4 21H10C10.5523 21 11 20.5523 11 20V14C11 13.4477 10.5523 13 10 13Z" fill="#202327" stroke="#202327" stroke-width="2" stroke-linecap="round" stroke-linejoin="round"/>
<path d="M15.017 21H19C20.1046 21 21 20.1046 21 19V5C21 3.89543 20.1046 3 19 3H5C3.89543 3 3 3.89543 3 5V9" stroke="#202327" stroke-width="2" stroke-linecap="round"/>
<path d="M16.391 7.61035L13 11.0013" stroke="#202327" stroke-width="2" stroke-linecap="round" stroke-linejoin="round"/>
<path d="M13.0938 6.40779C12.88 6.19393 13.0315 5.82828 13.3339 5.82832L17.172 5.82885C17.7242 5.82892 18.1719 6.27662 18.1719 6.82885L18.1719 10.6663C18.1719 10.9688 17.8062 11.1202 17.5924 10.9064L13.0938 6.40779Z" fill="#202327"/>
<path d="M10 12C11.1046 12 12 12.8954 12 14V20C12 21.1046 11.1046 22 10 22H4C2.89543 22 2 21.1046 2 20V14C2 12.8954 2.89543 12 4 12H10Z" fill="#202327"/>
<path d="M19 2C20.6569 2 22 3.34315 22 5V19C22 20.6569 20.6569 22 19 22H15.0166C14.4645 21.9998 14.0166 21.5521 14.0166 21C14.0166 20.4479 14.4645 20.0002 15.0166 20H19C19.5523 20 20 19.5523 20 19V5C20 4.44772 19.5523 4 19 4H5C4.44772 4 4 4.44772 4 5V9C4 9.55228 3.55228 10 3 10C2.44772 10 2 9.55228 2 9V5C2 3.34315 3.34315 2 5 2H19Z" fill="#202327"/>
<path d="M17.1719 5.8291C17.7241 5.82918 18.1719 6.27687 18.1719 6.8291V10.666C18.1719 10.9684 17.8066 11.12 17.5928 10.9062L16.0488 9.36328L13.7051 11.708C13.3146 12.0985 12.6815 12.0985 12.291 11.708C11.9007 11.3175 11.9006 10.6844 12.291 10.2939L14.6348 7.94922L13.0938 6.4082C12.8799 6.19435 13.0316 5.82809 13.334 5.82812L17.1719 5.8291Z" fill="#202327"/>
</g>
<defs>
<clipPath id="clip0_18_15353">
<rect width="24" height="24" fill="white"/>
</clipPath>
</defs>
</svg>
