<svg width="24" height="24" viewBox="0 0 24 24" fill="none" xmlns="http://www.w3.org/2000/svg">
<g clip-path="url(#clip0_18_15367)">
<path d="M10 12C11.1046 12 12 12.8954 12 14V20C12 21.1046 11.1046 22 10 22H4C2.89543 22 2 21.1046 2 20V14C2 12.8954 2.89543 12 4 12H10Z" fill="#202327"/>
<path d="M19 2C20.6569 2 22 3.34315 22 5V19C22 20.6569 20.6569 22 19 22H15.0166C14.4645 21.9998 14.0166 21.5521 14.0166 21C14.0166 20.4479 14.4645 20.0002 15.0166 20H19C19.5523 20 20 19.5523 20 19V5.55469L16.8574 8.69727L18.3994 10.2393C18.6132 10.4531 18.4616 10.8184 18.1592 10.8184H14.3213C13.7691 10.8183 13.3214 10.3705 13.3213 9.81836V5.98047C13.3214 5.67834 13.6865 5.52698 13.9004 5.74023L15.4434 7.2832L18.7266 4H5C4.44772 4 4 4.44772 4 5V9C4 9.55228 3.55228 10 3 10C2.44772 10 2 9.55228 2 9V5C2 3.34315 3.34315 2 5 2H19Z" fill="#202327"/>
</g>
<defs>
<clipPath id="clip0_18_15367">
<rect width="24" height="24" fill="white"/>
</clipPath>
</defs>
</svg>
