<svg width="24" height="24" viewBox="0 0 24 24" fill="none" xmlns="http://www.w3.org/2000/svg">
<g clip-path="url(#clip0_18_15363)">
<path d="M17 21.75C17.4142 21.75 17.75 21.4142 17.75 21C17.75 20.5858 17.4142 20.25 17 20.25C16.5858 20.25 16.25 20.5858 16.25 21C16.25 21.4142 16.5858 21.75 17 21.75Z" fill="#202327"/>
<path d="M3 6.25C3.41421 6.25 3.75 6.58579 3.75 7C3.75 7.41421 3.41421 7.75 3 7.75C2.58579 7.75 2.25 7.41421 2.25 7C2.25 6.58579 2.58579 6.25 3 6.25Z" fill="#202327"/>
<path d="M21 21.75C21.4142 21.75 21.75 21.4142 21.75 21C21.75 20.5858 21.4142 20.25 21 20.25C20.5858 20.25 20.25 20.5858 20.25 21C20.25 21.4142 20.5858 21.75 21 21.75Z" fill="#202327"/>
<path d="M3 2.25C3.41421 2.25 3.75 2.58579 3.75 3C3.75 3.41421 3.41421 3.75 3 3.75C2.58579 3.75 2.25 3.41421 2.25 3C2.25 2.58579 2.58579 2.25 3 2.25Z" fill="#202327"/>
<path d="M21 17.75C21.4142 17.75 21.75 17.4142 21.75 17C21.75 16.5858 21.4142 16.25 21 16.25C20.5858 16.25 20.25 16.5858 20.25 17C20.25 17.4142 20.5858 17.75 21 17.75Z" fill="#202327"/>
<path d="M7 2.25C7.41421 2.25 7.75 2.58579 7.75 3C7.75 3.41421 7.41421 3.75 7 3.75C6.58579 3.75 6.25 3.41421 6.25 3C6.25 2.58579 6.58579 2.25 7 2.25Z" fill="#202327"/>
<path d="M21 13.75C21.4142 13.75 21.75 13.4142 21.75 13C21.75 12.5858 21.4142 12.25 21 12.25C20.5858 12.25 20.25 12.5858 20.25 13C20.25 13.4142 20.5858 13.75 21 13.75Z" fill="#202327"/>
<path d="M11 2.25C11.4142 2.25 11.75 2.58579 11.75 3C11.75 3.41421 11.4142 3.75 11 3.75C10.5858 3.75 10.25 3.41421 10.25 3C10.25 2.58579 10.5858 2.25 11 2.25Z" fill="#202327"/>
<path d="M17.5 21C17.5 20.7239 17.2761 20.5 17 20.5C16.7239 20.5 16.5 20.7239 16.5 21C16.5 21.2761 16.7239 21.5 17 21.5C17.2761 21.5 17.5 21.2761 17.5 21ZM21.5 21C21.5 20.7239 21.2761 20.5 21 20.5C20.7239 20.5 20.5 20.7239 20.5 21C20.5 21.2761 20.7239 21.5 21 21.5C21.2761 21.5 21.5 21.2761 21.5 21ZM21.5 17C21.5 16.7239 21.2761 16.5 21 16.5C20.7239 16.5 20.5 16.7239 20.5 17C20.5 17.2761 20.7239 17.5 21 17.5C21.2761 17.5 21.5 17.2761 21.5 17ZM21.5 13C21.5 12.7239 21.2761 12.5 21 12.5C20.7239 12.5 20.5 12.7239 20.5 13C20.5 13.2761 20.7239 13.5 21 13.5C21.2761 13.5 21.5 13.2761 21.5 13ZM3.5 7C3.5 6.72386 3.27614 6.5 3 6.5C2.72386 6.5 2.5 6.72386 2.5 7C2.5 7.27614 2.72386 7.5 3 7.5C3.27614 7.5 3.5 7.27614 3.5 7ZM3.5 3C3.5 2.72386 3.27614 2.5 3 2.5C2.72386 2.5 2.5 2.72386 2.5 3C2.5 3.27614 2.72386 3.5 3 3.5C3.27614 3.5 3.5 3.27614 3.5 3ZM7.5 3C7.5 2.72386 7.27614 2.5 7 2.5C6.72386 2.5 6.5 2.72386 6.5 3C6.5 3.27614 6.72386 3.5 7 3.5C7.27614 3.5 7.5 3.27614 7.5 3ZM11.5 3C11.5 2.72386 11.2761 2.5 11 2.5C10.7239 2.5 10.5 2.72386 10.5 3C10.5 3.27614 10.7239 3.5 11 3.5C11.2761 3.5 11.5 3.27614 11.5 3ZM18 21C18 21.5523 17.5523 22 17 22C16.4477 22 16 21.5523 16 21C16 20.4477 16.4477 20 17 20C17.5523 20 18 20.4477 18 21ZM22 21C22 21.5523 21.5523 22 21 22C20.4477 22 20 21.5523 20 21C20 20.4477 20.4477 20 21 20C21.5523 20 22 20.4477 22 21ZM22 17C22 17.5523 21.5523 18 21 18C20.4477 18 20 17.5523 20 17C20 16.4477 20.4477 16 21 16C21.5523 16 22 16.4477 22 17ZM22 13C22 13.5523 21.5523 14 21 14C20.4477 14 20 13.5523 20 13C20 12.4477 20.4477 12 21 12C21.5523 12 22 12.4477 22 13ZM4 7C4 7.55228 3.55228 8 3 8C2.44772 8 2 7.55228 2 7C2 6.44772 2.44772 6 3 6C3.55228 6 4 6.44772 4 7ZM4 3C4 3.55228 3.55228 4 3 4C2.44772 4 2 3.55228 2 3C2 2.44772 2.44772 2 3 2C3.55228 2 4 2.44772 4 3ZM8 3C8 3.55228 7.55228 4 7 4C6.44772 4 6 3.55228 6 3C6 2.44772 6.44772 2 7 2C7.55228 2 8 2.44772 8 3ZM12 3C12 3.55228 11.5523 4 11 4C10.4477 4 10 3.55228 10 3C10 2.44772 10.4477 2 11 2C11.5523 2 12 2.44772 12 3Z" fill="#202327"/>
<path d="M15 3H21V9" fill="#202327"/>
<path d="M21 3L15 9L21 3Z" fill="#202327"/>
<path d="M19.4141 6L20 6.58594V5.41406L19.4141 6ZM18 4.58594L18.5859 4H17.4141L18 4.58594ZM22 9C22 9.40442 21.7564 9.76902 21.3828 9.92383C21.0091 10.0786 20.579 9.99303 20.293 9.70703L18 7.41406L15.707 9.70703C15.3165 10.0976 14.6835 10.0976 14.293 9.70703C13.9024 9.31651 13.9024 8.68349 14.293 8.29297L16.5859 6L14.293 3.70703C14.007 3.42103 13.9214 2.99086 14.0762 2.61719C14.231 2.24359 14.5956 2 15 2H21L21.1025 2.00488C21.6067 2.05621 22 2.48232 22 3V9Z" fill="#202327"/>
<path d="M6.67383 15.4951C6.85378 15.3698 7.09471 15.3762 7.26758 15.5117L13.5176 20.9697C13.0629 21.5928 12.3304 22 11.5 22H4.5C3.11929 22 2 20.8807 2 19.5V19.4629L6.67383 15.4951ZM11.5 10C12.8807 10 14 11.1193 14 12.5V18.7354L8.56738 13.9912L8.54297 13.9707L8.37109 13.8418C7.49433 13.2412 6.32163 13.2584 5.45898 13.9053L5.41211 13.9434L2 16.8389V12.5C2 11.1193 3.11929 10 4.5 10H11.5Z" fill="#202327"/>
</g>
<defs>
<clipPath id="clip0_18_15363">
<rect width="24" height="24" fill="white"/>
</clipPath>
</defs>
</svg>
