<svg width="24" height="24" viewBox="0 0 24 24" fill="none" xmlns="http://www.w3.org/2000/svg">
<g clip-path="url(#clip0_308_36)">
<path d="M10 2.38179C10 1.75715 9.43149 1.28313 8.83321 1.46268C4.30174 2.8226 1 7.02572 1 12C1 18.0751 5.92487 23 12 23C16.9743 23 21.1774 19.6983 22.5373 15.1668C22.7169 14.5685 22.2428 14 21.6182 14H12C10.8954 14 10 13.1046 10 12V2.38179Z" fill="#202327"/>
<path d="M12.9993 1.04478C12.4492 0.995245 12 1.44772 12 2V10C12 11.1046 12.8954 12 14 12H22C22.5523 12 23.0048 11.5508 22.9552 11.0007C22.48 5.72301 18.277 1.52002 12.9993 1.04478Z" fill="#202327"/>
</g>
<defs>
<clipPath id="clip0_308_36">
<rect width="24" height="24" fill="white"/>
</clipPath>
</defs>
</svg>
