<svg width="24" height="24" viewBox="0 0 24 24" fill="none" xmlns="http://www.w3.org/2000/svg">
<g clip-path="url(#clip0_308_25)">
<path fill-rule="evenodd" clip-rule="evenodd" d="M10.9994 2.95502C10.9994 1.8815 11.8906 0.88935 13.0969 1.00998C15.6224 1.26302 17.9828 2.38163 19.7777 4.17615C21.5727 5.97067 22.6918 8.33068 22.9454 10.8561C23.0661 12.0609 22.0746 12.9539 21.0005 12.954C21.0005 12.954 21.0006 12.954 21.0005 12.954L12.9995 12.955C12.4691 12.955 11.9602 12.7443 11.5852 12.3692C11.2101 11.9942 10.9994 11.4854 10.9994 10.955V2.95502ZM12.9994 3.01081C15.0273 3.23728 16.9192 4.14639 18.3637 5.59052C19.8081 7.0346 20.7176 8.92625 20.9446 10.954L12.9994 10.955V3.01081ZM8.91694 2.38421C9.13783 2.8904 8.90655 3.47981 8.40036 3.70071C7.05296 4.28869 5.8701 5.19779 4.9552 6.34853C4.04031 7.49927 3.42123 8.85661 3.1521 10.3019C2.88297 11.7471 2.97197 13.2363 3.41133 14.6393C3.8507 16.0422 4.62704 17.3161 5.67248 18.3497C6.71793 19.3833 8.00065 20.145 9.40849 20.5683C10.8163 20.9916 12.3065 21.0636 13.7486 20.778C15.1907 20.4924 16.5408 19.8579 17.6811 18.9299C18.8213 18.0019 19.7168 16.8087 20.2894 15.4547C20.5045 14.946 21.0912 14.708 21.5999 14.9231C22.1085 15.1382 22.3465 15.725 22.1314 16.2336C21.4316 17.8886 20.3371 19.3469 18.9435 20.4811C17.5499 21.6153 15.8997 22.3908 14.1371 22.7399C12.3746 23.089 10.5533 23.001 8.8326 22.4836C7.1119 21.9662 5.54413 21.0352 4.26637 19.772C2.9886 18.5087 2.03974 16.9517 1.50274 15.237C0.965745 13.5223 0.856961 11.7022 1.1859 9.93574C1.51484 8.1693 2.27149 6.51033 3.38969 5.10387C4.5079 3.69742 5.95361 2.58629 7.60044 1.86764C8.10663 1.64675 8.69604 1.87803 8.91694 2.38421Z" fill="#202327"/>
</g>
<defs>
<clipPath id="clip0_308_25">
<rect width="24" height="24" fill="white"/>
</clipPath>
</defs>
</svg>
