<svg width="24" height="24" viewBox="0 0 24 24" fill="none" xmlns="http://www.w3.org/2000/svg">
<g clip-path="url(#clip0_18_15398)">
<path d="M12 1C18.0751 1 23 5.92487 23 12C23 18.0751 18.0751 23 12 23C5.92487 23 1 18.0751 1 12C1 5.92487 5.92487 1 12 1ZM10.2773 7.58398C10.1239 7.4817 9.92625 7.47256 9.76367 7.55957C9.62176 7.63576 9.52652 7.77473 9.50488 7.93164L9.5 8V16C9.50008 16.1841 9.60144 16.3534 9.76367 16.4404C9.9262 16.5274 10.124 16.5182 10.2773 16.416L16.2773 12.416C16.4164 12.3233 16.4999 12.1671 16.5 12C16.5 11.8329 16.4164 11.6767 16.2773 11.584L10.2773 7.58398Z" fill="#202327"/>
</g>
<defs>
<clipPath id="clip0_18_15398">
<rect width="24" height="24" fill="white"/>
</clipPath>
</defs>
</svg>
