<svg width="24" height="24" viewBox="0 0 24 24" fill="none" xmlns="http://www.w3.org/2000/svg">
<g clip-path="url(#clip0_18_12699)">
<path d="M11.4688 1.01465C12.1554 1.08297 12.8008 1.3867 13.293 1.87891L21.999 10.585L22.1152 10.708C22.6802 11.3356 22.9951 12.1516 22.9951 13L22.9912 13.1689C22.9496 14.0124 22.597 14.8132 21.999 15.415L15.415 21.999C14.8132 22.597 14.0124 22.9496 13.1689 22.9912L13 22.9951C12.0951 22.9951 11.2268 22.6368 10.585 21.999L1.87891 13.293C1.3867 12.8008 1.08297 12.1554 1.01465 11.4688L1 11.1719V4C1 3.20435 1.3163 2.44152 1.87891 1.87891C2.44152 1.3163 3.20435 1 4 1H11.1719L11.4688 1.01465ZM7 5C5.89543 5 5 5.89543 5 7C5 8.10457 5.89543 9 7 9C8.10457 9 9 8.10457 9 7C9 5.89543 8.10457 5 7 5Z" fill="#202327"/>
</g>
<defs>
<clipPath id="clip0_18_12699">
<rect width="24" height="24" fill="white"/>
</clipPath>
</defs>
</svg>
