<svg width="24" height="24" viewBox="0 0 24 24" fill="none" xmlns="http://www.w3.org/2000/svg">
<path d="M17.5363 12.514L16.8403 10.718C16.8403 10.697 16.8503 10.343 16.8503 10.16C16.8493 7.088 15.4473 4 12.0013 4C8.55533 4 7.15333 7.088 7.15333 10.16C7.15333 10.343 7.16233 10.697 7.16333 10.718L6.46733 12.514C6.27733 13.029 6.08733 13.564 5.95033 14.024C5.29333 16.213 5.50633 17.119 5.66833 17.139C6.01633 17.182 7.02233 15.491 7.02233 15.491C7.02233 16.471 7.51033 17.749 8.56433 18.671C8.17033 18.798 7.68633 18.991 7.37633 19.228C7.09633 19.442 7.13133 19.659 7.18233 19.748C7.40233 20.133 10.9723 19.993 12.0023 19.873C13.0323 19.993 16.6013 20.133 16.8223 19.747C16.8723 19.659 16.9073 19.442 16.6283 19.228C16.3173 18.991 15.8333 18.798 15.4383 18.672C16.4933 17.749 16.9803 16.47 16.9803 15.491C16.9803 15.491 17.9873 17.182 18.3353 17.139C18.4973 17.119 18.7133 16.211 18.0523 14.023C17.9123 13.56 17.7273 13.029 17.5363 12.514ZM18.5573 20.741C18.1843 21.393 17.7243 21.633 17.1193 21.798C16.8793 21.863 16.6213 21.906 16.3253 21.936C15.8853 21.981 15.3393 22.001 14.7123 22C13.8078 21.9982 12.9037 21.9595 12.0023 21.884C11.3103 21.949 10.2173 21.998 9.29233 22C8.75359 22.0057 8.21491 21.9844 7.67833 21.936C7.41067 21.9117 7.14545 21.8655 6.88533 21.798C6.28033 21.634 5.82033 21.393 5.44533 20.739C5.15913 20.2385 5.0737 19.6481 5.20633 19.087C4.61433 18.955 4.20533 18.604 3.92733 18.176C3.78704 17.9574 3.68271 17.7177 3.61833 17.466C3.52871 17.1045 3.48967 16.7323 3.50233 16.36C3.51533 15.575 3.68933 14.598 4.03433 13.448C4.17433 12.982 4.36133 12.44 4.60233 11.793L5.15533 10.363C5.15422 10.2953 5.15355 10.2277 5.15333 10.16C5.15333 5.605 7.58933 2 12.0013 2C16.4143 2 18.8493 5.605 18.8493 10.16L18.8483 10.363L19.4013 11.793L19.4113 11.819C19.6363 12.425 19.8243 12.972 19.9673 13.445C20.3153 14.595 20.4893 15.574 20.5023 16.361C20.5093 16.768 20.4723 17.137 20.3843 17.469C20.3183 17.715 20.2233 17.949 20.0743 18.177C19.7983 18.604 19.3903 18.953 18.7973 19.087C18.9273 19.641 18.8523 20.227 18.5573 20.741Z" fill="#202327"/>
</svg>
