<svg width="24" height="24" viewBox="0 0 24 24" fill="none" xmlns="http://www.w3.org/2000/svg">
<g clip-path="url(#clip0_18_13555)">
<path fill-rule="evenodd" clip-rule="evenodd" d="M12 1C15.0504 1 17.8122 2.24338 19.8037 4.24805C19.9908 4.43646 20.0959 4.69149 20.0947 4.95703C20.0935 5.22244 19.9865 5.47639 19.7979 5.66309L14.666 10.7383C14.8476 11.1214 14.9531 11.5479 14.9531 12C14.9531 13.6309 13.6309 14.9531 12 14.9531C10.3691 14.9531 9.04688 13.6309 9.04688 12C9.04688 10.3691 10.3691 9.04688 12 9.04688C12.447 9.04688 12.8693 9.14938 13.249 9.32715L17.6377 4.98633C16.0943 3.74389 14.1351 3 12 3C7.02944 3 3 7.02944 3 12C3 16.9706 7.02944 21 12 21C16.9706 21 21 16.9706 21 12C21 11.5221 20.963 11.0534 20.8916 10.5967L20.8086 10.1436L20.793 10.042C20.7398 9.53808 21.0754 9.06622 21.582 8.95996C22.0887 8.85376 22.5866 9.15087 22.7402 9.63379L22.7656 9.7334L22.8672 10.2871C22.9546 10.8458 23 11.4179 23 12C23 18.0751 18.0751 23 12 23C5.92487 23 1 18.0751 1 12C1 5.92487 5.92487 1 12 1ZM12 10.9531C11.4218 10.9531 10.9531 11.4218 10.9531 12C10.9531 12.5782 11.4218 13.0469 12 13.0469C12.5782 13.0469 13.0469 12.5782 13.0469 12C13.0469 11.4218 12.5782 10.9531 12 10.9531Z" fill="#202327"/>
</g>
<defs>
<clipPath id="clip0_18_13555">
<rect width="24" height="24" fill="white"/>
</clipPath>
</defs>
</svg>
