<svg width="24" height="24" viewBox="0 0 24 24" fill="none" xmlns="http://www.w3.org/2000/svg">
<g clip-path="url(#clip0_18_13561)">
<path d="M20.943 7.41922C21.457 7.21766 22.0371 7.4707 22.2389 7.98465C22.871 9.59467 23.1147 11.3312 22.9499 13.053C22.785 14.7747 22.2158 16.433 21.2897 17.8938C20.3637 19.3546 19.1065 20.5766 17.6198 21.4602C16.1329 22.3439 14.4579 22.8645 12.7321 22.9798C11.0065 23.0949 9.27818 22.8014 7.68717 22.1233C6.09611 21.4452 4.68693 20.402 3.57486 19.0774C2.46277 17.7527 1.67909 16.1839 1.28678 14.4993C0.894493 12.8148 0.904741 11.0618 1.31705 9.38211C1.44869 8.84591 1.98984 8.51735 2.52604 8.64871C3.06239 8.78039 3.39111 9.32231 3.25943 9.85867C2.92203 11.233 2.91307 12.6679 3.23404 14.0462C3.55504 15.4243 4.19634 16.7075 5.10611 17.7913C6.01602 18.8752 7.16949 19.7286 8.47135 20.2835C9.77317 20.8383 11.1873 21.0789 12.5993 20.9846C14.0111 20.8904 15.3809 20.4643 16.5973 19.7415C17.8139 19.0185 18.8435 18.0187 19.6012 16.8235C20.3589 15.6284 20.8237 14.2712 20.9587 12.8626C21.0935 11.4539 20.8947 10.0324 20.3776 8.71512C20.176 8.20109 20.429 7.621 20.943 7.41922ZM12.0085 17.0003C12.5606 17.0005 13.0085 17.4481 13.0085 18.0003C13.0083 18.5523 12.5605 19.0001 12.0085 19.0003H11.9977C11.4457 19.0001 10.9978 18.5523 10.9977 18.0003C10.9977 17.4481 11.4456 17.0005 11.9977 17.0003H12.0085ZM17.9313 10.6614C18.4825 10.63 18.9544 11.0516 18.986 11.6028C19.0495 12.7126 18.8484 13.8218 18.3981 14.8382C17.9477 15.8546 17.261 16.749 16.3962 17.4475C15.9665 17.7945 15.3369 17.7277 14.9899 17.2981C14.6431 16.8686 14.7099 16.2389 15.1393 15.8919C15.7571 15.3929 16.2473 14.7536 16.569 14.0276C16.8906 13.3017 17.0352 12.5098 16.9899 11.7171C16.9584 11.1657 17.3799 10.6929 17.9313 10.6614ZM12.9977 12.0003C12.9977 11.746 12.9021 11.5146 12.7458 11.3382C12.7307 11.3248 12.7153 11.3116 12.7008 11.2971C12.6872 11.2835 12.6754 11.2684 12.6628 11.2542C12.486 11.0965 12.2532 11.0003 11.9977 11.0003C11.4456 11.0005 10.9977 11.4481 10.9977 12.0003C10.9978 12.5523 11.4457 13.0001 11.9977 13.0003C12.5499 13.0003 12.9976 12.5524 12.9977 12.0003ZM4.00846 5.00027C4.56057 5.00048 5.00846 5.44811 5.00846 6.00027C5.00833 6.55232 4.56049 7.00007 4.00846 7.00027H3.99772C3.44568 7.00007 2.99785 6.55232 2.99772 6.00027C2.99772 5.44811 3.4456 5.00047 3.99772 5.00027H4.00846ZM14.9977 12.0003C14.9976 13.657 13.6545 15.0003 11.9977 15.0003C10.3411 15.0001 8.99785 13.6569 8.99772 12.0003C8.99772 10.3435 10.341 9.00047 11.9977 9.00027C12.4603 9.00027 12.8975 9.10726 13.2887 9.29422L14.7546 7.8284C14.4695 7.63857 14.1649 7.4781 13.8454 7.34988C13.2142 7.09664 12.5379 6.97447 11.8581 6.99148C11.1781 7.00857 10.508 7.16481 9.89029 7.44949C9.27269 7.73415 8.71995 8.14202 8.26529 8.64773C7.8106 9.15352 7.46331 9.7465 7.24576 10.3909C7.02822 11.0354 6.94452 11.7178 6.99967 12.3958C7.05483 13.0737 7.24726 13.7335 7.56607 14.3343C7.88491 14.9351 8.32365 15.4642 8.85416 15.8899C9.28484 16.2356 9.35408 16.8654 9.00846 17.2962C8.66281 17.7269 8.03295 17.7951 7.60221 17.4495C6.8596 16.8536 6.2458 16.1128 5.79947 15.2718C5.35312 14.4306 5.08372 13.507 5.0065 12.5579C4.9293 11.6088 5.04667 10.6535 5.35123 9.75125C5.6558 8.84911 6.14142 8.01891 6.77799 7.31082C7.41459 6.60269 8.18859 6.03164 9.05338 5.63308C9.91821 5.23454 10.8553 5.01639 11.8073 4.99246C12.7591 4.96855 13.7059 5.13895 14.5895 5.49344C15.1609 5.72272 15.6983 6.02666 16.1881 6.3948L17.6129 4.97C16.3362 3.94896 14.801 3.28948 13.1676 3.07449C11.2018 2.81575 9.20551 3.21305 7.48893 4.20535C7.0108 4.48178 6.39914 4.31824 6.12272 3.84012C5.84645 3.36202 6.00989 2.75029 6.48795 2.4739C8.58592 1.26112 11.0258 0.774935 13.4284 1.09109C15.6813 1.38762 17.7836 2.37426 19.4489 3.90945L19.776 4.22293L19.8444 4.2991C20.1644 4.69188 20.141 5.27101 19.7751 5.63699L14.7028 10.7083C14.8901 11.0999 14.9977 11.5372 14.9977 12.0003Z" fill="#202327"/>
</g>
<defs>
<clipPath id="clip0_18_13561">
<rect width="24" height="24" fill="white"/>
</clipPath>
</defs>
</svg>
