<svg width="24" height="24" viewBox="0 0 24 24" fill="none" xmlns="http://www.w3.org/2000/svg">
<path fill-rule="evenodd" clip-rule="evenodd" d="M11.9531 3.72581C7.3551 3.72581 3.62767 7.45325 3.62767 12.0513C3.62767 16.6493 7.3551 20.3767 11.9531 20.3767C16.5511 20.3767 20.2786 16.6493 20.2786 12.0513C20.2786 11.555 20.2352 11.0695 20.1524 10.5982C20.0723 10.1428 20.3765 9.70867 20.8319 9.62856C21.2874 9.54846 21.7215 9.85271 21.8016 10.3081C21.9012 10.8748 21.9531 11.4573 21.9531 12.0513C21.9531 17.5741 17.476 22.0513 11.9531 22.0513C6.43028 22.0513 1.95312 17.5741 1.95312 12.0513C1.95312 6.52842 6.43028 2.05127 11.9531 2.05127C12.637 2.05127 13.3056 2.12003 13.9522 2.25129C14.4054 2.34328 14.6982 2.78522 14.6062 3.23839C14.5142 3.69156 14.0723 3.98435 13.6191 3.89237C13.0815 3.78324 12.5245 3.72581 11.9531 3.72581ZM11.9532 7.79816C9.60421 7.79816 7.70002 9.70236 7.70002 12.0513C7.70002 14.4002 9.60421 16.3044 11.9532 16.3044C14.3021 16.3044 16.2063 14.4002 16.2063 12.0513C16.2063 11.5889 16.5811 11.214 17.0436 11.214C17.506 11.214 17.8808 11.5889 17.8808 12.0513C17.8808 15.3251 15.2269 17.979 11.9532 17.979C8.67939 17.979 6.02548 15.3251 6.02548 12.0513C6.02548 8.77753 8.67939 6.12362 11.9532 6.12362C12.4156 6.12362 12.7904 6.49848 12.7904 6.96089C12.7904 7.4233 12.4156 7.79816 11.9532 7.79816ZM11.9531 12.051L21.274 7.94979C20.2701 5.67175 18.4556 3.83133 16.1959 2.79396L11.9531 12.051Z" fill="#202327"/>
</svg>
