<svg width="24" height="24" viewBox="0 0 24 24" fill="none" xmlns="http://www.w3.org/2000/svg">
<g clip-path="url(#clip0_1945_195)">
<path d="M12 2C17.5228 2 22 6.47717 22 12C22 17.5228 17.5228 22 12 22C9.41164 22 7.05139 21.0154 5.27637 19.4023L4.92871 19.0713L4.86035 18.9951C4.54015 18.6025 4.56298 18.0233 4.92871 17.6572C5.29482 17.2911 5.87481 17.2676 6.26758 17.5879L6.34277 17.6572L6.62109 17.9219C8.04248 19.2139 9.92868 20 12 20C16.4183 20 20 16.4183 20 12C20 7.58173 16.4183 4 12 4C9.79063 4.00004 7.79151 4.894 6.34277 6.34277C6.06373 6.62182 5.66211 7.05418 5.25293 7.5H7C7.55228 7.5 8 7.94772 8 8.5C8 9.05228 7.55228 9.5 7 9.5H3C2.99215 9.5 2.98437 9.49823 2.97656 9.49805C2.96483 9.49778 2.95313 9.49775 2.94141 9.49707C2.9197 9.49581 2.89827 9.49383 2.87695 9.49121C2.85766 9.48883 2.8385 9.48593 2.81934 9.48242C2.81083 9.48087 2.80237 9.47931 2.79395 9.47754C2.77232 9.473 2.75085 9.4679 2.72949 9.46191C2.71406 9.45758 2.69871 9.45328 2.68359 9.44824C2.67636 9.44583 2.6693 9.44301 2.66211 9.44043C2.64097 9.43283 2.62006 9.42497 2.59961 9.41602C2.57913 9.40706 2.55905 9.39713 2.53906 9.38672C2.53182 9.38294 2.52472 9.37895 2.51758 9.375C2.49975 9.36515 2.48219 9.35478 2.46484 9.34375C2.4537 9.33667 2.44248 9.32977 2.43164 9.32227C2.41301 9.30936 2.39489 9.29558 2.37695 9.28125C2.37043 9.27604 2.36381 9.27099 2.35742 9.26562C2.35039 9.25972 2.34285 9.25418 2.33594 9.24805C2.32469 9.23806 2.3144 9.22717 2.30371 9.2168C2.30024 9.21343 2.29639 9.21045 2.29297 9.20703L2.2627 9.17676C2.25327 9.16651 2.24525 9.15509 2.23633 9.14453C2.2296 9.13657 2.22328 9.12829 2.2168 9.12012C2.20533 9.10565 2.19416 9.09113 2.18359 9.07617C2.17426 9.06298 2.16494 9.04979 2.15625 9.03613C2.14714 9.0218 2.13918 9.00689 2.13086 8.99219C2.12281 8.978 2.11479 8.96383 2.10742 8.94922C2.10251 8.93944 2.09735 8.92983 2.09277 8.91992C2.08285 8.89852 2.07385 8.87668 2.06543 8.85449C2.06149 8.84407 2.05729 8.83377 2.05371 8.82324C2.048 8.80652 2.04292 8.78957 2.03809 8.77246C2.03298 8.75435 2.02849 8.73611 2.02441 8.71777C2.02204 8.70707 2.01961 8.69637 2.01758 8.68555C2.01398 8.66643 2.01127 8.6472 2.00879 8.62793C2.00656 8.61046 2.00425 8.59293 2.00293 8.5752C2.00183 8.56058 2.00242 8.5459 2.00195 8.53125C2.00163 8.52086 2 8.51047 2 8.5V4.5C2 3.94772 2.44772 3.5 3 3.5C3.55228 3.5 4 3.94772 4 4.5V5.90723C4.34371 5.53556 4.67629 5.18113 4.92871 4.92871C6.7372 3.12018 9.2389 2.00004 12 2Z" fill="#202327"/>
<path d="M10.0322 8.3584C10.202 8.26569 10.4094 8.27349 10.5723 8.37793L15.5137 11.5547C15.6652 11.6521 15.7568 11.8199 15.7568 12C15.7568 12.1801 15.6652 12.3479 15.5137 12.4453L10.5723 15.6221C10.4094 15.7265 10.2021 15.7343 10.0322 15.6416C9.86237 15.5488 9.7569 15.3703 9.75684 15.1768V8.82324L9.76172 8.75195C9.7843 8.5869 9.88357 8.4396 10.0322 8.3584Z" fill="#202327"/>
</g>
<defs>
<clipPath id="clip0_1945_195">
<rect width="24" height="24" fill="white"/>
</clipPath>
</defs>
</svg>
