<svg width="24" height="24" viewBox="0 0 24 24" fill="none" xmlns="http://www.w3.org/2000/svg">
<path d="M2 10C2 9.44771 2.44772 9 3 9C3.55228 9 4 9.44772 4 10V20C4 20.5523 3.55228 21 3 21C2.44772 21 2 20.5523 2 20V10ZM8 4C8 3.44772 8.44772 3 9 3C9.55228 3 10 3.44772 10 4V20C10 20.5523 9.55228 21 9 21C8.44772 21 8 20.5523 8 20V4ZM14 13C14 12.4477 14.4477 12 15 12C15.5523 12 16 12.4477 16 13V20C16 20.5523 15.5523 21 15 21C14.4477 21 14 20.5523 14 20V13ZM20 7C20 6.44772 20.4477 6 21 6C21.5523 6 22 6.44772 22 7V20C22 20.5523 21.5523 21 21 21C20.4477 21 20 20.5523 20 20V7Z" fill="#202327"/>
</svg>
