<svg width="24" height="24" viewBox="0 0 24 24" fill="none" xmlns="http://www.w3.org/2000/svg">
<path d="M11.0017 14V11H13.0017V14H18.0017C18.2669 14 18.5213 14.1054 18.7088 14.2929C18.8964 14.4804 19.0017 14.7348 19.0017 15V21C19.0017 21.2652 18.8964 21.5196 18.7088 21.7071C18.5213 21.8946 18.2669 22 18.0017 22H6.00172C5.7365 22 5.48215 21.8946 5.29461 21.7071C5.10708 21.5196 5.00172 21.2652 5.00172 21V15C5.00172 14.7348 5.10708 14.4804 5.29461 14.2929C5.48215 14.1054 5.7365 14 6.00172 14H11.0017ZM2.51172 8.837C3.83672 4.864 7.58572 2 12.0017 2C16.4177 2 20.1677 4.864 21.4917 8.837L19.5937 9.469C19.0624 7.87573 18.0433 6.49 16.6808 5.50805C15.3182 4.5261 13.6812 3.99771 12.0017 3.99771C10.3222 3.99771 8.68524 4.5261 7.32268 5.50805C5.96012 6.49 4.94103 7.87573 4.40972 9.469L2.51272 8.837H2.51172ZM6.30772 10.102C6.70658 8.90741 7.47104 7.86853 8.49292 7.13239C9.51479 6.39625 10.7423 6.00015 12.0017 6.00015C13.2611 6.00015 14.4886 6.39625 15.5105 7.13239C16.5324 7.86853 17.2969 8.90741 17.6957 10.102L15.7977 10.735C15.5318 9.93861 15.0222 9.24602 14.3409 8.75526C13.6597 8.2645 12.8413 8.00043 12.0017 8.00043C11.1621 8.00043 10.3438 8.2645 9.66252 8.75526C8.98127 9.24602 8.47162 9.93861 8.20572 10.735L6.30772 10.102ZM7.00172 16V20H17.0017V16H7.00172Z" fill="#151826"/>
</svg>
