<svg width="24" height="24" viewBox="0 0 24 24" fill="none" xmlns="http://www.w3.org/2000/svg">
<path fill-rule="evenodd" clip-rule="evenodd" d="M5 4C4.73478 4 4.48043 4.10536 4.29289 4.29289C4.10536 4.48043 4 4.73478 4 5V7C4 7.55228 3.55228 8 3 8C2.44772 8 2 7.55228 2 7V5C2 4.20435 2.31607 3.44129 2.87868 2.87868C3.44129 2.31607 4.20435 2 5 2H7C7.55228 2 8 2.44772 8 3C8 3.55228 7.55228 4 7 4H5ZM16 3C16 2.44772 16.4477 2 17 2H19C19.7957 2 20.5587 2.31607 21.1213 2.87868C21.6839 3.44129 22 4.20435 22 5V7C22 7.55228 21.5523 8 21 8C20.4477 8 20 7.55228 20 7V5C20 4.73478 19.8946 4.48043 19.7071 4.29289C19.5196 4.10536 19.2652 4 19 4H17C16.4477 4 16 3.55228 16 3ZM6 8C6 6.89543 6.89543 6 8 6H11C12.1046 6 13 6.89543 13 8V11C13 12.1046 12.1046 13 11 13H8C6.89543 13 6 12.1046 6 11V8ZM11 8H8V11H11V8ZM17 6C17.5523 6 18 6.44772 18 7V8C18 8.55228 17.5523 9 17 9C16.4477 9 16 8.55228 16 8V7C16 6.44772 16.4477 6 17 6ZM17 11C17.5523 11 18 11.4477 18 12V16C18 16.5304 17.7893 17.0391 17.4142 17.4142C17.0391 17.7893 16.5304 18 16 18H12C11.4477 18 11 17.5523 11 17C11 16.4477 11.4477 16 12 16H16V12C16 11.4477 16.4477 11 17 11ZM3 16C3.55228 16 4 16.4477 4 17V19C4 19.2652 4.10536 19.5196 4.29289 19.7071C4.48043 19.8946 4.73478 20 5 20H7C7.55228 20 8 20.4477 8 21C8 21.5523 7.55228 22 7 22H5C4.20435 22 3.44129 21.6839 2.87868 21.1213C2.31607 20.5587 2 19.7957 2 19V17C2 16.4477 2.44772 16 3 16ZM6 17C6 16.4477 6.44772 16 7 16H7.01C7.56228 16 8.01 16.4477 8.01 17C8.01 17.5523 7.56228 18 7.01 18H7C6.44772 18 6 17.5523 6 17ZM21 16C21.5523 16 22 16.4477 22 17V19C22 19.7957 21.6839 20.5587 21.1213 21.1213C20.5587 21.6839 19.7957 22 19 22H17C16.4477 22 16 21.5523 16 21C16 20.4477 16.4477 20 17 20H19C19.2652 20 19.5196 19.8946 19.7071 19.7071C19.8946 19.5196 20 19.2652 20 19V17C20 16.4477 20.4477 16 21 16Z" fill="#202327"/>
</svg>
