<svg width="24" height="24" viewBox="0 0 24 24" fill="none" xmlns="http://www.w3.org/2000/svg">
<g clip-path="url(#clip0_18_13954)">
<path fill-rule="evenodd" clip-rule="evenodd" d="M3.5 17.5C3.5 18.6046 4.39543 19.5 5.5 19.5C6.60457 19.5 7.5 18.6046 7.5 17.5C7.5 16.965 7.28991 16.479 6.94772 16.1201C6.93595 16.1094 6.92438 16.0984 6.91301 16.087C6.90164 16.0756 6.8906 16.064 6.8799 16.0523C6.521 15.7101 6.03503 15.5 5.5 15.5C4.39543 15.5 3.5 16.3954 3.5 17.5ZM7.53197 14.0538C6.93645 13.7019 6.24181 13.5 5.5 13.5C3.29086 13.5 1.5 15.2909 1.5 17.5C1.5 19.7091 3.29086 21.5 5.5 21.5C7.70914 21.5 9.5 19.7091 9.5 17.5C9.5 16.7582 9.29807 16.0635 8.94618 15.468L11.5001 12.9142L14.0539 15.468C13.7019 16.0635 13.5 16.7582 13.5 17.5C13.5 19.7091 15.2909 21.5 17.5 21.5C19.7091 21.5 21.5 19.7091 21.5 17.5C21.5 15.2909 19.7091 13.5 17.5 13.5C16.7582 13.5 16.0636 13.7019 15.4681 14.0538L12.2163 10.802C12.2133 10.7989 12.2103 10.7958 12.2072 10.7928C12.2042 10.7897 12.2011 10.7867 12.198 10.7837L4.20711 2.79277C3.81658 2.40225 3.18342 2.40225 2.79289 2.79277C2.40237 3.1833 2.40237 3.81646 2.79289 4.20699L10.0858 11.4999L7.53197 14.0538ZM16.0515 16.1209C16.0636 16.1099 16.0755 16.0986 16.0871 16.087C16.0987 16.0754 16.11 16.0635 16.121 16.0514C16.4798 15.7098 16.9654 15.5 17.5 15.5C18.6046 15.5 19.5 16.3954 19.5 17.5C19.5 18.6046 18.6046 19.5 17.5 19.5C16.3954 19.5 15.5 18.6046 15.5 17.5C15.5 16.9654 15.7098 16.4797 16.0515 16.1209ZM13.5929 9.40706C13.2024 9.01653 13.2024 8.38337 13.5929 7.99284L18.7929 2.79284C19.1835 2.40232 19.8166 2.40232 20.2072 2.79284C20.5977 3.18337 20.5977 3.81653 20.2072 4.20706L15.0072 9.40706C14.6166 9.79758 13.9835 9.79758 13.5929 9.40706Z" fill="#202327"/>
</g>
<defs>
<clipPath id="clip0_18_13954">
<rect width="24" height="24" fill="white"/>
</clipPath>
</defs>
</svg>
