<svg width="24" height="24" viewBox="0 0 24 24" fill="none" xmlns="http://www.w3.org/2000/svg">
<g clip-path="url(#clip0_18_13958)">
<path fill-rule="evenodd" clip-rule="evenodd" d="M7.53197 14.0538C6.93645 13.7019 6.24181 13.5 5.5 13.5C3.29086 13.5 1.5 15.2909 1.5 17.5C1.5 19.7091 3.29086 21.5 5.5 21.5C7.70914 21.5 9.5 19.7091 9.5 17.5C9.5 16.7582 9.29807 16.0635 8.94618 15.468L11.5001 12.9142L14.0539 15.468C13.7019 16.0635 13.5 16.7582 13.5 17.5C13.5 19.7091 15.2909 21.5 17.5 21.5C19.7091 21.5 21.5 19.7091 21.5 17.5C21.5 15.2909 19.7091 13.5 17.5 13.5C16.7582 13.5 16.0636 13.7019 15.4681 14.0538L12.2163 10.802C12.2133 10.7989 12.2103 10.7958 12.2072 10.7928C12.2042 10.7897 12.2011 10.7867 12.198 10.7837L4.20711 2.79277C3.81658 2.40225 3.18342 2.40225 2.79289 2.79277C2.40237 3.1833 2.40237 3.81646 2.79289 4.20699L10.0858 11.4999L7.53197 14.0538ZM13.5929 9.40706C13.2024 9.01653 13.2024 8.38337 13.5929 7.99284L18.7929 2.79284C19.1835 2.40232 19.8166 2.40232 20.2072 2.79284C20.5977 3.18337 20.5977 3.81653 20.2072 4.20706L15.0072 9.40706C14.6166 9.79758 13.9835 9.79758 13.5929 9.40706Z" fill="#202327"/>
</g>
<defs>
<clipPath id="clip0_18_13958">
<rect width="24" height="24" fill="white"/>
</clipPath>
</defs>
</svg>
