<svg width="24" height="24" viewBox="0 0 24 24" fill="none" xmlns="http://www.w3.org/2000/svg">
<g clip-path="url(#clip0_18_15625)">
<path d="M10.2002 2C11.7464 2.00011 12.9999 3.25356 13 4.7998V11H19.2002L19.4863 11.0146C20.8982 11.1581 21.9999 12.3502 22 13.7998V19.2002C21.9999 20.7464 20.7464 21.9999 19.2002 22H4.7998C3.25356 21.9999 2.00011 20.7464 2 19.2002V4.7998C2.00011 3.25356 3.25356 2.00011 4.7998 2H10.2002ZM4.7998 4C4.35813 4.00011 4.00011 4.35813 4 4.7998V19.2002C4.00011 19.6419 4.35813 19.9999 4.7998 20H11V4.7998C10.9999 4.35813 10.6419 4.00011 10.2002 4H4.7998ZM13 20H19.2002C19.6419 19.9999 19.9999 19.6419 20 19.2002V13.7998C19.9999 13.3858 19.6854 13.0451 19.2822 13.0039L19.2002 13H13V20ZM15.5996 2C19.1342 2 22 4.86577 22 8.40039C21.9998 8.95237 21.552 9.40018 21 9.40039C20.4478 9.40039 20.0002 8.9525 20 8.40039C20 5.97034 18.0297 4 15.5996 4C15.0473 4 14.5996 3.55228 14.5996 3C14.5996 2.44772 15.0473 2 15.5996 2Z" fill="#202327"/>
</g>
<defs>
<clipPath id="clip0_18_15625">
<rect width="24" height="24" fill="white"/>
</clipPath>
</defs>
</svg>
