<svg width="24" height="24" viewBox="0 0 24 24" fill="none" xmlns="http://www.w3.org/2000/svg">
<g clip-path="url(#clip0_18_15761)">
<path d="M21.67 1.0559C22.0324 0.92923 22.4356 1.02183 22.7072 1.2932C22.9786 1.56469 23.0711 1.96788 22.9445 2.33032L15.9444 22.3304C15.8117 22.7095 15.4645 22.9728 15.0636 22.9983C14.6627 23.0238 14.2852 22.8068 14.1056 22.4475L11.1056 16.4475C10.9401 16.1163 10.9714 15.7205 11.1866 15.4192L17.7003 6.30005L8.58114 12.8137C8.27973 13.029 7.88413 13.0604 7.55282 12.8948L1.55281 9.89478C1.1936 9.71507 0.97654 9.33763 1.00202 8.93677C1.02762 8.53597 1.29091 8.18861 1.66999 8.05591L21.67 1.0559Z" fill="#202327"/>
</g>
<defs>
<clipPath id="clip0_18_15761">
<rect width="24" height="24" fill="white"/>
</clipPath>
</defs>
</svg>
