<svg width="24" height="24" viewBox="0 0 24 24" fill="none" xmlns="http://www.w3.org/2000/svg">
<path fill-rule="evenodd" clip-rule="evenodd" d="M12.7071 10.7071L16.7071 6.70711C17.0976 6.31658 17.0976 5.68342 16.7071 5.29289C16.3166 4.90237 15.6834 4.90237 15.2929 5.29289L13 7.58579V2C13 1.44771 12.5523 1 12 1C11.4477 1 11 1.44771 11 2V7.58579L8.70711 5.29289C8.31658 4.90237 7.68342 4.90237 7.29289 5.29289C6.90237 5.68342 6.90237 6.31658 7.29289 6.70711L11.2929 10.7071C11.6834 11.0976 12.3166 11.0976 12.7071 10.7071ZM1 16C1 14.3431 2.34315 13 4 13H20C21.6569 13 23 14.3431 23 16V20C23 21.6569 21.6569 23 20 23H4C2.34315 23 1 21.6569 1 20V16ZM5 18C5 17.4477 5.44772 17 6 17H6.01C6.56228 17 7.01 17.4477 7.01 18C7.01 18.5523 6.56228 19 6.01 19H6C5.44772 19 5 18.5523 5 18ZM9 18C9 17.4477 9.44772 17 10 17H10.01C10.5623 17 11.01 17.4477 11.01 18C11.01 18.5523 10.5623 19 10.01 19H10C9.44772 19 9 18.5523 9 18Z" fill="#202327"/>
</svg>
