<svg width="24" height="24" viewBox="0 0 24 24" fill="none" xmlns="http://www.w3.org/2000/svg">
<path d="M20 12.9999C21.6569 12.9999 23 14.3431 23 15.9999V19.9999C23 21.6568 21.6569 22.9999 20 22.9999H4C2.34315 22.9999 1 21.6568 1 19.9999V15.9999C1 14.3431 2.34315 12.9999 4 12.9999H20ZM6 16.9999C5.44772 16.9999 5 17.4476 5 17.9999C5 18.5522 5.44772 18.9999 6 18.9999H6.00977C6.56205 18.9999 7.00977 18.5522 7.00977 17.9999C7.00977 17.4476 6.56205 16.9999 6.00977 16.9999H6ZM10 16.9999C9.44772 16.9999 9 17.4476 9 17.9999C9 18.5522 9.44772 18.9999 10 18.9999H10.0098C10.5621 18.9999 11.0098 18.5522 11.0098 17.9999C11.0098 17.4476 10.5621 16.9999 10.0098 16.9999H10ZM11.293 1.29289C11.6835 0.902369 12.3165 0.902369 12.707 1.29289L16.707 5.29289C17.0976 5.68342 17.0976 6.31643 16.707 6.70696C16.3165 7.09748 15.6835 7.09748 15.293 6.70696L13 4.41399V9.99992C13 10.5522 12.5523 10.9999 12 10.9999C11.4477 10.9999 11 10.5522 11 9.99992V4.41399L8.70703 6.70696C8.31651 7.09748 7.68349 7.09748 7.29297 6.70696C6.90244 6.31643 6.90244 5.68342 7.29297 5.29289L11.293 1.29289Z" fill="#202327"/>
</svg>
