<svg width="24" height="24" viewBox="0 0 24 24" fill="none" xmlns="http://www.w3.org/2000/svg">
<path fill-rule="evenodd" clip-rule="evenodd" d="M16.7071 6.70711L12.7071 10.7071C12.3166 11.0976 11.6834 11.0976 11.2929 10.7071L7.29289 6.70711C6.90237 6.31658 6.90237 5.68342 7.29289 5.29289C7.68342 4.90237 8.31658 4.90237 8.70711 5.29289L11 7.58579V2C11 1.44771 11.4477 1 12 1C12.5523 1 13 1.44771 13 2V7.58579L15.2929 5.29289C15.6834 4.90237 16.3166 4.90237 16.7071 5.29289C17.0976 5.68342 17.0976 6.31658 16.7071 6.70711ZM3 16C3 15.4477 3.44772 15 4 15H20C20.5523 15 21 15.4477 21 16V20C21 20.5523 20.5523 21 20 21H4C3.44772 21 3 20.5523 3 20V16ZM4 13C2.34315 13 1 14.3431 1 16V20C1 21.6569 2.34315 23 4 23H20C21.6569 23 23 21.6569 23 20V16C23 14.3431 21.6569 13 20 13H4ZM6 17C5.44772 17 5 17.4477 5 18C5 18.5523 5.44772 19 6 19H6.01C6.56228 19 7.01 18.5523 7.01 18C7.01 17.4477 6.56228 17 6.01 17H6ZM10 17C9.44772 17 9 17.4477 9 18C9 18.5523 9.44772 19 10 19H10.01C10.5623 19 11.01 18.5523 11.01 18C11.01 17.4477 10.5623 17 10.01 17H10Z" fill="#202327"/>
</svg>
