<svg width="24" height="24" viewBox="0 0 24 24" fill="none" xmlns="http://www.w3.org/2000/svg">
<path fill-rule="evenodd" clip-rule="evenodd" d="M9.98973 15.4945C10.5997 15.8545 11.2897 16.0345 11.9797 16.0345H11.9897C12.3397 16.0345 12.6897 15.9845 13.0297 15.8945C14.0597 15.6245 14.9297 14.9645 15.4597 14.0345C15.9897 13.1045 16.1397 12.0245 15.8597 10.9945C15.5897 9.96446 14.9297 9.09446 13.9997 8.56446C13.0697 8.03446 11.9897 7.88446 10.9597 8.16446C9.92973 8.43446 9.05973 9.09446 8.52973 10.0245C7.99973 10.9545 7.84973 12.0345 8.12973 13.0645C8.39973 14.0945 9.05973 14.9645 9.98973 15.4945ZM11.4697 10.1045C11.6397 10.0545 11.8197 10.0345 11.9897 10.0345C12.3397 10.0345 12.6797 10.1245 12.9897 10.3045C13.4497 10.5645 13.7797 10.9945 13.9197 11.5145C14.0597 12.0345 13.9897 12.5745 13.7197 13.0345C13.4597 13.4945 13.0297 13.8245 12.5097 13.9645C11.9897 14.1045 11.4497 14.0345 10.9897 13.7645C10.5297 13.5045 10.1997 13.0745 10.0597 12.5545C9.91973 12.0345 9.98973 11.4945 10.2597 11.0345C10.5197 10.5745 10.9497 10.2445 11.4697 10.1045Z" fill="#202327"/>
<path fill-rule="evenodd" clip-rule="evenodd" d="M6.68 21.6744C7.14 21.9344 7.65 22.0744 8.17 22.0744L8.13 22.0544C8.39 22.0544 8.65 22.0244 8.91 21.9544C9.68 21.7444 10.33 21.2544 10.73 20.5544L10.82 20.4044C10.91 20.2444 11.04 20.1244 11.19 20.0344C11.34 19.9544 11.51 19.9044 11.69 19.9044H12.19C12.37 19.9044 12.54 19.9444 12.69 20.0344C12.84 20.1244 12.97 20.2544 13.07 20.4344L13.14 20.5544C13.54 21.2444 14.19 21.7344 14.96 21.9444C15.72 22.1544 16.55 22.0444 17.24 21.6444L17.62 21.4244C18.32 21.0244 18.81 20.3744 19.02 19.6044C19.23 18.8444 19.12 18.0144 18.71 17.3044L18.64 17.1844C18.56 17.0344 18.51 16.8644 18.51 16.6844C18.51 16.5144 18.56 16.3444 18.65 16.1844L18.9 15.7544C18.99 15.6044 19.12 15.4744 19.27 15.3844C19.42 15.2944 19.6 15.2444 19.79 15.2444H19.95C20.75 15.2444 21.51 14.9344 22.07 14.3644C22.64 13.7944 22.95 13.0444 22.95 12.2444V11.8044C22.95 11.0044 22.64 10.2444 22.07 9.68444C21.5 9.12444 20.75 8.80444 19.98 8.80444H19.78C19.6 8.80444 19.43 8.75444 19.28 8.67444C19.13 8.59444 19.01 8.46444 18.92 8.31444L18.67 7.87444C18.59 7.72444 18.54 7.55444 18.54 7.37444C18.54 7.19444 18.59 7.02444 18.67 6.87444L18.76 6.71444C19.16 6.02444 19.27 5.21444 19.06 4.44444C18.85 3.68444 18.34 3.02444 17.66 2.62444L17.28 2.40444C16.58 2.00444 15.77 1.89444 15 2.10444C14.23 2.31444 13.58 2.81444 13.18 3.50444L13.09 3.65444C13.01 3.80444 12.88 3.92444 12.73 4.01444C12.58 4.10444 12.41 4.15444 12.23 4.15444H11.74C11.56 4.15444 11.39 4.11444 11.24 4.02444C11.09 3.93444 10.97 3.80444 10.86 3.62444L10.79 3.51444C10.39 2.81444 9.74 2.32444 8.97 2.11444C8.19 1.90444 7.39 2.00444 6.71 2.40444L6.33 2.62444C5.63 3.02444 5.14 3.67444 4.93 4.44444C4.72 5.21444 4.83 6.02444 5.2 6.66444L5.31 6.88444C5.39 7.03444 5.44 7.21444 5.44 7.38444C5.44 7.55444 5.39 7.72444 5.31 7.87444L5.05 8.31444C4.96 8.46444 4.83 8.59444 4.68 8.68444C4.53 8.77444 4.35 8.82444 4.16 8.82444H4C3.2 8.82444 2.45 9.13444 1.88 9.70444C1.31 10.2744 1 11.0244 1 11.8244V12.2644C1 13.0544 1.32 13.8244 1.9 14.3944C2.46 14.9644 3.21 15.2744 3.98 15.2744H4.18C4.35 15.2744 4.53 15.3144 4.68 15.4044C4.83 15.4844 4.95 15.6144 5.04 15.7644L5.29 16.1944C5.37 16.3444 5.42 16.5144 5.42 16.6944C5.42 16.8744 5.38 17.0444 5.29 17.1944L5.2 17.3544C4.8 18.0544 4.69 18.8644 4.9 19.6344C5.11 20.4044 5.6 21.0544 6.3 21.4544L6.68 21.6744ZM5.67 13.6644C5.22 13.4044 4.7 13.2644 4.21 13.2644L4.23 13.2844H4.03C3.76 13.2844 3.5 13.1844 3.32 12.9944C3.14 12.8044 3.03 12.5444 3.03 12.2844V11.8444C3.03 11.5744 3.13 11.3244 3.32 11.1344C3.51 10.9444 3.76 10.8344 4.04 10.8344H4.2C4.73 10.8344 5.25 10.6944 5.71 10.4244C6.17 10.1644 6.55 9.78444 6.81 9.32444L7.07 8.87444C7.33 8.42444 7.46 7.90444 7.46 7.38444C7.46 6.85444 7.32 6.34444 7.09 5.94444L6.98 5.72444C6.85 5.49444 6.81 5.21444 6.88 4.96444C6.94 4.70444 7.11 4.48444 7.34 4.35444L7.72 4.13444C7.95 4.00444 8.22 3.96444 8.48 4.03444C8.73 4.09444 8.95 4.26444 9.1 4.52444L9.17 4.64444C9.44 5.10444 9.81 5.48444 10.27 5.74444C10.72 6.00444 11.24 6.14444 11.77 6.14444H12.26C12.78 6.14444 13.3 6.00444 13.76 5.74444C14.22 5.48444 14.6 5.10444 14.86 4.64444L14.95 4.49444C15.09 4.26444 15.3 4.09444 15.56 4.02444C15.82 3.95444 16.09 3.99444 16.32 4.12444L16.7 4.34444C16.93 4.47444 17.1 4.70444 17.17 4.95444C17.24 5.21444 17.2 5.48444 17.07 5.71444L16.98 5.87444C16.72 6.33444 16.58 6.84444 16.58 7.37444C16.58 7.90444 16.72 8.42444 16.98 8.87444L17.23 9.31444C17.5 9.77444 17.87 10.1544 18.33 10.4144C18.78 10.6744 19.3 10.8144 19.79 10.8144H19.99C20.26 10.8144 20.51 10.9144 20.7 11.1044C20.88 11.2844 20.99 11.5444 20.99 11.8044V12.2444C20.99 12.5144 20.89 12.7644 20.7 12.9544C20.51 13.1444 20.26 13.2544 19.98 13.2544H19.82C19.29 13.2544 18.77 13.3944 18.31 13.6544C17.85 13.9144 17.47 14.2944 17.21 14.7544L16.96 15.1844C16.69 15.6444 16.55 16.1644 16.55 16.6844C16.55 17.2144 16.69 17.7344 16.97 18.2244L17.04 18.3444C17.17 18.5744 17.21 18.8544 17.14 19.1044C17.07 19.3644 16.91 19.5744 16.67 19.7144L16.29 19.9344C16.06 20.0644 15.78 20.1044 15.53 20.0344C15.28 19.9644 15.06 19.7944 14.91 19.5444L14.84 19.4344C14.58 18.9844 14.2 18.6044 13.74 18.3344C13.29 18.0744 12.77 17.9344 12.24 17.9344H11.74C11.22 17.9344 10.7 18.0744 10.24 18.3344C9.78 18.5944 9.41 18.9744 9.14 19.4344L9.05 19.5944C8.91 19.8244 8.7 19.9844 8.44 20.0544C8.19 20.1244 7.91 20.0844 7.68 19.9544L7.3 19.7344C7.06 19.5944 6.9 19.3844 6.83 19.1244C6.76 18.8644 6.8 18.5944 6.93 18.3644L7.02 18.2044C7.28 17.7444 7.42 17.2244 7.42 16.7044C7.42 16.1744 7.28 15.6544 7.02 15.2044L6.77 14.7644C6.5 14.3044 6.12 13.9244 5.67 13.6644Z" fill="#202327"/>
</svg>
