<svg width="24" height="24" viewBox="0 0 24 24" fill="none" xmlns="http://www.w3.org/2000/svg">
<path fill-rule="evenodd" clip-rule="evenodd" d="M17.2922 2.40193C16.6031 2.00411 15.7843 1.8963 15.0157 2.10223C14.2472 2.30816 13.5919 2.81095 13.1941 3.50001L13.1044 3.65534C13.0166 3.80697 12.8905 3.93286 12.7387 4.0204C12.5868 4.108 12.4145 4.15411 12.2391 4.15411L11.7417 4.15562L11.7404 4.15562C11.5654 4.1554 11.3934 4.1092 11.2417 4.02165C11.0897 3.93388 10.9635 3.80764 10.8757 3.65562C10.8701 3.64591 10.8643 3.63629 10.8584 3.62678L10.7764 3.49519C10.3779 2.81521 9.72769 2.31911 8.96604 2.11461C8.1985 1.90853 7.38037 2.01552 6.69156 2.41192L6.30968 2.63179C5.62157 3.02941 5.11935 3.68382 4.91327 4.45136C4.71018 5.20773 4.81103 6.01305 5.19335 6.6955L5.26069 6.83171C5.27021 6.85096 5.28035 6.8699 5.29109 6.8885C5.37835 7.03963 5.42454 7.21097 5.42507 7.38549C5.42559 7.55917 5.38088 7.72998 5.29534 7.8811L5.0421 8.31972L5.04012 8.32316C4.95263 8.47611 4.82626 8.60323 4.67383 8.69163C4.52141 8.78004 4.34832 8.8266 4.17211 8.8266L4.15528 8.82674L3.98731 8.82957C3.19565 8.83291 2.43726 9.14907 1.87759 9.70931C1.31592 10.2716 1.0003 11.0337 1 11.8284L1.00053 12.2693C1.00164 13.064 1.31805 13.8258 1.88029 14.3875C2.43822 14.9448 3.19299 15.2599 3.98111 15.265L4.13604 15.2702C4.14725 15.2706 4.15846 15.2708 4.16968 15.2708C4.34522 15.2708 4.51766 15.317 4.66968 15.4048C4.82131 15.4923 4.94729 15.6181 5.03504 15.7696L5.0357 15.7708L5.28158 16.1997L5.28309 16.2023C5.37078 16.3542 5.41698 16.5264 5.41707 16.7018C5.41716 16.877 5.37101 17.0495 5.28361 17.2014L5.19412 17.3564C4.79629 18.0455 4.68849 18.8643 4.89442 19.6329C5.10035 20.4014 5.60314 21.0567 6.2922 21.4545L6.67325 21.6745C7.3623 22.0723 8.18117 22.1801 8.9497 21.9742C9.71824 21.7683 10.3735 21.2655 10.7713 20.5764L10.8612 20.4208C10.949 20.2693 11.0751 20.1435 11.2268 20.056C11.3787 19.9684 11.551 19.9223 11.7263 19.9223L11.7294 19.9223L12.2237 19.9208H12.225C12.4001 19.921 12.5721 19.9672 12.7237 20.0548C12.8757 20.1425 13.002 20.2688 13.0897 20.4208C13.0953 20.4305 13.1011 20.4401 13.107 20.4496L13.189 20.5812C13.5875 21.2612 14.2378 21.7573 14.9994 21.9618C15.7669 22.1679 16.5849 22.0611 17.2737 21.6647L17.6653 21.4334C18.3511 21.0355 18.8515 20.3823 19.0572 19.6164C19.2633 18.8489 19.1564 18.0309 18.76 17.3421C18.7541 17.332 18.7481 17.322 18.742 17.312L18.6625 17.1845C18.5788 17.0349 18.535 16.8662 18.5354 16.6946C18.5357 16.5184 18.5826 16.3454 18.6714 16.1932L18.6733 16.1897L18.9233 15.7567L18.9253 15.7533C19.0128 15.6003 19.1392 15.4732 19.2916 15.3848C19.444 15.2964 19.6171 15.2498 19.7933 15.2498L19.8102 15.2497L19.9781 15.2469C20.7698 15.2435 21.5282 14.9274 22.0879 14.3671C22.6495 13.8049 22.9651 13.0427 22.9654 12.248L22.9649 11.8071C22.9638 11.0124 22.6474 10.2506 22.0852 9.68893C21.5272 9.13158 20.7725 8.8165 19.9843 8.8114L19.8294 8.80619C19.8182 8.80581 19.807 8.80562 19.7958 8.80562C19.6202 8.80562 19.4478 8.75942 19.2958 8.67165C19.1441 8.58408 19.0181 8.45823 18.9304 8.30669L18.9297 8.30562L18.6839 7.87674L18.6823 7.87412C18.5947 7.72225 18.5485 7.54999 18.5484 7.37463C18.5483 7.1995 18.5945 7.02682 18.6818 6.875L18.7713 6.72001C19.1691 6.03095 19.277 5.21209 19.071 4.44355C18.8651 3.67501 18.3623 3.01976 17.6732 2.62193L17.2922 2.40193ZM12 15C13.6569 15 15 13.6569 15 12C15 10.3431 13.6569 9 12 9C10.3431 9 9 10.3431 9 12C9 13.6569 10.3431 15 12 15Z" fill="#202327"/>
</svg>
