<svg width="24" height="24" viewBox="0 0 24 24" fill="none" xmlns="http://www.w3.org/2000/svg">
<g clip-path="url(#clip0_18_14843)">
<path d="M12.6172 1.07614C12.9909 0.921363 13.421 1.00694 13.707 1.29294L22.707 10.2929C22.8981 10.484 23.0039 10.7445 23 11.0146C22.996 11.2845 22.8827 11.5411 22.6865 11.7265L13.6865 20.2265C13.3963 20.5006 12.9711 20.5759 12.6045 20.4179C12.2378 20.2599 12 19.8992 12 19.5V15.0595C9.40661 15.3684 7.47994 16.8486 6.13086 18.4052C5.37473 19.2777 4.81852 20.154 4.45215 20.8134C4.26958 21.1421 4.1358 21.4142 4.04883 21.6006C4.00546 21.6935 3.9741 21.7651 3.9541 21.8115C3.94411 21.8347 3.93681 21.8522 3.93262 21.8623C3.9306 21.8671 3.92935 21.8705 3.92871 21.872L3.92773 21.873C3.74919 22.317 3.28066 22.5729 2.81055 22.4824C2.33997 22.3916 2.00001 21.9792 2 21.5C2 17.189 2.62696 13.4537 4.3457 10.7724C5.96914 8.24007 8.48921 6.76404 12 6.5322V1.99997C12 1.59556 12.2436 1.23096 12.6172 1.07614Z" fill="#202327"/>
</g>
<defs>
<clipPath id="clip0_18_14843">
<rect width="24" height="24" fill="white"/>
</clipPath>
</defs>
</svg>
