<svg width="24" height="24" viewBox="0 0 24 24" fill="none" xmlns="http://www.w3.org/2000/svg">
<g clip-path="url(#clip0_18_14869)">
<path d="M12.0003 1C12.5526 1 13.0003 1.44772 13.0003 2C13.0003 2.55228 12.5526 3 12.0003 3C10.2204 3 8.48035 3.52774 7.00034 4.5166C5.5204 5.50547 4.3671 6.91127 3.68589 8.55566C3.0047 10.2002 2.82593 12.01 3.1732 13.7559C3.52047 15.5017 4.37742 17.1056 5.63609 18.3643C6.89475 19.6229 8.49867 20.4799 10.2445 20.8271C11.9903 21.1744 13.8001 20.9956 15.4447 20.3145C17.0891 19.6332 18.4949 18.4799 19.4837 17C20.4726 15.52 21.0003 13.78 21.0003 12C21.0003 11.4477 21.4481 11 22.0003 11C22.5526 11 23.0003 11.4477 23.0003 12C23.0003 14.1756 22.3555 16.3024 21.1468 18.1113C19.9382 19.9202 18.2202 21.3305 16.2103 22.1631C14.2005 22.9956 11.9885 23.2134 9.85484 22.7891C7.72105 22.3646 5.7604 21.3167 4.22202 19.7783C2.68365 18.2399 1.63572 16.2793 1.21128 14.1455C0.786992 12.0119 1.00477 9.79985 1.83726 7.79004C2.66984 5.78015 4.08015 4.06216 5.88902 2.85352C7.69793 1.64487 9.82479 1 12.0003 1ZM23.0003 8C23.0003 8.55228 22.5526 9 22.0003 9C21.4481 9 21.0003 8.55228 21.0003 8V4.41406L12.7074 12.707C12.3169 13.0976 11.6838 13.0976 11.2933 12.707C10.9028 12.3165 10.9028 11.6835 11.2933 11.293L19.5863 3H16.0003C15.4481 3 15.0003 2.55228 15.0003 2C15.0003 1.44772 15.4481 1 16.0003 1H22.0003L22.1029 1.00488C22.607 1.05621 23.0003 1.48232 23.0003 2V8Z" fill="#202327"/>
</g>
<defs>
<clipPath id="clip0_18_14869">
<rect width="24" height="24" fill="white"/>
</clipPath>
</defs>
</svg>
