<svg width="24" height="24" viewBox="0 0 24 24" fill="none" xmlns="http://www.w3.org/2000/svg">
<path d="M8.08025 4.50338C8.62266 4.50338 9.06238 4.9431 9.06238 5.48551C9.06238 6.02792 8.62267 6.46764 8.08025 6.46764H4.15175V20.2174H19.8658V12.3604C19.8658 11.818 20.3055 11.3783 20.8479 11.3783C21.3903 11.3783 21.83 11.818 21.83 12.3604V21.1995C21.83 21.46 21.7265 21.7098 21.5423 21.894C21.3582 22.0782 21.1084 22.1816 20.8479 22.1816H3.16963C2.90915 22.1816 2.65934 22.0782 2.47516 21.894C2.29097 21.7098 2.1875 21.46 2.1875 21.1995V5.48551C2.1875 5.22503 2.29097 4.97523 2.47516 4.79104C2.65934 4.60686 2.90915 4.50338 3.16963 4.50338H8.08025ZM18.8345 6.46764L16.6316 4.26473C16.2481 3.88124 16.2481 3.25949 16.6316 2.876C17.0151 2.49252 17.6369 2.49252 18.0203 2.876L22.5705 7.42619C22.6528 7.5086 22.7089 7.61355 22.7316 7.72779C22.7543 7.84203 22.7426 7.96043 22.698 8.06805C22.6535 8.17566 22.578 8.26765 22.4812 8.33241C22.3844 8.39717 22.2706 8.43178 22.1541 8.43189H13.973C13.4521 8.43189 12.9524 8.63883 12.5841 9.0072C12.2157 9.37557 12.0088 9.87519 12.0088 10.3961V15.3068C12.0088 15.8492 11.569 16.2889 11.0266 16.2889C10.4842 16.2889 10.0445 15.8492 10.0445 15.3068V10.3961C10.0445 9.35423 10.4584 8.355 11.1951 7.61827C11.9319 6.88153 12.9311 6.46764 13.973 6.46764H18.8345Z" fill="#202327"/>
</svg>
