<svg width="24" height="24" viewBox="0 0 24 24" fill="none" xmlns="http://www.w3.org/2000/svg">
<path d="M7.89275 4.32174C8.43516 4.32174 8.87488 4.76146 8.87488 5.30387C8.87488 5.84628 8.43517 6.28599 7.89275 6.28599H3.96425V20.0357H19.6783V12.1787C19.6783 11.6363 20.118 11.1966 20.6604 11.1966C21.2028 11.1966 21.6425 11.6363 21.6425 12.1787V21.0179C21.6425 21.2784 21.539 21.5282 21.3548 21.7123C21.1707 21.8965 20.9209 22 20.6604 22H2.98213C2.72165 22 2.47184 21.8965 2.28766 21.7123C2.10347 21.5282 2 21.2784 2 21.0179V5.30387C2 5.04339 2.10347 4.79359 2.28766 4.6094C2.47184 4.42522 2.72165 4.32174 2.98213 4.32174H7.89275ZM18.647 6.28599L16.4441 4.08309C16.0606 3.6996 16.0606 3.07785 16.4441 2.69436C16.8276 2.31088 17.4494 2.31088 17.8328 2.69436L22.383 7.24455C22.4653 7.32696 22.5214 7.43191 22.5441 7.54615C22.5668 7.66039 22.5551 7.77879 22.5105 7.88641C22.466 7.99402 22.3905 8.08601 22.2937 8.15077C22.1969 8.21553 22.0831 8.25014 21.9666 8.25025H13.7855C13.2646 8.25025 12.7649 8.45719 12.3966 8.82556C12.0282 9.19393 11.8213 9.69354 11.8213 10.2145V15.1251C11.8213 15.6675 11.3815 16.1072 10.8391 16.1072C10.2967 16.1072 9.857 15.6675 9.857 15.1251V10.2145C9.857 9.17259 10.2709 8.17336 11.0076 7.43663C11.7444 6.69989 12.7436 6.28599 13.7855 6.28599H18.647Z" fill="#202327"/>
</svg>
