<svg width="24" height="24" viewBox="0 0 24 24" fill="none" xmlns="http://www.w3.org/2000/svg">
<g clip-path="url(#clip0_18_14839)">
<path d="M12.6172 1.07614C12.9909 0.921363 13.421 1.00694 13.707 1.29294L22.707 10.2929C22.8981 10.484 23.0039 10.7445 23 11.0146C22.996 11.2845 22.8827 11.5411 22.6865 11.7265L13.6865 20.2265C13.3963 20.5006 12.9711 20.5759 12.6045 20.4179C12.2378 20.2599 12 19.8992 12 19.5V15.0595C9.40661 15.3684 7.47994 16.8486 6.13086 18.4052C5.37472 19.2777 4.81852 20.154 4.45215 20.8134C4.26957 21.1421 4.13581 21.4142 4.04883 21.6006C4.00546 21.6935 3.9741 21.7651 3.9541 21.8115C3.94411 21.8347 3.93681 21.8522 3.93262 21.8623C3.9306 21.8671 3.92935 21.8705 3.92871 21.872L3.92773 21.873C3.74919 22.3171 3.28067 22.5729 2.81055 22.4824C2.33996 22.3916 2 21.9793 2 21.5C2 17.189 2.62695 13.4537 4.3457 10.7724C5.96914 8.24007 8.48921 6.76404 12 6.5322V1.99997C12 1.59556 12.2436 1.23095 12.6172 1.07614ZM14 7.49997C14 8.05226 13.5523 8.49997 13 8.49997C9.53696 8.49997 7.38067 9.74437 6.0293 11.8525C5.09844 13.3048 4.51261 15.2267 4.22168 17.5752C4.34853 17.4161 4.48026 17.2549 4.61914 17.0947C6.35206 15.0952 9.1047 13 13 13C13.5523 13 14 13.4477 14 14V17.1797L20.5654 10.9795L14 4.41403V7.49997Z" fill="#202327"/>
</g>
<defs>
<clipPath id="clip0_18_14839">
<rect width="24" height="24" fill="white"/>
</clipPath>
</defs>
</svg>
