<svg width="24" height="24" viewBox="0 0 24 24" fill="none" xmlns="http://www.w3.org/2000/svg">
<path d="M12 0.999023C12.4523 0.999023 12.8918 1.14105 13.2578 1.40137L13.4092 1.52051L13.418 1.52734L13.7324 1.79199C15.3383 3.08715 17.4278 4 19 4C19.5303 4 20.039 4.21101 20.4141 4.58594C20.7889 4.96088 20.9999 5.46985 21 6V13C20.9999 15.7639 20.0209 17.8894 18.4463 19.5049C16.8989 21.0924 14.8203 22.1446 12.6689 22.8945L12.6611 22.8975C12.2331 23.0425 11.7687 23.0373 11.3438 22.8848V22.8857C11.3379 22.8837 11.332 22.8809 11.3262 22.8789C11.3247 22.8784 11.3228 22.8784 11.3213 22.8779V22.877C9.17215 22.1325 7.09954 21.085 5.55566 19.5039C4.07791 17.9904 3.12527 16.0281 3.01172 13.5117L3 13V6C3.00012 5.46984 3.21112 4.96088 3.58594 4.58594C3.96099 4.21101 4.46967 4 5 4L5.32129 3.98828C6.95838 3.86777 9.05355 2.86247 10.582 1.52734L10.5908 1.52051L10.7422 1.40137C11.1082 1.14105 11.5477 0.999023 12 0.999023ZM15.707 9.29297C15.341 8.9269 14.7619 8.90438 14.3691 9.22461L14.293 9.29297L11 12.5859L9.70703 11.293L9.63086 11.2246C9.23813 10.9043 8.65909 10.927 8.29297 11.293C7.92685 11.6591 7.90426 12.2381 8.22461 12.6309L8.29297 12.707L10.293 14.707L10.3691 14.7754C10.7619 15.0956 11.341 15.0731 11.707 14.707L15.707 10.707L15.7754 10.6309C16.0956 10.2381 16.073 9.65905 15.707 9.29297Z" fill="#202327"/>
</svg>
