<svg width="24" height="24" viewBox="0 0 24 24" fill="none" xmlns="http://www.w3.org/2000/svg">
<g clip-path="url(#clip0_134_236)">
<path d="M16.5449 4.17773C16.8363 3.7752 17.3992 3.68433 17.8018 3.97559C20.2841 5.77269 21.9023 8.69769 21.9023 12C21.9023 17.4676 17.4696 21.9004 12.002 21.9004C6.53435 21.9004 2.10158 17.4676 2.10156 12C2.10159 8.69769 3.71983 5.77269 6.20215 3.97559C6.60475 3.68433 7.16757 3.7752 7.45898 4.17773C7.75016 4.58033 7.66032 5.14317 7.25781 5.43457C5.22304 6.90772 3.90237 9.2994 3.90234 12C3.90236 16.4735 7.52846 20.0996 12.002 20.0996C16.4754 20.0996 20.1015 16.4735 20.1016 12C20.1015 9.2994 18.7809 6.90772 16.7461 5.43457C16.3436 5.14317 16.2537 4.58033 16.5449 4.17773Z" fill="#151826"/>
<path d="M12.002 2C12.5542 2 13.002 2.44772 13.002 3V11C13.002 11.5523 12.5542 12 12.002 12C11.4497 12 11.002 11.5523 11.002 11V3C11.002 2.44772 11.4497 2 12.002 2Z" fill="#151826"/>
</g>
<defs>
<clipPath id="clip0_134_236">
<rect width="24" height="24" fill="white"/>
</clipPath>
</defs>
</svg>
