<svg width="24" height="24" viewBox="0 0 24 24" fill="none" xmlns="http://www.w3.org/2000/svg">
<path d="M17.6836 5.09882C17.3371 4.9323 16.9252 4.9788 16.625 5.21893L9.125 11.2189C8.88778 11.4087 8.75 11.6964 8.75 12.0002C8.75 12.304 8.88778 12.5917 9.125 12.7814L16.625 18.7814C16.9252 19.0216 17.3371 19.0681 17.6836 18.9016C18.0299 18.735 18.25 18.3845 18.25 18.0002V6.00018C18.25 5.61589 18.0299 5.2654 17.6836 5.09882ZM7.75 17.2502V6.75018C7.75 6.1979 7.30229 5.75018 6.75 5.75018C6.19771 5.75018 5.75 6.1979 5.75 6.75018V17.2502C5.75 17.8025 6.19771 18.2502 6.75 18.2502C7.30229 18.2502 7.75 17.8025 7.75 17.2502ZM16.25 15.9182L11.3516 12.0002L16.25 8.08124V15.9182Z" fill="black"/>
<path d="M17.6836 5.09882C17.3371 4.9323 16.9252 4.9788 16.625 5.21893L9.125 11.2189C8.88778 11.4087 8.75 11.6964 8.75 12.0002C8.75 12.304 8.88778 12.5917 9.125 12.7814L16.625 18.7814C16.9252 19.0216 17.3371 19.0681 17.6836 18.9016C18.0299 18.735 18.25 18.3845 18.25 18.0002V6.00018C18.25 5.61589 18.0299 5.2654 17.6836 5.09882ZM7.75 17.2502V6.75018C7.75 6.1979 7.30229 5.75018 6.75 5.75018C6.19771 5.75018 5.75 6.1979 5.75 6.75018V17.2502C5.75 17.8025 6.19771 18.2502 6.75 18.2502C7.30229 18.2502 7.75 17.8025 7.75 17.2502ZM16.25 15.9182L11.3516 12.0002L16.25 8.08124V15.9182Z" fill="#151826"/>
</svg>
