<svg width="24" height="24" viewBox="0 0 24 24" fill="none" xmlns="http://www.w3.org/2000/svg">
<path d="M6.31641 5.09877C6.66282 4.93231 7.07486 4.97883 7.375 5.21889L14.875 11.2189C15.1122 11.4086 15.2499 11.6964 15.25 12.0002C15.25 12.3039 15.1122 12.5916 14.875 12.7814L7.375 18.7814C7.07483 19.0216 6.66287 19.0681 6.31641 18.9016C5.97016 18.735 5.75 18.3844 5.75 18.0002V6.00014C5.75007 5.61592 5.97017 5.26532 6.31641 5.09877ZM17.25 5.75014C17.8022 5.75014 18.2499 6.19794 18.25 6.75014V17.2502C18.25 17.8025 17.8023 18.2502 17.25 18.2502C16.6977 18.2502 16.25 17.8025 16.25 17.2502V6.75014C16.2501 6.19794 16.6978 5.75014 17.25 5.75014Z" fill="#202327"/>
</svg>
