<svg width="24" height="24" viewBox="0 0 24 24" fill="none" xmlns="http://www.w3.org/2000/svg">
<path d="M17.6836 5.09877C17.3372 4.93231 16.9251 4.97883 16.625 5.21889L9.125 11.2189C8.88783 11.4086 8.75006 11.6964 8.75 12.0002C8.75 12.3039 8.88784 12.5916 9.125 12.7814L16.625 18.7814C16.9252 19.0216 17.3371 19.0681 17.6836 18.9016C18.0298 18.735 18.25 18.3844 18.25 18.0002V6.00014C18.2499 5.61592 18.0298 5.26532 17.6836 5.09877ZM6.75 5.75014C6.19778 5.75014 5.7501 6.19794 5.75 6.75014V17.2502C5.75 17.8025 6.19771 18.2502 6.75 18.2502C7.30229 18.2502 7.75 17.8025 7.75 17.2502V6.75014C7.7499 6.19794 7.30222 5.75014 6.75 5.75014Z" fill="black"/>
<path d="M17.6836 5.09877C17.3372 4.93231 16.9251 4.97883 16.625 5.21889L9.125 11.2189C8.88783 11.4086 8.75006 11.6964 8.75 12.0002C8.75 12.3039 8.88784 12.5916 9.125 12.7814L16.625 18.7814C16.9252 19.0216 17.3371 19.0681 17.6836 18.9016C18.0298 18.735 18.25 18.3844 18.25 18.0002V6.00014C18.2499 5.61592 18.0298 5.26532 17.6836 5.09877ZM6.75 5.75014C6.19778 5.75014 5.7501 6.19794 5.75 6.75014V17.2502C5.75 17.8025 6.19771 18.2502 6.75 18.2502C7.30229 18.2502 7.75 17.8025 7.75 17.2502V6.75014C7.7499 6.19794 7.30222 5.75014 6.75 5.75014Z" fill="#151826"/>
</svg>
