<svg width="24" height="24" viewBox="0 0 24 24" fill="none" xmlns="http://www.w3.org/2000/svg">
<path d="M6.31641 5.09882C6.66287 4.9323 7.07483 4.9788 7.375 5.21893L14.875 11.2189C15.1122 11.4087 15.25 11.6964 15.25 12.0002C15.25 12.304 15.1122 12.5917 14.875 12.7814L7.375 18.7814C7.07483 19.0216 6.66287 19.0681 6.31641 18.9016C5.97012 18.735 5.75 18.3845 5.75 18.0002V6.00018C5.75 5.61589 5.97012 5.2654 6.31641 5.09882ZM16.25 17.2502V6.75018C16.25 6.1979 16.6977 5.75018 17.25 5.75018C17.8023 5.75018 18.25 6.1979 18.25 6.75018V17.2502C18.25 17.8025 17.8023 18.2502 17.25 18.2502C16.6977 18.2502 16.25 17.8025 16.25 17.2502ZM7.75 15.9182L12.6484 12.0002L7.75 8.08124V15.9182Z" fill="black"/>
</svg>
