<svg width="24" height="24" viewBox="0 0 24 24" fill="none" xmlns="http://www.w3.org/2000/svg">
<g clip-path="url(#clip0_1347_176)">
<path d="M12 1C18.0751 1 23 5.92487 23 12C23 18.0751 18.0751 23 12 23C11.6565 23 11.3164 22.984 10.9805 22.9531C10.4306 22.9025 10.0258 22.416 10.0762 21.8662C10.1268 21.3164 10.6133 20.9115 11.1631 20.9619C11.4383 20.9872 11.7177 21 12 21C16.9706 21 21 16.9706 21 12C21 7.02944 16.9706 3 12 3C11.7177 3 11.4383 3.01276 11.1631 3.03809L11.0615 3.04297C10.5545 3.03837 10.1236 2.6495 10.0762 2.13379C10.0258 1.58397 10.4306 1.09748 10.9805 1.04688L11.4873 1.01172C11.6573 1.00391 11.8282 1 12 1ZM5.40234 19.5811C5.70197 19.159 6.2692 19.0392 6.70996 19.2891L6.79688 19.3447L7.1416 19.5781C7.37555 19.7285 7.61724 19.8676 7.86523 19.9961L8.24219 20.1807L8.33301 20.2275C8.76953 20.4849 8.94874 21.0366 8.73242 21.5068C8.51597 21.9771 7.98043 22.1994 7.50098 22.0352L7.40527 21.9971L6.94434 21.7715C6.64115 21.6143 6.34633 21.4434 6.06055 21.2598L5.63867 20.9756L5.55859 20.9121C5.17695 20.5785 5.10267 20.0033 5.40234 19.5811ZM2.49316 15.2676C2.96343 15.0513 3.51513 15.2305 3.77246 15.667L3.81934 15.7578L4.00391 16.1348C4.13243 16.3828 4.27155 16.6245 4.42188 16.8584L4.65527 17.2031L4.71094 17.29C4.96076 17.7308 4.84101 18.298 4.41895 18.5977C3.9967 18.8973 3.4215 18.823 3.08789 18.4414L3.02441 18.3613L2.74023 17.9395C2.55658 17.6537 2.38567 17.3589 2.22852 17.0557L2.00293 16.5947L1.96484 16.499C1.80062 16.0196 2.02286 15.484 2.49316 15.2676ZM9.52832 7.11816C9.85343 6.94427 10.2479 6.96345 10.5547 7.16797L16.5547 11.168C16.8329 11.3534 17 11.6657 17 12C17 12.3343 16.8329 12.6466 16.5547 12.832L10.5547 16.832C10.2479 17.0366 9.85344 17.0557 9.52832 16.8818C9.20317 16.7078 9 16.3688 9 16V8L9.00977 7.86328C9.05311 7.54904 9.24386 7.2704 9.52832 7.11816ZM11 14.1309L14.1973 12L11 9.86816V14.1309ZM2.13379 10.0762C2.68363 10.1268 3.0885 10.6133 3.03809 11.1631L3.00977 11.5791C3.00336 11.7185 3 11.8589 3 12C3 12.2823 3.01276 12.5617 3.03809 12.8369L3.04297 12.9385C3.03837 13.4455 2.6495 13.8764 2.13379 13.9238C1.58397 13.9742 1.09748 13.5694 1.04688 13.0195L1.01172 12.5127C1.00391 12.3427 1 12.1718 1 12C1 11.6565 1.01596 11.3164 1.04688 10.9805L1.06152 10.8789C1.1587 10.3816 1.61834 10.0289 2.13379 10.0762ZM3.02441 5.63867C3.34409 5.18837 3.96861 5.08273 4.41895 5.40234C4.86929 5.72204 4.97497 6.34653 4.65527 6.79688C4.33395 7.24955 4.05351 7.73337 3.81934 8.24219L3.77246 8.33301C3.51513 8.76953 2.96343 8.94874 2.49316 8.73242C1.99146 8.50152 1.77203 7.90697 2.00293 7.40527L2.22852 6.94434C2.46419 6.48966 2.73008 6.05329 3.02441 5.63867ZM7.50098 1.96484C7.98043 1.80062 8.51597 2.02286 8.73242 2.49316C8.96314 2.99472 8.74361 3.58836 8.24219 3.81934L7.86523 4.00391C7.61724 4.13243 7.37555 4.27155 7.1416 4.42188L6.79688 4.65527C6.34653 4.97497 5.72204 4.86929 5.40234 4.41895C5.08273 3.96861 5.18837 3.34409 5.63867 3.02441L6.06055 2.74023C6.48925 2.46473 6.93831 2.21787 7.40527 2.00293L7.50098 1.96484Z" fill="black"/>
</g>
<defs>
<clipPath id="clip0_1347_176">
<rect width="24" height="24" fill="white"/>
</clipPath>
</defs>
</svg>
