<svg width="24" height="24" viewBox="0 0 24 24" fill="none" xmlns="http://www.w3.org/2000/svg">
<g clip-path="url(#clip0_18_14320)">
<path d="M5.99977 20C5.99977 20.5523 6.44748 21 6.99977 21C7.55205 21 7.99977 20.5523 7.99977 20V6.41406L10.2927 8.70703C10.6833 9.09756 11.3163 9.09756 11.7068 8.70703C12.0973 8.31651 12.0973 7.68349 11.7068 7.29297L7.7068 3.29297C7.34068 2.92685 6.76168 2.90426 6.36891 3.22461L6.29273 3.29297L2.29273 7.29297L2.22437 7.36914C1.90402 7.76191 1.92662 8.34092 2.29273 8.70703C2.65885 9.07315 3.23785 9.09574 3.63063 8.77539L3.7068 8.70703L5.99977 6.41406V20ZM14.9998 13C15.5521 13 15.9998 12.5523 15.9998 12C15.9998 11.4477 15.5521 11 14.9998 11H10.9998C10.4475 11 9.99977 11.4477 9.99977 12C9.99977 12.5523 10.4475 13 10.9998 13H14.9998ZM17.9998 17C18.552 17 18.9998 16.5523 18.9998 16C18.9998 15.4477 18.552 15 17.9998 15H10.9998C10.4475 15 9.99977 15.4477 9.99977 16C9.99977 16.5523 10.4475 17 10.9998 17H17.9998ZM20.9998 21C21.552 21 21.9998 20.5523 21.9998 20C21.9998 19.4477 21.552 19 20.9998 19H10.9998C10.4475 19 9.99977 19.4477 9.99977 20C9.99977 20.5523 10.4475 21 10.9998 21H20.9998Z" fill="#202327"/>
</g>
<defs>
<clipPath id="clip0_18_14320">
<rect width="24" height="24" fill="white"/>
</clipPath>
</defs>
</svg>
