<svg width="24" height="24" viewBox="0 0 24 24" fill="none" xmlns="http://www.w3.org/2000/svg">
<g clip-path="url(#clip0_704_80)">
<path d="M17.1377 13.5098C17.4545 13.5538 17.7347 13.7479 17.8857 14.0361C18.0366 14.3243 18.0366 14.6647 17.8925 14.9502L17.8222 15.0693L13.3222 21.5693C13.1355 21.8391 12.8281 22 12.5 22C12.1718 22 11.8645 21.8391 11.6777 21.5693L7.17769 15.0693C6.96602 14.7636 6.94169 14.3656 7.11422 14.0361C7.28684 13.7067 7.62802 13.5 7.99996 13.5H17L17.1377 13.5098ZM12.5 2C12.8281 2.00001 13.1355 2.16091 13.3222 2.43066L17.8222 8.93066C18.0339 9.23641 18.0582 9.63445 17.8857 9.96387C17.7131 10.2933 17.3719 10.5 17 10.5H7.99996C7.62802 10.5 7.28684 10.2933 7.11422 9.96387C6.94169 9.63444 6.96602 9.23642 7.17769 8.93066L11.6777 2.43066L11.7529 2.33496C11.9413 2.12325 12.2127 2 12.5 2Z" fill="#202327"/>
</g>
<defs>
<clipPath id="clip0_704_80">
<rect width="24" height="24" fill="white"/>
</clipPath>
</defs>
</svg>
