<svg width="24" height="24" viewBox="0 0 24 24" fill="none" xmlns="http://www.w3.org/2000/svg">
<g clip-path="url(#clip0_18_14325)">
<path d="M5.99977 4C5.99977 3.44772 6.44748 3 6.99977 3C7.55205 3 7.99977 3.44772 7.99977 4V17.5859L10.2927 15.293C10.6833 14.9024 11.3163 14.9024 11.7068 15.293C12.0973 15.6835 12.0973 16.3165 11.7068 16.707L7.7068 20.707C7.34068 21.0731 6.76168 21.0957 6.36891 20.7754L6.29273 20.707L2.29273 16.707L2.22437 16.6309C1.90402 16.2381 1.92662 15.6591 2.29273 15.293C2.65885 14.9269 3.23785 14.9043 3.63063 15.2246L3.7068 15.293L5.99977 17.5859V4ZM14.9998 11C15.5521 11 15.9998 11.4477 15.9998 12C15.9998 12.5523 15.5521 13 14.9998 13H10.9998C10.4475 13 9.99977 12.5523 9.99977 12C9.99977 11.4477 10.4475 11 10.9998 11H14.9998ZM17.9998 7C18.552 7 18.9998 7.44772 18.9998 8C18.9998 8.55228 18.552 9 17.9998 9H10.9998C10.4475 9 9.99977 8.55228 9.99977 8C9.99977 7.44772 10.4475 7 10.9998 7H17.9998ZM20.9998 3C21.552 3 21.9998 3.44772 21.9998 4C21.9998 4.55228 21.552 5 20.9998 5H10.9998C10.4475 5 9.99977 4.55228 9.99977 4C9.99977 3.44772 10.4475 3 10.9998 3H20.9998Z" fill="#202327"/>
</g>
<defs>
<clipPath id="clip0_18_14325">
<rect width="24" height="24" fill="white"/>
</clipPath>
</defs>
</svg>
