<svg width="24" height="24" viewBox="0 0 24 24" fill="none" xmlns="http://www.w3.org/2000/svg">
<g clip-path="url(#clip0_18_15758)">
<path fill-rule="evenodd" clip-rule="evenodd" d="M10.7553 1.2704C11.146 1.09221 11.5705 1 12 1C12.4293 1 12.8536 1.09215 13.2442 1.27021L21.8298 5.17817C22.1819 5.33491 22.4813 5.59009 22.6919 5.91307C22.9037 6.23799 23.0165 6.61749 23.0165 7.00536C23.0165 7.39323 22.9037 7.77273 22.6919 8.09764C22.4813 8.4207 22.1818 8.67593 21.8295 8.83266L13.255 12.7302C13.2548 12.7302 13.2551 12.7301 13.255 12.7302C12.8642 12.9083 12.4394 13.0007 12.01 13.0007C11.5804 13.0007 11.1558 12.9085 10.765 12.7302L2.18992 8.82244C1.83788 8.66569 1.53856 8.41055 1.32804 8.08765C1.1162 7.76273 1.00342 7.38323 1.00342 6.99536C1.00342 6.60749 1.1162 6.22798 1.32804 5.90307C1.53861 5.58009 1.83803 5.32489 2.19019 5.16816L10.7553 1.2704C10.7554 1.27036 10.7552 1.27045 10.7553 1.2704ZM12 3C11.8568 3 11.7152 3.03075 11.585 3.09018L3.0035 6.99539L3.01468 7.00032L11.5946 10.9104C11.7249 10.9698 11.8668 11.0007 12.01 11.0007C12.1532 11.0007 12.2947 10.97 12.425 10.9105L21.0164 7.00532L21.0057 7.00057L12.4157 3.09051C12.2854 3.03108 12.1432 3 12 3ZM3 12.0027C3.00135 11.4504 2.55475 11.0016 2.00248 11.0002C1.45019 10.9989 1.00137 11.4455 1.00001 11.9978C0.99906 12.3803 1.10784 12.7551 1.31344 13.0777C1.51904 13.4003 1.81285 13.6571 2.16001 13.8178L10.7675 17.7312C11.1563 17.9073 11.5782 17.9983 12.005 17.9983C12.4318 17.9983 12.8537 17.9073 13.2425 17.7312L21.82 13.8323C21.8206 13.832 21.8213 13.8317 21.822 13.8314C22.1751 13.6722 22.4744 13.4139 22.6836 13.0878C22.8931 12.7611 23.003 12.3805 23 11.9923C22.9956 11.4401 22.5444 10.9959 21.9921 11.0003C21.4398 11.0046 20.9957 11.4559 21 12.0081L20.9962 12.0099L12.4175 15.9093C12.4174 15.9094 12.4176 15.9092 12.4175 15.9093C12.288 15.9678 12.1471 15.9983 12.005 15.9983C11.8629 15.9983 11.7224 15.968 11.5929 15.9095C11.5927 15.9094 11.593 15.9095 11.5929 15.9095L3 12.0027ZM2.00248 16.0002C2.55476 16.0016 3.00137 16.4504 3 17.0027L11.5925 20.9093C11.5924 20.9092 11.5926 20.9093 11.5925 20.9093C11.722 20.9679 11.8629 20.9983 12.005 20.9983C12.1471 20.9983 12.2876 20.968 12.4171 20.9095C12.4169 20.9095 12.4172 20.9094 12.4171 20.9095L20.9962 17.0099L21 17.0081C20.9957 16.4559 21.4398 16.0046 21.9921 16.0003C22.5444 15.9959 22.9956 16.4401 23 16.9923C23.003 17.3805 22.8931 17.7611 22.6836 18.0878C22.4744 18.4139 22.1751 18.6722 21.822 18.8314C21.8213 18.8317 21.8206 18.832 21.82 18.8323L13.2425 22.7312C12.8537 22.9073 12.4318 22.9983 12.005 22.9983C11.5782 22.9983 11.1563 22.9073 10.7675 22.7312L2.16 18.8178C1.81284 18.6571 1.51904 18.4003 1.31344 18.0777C1.10784 17.7551 0.99906 17.3803 1.00001 16.9978C1.00137 16.4455 1.45019 15.9989 2.00248 16.0002Z" fill="#202327"/>
</g>
<defs>
<clipPath id="clip0_18_15758">
<rect width="24" height="24" fill="white"/>
</clipPath>
</defs>
</svg>
