<svg width="24" height="24" viewBox="0 0 24 24" fill="none" xmlns="http://www.w3.org/2000/svg">
<g clip-path="url(#clip0_308_43)">
<path d="M21.9922 16C22.5444 15.9957 22.9956 16.44 23 16.9922C23.0031 17.3803 22.8931 17.7612 22.6836 18.0879C22.4745 18.4139 22.1752 18.6719 21.8223 18.8311L21.8203 18.832L13.2422 22.7314C12.8535 22.9074 12.4316 22.998 12.0049 22.998C11.5782 22.998 11.1563 22.9074 10.7676 22.7314L2.16016 18.8174C1.81313 18.6568 1.51907 18.4005 1.31348 18.0781C1.10793 17.7556 0.999112 17.3805 1.00001 16.998C1.00137 16.4458 1.45065 15.9986 2.00294 16C2.55501 16.0016 3.00137 16.4508 3.00001 17.0029L11.5928 20.9092C11.7222 20.9677 11.8629 20.998 12.0049 20.998C12.147 20.998 12.2875 20.9677 12.417 20.9092L20.9961 17.0098L21 17.0078C20.9958 16.4557 21.44 16.0044 21.9922 16ZM21.9922 11C22.5444 10.9957 22.9956 11.44 23 11.9922C23.0031 12.3803 22.8931 12.7612 22.6836 13.0879C22.4745 13.4139 22.1752 13.6719 21.8223 13.8311L21.8203 13.832L13.2422 17.7314C12.8535 17.9074 12.4316 17.998 12.0049 17.998C11.5782 17.998 11.1563 17.9074 10.7676 17.7314L2.16016 13.8174C1.81313 13.6568 1.51907 13.4005 1.31348 13.0781C1.10793 12.7556 0.999112 12.3805 1.00001 11.998C1.00137 11.4458 1.45065 10.9986 2.00294 11C2.555 11.0016 3.00136 11.4508 3.00001 12.0029L11.5928 15.9092C11.7222 15.9677 11.8628 15.998 12.0049 15.998C12.147 15.998 12.2885 15.9677 12.418 15.9092L20.9961 12.0098L21 12.0078C20.9958 11.4557 21.44 11.0044 21.9922 11ZM12 1C12.4293 1.00001 12.8535 1.09245 13.2441 1.27051L21.8301 5.17773C22.1822 5.33447 22.4818 5.59014 22.6924 5.91309C22.904 6.23782 23.0165 6.61727 23.0166 7.00488C23.0166 7.39266 22.9041 7.77279 22.6924 8.09766C22.4818 8.42071 22.1814 8.67628 21.8291 8.83301L13.2549 12.7305C12.8642 12.9086 12.4392 13.001 12.0098 13.001C11.5803 13.0009 11.1554 12.9087 10.7647 12.7305L2.18946 8.82227C1.83769 8.66554 1.53855 8.41055 1.32813 8.08789C1.1163 7.76297 1.00391 7.38299 1.00391 6.99512C1.00396 6.60738 1.1164 6.22814 1.32813 5.90332C1.5387 5.58034 1.83827 5.32471 2.19044 5.16797L10.7549 1.27051C11.1457 1.09232 11.5705 1 12 1Z" fill="#202327"/>
</g>
<defs>
<clipPath id="clip0_308_43">
<rect width="24" height="24" fill="white"/>
</clipPath>
</defs>
</svg>
