<svg width="24" height="24" viewBox="0 0 24 24" fill="none" xmlns="http://www.w3.org/2000/svg">
<g clip-path="url(#clip0_18_14688)">
<path d="M12.1984 2.92188C12.3288 2.94013 12.456 2.9771 12.5764 3.03027L12.7522 3.12207L12.9123 3.23828C13.0135 3.3226 13.1027 3.42051 13.177 3.5293L13.2775 3.7002V3.70117L15.1252 7.44434L15.1672 7.51758C15.2133 7.5879 15.2727 7.64947 15.341 7.69922C15.4322 7.76544 15.5382 7.80873 15.6496 7.8252L19.7815 8.42969H19.7805C19.9775 8.45823 20.1658 8.52783 20.3332 8.63282L20.4934 8.75L20.6359 8.88868C20.7239 8.98675 20.7979 9.09645 20.8557 9.21485L20.9309 9.39844L20.9787 9.59083C21.0017 9.72066 21.0058 9.85322 20.9924 9.98438L20.9592 10.1807C20.8955 10.4383 20.7605 10.6731 20.5705 10.8584L20.5695 10.8594L17.5813 13.7695C17.5006 13.8483 17.4394 13.9456 17.4045 14.0527C17.3696 14.1602 17.362 14.2753 17.3811 14.3867H17.3801L18.0852 18.4932L18.1057 18.6914C18.1125 18.8897 18.078 19.0881 18.0031 19.2735C17.9031 19.5208 17.7356 19.7358 17.5197 19.8926C17.3038 20.0493 17.0476 20.1426 16.7815 20.1611C16.5172 20.1794 16.253 20.1227 16.0188 19.999V20L12.3244 18.0576C12.2497 18.0185 12.1684 17.9936 12.0852 17.9834L12.0002 17.9776C11.8876 17.9777 11.7757 18.0044 11.676 18.0567L11.677 18.0576L7.98458 19.9981L7.98555 19.999C7.75029 20.1233 7.48438 20.179 7.21895 20.1602C6.95336 20.1412 6.69799 20.0482 6.48262 19.8916C6.26719 19.7349 6.09908 19.5205 5.99922 19.2735C5.90002 19.0278 5.87127 18.759 5.91622 18.4981L6.6213 14.3867L6.63008 14.3027C6.63416 14.2186 6.62303 14.1343 6.59688 14.0537C6.57068 13.9731 6.53052 13.8977 6.47774 13.832L6.42012 13.7695L3.43184 10.8604L3.43282 10.8594C3.24259 10.6746 3.10646 10.441 3.04219 10.1836C2.97769 9.92504 2.98741 9.65293 3.06954 9.39942L3.14473 9.21485C3.2317 9.03647 3.355 8.87669 3.50801 8.74805L3.66915 8.63086C3.78126 8.56078 3.90342 8.50732 4.03047 8.47071L4.22481 8.42872L8.35177 7.8252H8.35274L8.43477 7.80762C8.51604 7.78554 8.59377 7.74893 8.66231 7.69922C8.75339 7.63299 8.82717 7.54525 8.87716 7.44434L10.7238 3.70117L10.7248 3.7002L10.8244 3.5293C10.9357 3.36619 11.0813 3.22704 11.2502 3.12207L11.425 3.03027C11.6057 2.95036 11.8022 2.90827 12.0012 2.9082L12.1984 2.92188Z" fill="#202327"/>
</g>
<defs>
<clipPath id="clip0_18_14688">
<rect width="24" height="24" fill="white"/>
</clipPath>
</defs>
</svg>
