<svg width="24" height="24" viewBox="0 0 24 24" fill="none" xmlns="http://www.w3.org/2000/svg">
<g clip-path="url(#clip0_18_14682)">
<path d="M12.21 1.01465C12.3502 1.03426 12.4868 1.07366 12.6163 1.13086L12.8047 1.23047L12.9776 1.35449C13.0864 1.4452 13.1819 1.55092 13.2618 1.66797L13.3692 1.85156V1.85254L15.6797 6.53125L15.7471 6.64844C15.8213 6.76174 15.9153 6.86127 16.0254 6.94141C16.1724 7.04828 16.3437 7.11814 16.5235 7.14453H16.5225L21.6885 7.90039H21.6876C21.8994 7.93111 22.1014 8.00615 22.2813 8.11914L22.4542 8.24414L22.6065 8.39258C22.7013 8.49817 22.7806 8.61661 22.8428 8.74414L22.9229 8.94141L22.9747 9.14844C23.0116 9.3576 23.0044 9.57351 22.9532 9.78125C22.8848 10.0582 22.7404 10.3106 22.5362 10.5098L22.5352 10.5107L18.7999 14.1484C18.6697 14.2753 18.572 14.4317 18.5157 14.6045C18.4595 14.7772 18.4462 14.9615 18.4766 15.1406L19.3575 20.2764L19.3799 20.4893C19.3873 20.7025 19.3501 20.9159 19.2696 21.1152C19.1622 21.3811 18.9821 21.6118 18.7501 21.7803C18.518 21.9487 18.2431 22.0485 17.9571 22.0684C17.671 22.0882 17.385 22.0273 17.1319 21.8926V21.8916L12.5186 19.4668C12.3981 19.4036 12.2672 19.363 12.1329 19.3467L11.9971 19.3389C11.8157 19.3389 11.6363 19.3816 11.4756 19.4658L11.4766 19.4668L6.86041 21.8926L6.86138 21.8936C6.60837 22.0274 6.32269 22.0877 6.03716 22.0674C5.75176 22.047 5.47758 21.9475 5.24615 21.7793C5.01468 21.6109 4.83492 21.3806 4.72759 21.1152C4.64707 20.916 4.60996 20.7024 4.61724 20.4893L4.63873 20.2773L5.51959 15.1416L5.53423 15.0068C5.54084 14.8713 5.52268 14.7352 5.48052 14.6055C5.43834 14.4758 5.37311 14.3547 5.28814 14.249L5.19634 14.1484L1.46001 10.5117L1.46099 10.5107C1.25645 10.3121 1.11111 10.0608 1.04205 9.78418C0.981248 9.54043 0.980635 9.28572 1.04107 9.04297L0.9981 9L1.05572 8.99219C1.06055 8.97529 1.06493 8.95816 1.07037 8.94141L1.15044 8.74316C1.24396 8.55132 1.37743 8.38049 1.54205 8.24219L1.7149 8.11621C1.83543 8.04085 1.966 7.98271 2.10259 7.94336L2.31158 7.89844L7.47271 7.14453L7.60552 7.11621C7.73648 7.08062 7.86035 7.0216 7.97076 6.94141C8.11771 6.83462 8.23694 6.6941 8.31744 6.53125L10.626 1.85254L10.627 1.85156L10.7344 1.66797C10.854 1.49269 11.0089 1.34327 11.1905 1.23047L11.379 1.13086C11.5732 1.04493 11.7841 1 11.9981 1L12.21 1.01465ZM17.3878 20.624V20.6191L17.3858 20.6113L17.3878 20.624ZM18.0674 20.125L18.0723 20.127L18.0655 20.123L18.0674 20.125ZM11.9981 17.3389L12.1866 17.3447C12.6268 17.3714 13.0576 17.4906 13.4493 17.6963L17.2266 19.6826L16.5049 15.4795V15.4785C16.4197 14.9797 16.4578 14.4675 16.6143 13.9863C16.7709 13.5051 17.0419 13.069 17.4044 12.7158L20.4581 9.74121L16.2335 9.12305H16.2325C15.7328 9.04965 15.2582 8.85656 14.8497 8.55957C14.4411 8.26241 14.1106 7.86991 13.8868 7.41699H13.8858L11.9981 3.59375V17.3389Z" fill="#202327"/>
</g>
<defs>
<clipPath id="clip0_18_14682">
<rect width="24" height="24" fill="white"/>
</clipPath>
</defs>
</svg>
