<svg width="24" height="24" viewBox="0 0 24 24" fill="none" xmlns="http://www.w3.org/2000/svg">
<g clip-path="url(#clip0_18_14676)">
<path d="M12.1985 2.92188C12.3289 2.94014 12.456 2.97703 12.5764 3.03027L12.7522 3.12207L12.9124 3.23828C13.0136 3.32262 13.1027 3.42048 13.177 3.5293L13.2776 3.7002V3.70117L15.1252 7.44434L15.1672 7.51758C15.2134 7.58797 15.2726 7.64944 15.3411 7.69922C15.4323 7.76551 15.5381 7.80878 15.6497 7.8252L19.7815 8.42969H19.7805C19.9776 8.45824 20.1658 8.52775 20.3333 8.63281L20.4934 8.75L20.636 8.88867C20.724 8.98675 20.7979 9.09644 20.8557 9.21484L20.9309 9.39844L20.9788 9.59082C21.0018 9.72069 21.0059 9.85317 20.9924 9.98438L20.9592 10.1807C20.8956 10.4384 20.7606 10.673 20.5706 10.8584L20.5696 10.8594L17.5813 13.7695C17.5005 13.8484 17.4395 13.9454 17.4045 14.0527C17.3695 14.1603 17.362 14.2752 17.3811 14.3867H17.3801L18.0852 18.4932L18.1057 18.6914C18.1126 18.8898 18.078 19.088 18.0032 19.2734C17.9032 19.5209 17.7357 19.7357 17.5198 19.8926C17.3038 20.0494 17.0478 20.1426 16.7815 20.1611C16.517 20.1795 16.2532 20.1227 16.0188 19.999V20L12.3245 18.0576C12.2497 18.0184 12.1686 17.9936 12.0852 17.9834L12.0002 17.9775C11.8875 17.9776 11.7759 18.0043 11.676 18.0566L11.677 18.0576L7.98462 19.998L7.98559 19.999C7.75022 20.1235 7.48459 20.179 7.21899 20.1602C6.95324 20.1413 6.69815 20.0483 6.48267 19.8916C6.26713 19.7348 6.09915 19.5205 5.99927 19.2734C5.90003 19.0277 5.87124 18.7591 5.91626 18.498L6.62134 14.3867L6.63013 14.3027C6.63421 14.2186 6.62309 14.1343 6.59692 14.0537C6.57072 13.9731 6.53056 13.8977 6.47778 13.832L6.42017 13.7695L3.43188 10.8604L3.43286 10.8594C3.24254 10.6745 3.1065 10.441 3.04224 10.1836C2.9777 9.92492 2.98736 9.65301 3.06958 9.39941L3.14477 9.21484C3.23181 9.03632 3.35487 8.87674 3.50806 8.74805L3.66919 8.63086C3.78145 8.56068 3.90329 8.50732 4.03052 8.4707L4.22485 8.42871L8.35181 7.8252H8.35278L8.43481 7.80762C8.51623 7.7855 8.59371 7.74908 8.66235 7.69922C8.75354 7.63291 8.8272 7.5454 8.8772 7.44434L10.7239 3.70117L10.7249 3.7002L10.8245 3.5293C10.9359 3.36606 11.0811 3.22707 11.2502 3.12207L11.425 3.03027C11.6058 2.9503 11.8021 2.9082 12.0012 2.9082L12.1985 2.92188ZM7.05005 18.2305L7.05298 18.2295L7.05591 18.2275C7.05397 18.2285 7.05198 18.2294 7.05005 18.2305ZM10.6711 8.3291L10.6702 8.33008C10.4766 8.72182 10.1907 9.06058 9.83716 9.31738C9.52783 9.54205 9.17507 9.6987 8.802 9.77637L8.64087 9.80469L5.66235 10.2393L7.81567 12.3359V12.3369L7.92993 12.4541C8.18661 12.7364 8.38087 13.0706 8.49927 13.4346C8.61763 13.7986 8.65699 14.1833 8.61548 14.5625L8.59302 14.7246L8.08423 17.6865L10.7463 16.2871L10.8938 16.2158C11.2411 16.0595 11.6181 15.9776 12.0002 15.9775L12.1643 15.9824C12.5444 16.0055 12.9159 16.1096 13.2541 16.2871H13.2551L15.9172 17.6865L15.4094 14.7246V14.7236C15.3358 14.2927 15.3679 13.8503 15.5032 13.4346C15.6384 13.0188 15.8727 12.6421 16.1858 12.3369L18.3391 10.2402L15.3596 9.80469C14.9277 9.74128 14.5174 9.5732 14.1643 9.31641C13.8556 9.09184 13.5984 8.80491 13.4094 8.47461L13.3323 8.33008L12.0012 5.63281L10.6711 8.3291ZM4.50903 10.4082L4.50513 10.4092C4.50714 10.4089 4.50898 10.4075 4.51099 10.4072L4.50903 10.4082Z" fill="black"/>
</g>
<defs>
<clipPath id="clip0_18_14676">
<rect width="24" height="24" fill="white"/>
</clipPath>
</defs>
</svg>
