<svg width="24" height="24" viewBox="0 0 24 24" fill="none" xmlns="http://www.w3.org/2000/svg">
<path fill-rule="evenodd" clip-rule="evenodd" d="M11.998 3.59189L10.1106 7.41642C9.88658 7.86997 9.55546 8.26267 9.14617 8.55997C8.73687 8.85726 8.26146 9.05065 7.76086 9.12348L3.53615 9.74103L6.59144 12.7154C6.95427 13.0687 7.22581 13.5051 7.38242 13.9867C7.53902 14.4683 7.57611 14.9807 7.49051 15.4799C7.49051 15.4799 7.49052 15.4798 7.49051 15.4799L6.77009 19.6822L10.5454 17.6968C10.9931 17.4618 11.4918 17.3386 11.9974 17.3386C12.503 17.3386 13.0011 17.4615 13.4488 17.6965L17.2267 19.6828L16.5053 15.479C16.4201 14.9802 16.4572 14.4674 16.6138 13.9861C16.7704 13.5049 17.0415 13.0689 17.404 12.7157L20.4582 9.74166L16.2331 9.12335C15.7331 9.04997 15.258 8.8563 14.8493 8.55908C14.4407 8.26187 14.1102 7.86993 13.8864 7.4169L11.998 3.59189ZM2.5919 9.87906L2.59627 9.87841L2.5919 9.87906ZM11.1909 1.23013C11.4332 1.07971 11.7127 1 11.9979 1C12.2831 1 12.5626 1.07971 12.8049 1.23013C13.0472 1.38055 13.2426 1.5957 13.3691 1.8513L15.6794 6.53089C15.7599 6.6938 15.8787 6.83474 16.0257 6.94161C16.1725 7.0484 16.3431 7.118 16.5227 7.14443L21.6873 7.90023C21.687 7.90018 21.6876 7.90027 21.6873 7.90023C21.9695 7.94129 22.2356 8.06056 22.4537 8.24433C22.6721 8.4283 22.8346 8.6697 22.9229 8.94122C23.0112 9.21274 23.0218 9.50356 22.9534 9.78079C22.885 10.058 22.7404 10.3106 22.536 10.5099L18.7998 14.1481C18.6695 14.2751 18.572 14.4319 18.5157 14.6049C18.4594 14.7777 18.446 14.9616 18.4765 15.1408M18.4765 15.1408L19.3577 20.276C19.3579 20.2772 19.3581 20.2784 19.3583 20.2796C19.4073 20.5609 19.3766 20.8503 19.2696 21.1151C19.1622 21.3811 18.9822 21.6114 18.7501 21.78C18.5181 21.9485 18.2433 22.0485 17.9572 22.0684C17.6721 22.0882 17.3873 22.0278 17.1348 21.8941C17.1339 21.8936 17.1329 21.8931 17.1319 21.8926L12.519 19.4673C12.3582 19.3829 12.1789 19.3386 11.9974 19.3386C11.8157 19.3386 11.6367 19.3828 11.4759 19.4672C11.4758 19.4672 11.4759 19.4672 11.4759 19.4672L6.86177 21.8937C6.86124 21.894 6.86072 21.8942 6.86019 21.8945C6.6075 22.0279 6.32249 22.0879 6.03745 22.0676C5.75181 22.0473 5.4776 21.9473 5.24602 21.7788C5.01443 21.6104 4.83476 21.3804 4.72744 21.1149C4.62042 20.8502 4.58962 20.5608 4.63852 20.2795C4.63866 20.2787 4.6388 20.2779 4.63894 20.2771L5.51927 15.1419C5.55004 14.9625 5.53673 14.7783 5.48045 14.6052C5.42418 14.4321 5.32668 14.2754 5.19634 14.1484C5.1963 14.1484 5.19638 14.1485 5.19634 14.1484L1.46318 10.5142C1.46257 10.5136 1.46196 10.513 1.46135 10.5124C1.25618 10.3136 1.11076 10.0613 1.0416 9.78403C0.972224 9.50597 0.982343 9.21402 1.0708 8.94143C1.15926 8.66883 1.32249 8.42657 1.54192 8.24222C1.7606 8.0585 2.02634 7.93967 2.30903 7.89915L7.47225 7.14441C7.65216 7.11824 7.82369 7.04864 7.97079 6.94179C8.11776 6.83504 8.23662 6.69419 8.31714 6.53136L10.6267 1.8513C10.7532 1.5957 10.9486 1.38055 11.1909 1.23013" fill="#202327"/>
</svg>
