<svg width="24" height="24" viewBox="0 0 24 24" fill="none" xmlns="http://www.w3.org/2000/svg">
<path d="M12.2138 1.01465C12.3539 1.03427 12.4906 1.07366 12.6201 1.13086L12.8085 1.23047L12.9814 1.35449C13.0902 1.44521 13.1857 1.55091 13.2656 1.66797L13.373 1.85156V1.85254L15.6835 6.53125L15.7509 6.64844C15.8251 6.76176 15.9191 6.86126 16.0292 6.94141C16.1762 7.04827 16.3475 7.11815 16.5273 7.14453H16.5263L21.6923 7.90039H21.6913C21.9031 7.93113 22.1052 8.00616 22.2851 8.11914L22.4579 8.24414L22.6103 8.39258C22.7051 8.49818 22.7844 8.6166 22.8466 8.74414L22.9267 8.94141L22.9785 9.14844C23.0154 9.35759 23.0082 9.57352 22.957 9.78125C22.8886 10.0582 22.7442 10.3106 22.54 10.5098L22.539 10.5107L18.8036 14.1484C18.6735 14.2753 18.5758 14.4317 18.5195 14.6045C18.4633 14.7773 18.45 14.9615 18.4804 15.1406L19.3613 20.2764L19.3837 20.4893C19.3911 20.7025 19.3539 20.9159 19.2734 21.1152C19.166 21.3811 18.9858 21.6118 18.7538 21.7803C18.5219 21.9487 18.2469 22.0484 17.9609 22.0684C17.6748 22.0882 17.3888 22.0273 17.1357 21.8926V21.8916L12.5224 19.4668C12.4019 19.4036 12.271 19.363 12.1367 19.3467L12.0009 19.3389C11.8195 19.3389 11.6401 19.3816 11.4794 19.4658L11.4804 19.4668L6.8642 21.8926L6.86517 21.8936C6.6122 22.0274 6.32645 22.0877 6.04096 22.0674C5.75556 22.047 5.48137 21.9475 5.24994 21.7793C5.01845 21.6109 4.83872 21.3806 4.73138 21.1152C4.65085 20.916 4.61375 20.7025 4.62103 20.4893L4.64252 20.2773L5.52338 15.1416L5.53803 15.0068C5.54463 14.8713 5.52647 14.7352 5.48431 14.6055C5.44213 14.4758 5.37691 14.3547 5.29193 14.249L5.20013 14.1484L1.46381 10.5117L1.46478 10.5107C1.26022 10.3121 1.11491 10.0609 1.04584 9.78418C0.976493 9.50618 0.985746 9.21394 1.07416 8.94141L1.15424 8.74317C1.24775 8.55134 1.38123 8.38048 1.54584 8.24219L1.71869 8.11621C1.83919 8.04088 1.96983 7.9827 2.10638 7.94336L2.31537 7.89844L7.4765 7.14453L7.60931 7.11621C7.74023 7.08062 7.86417 7.02158 7.97455 6.94141C8.12147 6.83463 8.24075 6.69407 8.32123 6.53125L10.6298 1.85254L10.6308 1.85156L10.7382 1.66797C10.8578 1.49272 11.0128 1.34326 11.1943 1.23047L11.3828 1.13086C11.577 1.04496 11.788 1 12.0019 1L12.2138 1.01465Z" fill="#202327"/>
</svg>
