<svg width="24" height="24" viewBox="0 0 24 24" fill="none" xmlns="http://www.w3.org/2000/svg">
<path d="M12.0979 2.91406C12.2282 2.93234 12.3554 2.96926 12.4758 3.02246L12.6516 3.11426L12.8117 3.23047C12.9129 3.31481 13.0021 3.41268 13.0764 3.52148L13.176 3.69238L13.177 3.69336L15.0246 7.43652L15.0666 7.50977C15.1128 7.58022 15.172 7.64256 15.2404 7.69238C15.3315 7.75851 15.4377 7.80191 15.549 7.81836L19.6818 8.42285H19.6809C19.8779 8.45149 20.0662 8.52087 20.2336 8.62598L20.3938 8.74317L20.5363 8.88086C20.6245 8.97911 20.6982 9.08937 20.7561 9.20801L20.8303 9.3916L20.8781 9.58399C20.9011 9.7138 20.9063 9.8464 20.8928 9.97754L20.8586 10.1729C20.8109 10.3662 20.7228 10.5468 20.6018 10.7031L20.4699 10.8516L17.4807 13.7627C17.4002 13.8414 17.3398 13.9389 17.3049 14.0459C17.2701 14.1531 17.2616 14.2678 17.2805 14.3789L17.9846 18.4863L18.0061 18.6846C18.0129 18.8831 17.9775 19.0821 17.9025 19.2676C17.8025 19.5148 17.6349 19.729 17.4191 19.8857C17.2034 20.0423 16.9478 20.1357 16.6818 20.1543C16.4157 20.1727 16.1488 20.1166 15.9133 19.9912V19.9902L12.2238 18.0508V18.0518C12.1488 18.0124 12.0673 17.9867 11.9836 17.9766L11.8996 17.9717C11.7868 17.9718 11.6753 17.9993 11.5754 18.0518L11.5744 18.0508L7.88398 19.9912L7.88496 19.9922C7.64953 20.1167 7.38305 20.1732 7.11738 20.1543C6.85173 20.1353 6.59644 20.0414 6.38105 19.8848C6.16579 19.7281 5.9985 19.5144 5.89863 19.2676C5.82378 19.0824 5.78847 18.8837 5.79511 18.6856L5.81562 18.4873L6.51972 14.3799L6.52949 14.2959C6.53357 14.2117 6.52249 14.1265 6.49629 14.0459C6.47007 13.9654 6.42891 13.8908 6.37617 13.8252L6.31953 13.7627L3.33027 10.8525L3.33125 10.8516C3.14111 10.6668 3.00485 10.4331 2.94062 10.1758C2.87618 9.91722 2.88579 9.64509 2.96796 9.3916L3.04316 9.20703C3.13007 9.02891 3.25365 8.86972 3.40644 8.74121L3.56757 8.62402C3.67978 8.55385 3.80173 8.49953 3.9289 8.46289L4.12324 8.4209L8.25019 7.81836H8.25117L8.33418 7.80078C8.41521 7.77872 8.49236 7.74192 8.56074 7.69238C8.65207 7.62605 8.7265 7.53769 8.77656 7.43652L10.6232 3.69336L10.6242 3.69238L10.7238 3.52148C10.8351 3.35849 10.9798 3.21919 11.1486 3.11426L11.3244 3.02246C11.5049 2.94267 11.7009 2.90052 11.8996 2.90039L12.0979 2.91406ZM11.8996 15.9717L12.0627 15.9766C12.3889 15.9963 12.7091 16.0749 13.007 16.209L13.1535 16.2803L13.1545 16.2813L15.8176 17.6807L15.3088 14.7178V14.7168C15.2352 14.286 15.2675 13.8433 15.4025 13.4277C15.5377 13.0122 15.7723 12.6351 16.0852 12.3301V12.3291L18.2385 10.2324L15.259 9.79688C14.8272 9.73343 14.4166 9.56625 14.0637 9.30957C13.7548 9.08494 13.4978 8.7972 13.3088 8.4668L13.2316 8.32227L11.8996 5.62598V15.9717ZM19.3938 10.4023L19.3918 10.4014L19.384 10.3994L19.3938 10.4023Z" fill="#202327"/>
</svg>
