<svg width="24" height="24" viewBox="0 0 24 24" fill="none" xmlns="http://www.w3.org/2000/svg">
<g clip-path="url(#clip0_18_15402)">
<path d="M17 12C17 9.59285 16.6748 8.48922 16.0928 7.90723C15.5108 7.32523 14.4071 7 12 7C9.59285 7 8.48922 7.32523 7.90723 7.90723C7.32523 8.48922 7 9.59285 7 12C7 14.4071 7.32523 15.5108 7.90723 16.0928C8.48922 16.6748 9.59285 17 12 17C14.4071 17 15.5108 16.6748 16.0928 16.0928C16.6748 15.5108 17 14.4071 17 12ZM19 12C19 14.3929 18.7248 16.2888 17.5068 17.5068C16.2888 18.7248 14.3929 19 12 19C9.60715 19 7.71117 18.7248 6.49316 17.5068C5.27516 16.2888 5 14.3929 5 12C5 9.60715 5.27516 7.71117 6.49316 6.49316C7.71117 5.27516 9.60715 5 12 5C14.3929 5 16.2888 5.27516 17.5068 6.49316C18.7248 7.71117 19 9.60715 19 12Z" fill="#151826"/>
</g>
<defs>
<clipPath id="clip0_18_15402">
<rect width="24" height="24" fill="white"/>
</clipPath>
</defs>
</svg>
