<svg width="24" height="24" viewBox="0 0 24 24" fill="none" xmlns="http://www.w3.org/2000/svg">
<g clip-path="url(#clip0_18_12667)">
<path fill-rule="evenodd" clip-rule="evenodd" d="M18 23H15V18C15 16.8954 14.1046 16 13 16H11C10.8968 16 10.7954 16.0078 10.6964 16.0229C9.73591 16.1692 9 16.9986 9 18V23H6C5.20435 23 4.44129 22.6839 3.87868 22.1213C3.31607 21.5587 3 20.7957 3 20V12.9416C3.64586 12.837 4.26419 12.602 4.8 12.2449C5.48757 12.7032 6.31105 12.9603 7.15418 12.999C7.18471 13.0003 7.21529 13.0003 7.24582 12.999C8.08895 12.9603 8.91243 12.7032 9.6 12.2449C9.73598 12.3355 9.87728 12.4183 10.023 12.4931C10.6141 12.7963 11.2778 12.9679 11.9542 12.999C11.9847 13.0003 12.0153 13.0003 12.0458 12.999C12.889 12.9603 13.7124 12.7032 14.4 12.2449C15.0876 12.7032 15.911 12.9603 16.7542 12.999C16.7847 13.0003 16.8153 13.0003 16.8458 12.999C17.689 12.9603 18.5124 12.7032 19.2 12.2449C19.7358 12.602 20.3541 12.837 21 12.9416V20C21 20.7957 20.6839 21.5587 20.1213 22.1213C19.5587 22.6839 18.7957 23 18 23ZM23 10V7C23 6.73478 22.8946 6.48043 22.7071 6.29289L18.2992 1.885L18.2979 1.88366C18.0191 1.60354 17.6876 1.38127 17.3227 1.22962C16.9573 1.07783 16.5656 0.999792 16.17 1H7.83038C7.43478 0.999792 7.04266 1.07783 6.67734 1.22962C6.31229 1.38129 5.98081 1.60362 5.70197 1.88381L5.70079 1.885L1.29289 6.29289C1.10536 6.48043 1 6.73478 1 7V10C1 10.2003 1.09407 10.4384 1.34313 10.646C1.59306 10.8543 1.96253 10.995 2.3778 10.9999C2.89393 10.972 3.36851 10.8074 3.73387 10.5512C3.75284 10.5379 3.77227 10.5253 3.79212 10.5133C4.10003 10.3279 4.45234 10.2374 4.8 10.2374C5.14766 10.2374 5.49998 10.3279 5.80788 10.5133C5.82773 10.5253 5.84716 10.5379 5.86613 10.5512C6.22624 10.8038 6.69247 10.9672 7.2 10.9986C7.70753 10.9672 8.17376 10.8038 8.53387 10.5512C8.55284 10.5379 8.57227 10.5253 8.59212 10.5133C8.89786 10.3292 9.24738 10.2386 9.59266 10.2374C9.59511 10.2374 9.59755 10.2374 9.6 10.2374C9.94766 10.2374 10.3 10.3279 10.6079 10.5133C10.6277 10.5253 10.6472 10.5379 10.6661 10.5512C11.0262 10.8038 11.4925 10.9672 12 10.9986C12.5075 10.9672 12.9738 10.8038 13.3339 10.5512C13.3528 10.5379 13.3723 10.5253 13.3921 10.5133C13.7 10.3279 14.0523 10.2374 14.4 10.2374C14.7477 10.2374 15.1 10.3279 15.4079 10.5133C15.4277 10.5253 15.4472 10.5379 15.4661 10.5512C15.8262 10.8038 16.2925 10.9672 16.8 10.9986C17.3075 10.9672 17.7738 10.8038 18.1339 10.5512C18.1528 10.5379 18.1723 10.5253 18.1921 10.5133C18.5 10.3279 18.8523 10.2374 19.2 10.2374C19.5477 10.2374 19.9 10.3279 20.2079 10.5133C20.2277 10.5253 20.2472 10.5379 20.2661 10.5512C20.6315 10.8074 21.1061 10.972 21.6222 10.9999C22.0375 10.995 22.4069 10.8543 22.6569 10.646C22.9059 10.4384 23 10.2003 23 10Z" fill="#202327"/>
</g>
<defs>
<clipPath id="clip0_18_12667">
<rect width="24" height="24" fill="white"/>
</clipPath>
</defs>
</svg>
