<svg width="24" height="24" viewBox="0 0 24 24" fill="none" xmlns="http://www.w3.org/2000/svg">
<g clip-path="url(#clip0_18_12663)">
<path fill-rule="evenodd" clip-rule="evenodd" d="M7.82921 3C7.69725 2.9999 7.56658 3.02591 7.44472 3.07654C7.32287 3.12717 7.21224 3.20142 7.11921 3.295L7.11711 3.29711L4.41421 6H19.5858L16.8829 3.29711L16.8808 3.295C16.7878 3.20142 16.6771 3.12717 16.5553 3.07654C16.4334 3.02591 16.3027 2.9999 16.1708 3H7.82921ZM21 8H3V10C3 10.2652 3.10536 10.5196 3.29289 10.7071C3.47431 10.8885 3.71826 10.993 3.97408 10.9997C4.33137 10.9739 4.67168 10.8358 4.94615 10.6048C4.96497 10.589 4.98436 10.5739 5.00429 10.5595C5.29406 10.3501 5.64248 10.2374 6 10.2374C6.35752 10.2374 6.70594 10.3501 6.99571 10.5595C7.01564 10.5739 7.03503 10.589 7.05385 10.6048C7.32168 10.8302 7.65218 10.9671 8 10.9976C8.34782 10.9671 8.67832 10.8302 8.94615 10.6048C8.96497 10.589 8.98436 10.5739 9.00429 10.5595C9.29406 10.3501 9.64248 10.2374 10 10.2374C10.3575 10.2374 10.7059 10.3501 10.9957 10.5595C11.0156 10.5739 11.035 10.589 11.0538 10.6048C11.3217 10.8302 11.6522 10.9671 12 10.9976C12.3478 10.9671 12.6783 10.8302 12.9462 10.6048C12.965 10.589 12.9844 10.5739 13.0043 10.5595C13.2941 10.3501 13.6425 10.2374 14 10.2374C14.3575 10.2374 14.7059 10.3501 14.9957 10.5595C15.0156 10.5739 15.035 10.589 15.0538 10.6048C15.3217 10.8302 15.6522 10.9671 16 10.9976C16.3478 10.9671 16.6783 10.8302 16.9462 10.6048C16.965 10.589 16.9844 10.5739 17.0043 10.5595C17.2941 10.3501 17.6425 10.2374 18 10.2374C18.3575 10.2374 18.7059 10.3501 18.9957 10.5595C19.0156 10.5739 19.035 10.589 19.0538 10.6048C19.3283 10.8358 19.6686 10.9739 20.0259 10.9997C20.2817 10.993 20.5257 10.8885 20.7071 10.7071C20.8946 10.5196 21 10.2652 21 10V8ZM19 12.8214C18.6442 12.7052 18.3068 12.5353 18 12.3165C17.431 12.7223 16.7568 12.9599 16.055 12.9985C16.0183 13.0005 15.9817 13.0005 15.945 12.9985C15.2432 12.9599 14.569 12.7223 14 12.3165C13.431 12.7223 12.7568 12.9599 12.055 12.9985C12.0183 13.0005 11.9817 13.0005 11.945 12.9985C11.2432 12.9599 10.569 12.7223 10 12.3165C9.43101 12.7223 8.75681 12.9599 8.05496 12.9985C8.01835 13.0005 7.98165 13.0005 7.94504 12.9985C7.24319 12.9599 6.569 12.7223 6 12.3165C5.6932 12.5353 5.35582 12.7052 5 12.8214V20C5 20.2652 5.10536 20.5196 5.29289 20.7071C5.48043 20.8946 5.73478 21 6 21H8V18C8 17.2043 8.31607 16.4413 8.87868 15.8787C9.44129 15.3161 10.2043 15 11 15H13C13.7957 15 14.5587 15.3161 15.1213 15.8787C15.6839 16.4413 16 17.2043 16 18V21H18C18.2652 21 18.5196 20.8946 18.7071 20.7071C18.8946 20.5196 19 20.2652 19 20V12.8214ZM14 21V18C14 17.7348 13.8946 17.4804 13.7071 17.2929C13.5196 17.1054 13.2652 17 13 17H11C10.7348 17 10.4804 17.1054 10.2929 17.2929C10.1054 17.4804 10 17.7348 10 18V21H14ZM9 23H18C18.7957 23 19.5587 22.6839 20.1213 22.1213C20.6839 21.5587 21 20.7957 21 20V12.8284C21.4179 12.6807 21.8019 12.4407 22.1213 12.1213C22.6839 11.5587 23 10.7957 23 10V7C23 6.73478 22.8946 6.48043 22.7071 6.29289L18.2992 1.885L18.2979 1.88366C18.0191 1.60354 17.6876 1.38127 17.3227 1.22962C16.9573 1.07783 16.5656 0.999792 16.17 1H7.83038M9 23H6C5.20435 23 4.44129 22.6839 3.87868 22.1213C3.31607 21.5587 3 20.7957 3 20V12.8284C2.5821 12.6807 2.19808 12.4407 1.87868 12.1213C1.31607 11.5587 1 10.7956 1 10V7C1 6.73478 1.10536 6.48043 1.29289 6.29289L5.70079 1.885L5.70197 1.88381C5.98081 1.60362 6.31229 1.38129 6.67734 1.22962C7.04266 1.07783 7.43478 0.999792 7.83038 1" fill="#202327"/>
</g>
<defs>
<clipPath id="clip0_18_12663">
<rect width="24" height="24" fill="white"/>
</clipPath>
</defs>
</svg>
