<svg width="24" height="24" viewBox="0 0 24 24" fill="none" xmlns="http://www.w3.org/2000/svg">
<g clip-path="url(#clip0_18_15808)">
<path fill-rule="evenodd" clip-rule="evenodd" d="M12 1C12.5523 1 13 1.44772 13 2V4C13 4.55228 12.5523 5 12 5C11.4477 5 11 4.55228 11 4V2C11 1.44772 11.4477 1 12 1ZM4.22295 4.22282C4.61347 3.8323 5.24664 3.8323 5.63716 4.22282L7.04716 5.63282C7.43769 6.02335 7.43769 6.65651 7.04716 7.04704C6.65664 7.43756 6.02347 7.43756 5.63295 7.04704L4.22295 5.63704C3.83242 5.24651 3.83242 4.61335 4.22295 4.22282ZM19.777 4.22282C20.1675 4.61335 20.1675 5.24651 19.777 5.63704L18.367 7.04704C17.9765 7.43756 17.3433 7.43756 16.9528 7.04704C16.5623 6.65651 16.5623 6.02335 16.9528 5.63283L18.3628 4.22283C18.7533 3.8323 19.3865 3.8323 19.777 4.22282ZM7 12C7 9.23858 9.23858 7 12 7C14.7614 7 17 9.23858 17 12C17 14.7614 14.7614 17 12 17C9.23858 17 7 14.7614 7 12ZM1 12C1 11.4477 1.44772 11 2 11H4C4.55228 11 5 11.4477 5 12C5 12.5523 4.55228 13 4 13H2C1.44772 13 1 12.5523 1 12ZM19 12C19 11.4477 19.4477 11 20 11H22C22.5523 11 23 11.4477 23 12C23 12.5523 22.5523 13 22 13H20C19.4477 13 19 12.5523 19 12ZM7.04716 16.9528C7.43769 17.3433 7.43769 17.9765 7.04716 18.367L5.63716 19.777C5.24664 20.1675 4.61347 20.1675 4.22295 19.777C3.83242 19.3865 3.83242 18.7533 4.22295 18.3628L5.63295 16.9528C6.02347 16.5623 6.65664 16.5623 7.04716 16.9528ZM16.9528 16.9528C17.3433 16.5623 17.9765 16.5623 18.367 16.9528L19.777 18.3628C20.1675 18.7533 20.1675 19.3865 19.777 19.777C19.3865 20.1675 18.7533 20.1675 18.3628 19.777L16.9528 18.367C16.5623 17.9765 16.5623 17.3433 16.9528 16.9528ZM12 19C12.5523 19 13 19.4477 13 20V22C13 22.5523 12.5523 23 12 23C11.4477 23 11 22.5523 11 22V20C11 19.4477 11.4477 19 12 19Z" fill="#202327"/>
</g>
<defs>
<clipPath id="clip0_18_15808">
<rect width="24" height="24" fill="white"/>
</clipPath>
</defs>
</svg>
