<svg width="24" height="24" viewBox="0 0 24 24" fill="none" xmlns="http://www.w3.org/2000/svg">
<g clip-path="url(#clip0_2169_236)">
<path fill-rule="evenodd" clip-rule="evenodd" d="M11 4C11 3.44772 11.4477 3 12 3H12.01C12.5623 3 13.01 3.44772 13.01 4C13.01 4.55228 12.5623 5 12.01 5H12C11.4477 5 11 4.55228 11 4ZM5.34302 6.34302C5.34302 5.79073 5.79073 5.34302 6.34302 5.34302H6.35302C6.9053 5.34302 7.35302 5.79073 7.35302 6.34302C7.35302 6.8953 6.9053 7.34302 6.35302 7.34302H6.34302C5.79073 7.34302 5.34302 6.8953 5.34302 6.34302ZM16.657 6.34302C16.657 5.79073 17.1047 5.34302 17.657 5.34302H17.667C18.2193 5.34302 18.667 5.79073 18.667 6.34302C18.667 6.8953 18.2193 7.34302 17.667 7.34302H17.657C17.1047 7.34302 16.657 6.8953 16.657 6.34302ZM7 12C7 9.23858 9.23858 7 12 7C14.7614 7 17 9.23858 17 12C17 14.7614 14.7614 17 12 17C9.23858 17 7 14.7614 7 12ZM3 12C3 11.4477 3.44772 11 4 11H4.01C4.56228 11 5.01 11.4477 5.01 12C5.01 12.5523 4.56228 13 4.01 13H4C3.44772 13 3 12.5523 3 12ZM19 12C19 11.4477 19.4477 11 20 11H20.01C20.5623 11 21.01 11.4477 21.01 12C21.01 12.5523 20.5623 13 20.01 13H20C19.4477 13 19 12.5523 19 12ZM5.34302 17.657C5.34302 17.1047 5.79073 16.657 6.34302 16.657H6.35302C6.9053 16.657 7.35302 17.1047 7.35302 17.657C7.35302 18.2093 6.9053 18.657 6.35302 18.657H6.34302C5.79073 18.657 5.34302 18.2093 5.34302 17.657ZM16.657 17.657C16.657 17.1047 17.1047 16.657 17.657 16.657H17.667C18.2193 16.657 18.667 17.1047 18.667 17.657C18.667 18.2093 18.2193 18.657 17.667 18.657H17.657C17.1047 18.657 16.657 18.2093 16.657 17.657ZM11 20C11 19.4477 11.4477 19 12 19H12.01C12.5623 19 13.01 19.4477 13.01 20C13.01 20.5523 12.5623 21 12.01 21H12C11.4477 21 11 20.5523 11 20Z" fill="#202327"/>
</g>
<defs>
<clipPath id="clip0_2169_236">
<rect width="24" height="24" fill="white"/>
</clipPath>
</defs>
</svg>
