<svg width="24" height="24" viewBox="0 0 24 24" fill="none" xmlns="http://www.w3.org/2000/svg">
<path d="M1 12C0.999999 5.92487 5.92487 1 12 1C18.0751 0.999999 23 5.92487 23 12C23 18.0751 18.0751 23 12 23C5.92487 23 1 18.0751 1 12ZM12.5 16.5C12.5 16.9044 12.7436 17.269 13.1172 17.4238C13.4909 17.5786 13.921 17.493 14.207 17.207L17.707 13.707L17.7754 13.6309C18.0957 13.2381 18.0731 12.6591 17.707 12.293C17.3409 11.9269 16.7619 11.9043 16.3691 12.2246L16.293 12.293L14.5 14.0859L14.5 7.5C14.5 6.94772 14.0523 6.5 13.5 6.5C12.9477 6.5 12.5 6.94772 12.5 7.5L12.5 16.5ZM6.22461 10.3691C5.90426 10.7619 5.92685 11.3409 6.29297 11.707C6.65908 12.0731 7.23809 12.0957 7.63086 11.7754L7.70703 11.707L9.5 9.91406L9.5 16.5C9.5 17.0523 9.94771 17.5 10.5 17.5C11.0523 17.5 11.5 17.0523 11.5 16.5L11.5 7.5C11.5 7.09558 11.2564 6.73098 10.8828 6.57617C10.5091 6.42139 10.079 6.50697 9.79297 6.79297L6.29297 10.293L6.22461 10.3691Z" fill="#202327"/>
</svg>
