<svg width="24" height="24" viewBox="0 0 24 24" fill="none" xmlns="http://www.w3.org/2000/svg">
<path d="M12 3C7.02944 3 3 7.02944 3 12C3 16.9706 7.02944 21 12 21C16.9706 21 21 16.9706 21 12C21 7.02944 16.9706 3 12 3ZM12.5 7.5C12.5 6.94772 12.9477 6.5 13.5 6.5C14.0523 6.5 14.5 6.94772 14.5 7.5L14.5 14.0859L16.293 12.293L16.3691 12.2246C16.7619 11.9043 17.3409 11.9269 17.707 12.293C18.0731 12.6591 18.0957 13.2381 17.7754 13.6309L17.707 13.707L14.207 17.207C13.921 17.493 13.4909 17.5786 13.1172 17.4238C12.7436 17.269 12.5 16.9044 12.5 16.5L12.5 7.5ZM6.29297 11.707C5.92685 11.3409 5.90426 10.7619 6.22461 10.3691L6.29297 10.293L9.79297 6.79297C10.079 6.50697 10.5091 6.42139 10.8828 6.57617C11.2564 6.73098 11.5 7.09558 11.5 7.5L11.5 16.5C11.5 17.0523 11.0523 17.5 10.5 17.5C9.94771 17.5 9.5 17.0523 9.5 16.5L9.5 9.91406L7.70703 11.707L7.63086 11.7754C7.23809 12.0957 6.65908 12.0731 6.29297 11.707ZM12 1C18.0751 0.999999 23 5.92487 23 12C23 18.0751 18.0751 23 12 23C5.92487 23 1 18.0751 1 12C0.999999 5.92487 5.92487 1 12 1Z" fill="#202327"/>
</svg>
