<svg width="24" height="24" viewBox="0 0 24 24" fill="none" xmlns="http://www.w3.org/2000/svg">
<g clip-path="url(#clip0_18_13153)">
<path fill-rule="evenodd" clip-rule="evenodd" d="M9 1C7.89543 1 7 1.89543 7 3H6C5.20435 3 4.44129 3.31607 3.87868 3.87868C3.31607 4.44129 3 5.20435 3 6V20C3 20.7957 3.31607 21.5587 3.87868 22.1213C4.44129 22.6839 5.20435 23 6 23H18C18.7957 23 19.5587 22.6839 20.1213 22.1213C20.6839 21.5587 21 20.7957 21 20V6C21 5.20435 20.6839 4.44129 20.1213 3.87868C19.5587 3.31607 18.7956 3 18 3H17C17 1.89543 16.1046 1 15 1H9ZM9 4C9 4.55228 9.44772 5 10 5H14C14.5523 5 15 4.55228 15 4C15 3.44772 14.5523 3 14 3H10C9.44772 3 9 3.44772 9 4ZM8 10C7.44772 10 7 10.4477 7 11C7 11.5523 7.44772 12 8 12H8.01C8.56228 12 9.01 11.5523 9.01 11C9.01 10.4477 8.56228 10 8.01 10H8ZM12 10C11.4477 10 11 10.4477 11 11C11 11.5523 11.4477 12 12 12H16C16.5523 12 17 11.5523 17 11C17 10.4477 16.5523 10 16 10H12ZM8 15C7.44772 15 7 15.4477 7 16C7 16.5523 7.44772 17 8 17H8.01C8.56228 17 9.01 16.5523 9.01 16C9.01 15.4477 8.56228 15 8.01 15H8ZM12 15C11.4477 15 11 15.4477 11 16C11 16.5523 11.4477 17 12 17H16C16.5523 17 17 16.5523 17 16C17 15.4477 16.5523 15 16 15H12Z" fill="#202327"/>
</g>
<defs>
<clipPath id="clip0_18_13153">
<rect width="24" height="24" fill="white"/>
</clipPath>
</defs>
</svg>
