<svg width="24" height="24" viewBox="0 0 24 24" fill="none" xmlns="http://www.w3.org/2000/svg">
<g clip-path="url(#clip0_1371_159)">
<path fill-rule="evenodd" clip-rule="evenodd" d="M14.7429 1.10948C16.1428 0.854411 17.5872 1.03203 18.8836 1.61868C19.1827 1.75402 19.3963 2.02753 19.4551 2.35048C19.514 2.67344 19.4106 3.00472 19.1784 3.23684L15.4155 6.99974L17.0013 8.58552L20.7642 4.82263C20.9963 4.5905 21.3276 4.48709 21.6506 4.54593C21.9735 4.60478 22.247 4.81838 22.3824 5.11746C22.969 6.41385 23.1466 7.85824 22.8916 9.25813C22.6365 10.658 21.9609 11.9469 20.9547 12.9531C19.9485 13.9593 18.6596 14.6349 17.2597 14.89C16.0923 15.1027 14.8939 15.0145 13.7762 14.6391L7.32843 21.0868C6.74307 21.6722 5.94915 22.0011 5.12132 22.0011C4.29349 22.0011 3.49957 21.6722 2.91421 21.0868C2.32885 20.5015 2 19.7076 2 18.8797C2 18.0519 2.32885 17.258 2.91421 16.6726L9.36197 10.2249C8.98656 9.10718 8.89835 7.90879 9.11106 6.74134C9.36612 5.34144 10.0418 4.05252 11.0479 3.04635C12.0541 2.04018 13.343 1.36454 14.7429 1.10948Z" fill="#202327"/>
</g>
<defs>
<clipPath id="clip0_1371_159">
<rect width="24" height="24" fill="white"/>
</clipPath>
</defs>
</svg>
