<svg width="24" height="24" viewBox="0 0 24 24" fill="none" xmlns="http://www.w3.org/2000/svg">
<g clip-path="url(#clip0_1371_160)">
<path fill-rule="evenodd" clip-rule="evenodd" d="M16.5591 3.02772C16.0762 2.97314 15.5851 2.98896 15.1014 3.07708C14.1015 3.25927 13.1808 3.74187 12.4621 4.46056C11.7435 5.17926 11.2609 6.09992 11.0787 7.09984C10.8965 8.09977 11.0234 9.13147 11.4424 10.0575C11.614 10.4367 11.5327 10.8825 11.2384 11.1768L4.32843 18.0868C4.11814 18.2971 4 18.5823 4 18.8797C4 19.1771 4.11814 19.4623 4.32843 19.6726C4.53872 19.8829 4.82393 20.0011 5.12132 20.0011C5.41871 20.0011 5.70392 19.8829 5.91421 19.6726L12.8242 12.7626C13.1185 12.4683 13.5644 12.3871 13.9436 12.5587C14.8696 12.9777 15.9013 13.1046 16.9012 12.9224C17.9011 12.7402 18.8218 12.2576 19.5405 11.5389C20.2592 10.8202 20.7418 9.89956 20.924 8.89963C21.0121 8.41598 21.0279 7.9249 20.9733 7.44193L18.4014 10.0139C18.0275 10.3804 17.5248 10.5856 17.0013 10.5856C16.4778 10.5856 15.9752 10.3803 15.6013 10.0139L15.5942 10.0069L13.9871 8.39977C13.6207 8.02592 13.4155 7.52324 13.4155 6.99974C13.4155 6.47623 13.6207 5.97359 13.9872 5.59974L13.9942 5.59259L16.5591 3.02772ZM14.7429 1.10948C16.1428 0.854411 17.5872 1.03203 18.8836 1.61868C19.1827 1.75402 19.3963 2.02753 19.4551 2.35048C19.514 2.67344 19.4106 3.00472 19.1784 3.23684L15.4155 6.99974L17.0013 8.58552L20.7642 4.82263C20.9963 4.5905 21.3276 4.48709 21.6506 4.54593C21.9735 4.60478 22.247 4.81838 22.3824 5.11746C22.969 6.41385 23.1466 7.85824 22.8916 9.25813C22.6365 10.658 21.9609 11.9469 20.9547 12.9531C19.9485 13.9593 18.6596 14.6349 17.2597 14.89C16.0923 15.1027 14.8939 15.0145 13.7762 14.6391L7.32843 21.0868C6.74307 21.6722 5.94915 22.0011 5.12132 22.0011C4.29349 22.0011 3.49957 21.6722 2.91421 21.0868C2.32885 20.5015 2 19.7076 2 18.8797C2 18.0519 2.32885 17.258 2.91421 16.6726L9.36197 10.2249C8.98656 9.10718 8.89835 7.90879 9.11106 6.74134C9.36612 5.34144 10.0418 4.05252 11.0479 3.04635C12.0541 2.04018 13.343 1.36454 14.7429 1.10948Z" fill="#202327"/>
</g>
<defs>
<clipPath id="clip0_1371_160">
<rect width="24" height="24" fill="white"/>
</clipPath>
</defs>
</svg>
