<svg width="24" height="24" viewBox="0 0 24 24" fill="none" xmlns="http://www.w3.org/2000/svg">
<g clip-path="url(#clip0_18_14365)">
<path d="M3.13631 15.3684C3.74673 15.3684 4.24157 15.8633 4.24157 16.4737V17.5789C4.24139 18.1366 4.45202 18.6738 4.83123 19.0827C5.21043 19.4916 5.73019 19.7421 6.28631 19.7839L6.4521 19.7895H8.66262C9.27304 19.7895 9.76789 20.2843 9.76789 20.8947C9.76789 21.5052 9.27304 22 8.66262 22H6.4521C5.27956 22 4.15505 21.5342 3.32594 20.7051C2.49683 19.876 2.03104 18.7515 2.03104 17.5789V16.4737C2.03104 15.8633 2.52589 15.3684 3.13631 15.3684ZM17.933 9.8421C18.3419 9.8421 18.7096 10.0911 18.8614 10.4707L22.9246 20.6286C23.1873 21.2855 22.7036 22 21.9961 22H21.7681C21.3593 22 20.9917 21.7512 20.8398 21.3717L19.7639 18.6842H15.2434L14.1695 21.3711C14.0177 21.7509 13.6499 22 13.2409 22H13.0143C12.3069 22 11.8231 21.2855 12.0858 20.6287L16.1481 10.4708C16.2999 10.0911 16.6676 9.8421 17.0766 9.8421H17.933ZM17.5047 13.0308L16.1265 16.4737H18.8808L17.5047 13.0308ZM6.4521 1C7.06252 1 7.55736 1.49484 7.55736 2.10526V3.21053H10.9784C11.5307 3.21053 11.9784 3.65824 11.9784 4.21053V9.94737C11.9784 10.4997 11.5307 10.9474 10.9784 10.9474H7.55736V13.1579C7.55736 13.7683 7.06252 14.2632 6.4521 14.2632C5.84168 14.2632 5.34683 13.7683 5.34683 13.1579V10.9474H1.92578C1.3735 10.9474 0.925781 10.4997 0.925781 9.94737V4.21053C0.925781 3.65824 1.3735 3.21053 1.92578 3.21053H5.34683V2.10526C5.34683 1.49484 5.84168 1 6.4521 1ZM17.5047 2.10526C18.6773 2.10526 19.8018 2.57105 20.6309 3.40016C21.46 4.22927 21.9258 5.35378 21.9258 6.52632V7.63158C21.9258 8.242 21.4309 8.73684 20.8205 8.73684C20.2101 8.73684 19.7153 8.242 19.7153 7.63158V6.52632C19.7153 5.94005 19.4824 5.37779 19.0678 4.96324C18.6533 4.54868 18.091 4.31579 17.5047 4.31579H15.2942C14.6838 4.31579 14.1889 3.82095 14.1889 3.21053C14.1889 2.60011 14.6838 2.10526 15.2942 2.10526H17.5047ZM5.34683 5.42105H3.13631V8.73684H5.34683V5.42105ZM9.76789 5.42105H7.55736V8.73684H9.76789V5.42105Z" fill="#202327"/>
</g>
<defs>
<clipPath id="clip0_18_14365">
<rect width="24" height="24" fill="white"/>
</clipPath>
</defs>
</svg>
