<svg width="24" height="24" viewBox="0 0 24 24" fill="none" xmlns="http://www.w3.org/2000/svg">
<g clip-path="url(#clip0_18_13634)">
<path d="M6 10C6 9.44772 6.44772 9 7 9H17C17.5523 9 18 9.44772 18 10V18C18 20.2091 16.2091 22 14 22H10C7.79086 22 6 20.2091 6 18V10Z" stroke="#202327" stroke-width="2"/>
<path d="M8 9V10H7V9H8ZM16 9H17V10H16V9ZM16 2V1C16.5523 1 17 1.44772 17 2H16ZM8 2H7C7 1.44772 7.44772 1 8 1V2ZM8 9V8H16V9V10H8V9ZM16 9H15V2H16H17V9H16ZM16 2V3H8V2V1H16V2ZM8 2H9V9H8H7V2H8Z" fill="#202327"/>
<path d="M12 5V6" stroke="#202327" stroke-width="2" stroke-linecap="round"/>
<path fill-rule="evenodd" clip-rule="evenodd" d="M7 18V10H17V18C17 19.6569 15.6569 21 14 21H10C8.34315 21 7 19.6569 7 18ZM17 8V2C17 1.44772 16.5523 1 16 1H8C7.44772 1 7 1.44772 7 2V8C5.89543 8 5 8.89543 5 10V18C5 20.7614 7.23858 23 10 23H14C16.7614 23 19 20.7614 19 18V10C19 8.89543 18.1046 8 17 8ZM9 3V8H15V3H9ZM13 5C13 4.44772 12.5523 4 12 4C11.4477 4 11 4.44772 11 5V6C11 6.55228 11.4477 7 12 7C12.5523 7 13 6.55228 13 6V5Z" fill="#202327"/>
</g>
<defs>
<clipPath id="clip0_18_13634">
<rect width="24" height="24" fill="white"/>
</clipPath>
</defs>
</svg>
