<svg width="24" height="24" viewBox="0 0 24 24" fill="none" xmlns="http://www.w3.org/2000/svg">
<path d="M20 16.5H17.1182L16.3945 17.9473C16.2251 18.286 15.8788 18.5 15.5 18.5H8.5C8.12123 18.5 7.77486 18.286 7.60547 17.9473L6.88184 16.5H4V19.5C4 19.7761 4.22386 20 4.5 20H19.5C19.7761 20 20 19.7761 20 19.5V16.5ZM11 14V8.41406L9.70703 9.70703C9.31651 10.0976 8.68349 10.0976 8.29297 9.70703C7.90244 9.31651 7.90244 8.68349 8.29297 8.29297L11.293 5.29297L11.3691 5.22461C11.7619 4.90426 12.3409 4.92685 12.707 5.29297L15.707 8.29297L15.7754 8.36914C16.0957 8.76191 16.0731 9.34092 15.707 9.70703C15.3409 10.0731 14.7619 10.0957 14.3691 9.77539L14.293 9.70703L13 8.41406V14C13 14.5523 12.5523 15 12 15C11.4477 15 11 14.5523 11 14ZM20 4.5C20 4.22386 19.7761 4 19.5 4H4.5C4.22386 4 4 4.22386 4 4.5V14.5H7.5C7.87877 14.5 8.22514 14.714 8.39453 15.0527L9.11816 16.5H14.8818L15.6055 15.0527L15.6768 14.9316C15.8617 14.6637 16.1685 14.5 16.5 14.5H20V4.5ZM22 19.5C22 20.8807 20.8807 22 19.5 22H4.5C3.11929 22 2 20.8807 2 19.5V4.5C2 3.11929 3.11929 2 4.5 2H19.5C20.8807 2 22 3.11929 22 4.5V19.5Z" fill="#202327"/>
</svg>
