<svg width="24" height="24" viewBox="0 0 24 24" fill="none" xmlns="http://www.w3.org/2000/svg">
<path d="M6.88184 16.5L7.60547 17.9473C7.77486 18.286 8.12123 18.5 8.5 18.5H15.5C15.8788 18.5 16.2251 18.286 16.3945 17.9473L17.1182 16.5H22V19.5C22 20.8807 20.8807 22 19.5 22H4.5C3.11929 22 2 20.8807 2 19.5V16.5H6.88184ZM19.5 2C20.8807 2 22 3.11929 22 4.5V14.5H16.5C16.1685 14.5 15.8617 14.6637 15.6768 14.9316L15.6055 15.0527L14.8818 16.5H9.11816L8.39453 15.0527C8.22514 14.714 7.87877 14.5 7.5 14.5H2V4.5C2 3.11929 3.11929 2 4.5 2H19.5ZM12.707 5.29297C12.3409 4.92685 11.7619 4.90426 11.3691 5.22461L11.293 5.29297L8.29297 8.29297C7.90244 8.68349 7.90244 9.31651 8.29297 9.70703C8.68349 10.0976 9.31651 10.0976 9.70703 9.70703L11 8.41406V14C11 14.5523 11.4477 15 12 15C12.5523 15 13 14.5523 13 14V8.41406L14.293 9.70703L14.3691 9.77539C14.7619 10.0957 15.3409 10.0731 15.707 9.70703C16.0731 9.34092 16.0957 8.76191 15.7754 8.36914L15.707 8.29297L12.707 5.29297Z" fill="#202327"/>
</svg>
