<svg width="24" height="24" viewBox="0 0 24 24" fill="none" xmlns="http://www.w3.org/2000/svg">
<path fill-rule="evenodd" clip-rule="evenodd" d="M12.003 2C11.7461 1.99924 11.4889 2.09686 11.2929 2.29289L6.29289 7.29289C6.09763 7.48816 6 7.74408 6 8C6 8.02569 6.00098 8.05139 6.00295 8.07702C6.01958 8.29354 6.10642 8.50569 6.26349 8.67645C6.27795 8.69219 6.29288 8.70743 6.30827 8.72216C6.50087 8.9068 6.74917 8.99942 6.99765 9L7.00003 9H11V15C11 15.5523 11.4477 16 12 16C12.5523 16 13 15.5523 13 15V9H17C17.0161 9 17.0321 8.99962 17.048 8.99886C17.067 8.99795 17.0859 8.99651 17.1048 8.99452C17.3055 8.97349 17.5011 8.89188 17.6618 8.74968C17.701 8.7151 17.7376 8.67737 17.7711 8.63677C17.9482 8.42284 18.0225 8.15248 17.9941 7.89118C17.9723 7.69109 17.8903 7.49631 17.748 7.33626C17.7349 7.32147 17.7212 7.307 17.7071 7.29289L12.7071 2.29289C12.5126 2.09839 12.2579 2.00076 12.003 2ZM4 15C4 14.4477 3.55228 14 3 14C2.44772 14 2 14.4477 2 15V19C2 19.7957 2.31607 20.5587 2.87868 21.1213C3.44129 21.6839 4.20435 22 5 22H19C19.7957 22 20.5587 21.6839 21.1213 21.1213C21.6839 20.5587 22 19.7957 22 19V15C22 14.4477 21.5523 14 21 14C20.4477 14 20 14.4477 20 15V19C20 19.2652 19.8946 19.5196 19.7071 19.7071C19.5196 19.8946 19.2652 20 19 20H5C4.73478 20 4.48043 19.8946 4.29289 19.7071C4.10536 19.5196 4 19.2652 4 19V15Z" fill="#202327"/>
</svg>
