<svg width="24" height="24" viewBox="0 0 24 24" fill="none" xmlns="http://www.w3.org/2000/svg">
<path d="M19 19.9999C19.5523 19.9999 20 20.4476 20 20.9999C19.9999 21.5521 19.5522 21.9999 19 21.9999H5C4.44777 21.9999 4.00009 21.5521 4 20.9999C4 20.4476 4.44772 19.9999 5 19.9999H19Z" fill="#202327"/>
<path d="M11.293 2.29289C11.6835 1.90237 12.3165 1.90237 12.707 2.29289L18.707 8.29289C18.993 8.57889 19.0786 9.0091 18.9238 9.38274C18.769 9.75626 18.4044 9.99992 18 9.99992H13V16.9999C12.9999 17.5521 12.5522 17.9999 12 17.9999C11.4478 17.9999 11.0001 17.5521 11 16.9999V9.99992H6C5.59564 9.99992 5.23102 9.75626 5.07617 9.38274C4.92141 9.0091 5.00704 8.57889 5.29297 8.29289L11.293 2.29289Z" fill="#202327"/>
</svg>
