<svg width="24" height="24" viewBox="0 0 24 24" fill="none" xmlns="http://www.w3.org/2000/svg">
<path d="M12.4062 2.00977C16.4315 2.19798 19.7264 5.16015 20.4336 9.02734C22.2396 10.3249 23.4199 12.445 23.4199 14.8428L23.4102 15.2109C23.2244 18.8706 20.2906 21.8045 16.6309 21.9902L16.2627 22C16.1582 22 16.0571 21.9946 15.9609 21.9902C15.9125 21.995 15.8539 21.9999 15.79 22H8.20996C8.1437 22 8.08306 21.9953 8.0332 21.9902L7.73633 22C3.9069 22 0.779876 18.9928 0.587891 15.2109L0.578125 14.8428C0.578125 12.4458 1.75715 10.3252 3.5625 9.02734C4.29338 5.03022 7.79051 2.00014 11.999 2L12.4062 2.00977ZM11.999 4C8.65062 4.00013 5.88614 6.50322 5.47461 9.74023C5.43672 10.0383 5.26669 10.3039 5.01172 10.4629C3.54841 11.3755 2.57812 12.9962 2.57812 14.8428L2.58496 15.1084C2.72356 17.8332 4.97695 20 7.73633 20L8.02539 19.9912L8.12109 19.9902C8.15279 19.9915 8.18436 19.9947 8.21582 19.999L8.23047 20H15.7676C15.7709 19.9996 15.7755 19.999 15.7822 19.998L15.8779 19.9902C15.9095 19.989 15.9411 19.9895 15.9727 19.9912C16.0764 19.9969 16.1719 20 16.2627 20L16.5283 19.9932C19.253 19.8547 21.4196 17.6019 21.4199 14.8428C21.4199 12.996 20.4491 11.3755 18.9854 10.4629C18.7304 10.3039 18.5604 10.0383 18.5225 9.74023C18.1237 6.60437 15.5179 4.15699 12.3115 4.00684L11.999 4ZM11.3682 9.22461C11.7609 8.90426 12.3399 8.92685 12.7061 9.29297L15.7061 12.293C16.0966 12.6835 16.0966 13.3165 15.7061 13.707C15.3155 14.0976 14.6825 14.0976 14.292 13.707L12.999 12.4141V16.5C12.999 17.0523 12.5513 17.5 11.999 17.5C11.4467 17.5 10.999 17.0523 10.999 16.5V12.4141L9.70605 13.707L9.62988 13.7754C9.23711 14.0957 8.65811 14.0731 8.29199 13.707C7.92588 13.3409 7.90328 12.7619 8.22363 12.3691L8.29199 12.293L11.292 9.29297L11.3682 9.22461Z" fill="#202327"/>
</svg>
