<svg width="24" height="24" viewBox="0 0 24 24" fill="none" xmlns="http://www.w3.org/2000/svg">
<path fill-rule="evenodd" clip-rule="evenodd" d="M12.4062 2.00977C16.4315 2.19798 19.7264 5.16015 20.4336 9.02734C22.2396 10.3249 23.4199 12.445 23.4199 14.8428L23.4102 15.2109C23.2244 18.8706 20.2906 21.8045 16.6309 21.9902L16.2627 22C16.1582 22 16.0571 21.9946 15.9609 21.9902C15.9125 21.995 15.8539 21.9999 15.79 22H8.20996C8.1437 22 8.08306 21.9953 8.0332 21.9902L7.73633 22C3.9069 22 0.779876 18.9928 0.587891 15.2109L0.578125 14.8428C0.578125 12.4458 1.75715 10.3252 3.5625 9.02734C4.29338 5.03022 7.79051 2.00014 11.999 2L12.4062 2.00977ZM12.7061 9.29297C12.3399 8.92685 11.7609 8.90426 11.3682 9.22461L11.292 9.29297L8.29199 12.293L8.22363 12.3691C7.90328 12.7619 7.92588 13.3409 8.29199 13.707C8.65811 14.0731 9.23711 14.0957 9.62988 13.7754L9.70605 13.707L10.999 12.4141V16.5C10.999 17.0523 11.4467 17.5 11.999 17.5C12.5513 17.5 12.999 17.0523 12.999 16.5V12.4141L14.292 13.707C14.6825 14.0976 15.3155 14.0976 15.7061 13.707C16.0966 13.3165 16.0966 12.6835 15.7061 12.293L12.7061 9.29297Z" fill="#202327"/>
</svg>
