<svg width="24" height="24" viewBox="0 0 24 24" fill="none" xmlns="http://www.w3.org/2000/svg">
<path d="M11.9989 12.586L16.2419 16.828L14.8269 18.243L12.9989 16.415V22H10.9989V16.413L9.17092 18.243L7.75592 16.828L11.9989 12.586ZM11.9989 2C13.7159 2.00008 15.373 2.63111 16.6551 3.77312C17.9372 4.91512 18.755 6.48846 18.9529 8.194C20.1972 8.53332 21.2826 9.2991 22.0196 10.3575C22.7565 11.416 23.0981 12.6997 22.9845 13.9844C22.871 15.2691 22.3096 16.473 21.3985 17.3858C20.4873 18.2986 19.2844 18.8622 17.9999 18.978L17.9989 17C18.0005 15.4271 17.3844 13.9166 16.2833 12.7935C15.1821 11.6703 13.684 11.0245 12.1114 10.995C10.5389 10.9655 9.01758 11.5547 7.8751 12.6357C6.73263 13.7168 6.06032 15.2032 6.00292 16.775L5.99892 17V18.978C4.71437 18.8623 3.51132 18.2989 2.60005 17.3862C1.68878 16.4735 1.12724 15.2696 1.01359 13.9848C0.899939 12.7001 1.2414 11.4163 1.97829 10.3578C2.71518 9.29926 3.80062 8.53339 5.04492 8.194C5.24262 6.48838 6.06032 4.91491 7.3425 3.77287C8.62467 2.63082 10.2819 1.99986 11.9989 2Z" fill="#202327"/>
</svg>
