<svg width="24" height="24" viewBox="0 0 24 24" fill="none" xmlns="http://www.w3.org/2000/svg">
<path d="M21.191 18.1045C21.6445 18.1509 21.9986 18.5343 21.9986 19C21.9986 19.4969 21.5951 19.9002 21.0982 19.9004H17.8072L19.0221 20.7676C19.4261 21.0565 19.5197 21.6191 19.231 22.0234C18.9421 22.4277 18.3796 22.5211 17.9752 22.2324L14.4752 19.7324C14.157 19.5051 14.022 19.098 14.1412 18.7256C14.2607 18.3531 14.6075 18.0996 14.9986 18.0996H21.0982L21.191 18.1045Z" fill="#202327"/>
<path d="M11.9986 13.6865C12.4792 13.6866 12.9643 13.7186 13.4459 13.7812C12.5471 14.7603 11.9986 16.0662 11.9986 17.5C11.9986 18.6072 12.3273 19.637 12.8902 20.5H4.12851C3.80064 20.4998 3.49288 20.3379 3.30624 20.0684C3.1199 19.7986 3.07745 19.4543 3.19296 19.1475C4.59437 15.4285 8.39804 13.6868 11.9986 13.6865Z" fill="#202327"/>
<path d="M17.8619 13.3633C18.2134 13.012 18.7839 13.0119 19.1353 13.3633L21.6353 15.8633C21.8926 16.1206 21.9688 16.5085 21.8297 16.8447C21.6903 17.1807 21.3623 17.4003 20.9986 17.4004H14.899C14.433 17.4004 14.0495 17.0457 14.0035 16.5918L13.9986 16.5L14.0035 16.4082C14.0465 15.9847 14.3828 15.6477 14.8062 15.6045L14.899 15.5996H18.8258L17.8619 14.6367C17.5104 14.2852 17.5104 13.7148 17.8619 13.3633Z" fill="#202327"/>
<path d="M12.0006 2.25C13.1514 2.25029 14.1054 2.89504 14.734 3.76074C15.3634 4.62789 15.7223 5.77656 15.7223 7C15.7223 8.21366 15.3818 9.36262 14.7574 10.2344C14.1291 11.1112 13.1712 11.7497 12.0006 11.75C10.8297 11.7499 9.87113 11.1114 9.24277 10.2344C8.61835 9.36262 8.27792 8.21367 8.27792 7C8.27792 5.77655 8.63677 4.62789 9.26621 3.76074C9.89488 2.8949 10.8496 2.25011 12.0006 2.25Z" fill="#202327"/>
</svg>
