<svg width="24" height="24" viewBox="0 0 24 24" fill="none" xmlns="http://www.w3.org/2000/svg">
<path fill-rule="evenodd" clip-rule="evenodd" d="M17.499 12.5C20.2604 12.5 22.499 14.7386 22.499 17.5C22.499 20.2614 20.2604 22.5 17.499 22.5C14.7376 22.5 12.499 20.2614 12.499 17.5C12.499 14.7386 14.7376 12.5 17.499 12.5ZM16.206 20.208C16.5975 20.3953 17.0361 20.5 17.499 20.5C19.1559 20.5 20.499 19.1569 20.499 17.5C20.499 17.0371 20.3942 16.5985 20.207 16.207L16.206 20.208ZM17.499 14.5C15.8421 14.5 14.499 15.8431 14.499 17.5C14.499 17.9629 14.6037 18.4015 14.791 18.793L18.7919 14.792C18.4005 14.6047 17.9619 14.5 17.499 14.5Z" fill="#202327"/>
<path d="M11.5536 13.7002C12.0598 13.727 12.473 14.1332 12.498 14.6504C12.5228 15.1674 12.1505 15.6111 11.6494 15.6865L11.5478 15.6973C9.20992 15.8103 7.04829 16.7786 5.79486 18.499L10.5009 18.5C11.0528 18.5004 11.5008 18.948 11.5009 19.5C11.5008 20.052 11.0528 20.4996 10.5009 20.5H4.12884C3.80086 20.4999 3.49328 20.339 3.30658 20.0693C3.14318 19.8331 3.09018 19.5391 3.15717 19.2637L3.1933 19.1475C4.52418 15.6154 8.02757 13.8657 11.4511 13.7002H11.5536Z" fill="#202327"/>
<path fill-rule="evenodd" clip-rule="evenodd" d="M12.0009 2.25C13.1518 2.25024 14.1057 2.89493 14.7343 3.76074C15.3638 4.62789 15.7226 5.77653 15.7226 7C15.7226 8.21369 15.3822 9.36261 14.7578 10.2344C14.1295 11.1113 13.1716 11.7498 12.0009 11.75C10.8299 11.75 9.87152 11.1115 9.2431 10.2344C8.61863 9.3626 8.27826 8.21374 8.27826 7C8.27826 5.77649 8.63704 4.62791 9.26654 3.76074C9.89526 2.8948 10.8497 2.25 12.0009 2.25ZM12.0009 4.25C11.6488 4.25 11.2412 4.44456 10.8847 4.93555C10.529 5.42562 10.2783 6.15245 10.2783 7C10.2783 7.85733 10.5213 8.58388 10.8691 9.06934C11.2129 9.54919 11.6166 9.75 12.0009 9.75C12.3851 9.74978 12.7882 9.54895 13.1318 9.06934C13.4795 8.58388 13.7226 7.85727 13.7226 7C13.7226 6.1525 13.4719 5.42561 13.1161 4.93555C12.7599 4.44483 12.3529 4.25024 12.0009 4.25Z" fill="#202327"/>
</svg>
