<svg width="24" height="24" viewBox="0 0 24 24" fill="none" xmlns="http://www.w3.org/2000/svg">
<path fill-rule="evenodd" clip-rule="evenodd" d="M17.9987 14C20.2078 14 21.9987 15.7909 21.9987 18C21.9987 18.7414 21.7956 19.435 21.444 20.0303L22.7057 21.293L22.7741 21.3691C23.0945 21.7619 23.0719 22.3409 22.7057 22.707C22.3396 23.0731 21.7606 23.0958 21.3678 22.7754L21.2917 22.707L20.029 21.4453C19.4336 21.7969 18.7401 22 17.9987 22C15.7896 22 13.9987 20.2091 13.9987 18C13.9987 15.7909 15.7896 14 17.9987 14ZM17.9987 16C16.8941 16 15.9987 16.8955 15.9987 18C15.9987 19.1045 16.8941 20 17.9987 20C18.4793 20 18.9194 19.8294 19.2643 19.5469C19.3005 19.4923 19.3432 19.4407 19.3913 19.3926C19.4393 19.3445 19.491 19.3019 19.5456 19.2656C19.8281 18.9207 19.9987 18.4806 19.9987 18C19.9987 16.8954 19.1032 16 17.9987 16Z" fill="#202327"/>
<path d="M12.2331 13.6895C11.4569 14.7602 10.9977 16.0764 10.9977 17.5C10.9977 18.5823 11.2641 19.6024 11.7321 20.5H4.12856C3.80052 20.4998 3.49298 20.3381 3.3063 20.0684C3.11986 19.7985 3.07744 19.4544 3.19302 19.1475C4.59443 15.4284 8.39797 13.6867 11.9987 13.6865C12.0766 13.6865 12.155 13.6878 12.2331 13.6895Z" fill="#202327"/>
<path d="M12.0006 2.25C13.1516 2.25016 14.1054 2.89492 14.734 3.76074C15.3635 4.62791 15.7223 5.77649 15.7223 7C15.7223 8.21374 15.3819 9.3626 14.7575 10.2344C14.1291 11.1113 13.1714 11.7498 12.0006 11.75C10.8297 11.7499 9.87121 11.1115 9.24282 10.2344C8.61838 9.36261 8.27798 8.2137 8.27798 7C8.27798 5.77652 8.6368 4.6279 9.26626 3.76074C9.89495 2.89479 10.8495 2.25006 12.0006 2.25Z" fill="#202327"/>
</svg>
