<svg width="24" height="24" viewBox="0 0 24 24" fill="none" xmlns="http://www.w3.org/2000/svg">
<path d="M16.7916 14.293C17.1577 13.9269 17.7367 13.9043 18.1295 14.2246L18.2057 14.293L20.7057 16.793L20.774 16.8691C21.073 17.2357 21.073 17.7643 20.774 18.1309L20.7057 18.207L18.2057 20.707C17.8151 21.0976 17.1821 21.0976 16.7916 20.707C16.4011 20.3165 16.4011 19.6835 16.7916 19.293L17.5846 18.5H14.4986C13.9463 18.5 13.4986 18.0523 13.4986 17.5C13.4986 16.9477 13.9464 16.5 14.4986 16.5H17.5846L16.7916 15.707L16.7232 15.6309C16.4029 15.2381 16.4255 14.6591 16.7916 14.293Z" fill="#202327"/>
<path d="M12.233 13.6895C11.4569 14.7601 10.9986 16.0765 10.9986 17.5C10.9986 18.5823 11.2641 19.6024 11.732 20.5H4.12852C3.80057 20.4998 3.49288 20.3381 3.30625 20.0684C3.1199 19.7986 3.07745 19.4543 3.19297 19.1475C4.59435 15.4284 8.398 13.6868 11.9986 13.6865C12.0764 13.6865 12.155 13.6878 12.233 13.6895Z" fill="#202327"/>
<path d="M12.0006 2.25C13.1515 2.25016 14.1053 2.89498 14.734 3.76074C15.3635 4.62791 15.7223 5.77649 15.7223 7C15.7223 8.21374 15.3819 9.3626 14.7574 10.2344C14.1291 11.1113 13.1713 11.7498 12.0006 11.75C10.8297 11.7499 9.87112 11.1114 9.24277 10.2344C8.61839 9.36262 8.27793 8.21365 8.27793 7C8.27793 5.77658 8.6368 4.62788 9.26621 3.76074C9.89486 2.89485 10.8496 2.25015 12.0006 2.25Z" fill="#202327"/>
</svg>
