<svg width="24" height="24" viewBox="0 0 24 24" fill="none" xmlns="http://www.w3.org/2000/svg">
<path d="M17.4997 13C18.052 13 18.4997 13.4477 18.4997 14V16H20.4997C21.052 16 21.4997 16.4477 21.4997 17C21.4997 17.5523 21.052 18 20.4997 18H18.4997V20C18.4997 20.5523 18.052 21 17.4997 21C16.9474 21 16.4997 20.5523 16.4997 20V18H14.4997C13.9474 18 13.4997 17.5523 13.4997 17C13.4997 16.4477 13.9474 16 14.4997 16H16.4997V14C16.4997 13.4477 16.9474 13 17.4997 13Z" fill="#202327"/>
<path d="M3.19305 19.1475C4.66491 15.2413 8.78021 13.5173 12.5475 13.6992L12.6501 13.709C13.1511 13.7846 13.5237 14.23 13.4987 14.7471C13.4719 15.2983 13.0031 15.7236 12.4518 15.6973L12.1501 15.6875C9.60146 15.6449 7.16356 16.6291 5.79852 18.499L11.4987 18.5C12.051 18.5 12.4987 18.9478 12.4987 19.5C12.4987 20.0176 12.1062 20.4437 11.6022 20.4951L11.4987 20.5H4.12957C3.80145 20.4999 3.49306 20.3392 3.30633 20.0693C3.11973 19.7995 3.07749 19.4545 3.19305 19.1475Z" fill="#202327"/>
<path fill-rule="evenodd" clip-rule="evenodd" d="M12.0016 2.25C13.1525 2.25028 14.1065 2.89496 14.735 3.76074C15.3645 4.62789 15.7233 5.77655 15.7233 7C15.7233 8.21367 15.3829 9.36262 14.7585 10.2344C14.1302 11.1113 13.1723 11.7497 12.0016 11.75C10.8307 11.75 9.87225 11.1114 9.24383 10.2344C8.61935 9.3626 8.27899 8.21374 8.27899 7C8.27899 5.77649 8.63777 4.62791 9.26727 3.76074C9.89599 2.89482 10.8505 2.25 12.0016 2.25ZM12.0016 4.25C11.6496 4.25 11.2419 4.4446 10.8854 4.93555C10.5297 5.42562 10.279 6.15245 10.279 7C10.279 7.85733 10.5221 8.58388 10.8698 9.06934C11.2136 9.54915 11.6173 9.75 12.0016 9.75C12.3858 9.74974 12.7889 9.54891 13.1325 9.06934C13.4802 8.58388 13.7233 7.85725 13.7233 7C13.7233 6.15253 13.4726 5.42561 13.1169 4.93555C12.7606 4.44487 12.3536 4.25027 12.0016 4.25Z" fill="#202327"/>
</svg>
