<svg width="24" height="24" viewBox="0 0 24 24" fill="none" xmlns="http://www.w3.org/2000/svg">
<path d="M20.1931 15.293C20.5836 14.9024 21.2166 14.9024 21.6071 15.293C21.9976 15.6835 21.9976 16.3165 21.6071 16.707L19.8141 18.5L21.6071 20.293C21.9976 20.6835 21.9976 21.3165 21.6071 21.707C21.2166 22.0976 20.5836 22.0976 20.1931 21.707L18.4001 19.9141L16.6071 21.707C16.2166 22.0976 15.5836 22.0976 15.193 21.707C14.8025 21.3165 14.8025 20.6835 15.193 20.293L16.986 18.5L15.193 16.707C14.8025 16.3165 14.8025 15.6835 15.193 15.293C15.5836 14.9024 16.2166 14.9024 16.6071 15.293L18.4001 17.0859L20.1931 15.293Z" fill="#202327"/>
<path d="M3.19305 19.1475C4.66494 15.2413 8.78024 13.5173 12.5475 13.6992L12.6491 13.709C13.1503 13.7844 13.5227 14.2299 13.4977 14.7471C13.4709 15.2984 13.0023 15.7238 12.4509 15.6973L12.1501 15.6875C9.60143 15.6449 7.16363 16.6291 5.79852 18.499L11.4987 18.5C12.051 18.5 12.4987 18.9478 12.4987 19.5C12.4987 20.0175 12.1061 20.4435 11.6022 20.4951L11.4987 20.5H4.12957C3.80142 20.5 3.49311 20.3391 3.30633 20.0693C3.11973 19.7995 3.07749 19.4545 3.19305 19.1475Z" fill="#202327"/>
<path fill-rule="evenodd" clip-rule="evenodd" d="M12.0007 2.25C13.1516 2.25016 14.1054 2.89497 14.7341 3.76074C15.3636 4.62791 15.7223 5.77649 15.7223 7C15.7223 8.21374 15.382 9.3626 14.7575 10.2344C14.1292 11.1113 13.1714 11.7498 12.0007 11.75C10.8298 11.7499 9.8712 11.1114 9.24285 10.2344C8.61845 9.36262 8.27801 8.21366 8.27801 7C8.27801 5.77657 8.63687 4.62789 9.26629 3.76074C9.89495 2.89484 10.8496 2.25013 12.0007 2.25ZM12.0007 4.25C11.6486 4.25013 11.2408 4.44466 10.8845 4.93555C10.5288 5.42561 10.278 6.15254 10.278 7C10.278 7.85723 10.5212 8.58388 10.8688 9.06934C11.2125 9.54911 11.6164 9.74988 12.0007 9.75C12.3849 9.74985 12.7879 9.54892 13.1315 9.06934C13.4793 8.58388 13.7223 7.85733 13.7223 7C13.7223 6.15245 13.4717 5.42562 13.1159 4.93555C12.7596 4.44485 12.3526 4.25016 12.0007 4.25Z" fill="#202327"/>
</svg>
