<svg width="24" height="24" viewBox="0 0 24 24" fill="none" xmlns="http://www.w3.org/2000/svg">
<path fill-rule="evenodd" clip-rule="evenodd" d="M18.2839 13.5938C18.5082 13.0892 19.0996 12.8619 19.6042 13.0859C20.1088 13.3103 20.3363 13.9016 20.112 14.4062L20.0769 14.4844C20.395 14.7201 20.677 15.0022 20.9128 15.3203L20.9919 15.2861L21.0876 15.249C21.569 15.0914 22.101 15.3211 22.3112 15.7939C22.5355 16.2986 22.3081 16.889 21.8034 17.1133L21.6628 17.1758C21.6853 17.3474 21.698 17.5225 21.698 17.7002C21.698 17.8776 21.6852 18.0523 21.6628 18.2236L21.8034 18.2861L21.8952 18.332C22.3354 18.5836 22.5216 19.1332 22.3112 19.6064C22.1008 20.0791 21.5689 20.3081 21.0876 20.1504L20.9919 20.1143L20.9118 20.0781C20.6759 20.3964 20.3942 20.6782 20.0759 20.9141L20.112 20.9941L20.1482 21.0898C20.3059 21.5712 20.077 22.1031 19.6042 22.3135C19.1311 22.5235 18.5813 22.3375 18.3298 21.8975L18.2839 21.8057L18.2214 21.665C18.0502 21.6874 17.8753 21.7002 17.698 21.7002C17.5204 21.7002 17.345 21.6875 17.1735 21.665L17.111 21.8057L17.0652 21.8975C16.8135 22.3373 16.2648 22.5237 15.7917 22.3135C15.2874 22.0891 15.06 21.4986 15.2839 20.9941L15.3181 20.915C15 20.6792 14.7179 20.3972 14.4821 20.0791L14.404 20.1143C13.8995 20.3382 13.308 20.1109 13.0837 19.6064C12.8596 19.1019 13.0872 18.5106 13.5915 18.2861L13.7331 18.2227C13.7108 18.0516 13.698 17.8773 13.698 17.7002C13.698 17.5225 13.7107 17.3474 13.7331 17.1758L13.5915 17.1133C13.0874 16.8888 12.8598 16.2983 13.0837 15.7939C13.308 15.2894 13.8994 15.0621 14.404 15.2861L14.4812 15.3203C14.7171 15.0019 14.9997 14.7194 15.3181 14.4834L15.2839 14.4062L15.8161 14.1689L15.8181 14.168L15.2839 14.4062C15.0598 13.9017 15.2874 13.3104 15.7917 13.0859C16.2962 12.8618 16.8866 13.0894 17.111 13.5938L17.1735 13.7354C17.345 13.7129 17.5204 13.7002 17.698 13.7002C17.875 13.7002 18.0495 13.7131 18.2204 13.7354L18.2839 13.5938ZM17.698 15.7002C16.5936 15.7004 15.698 16.5958 15.698 17.7002C15.6981 18.8045 16.5937 19.6999 17.698 19.7002C18.8023 19.7001 19.6978 18.8046 19.698 17.7002C19.698 16.5957 18.8024 15.7003 17.698 15.7002Z" fill="#202327"/>
<path d="M12.2321 13.6904C11.4563 14.761 10.9978 16.0767 10.9978 17.5C10.9978 18.5823 11.2633 19.6024 11.7312 20.5H4.12863C3.80053 20.5 3.49312 20.3381 3.30636 20.0684C3.1198 19.7985 3.07743 19.4545 3.19308 19.1475C4.59458 15.4283 8.39798 13.6866 11.9987 13.6865C12.0764 13.6865 12.1543 13.6888 12.2321 13.6904Z" fill="#202327"/>
<path d="M11.9997 2.25C13.1506 2.25016 14.1045 2.89497 14.7331 3.76074C15.3626 4.62791 15.7214 5.77649 15.7214 7C15.7214 8.21374 15.381 9.3626 14.7566 10.2344C14.1282 11.1113 13.1705 11.7498 11.9997 11.75C10.8289 11.7499 9.87026 11.1114 9.24191 10.2344C8.61751 9.36262 8.27707 8.21365 8.27707 7C8.27707 5.77657 8.63593 4.62788 9.26535 3.76074C9.894 2.89484 10.8487 2.25014 11.9997 2.25Z" fill="#202327"/>
</svg>
