<svg width="24" height="24" viewBox="0 0 24 24" fill="none" xmlns="http://www.w3.org/2000/svg">
<path d="M17.9997 14C20.2088 14 21.9997 15.7909 21.9997 18C21.9997 18.7414 21.7966 19.435 21.445 20.0303L22.7067 21.293L22.7751 21.3691C23.0955 21.7619 23.0729 22.3409 22.7067 22.707C22.3406 23.0732 21.7616 23.0958 21.3688 22.7754L21.2927 22.707L20.03 21.4453C19.4347 21.7969 18.7411 22 17.9997 22C15.7906 22 13.9997 20.2091 13.9997 18C13.9997 15.7909 15.7906 14 17.9997 14ZM17.9997 16C16.8952 16 15.9997 16.8955 15.9997 18C15.9997 19.1045 16.8952 20 17.9997 20C18.4803 20 18.9204 19.8294 19.2653 19.5469C19.3016 19.4923 19.3442 19.4407 19.3923 19.3926C19.4404 19.3445 19.492 19.3019 19.5466 19.2656C19.8291 18.9207 19.9997 18.4806 19.9997 18C19.9997 16.8954 19.1043 16 17.9997 16Z" fill="#202327"/>
<path d="M3.19305 19.1475C4.66494 15.2413 8.78024 13.5173 12.5475 13.6992L12.6491 13.709C13.1503 13.7844 13.5227 14.2299 13.4977 14.7471C13.4709 15.2984 13.0023 15.7238 12.4509 15.6973L12.1501 15.6875C9.60143 15.6449 7.16363 16.6291 5.79852 18.499L11.4987 18.5C12.051 18.5 12.4987 18.9478 12.4987 19.5C12.4987 20.0175 12.1061 20.4435 11.6022 20.4951L11.4987 20.5H4.12957C3.80142 20.5 3.49311 20.3391 3.30633 20.0693C3.11973 19.7995 3.07749 19.4545 3.19305 19.1475ZM12.0007 2.25C13.1516 2.25016 14.1054 2.89497 14.7341 3.76074C15.3636 4.62791 15.7223 5.77649 15.7223 7C15.7223 8.21374 15.382 9.3626 14.7575 10.2344C14.1292 11.1113 13.1714 11.7498 12.0007 11.75C10.8298 11.7499 9.8712 11.1114 9.24285 10.2344C8.61845 9.36262 8.27801 8.21366 8.27801 7C8.27801 5.77657 8.63687 4.62789 9.26629 3.76074C9.89495 2.89484 10.8496 2.25013 12.0007 2.25ZM12.0007 4.25C11.6486 4.25013 11.2408 4.44466 10.8845 4.93555C10.5288 5.42561 10.278 6.15254 10.278 7C10.278 7.85723 10.5212 8.58388 10.8688 9.06934C11.2125 9.54911 11.6164 9.74988 12.0007 9.75C12.3849 9.74985 12.7879 9.54892 13.1315 9.06934C13.4793 8.58388 13.7223 7.85733 13.7223 7C13.7223 6.15245 13.4717 5.42562 13.1159 4.93555C12.7596 4.44485 12.3526 4.25016 12.0007 4.25Z" fill="#202327"/>
</svg>
