<svg width="24" height="24" viewBox="0 0 24 24" fill="none" xmlns="http://www.w3.org/2000/svg">
<path d="M11.9988 13.6865C15.5995 13.6866 19.403 15.4283 20.8044 19.1475C20.92 19.4544 20.8776 19.7985 20.6912 20.0684C20.5045 20.3382 20.197 20.4999 19.8689 20.5H4.12865C3.80043 20.5 3.49315 20.3383 3.30639 20.0684C3.11978 19.7985 3.07743 19.4545 3.1931 19.1475C4.59458 15.4282 8.39792 13.6865 11.9988 13.6865Z" fill="#202327"/>
<path d="M12.0004 2.25C13.1514 2.25016 14.1052 2.89488 14.7338 3.76074C15.3633 4.62791 15.7221 5.77649 15.7221 7C15.7221 8.21374 15.3817 9.3626 14.7573 10.2344C14.1289 11.1114 13.1712 11.7498 12.0004 11.75C10.8294 11.75 9.87104 11.1115 9.24262 10.2344C8.61814 9.3626 8.27778 8.21374 8.27778 7C8.27778 5.77649 8.63656 4.62791 9.26606 3.76074C9.89478 2.89475 10.8492 2.25 12.0004 2.25Z" fill="#202327"/>
</svg>
