<svg width="24" height="24" viewBox="0 0 24 24" fill="none" xmlns="http://www.w3.org/2000/svg">
<path d="M3.19305 19.1475C4.66494 15.2415 8.77937 13.5174 12.5466 13.6992L12.6491 13.709C13.1503 13.7845 13.5227 14.2299 13.4977 14.7471C13.4709 15.2984 13.0022 15.7238 12.4509 15.6973L12.1501 15.6875C9.60149 15.6449 7.16365 16.6292 5.79852 18.499L11.4987 18.5C12.0509 18.5001 12.4987 18.9478 12.4987 19.5C12.4987 20.0176 12.1053 20.4438 11.6013 20.4951L11.4987 20.5H4.12957C3.80148 20.5 3.49312 20.339 3.30633 20.0693C3.11973 19.7995 3.07749 19.4545 3.19305 19.1475Z" fill="#202327"/>
<path fill-rule="evenodd" clip-rule="evenodd" d="M12.0007 2.25C13.1517 2.25016 14.1054 2.89489 14.7341 3.76074C15.3636 4.62791 15.7223 5.77649 15.7223 7C15.7223 8.21374 15.382 9.3626 14.7575 10.2344C14.1292 11.1114 13.1715 11.7498 12.0007 11.75C10.8297 11.75 9.87126 11.1115 9.24285 10.2344C8.61839 9.3626 8.27801 8.21373 8.27801 7C8.27801 5.7765 8.63681 4.6279 9.26629 3.76074C9.89501 2.89476 10.8495 2.25002 12.0007 2.25ZM12.0007 4.25C11.6486 4.25002 11.241 4.44451 10.8845 4.93555C10.5287 5.42562 10.278 6.15246 10.278 7C10.278 7.85732 10.5211 8.58388 10.8688 9.06934C11.2126 9.54924 11.6163 9.74998 12.0007 9.75C12.3849 9.74985 12.7879 9.54902 13.1315 9.06934C13.4793 8.58388 13.7223 7.85733 13.7223 7C13.7223 6.15245 13.4717 5.42562 13.1159 4.93555C12.7596 4.44475 12.3527 4.25016 12.0007 4.25Z" fill="#202327"/>
<path d="M21.1918 18.1046C21.6454 18.1509 21.9994 18.5342 21.9994 19.0001C21.9994 19.4972 21.596 19.9005 21.099 19.9005H17.808L19.0228 20.7677C19.4271 21.0566 19.5207 21.6192 19.2318 22.0236C18.9428 22.4278 18.3803 22.5214 17.9759 22.2325L14.4759 19.7325C14.1578 19.5052 14.0228 19.0981 14.142 18.7257C14.2614 18.3531 14.6081 18.0997 14.9994 18.0997H21.099L21.1918 18.1046Z" fill="#202327"/>
<path d="M18.8265 15.5997L17.8627 14.6368C17.5112 14.2854 17.5112 13.7149 17.8627 13.3634C18.2141 13.0119 18.7846 13.0119 19.1361 13.3634L21.6361 15.8634C21.8935 16.1208 21.9697 16.5085 21.8304 16.8448C21.691 17.1809 21.3632 17.4005 20.9994 17.4005H14.8998C14.4337 17.4005 14.0503 17.0458 14.0043 16.5919L13.9994 16.5001L14.8998 15.5997H18.8265Z" fill="#202327"/>
<path d="M13.9994 16.5001L14.0043 16.4083C14.0472 15.9848 14.3835 15.6478 14.807 15.6046L14.8998 15.5997L13.9994 16.5001Z" fill="#202327"/>
</svg>
