<svg width="24" height="24" viewBox="0 0 24 24" fill="none" xmlns="http://www.w3.org/2000/svg">
<path d="M17.5016 13C18.0539 13 18.5016 13.4477 18.5016 14V16H20.5016C21.0539 16 21.5016 16.4477 21.5016 17C21.5016 17.5523 21.0539 18 20.5016 18H18.5016V20C18.5016 20.5523 18.0539 21 17.5016 21C16.9493 21 16.5016 20.5523 16.5016 20V18H14.5016C13.9493 18 13.5016 17.5523 13.5016 17C13.5016 16.4477 13.9493 16 14.5016 16H16.5016V14C16.5016 13.4477 16.9493 13 17.5016 13Z" fill="#202327"/>
<path d="M12.0026 13.6865C12.4831 13.6866 12.9683 13.7186 13.4499 13.7812C12.551 14.7603 12.0026 16.0661 12.0026 17.5C12.0026 18.6073 12.3312 19.637 12.8942 20.5H4.13247C3.80456 20.4998 3.49691 20.3379 3.31021 20.0684C3.12376 19.7985 3.08135 19.4544 3.19692 19.1475C4.59841 15.4285 8.40195 13.6867 12.0026 13.6865Z" fill="#202327"/>
<path d="M12.0045 2.25C13.1552 2.25042 14.1094 2.89505 14.7379 3.76074C15.3673 4.62787 15.7262 5.77664 15.7262 7C15.7262 8.21359 15.3857 9.36264 14.7614 10.2344C14.1332 11.1112 13.175 11.7496 12.0045 11.75C10.8336 11.75 9.87515 11.1113 9.24673 10.2344C8.62225 9.3626 8.28188 8.21374 8.28188 7C8.28188 5.77649 8.64067 4.62791 9.27017 3.76074C9.89889 2.89491 10.8535 2.25 12.0045 2.25Z" fill="#202327"/>
</svg>
