<svg width="24" height="24" viewBox="0 0 24 24" fill="none" xmlns="http://www.w3.org/2000/svg">
<path d="M11.9988 13.6864C15.5997 13.6864 19.403 15.4279 20.8045 19.1472C20.9202 19.4543 20.8779 19.7985 20.6913 20.0684C20.5045 20.3383 20.1971 20.4999 19.8688 20.4999H4.1288C3.80055 20.4999 3.49314 20.3383 3.30637 20.0684C3.11976 19.7985 3.07743 19.4543 3.19313 19.1472C4.5946 15.4279 8.39797 13.6864 11.9988 13.6864ZM18.2026 18.4995C16.8667 16.667 14.5005 15.6862 11.9988 15.6862C9.49708 15.6862 7.13094 16.667 5.79506 18.4995H18.2026Z" fill="#202327"/>
<path d="M13.7224 7.1499C13.7224 6.30235 13.4718 5.57552 13.116 5.08545C12.7596 4.59463 12.3528 4.40006 12.0008 4.3999C11.6487 4.3999 11.2411 4.59439 10.8846 5.08545C10.5288 5.57552 10.2781 6.30235 10.2781 7.1499C10.2781 8.00723 10.5212 8.73378 10.8689 9.21924C11.2127 9.69916 11.6164 9.8999 12.0008 9.8999C12.385 9.89975 12.788 9.69894 13.1316 9.21924C13.4794 8.73378 13.7224 8.00723 13.7224 7.1499ZM15.7224 7.1499C15.7224 8.36364 15.3821 9.5125 14.7576 10.3843C14.1293 11.2613 13.1716 11.8997 12.0008 11.8999C10.8297 11.8999 9.87137 11.2614 9.24296 10.3843C8.61848 9.5125 8.27811 8.36364 8.27811 7.1499C8.27811 5.92639 8.6369 4.77781 9.26639 3.91064C9.89512 3.04465 10.8496 2.3999 12.0008 2.3999C13.1518 2.40006 14.1055 3.04478 14.7342 3.91064C15.3637 4.77781 15.7224 5.92639 15.7224 7.1499Z" fill="#202327"/>
</svg>
