<svg width="24" height="24" viewBox="0 0 24 24" fill="none" xmlns="http://www.w3.org/2000/svg">
<path d="M20.3668 15.2246C20.7595 14.9043 21.3386 14.9271 21.7047 15.293C22.0709 15.6591 22.0934 16.2381 21.7731 16.6309L21.7047 16.707L17.7047 20.707C17.3386 21.0729 16.7595 21.0957 16.3668 20.7754L16.2907 20.707L14.2907 18.707L14.2223 18.6309C13.9022 18.2382 13.9249 17.659 14.2907 17.293C14.6567 16.9269 15.2358 16.9045 15.6286 17.2246L15.7047 17.293L16.9977 18.5859L20.2907 15.293L20.3668 15.2246Z" fill="black"/>
<path d="M11.9987 13.6865C12.4791 13.6865 12.9635 13.7187 13.445 13.7812C12.5463 14.7603 11.9977 16.0663 11.9977 17.5C11.9977 18.6071 12.3265 19.6371 12.8893 20.5H4.12856C3.80055 20.4998 3.49298 20.3381 3.3063 20.0684C3.11986 19.7985 3.07744 19.4544 3.19302 19.1475C4.59445 15.4284 8.39799 13.6867 11.9987 13.6865Z" fill="black"/>
<path d="M12.0006 2.25C13.1515 2.25026 14.1054 2.89495 14.734 3.76074C15.3635 4.62789 15.7223 5.77654 15.7223 7C15.7223 8.21368 15.3819 9.36261 14.7575 10.2344C14.1292 11.1113 13.1713 11.7498 12.0006 11.75C10.8297 11.75 9.87124 11.1114 9.24282 10.2344C8.61835 9.3626 8.27798 8.21374 8.27798 7C8.27798 5.77649 8.63676 4.62791 9.26626 3.76074C9.89498 2.89481 10.8495 2.25 12.0006 2.25Z" fill="black"/>
</svg>
