<svg width="24" height="24" viewBox="0 0 24 24" fill="none" xmlns="http://www.w3.org/2000/svg">
<path d="M12.0026 13.6865C12.4832 13.6866 12.9682 13.7186 13.4499 13.7812C12.551 14.7603 12.0026 16.0661 12.0026 17.5C12.0026 18.6073 12.3312 19.637 12.8942 20.5H4.13247C3.80449 20.4998 3.4969 20.338 3.31021 20.0684C3.12376 19.7985 3.08135 19.4544 3.19692 19.1475C4.59837 15.4284 8.40192 13.6867 12.0026 13.6865Z" fill="#202327"/>
<path d="M12.0045 2.25C13.1554 2.25029 14.1094 2.89497 14.7379 3.76074C15.3674 4.62789 15.7262 5.77656 15.7262 7C15.7262 8.21366 15.3858 9.36262 14.7614 10.2344C14.1331 11.1113 13.1752 11.7497 12.0045 11.75C10.8336 11.75 9.87514 11.1114 9.24673 10.2344C8.62225 9.3626 8.28188 8.21374 8.28188 7C8.28188 5.77649 8.64067 4.62791 9.27017 3.76074C9.89889 2.89483 10.8534 2.25 12.0045 2.25Z" fill="#202327"/>
<path d="M15.1948 15.2929C15.5854 14.9024 16.2185 14.9024 16.6091 15.2929L18.402 17.0858L20.1948 15.2929C20.5854 14.9024 21.2185 14.9024 21.6091 15.2929C21.9996 15.6834 21.9996 16.3166 21.6091 16.7071L19.8162 18.5L21.6091 20.2929C21.9996 20.6834 21.9996 21.3166 21.6091 21.7071C21.2185 22.0976 20.5854 22.0976 20.1948 21.7071L18.402 19.9142L16.6091 21.7071C16.2185 22.0976 15.5854 22.0976 15.1948 21.7071C14.8043 21.3166 14.8043 20.6834 15.1948 20.2929L16.9877 18.5L15.1948 16.7071C14.8043 16.3166 14.8043 15.6834 15.1948 15.2929Z" fill="#202327"/>
</svg>
