<svg width="24" height="24" viewBox="0 0 24 24" fill="none" xmlns="http://www.w3.org/2000/svg">
<path d="M19.6991 17.7002C19.6991 16.5957 18.8035 15.7003 17.6991 15.7002C16.5945 15.7002 15.6991 16.5956 15.6991 17.7002C15.6992 18.8046 16.5946 19.7002 17.6991 19.7002C18.8034 19.7 19.6989 18.8046 19.6991 17.7002ZM21.6991 17.7002C21.6991 17.8776 21.6863 18.0523 21.6639 18.2236L21.8045 18.2861L21.8963 18.332C22.3365 18.5836 22.5227 19.1332 22.3124 19.6064C22.102 20.0792 21.5701 20.3081 21.0887 20.1504L20.993 20.1142L20.9129 20.0781C20.677 20.3964 20.3953 20.6781 20.077 20.914L20.1131 20.9941L20.1493 21.0898C20.307 21.5712 20.0781 22.1031 19.6053 22.3135C19.1321 22.5238 18.5824 22.3376 18.3309 21.8974L18.285 21.8056L18.2225 21.665C18.0512 21.6874 17.8765 21.7002 17.6991 21.7002C17.5214 21.7002 17.3462 21.6875 17.1747 21.665L17.1122 21.8056L17.0663 21.8974C16.8147 22.3374 16.2659 22.5237 15.7928 22.3135C15.2882 22.0892 15.0609 21.4987 15.285 20.9941L15.3192 20.915C15.001 20.6791 14.7191 20.3973 14.4833 20.0791L14.4051 20.1142C13.9005 20.3385 13.3092 20.111 13.0848 19.6064C12.8605 19.1018 13.088 18.5104 13.5926 18.2861L13.7342 18.2226C13.7119 18.0516 13.6991 17.8773 13.6991 17.7002C13.6991 17.5224 13.7118 17.3474 13.7342 17.1758L13.5926 17.1133C13.0882 16.8889 12.8607 16.2985 13.0848 15.7939C13.3091 15.2892 13.9004 15.0618 14.4051 15.2861L14.4823 15.3203C14.7183 15.0018 15.0007 14.7194 15.3192 14.4834L15.285 14.4062L15.8172 14.1689L15.8192 14.1679L15.285 14.4062C15.0607 13.9015 15.2881 13.3102 15.7928 13.0859C16.2974 12.8618 16.8878 13.0893 17.1122 13.5937L17.1747 13.7353C17.3463 13.7129 17.5213 13.7002 17.6991 13.7002C17.8762 13.7002 18.0505 13.713 18.2215 13.7353L18.285 13.5937C18.5093 13.0891 19.1007 12.8616 19.6053 13.0859C20.1099 13.3103 20.3374 13.9016 20.1131 14.4062L20.078 14.4844C20.3962 14.7202 20.678 15.0021 20.9139 15.3203L20.993 15.2861L21.0887 15.249C21.5702 15.0913 22.1021 15.321 22.3124 15.7939C22.5367 16.2986 22.3092 16.889 21.8045 17.1133L21.6639 17.1758C21.6864 17.3473 21.6991 17.5225 21.6991 17.7002Z" fill="#202327"/>
<path d="M11.5537 13.7002C12.0597 13.7272 12.473 14.1333 12.498 14.6504C12.5228 15.1674 12.1504 15.611 11.6494 15.6865L11.5478 15.6973C9.20968 15.8102 7.04736 16.7783 5.7939 18.499L10.5 18.5C11.052 18.5002 11.4999 18.9479 11.5 19.5C11.4999 20.0521 11.052 20.4998 10.5 20.5H4.12886C3.80086 20.4999 3.49335 20.339 3.30659 20.0693C3.14318 19.833 3.09017 19.5391 3.15718 19.2637L3.19331 19.1475C4.52427 15.6154 8.02751 13.8656 11.4511 13.7002H11.5537Z" fill="#202327"/>
<path fill-rule="evenodd" clip-rule="evenodd" d="M12 2.25C13.1508 2.25026 14.1048 2.89495 14.7333 3.76074C15.3628 4.62789 15.7216 5.77654 15.7216 7C15.7216 8.21368 15.3812 9.36261 14.7568 10.2344C14.1285 11.1113 13.1707 11.7497 12 11.75C10.829 11.75 9.87055 11.1114 9.24214 10.2344C8.61766 9.3626 8.27729 8.21374 8.27729 7C8.27729 5.77649 8.63608 4.62791 9.26558 3.76074C9.8943 2.89481 10.8488 2.25 12 2.25ZM12 4.25C11.6479 4.25 11.2402 4.44458 10.8837 4.93555C10.528 5.42562 10.2773 6.15245 10.2773 7C10.2773 7.85733 10.5204 8.58388 10.8681 9.06934C11.2119 9.54917 11.6156 9.75 12 9.75C12.3841 9.74976 12.7872 9.54893 13.1308 9.06934C13.4785 8.58388 13.7216 7.85726 13.7216 7C13.7216 6.15252 13.4709 5.42561 13.1152 4.93555C12.7589 4.44485 12.3519 4.25025 12 4.25Z" fill="#202327"/>
</svg>
