<svg width="24" height="24" viewBox="0 0 24 24" fill="none" xmlns="http://www.w3.org/2000/svg">
<path fill-rule="evenodd" clip-rule="evenodd" d="M17.4986 12.5C20.26 12.5 22.4986 14.7386 22.4986 17.5C22.4986 20.2614 20.26 22.5 17.4986 22.5C14.7372 22.5 12.4986 20.2614 12.4986 17.5C12.4986 14.7386 14.7372 12.5 17.4986 12.5ZM16.2057 20.208C16.5971 20.3953 17.0357 20.5 17.4986 20.5C19.1555 20.5 20.4986 19.1569 20.4986 17.5C20.4986 17.0371 20.3939 16.5985 20.2066 16.207L16.2057 20.208ZM17.4986 14.5C15.8417 14.5 14.4986 15.8431 14.4986 17.5C14.4986 17.9629 14.6034 18.4015 14.7906 18.793L18.7916 14.792C18.4001 14.6047 17.9615 14.5 17.4986 14.5Z" fill="#202327"/>
<path d="M12.233 13.6895C11.4569 14.7601 10.9986 16.0765 10.9986 17.5C10.9986 18.5823 11.2641 19.6024 11.732 20.5H4.12852C3.80057 20.4998 3.49288 20.3381 3.30625 20.0684C3.1199 19.7986 3.07745 19.4543 3.19297 19.1475C4.59435 15.4284 8.398 13.6868 11.9986 13.6865C12.0764 13.6865 12.155 13.6878 12.233 13.6895Z" fill="#202327"/>
<path d="M12.0006 2.25C13.1515 2.25016 14.1053 2.89498 14.734 3.76074C15.3635 4.62791 15.7223 5.77649 15.7223 7C15.7223 8.21374 15.3819 9.3626 14.7574 10.2344C14.1291 11.1113 13.1713 11.7498 12.0006 11.75C10.8297 11.7499 9.87112 11.1114 9.24277 10.2344C8.61839 9.36262 8.27793 8.21365 8.27793 7C8.27793 5.77658 8.6368 4.62788 9.26621 3.76074C9.89486 2.89485 10.8496 2.25015 12.0006 2.25Z" fill="#202327"/>
</svg>
