<svg width="24" height="24" viewBox="0 0 24 24" fill="none" xmlns="http://www.w3.org/2000/svg">
<path d="M20.3688 15.2246C20.7616 14.9043 21.3406 14.9269 21.7067 15.293C22.0728 15.6591 22.0954 16.2381 21.7751 16.6309L21.7067 16.707L17.7067 20.707C17.3406 21.0731 16.7616 21.0957 16.3688 20.7754L16.2927 20.707L14.2927 18.707L14.2243 18.6309C13.904 18.2381 13.9266 17.6591 14.2927 17.293C14.6588 16.9269 15.2378 16.9043 15.6305 17.2246L15.7067 17.293L16.9997 18.5859L20.2927 15.293L20.3688 15.2246Z" fill="#202327"/>
<path d="M3.19305 19.1475C4.66496 15.2415 8.77936 13.5174 12.5466 13.6992L12.6491 13.709C13.1503 13.7845 13.5227 14.2299 13.4977 14.7471C13.4709 15.2984 13.0022 15.7237 12.4509 15.6973L12.1501 15.6875C9.6015 15.6449 7.16365 16.6292 5.79852 18.499L11.4987 18.5C12.0509 18.5001 12.4987 18.9478 12.4987 19.5C12.4987 20.0176 12.1053 20.4438 11.6013 20.4951L11.4987 20.5H4.12957C3.80149 20.5 3.49312 20.339 3.30633 20.0693C3.11973 19.7995 3.07749 19.4545 3.19305 19.1475Z" fill="#202327"/>
<path fill-rule="evenodd" clip-rule="evenodd" d="M12.0016 2.25C13.1526 2.25016 14.1064 2.89488 14.735 3.76074C15.3645 4.62791 15.7233 5.77649 15.7233 7C15.7233 8.21374 15.383 9.3626 14.7585 10.2344C14.1301 11.1114 13.1725 11.7498 12.0016 11.75C10.8306 11.75 9.87224 11.1115 9.24383 10.2344C8.61935 9.3626 8.27899 8.21374 8.27899 7C8.27899 5.77649 8.63777 4.62791 9.26727 3.76074C9.89599 2.89475 10.8504 2.25 12.0016 2.25ZM12.0016 4.25C11.6495 4.25 11.2419 4.44449 10.8854 4.93555C10.5297 5.42562 10.279 6.15245 10.279 7C10.279 7.85733 10.5221 8.58388 10.8698 9.06934C11.2136 9.54926 11.6173 9.75 12.0016 9.75C12.3859 9.74985 12.7888 9.54904 13.1325 9.06934C13.4802 8.58388 13.7233 7.85733 13.7233 7C13.7233 6.15245 13.4726 5.42562 13.1169 4.93555C12.7605 4.44473 12.3536 4.25016 12.0016 4.25Z" fill="#202327"/>
</svg>
