<svg width="24" height="24" viewBox="0 0 24 24" fill="none" xmlns="http://www.w3.org/2000/svg">
<g clip-path="url(#clip0_18_15573)">
<path fill-rule="evenodd" clip-rule="evenodd" d="M4 7C3.44772 7 3 7.44772 3 8V16C3 16.5523 3.44772 17 4 17H14C14.5523 17 15 16.5523 15 16V13.0137C14.9999 13.004 14.9999 12.9942 15 12.9845V10.519C14.9998 10.507 14.9998 10.4949 15 10.4829V8C15 7.44772 14.5523 7 14 7H4ZM17 8.75879V8C17 6.34315 15.6569 5 14 5H4C2.34315 5 1 6.34315 1 8V16C1 17.6569 2.34315 19 4 19H14C15.6569 19 17 17.6569 17 16V14.8685L20.6683 17.3141C20.8942 17.4644 21.1573 17.5511 21.4283 17.564C21.6993 17.577 21.9688 17.5162 22.208 17.3882C22.4472 17.2601 22.6472 17.0696 22.7867 16.8368C22.9261 16.6041 22.9999 16.3379 23 16.0665V7.87032C23 7.87022 23 7.87042 23 7.87032C23 7.60649 22.9305 7.34702 22.7983 7.11866C22.6662 6.89021 22.476 6.70068 22.2472 6.56921C22.0183 6.43774 21.7588 6.36899 21.4949 6.36988C21.231 6.37078 20.972 6.4413 20.744 6.57432L17 8.75879ZM17 11.0743V12.4648L21 15.1315V8.74049L17 11.0743ZM21.752 8.30172C21.7518 8.30183 21.7522 8.30162 21.752 8.30172V8.30172Z" fill="#202327"/>
</g>
<defs>
<clipPath id="clip0_18_15573">
<rect width="24" height="24" fill="white"/>
</clipPath>
</defs>
</svg>
