<svg width="24" height="24" viewBox="0 0 24 24" fill="none" xmlns="http://www.w3.org/2000/svg">
<path d="M19.1259 3C19.2836 2.99998 19.4393 3.03777 19.58 3.10938C19.7205 3.18098 19.8427 3.28455 19.9354 3.41211L23.7577 8.66797C23.8257 8.76149 23.8592 8.8758 23.8524 8.99121C23.8456 9.10658 23.799 9.21584 23.7206 9.30078L12.3661 21.6016C12.2761 21.6988 12.1508 21.7565 12.0184 21.7617C11.8862 21.7669 11.7573 21.7196 11.66 21.6299C11.6526 21.6235 7.85981 17.5143 0.277219 9.30078C0.198845 9.21584 0.15215 9.10658 0.145383 8.99121C0.138637 8.8758 0.172146 8.76149 0.240109 8.66797L4.06335 3.41211C4.15605 3.28463 4.27741 3.18095 4.41784 3.10938C4.55845 3.03777 4.71416 2.99998 4.87194 3H19.1259ZM2.58191 8.84961L11.9989 19.0498L21.4159 8.84961L18.6161 5H5.38171L2.58191 8.84961ZM8.78113 9.81348L12.0028 13.1592L15.2694 9.81348H17.7333L12.8163 15.4785H11.1893L6.28894 9.81348H8.78113Z" fill="#202327"/>
</svg>
