<svg width="24" height="24" viewBox="0 0 24 24" fill="none" xmlns="http://www.w3.org/2000/svg">
<path d="M19.1258 3C19.2836 2.99998 19.4393 3.03779 19.5799 3.10938C19.7205 3.18098 19.8426 3.28448 19.9354 3.41211L23.7586 8.66797C23.8265 8.76147 23.8601 8.87585 23.8534 8.99121C23.8466 9.10649 23.7998 9.21586 23.7215 9.30078L12.3661 21.6016C12.3193 21.6521 12.2631 21.6931 12.2001 21.7207C12.1369 21.7483 12.0678 21.7627 11.9989 21.7627C11.9301 21.7626 11.8617 21.7483 11.7987 21.7207C11.7356 21.6931 11.6794 21.6521 11.6327 21.6016L0.277199 9.30176C0.198657 9.21675 0.152107 9.10676 0.145363 8.99121C0.13872 8.87575 0.17199 8.76145 0.24009 8.66797L4.06333 3.41211C4.15611 3.28448 4.2782 3.18098 4.4188 3.10938C4.55925 3.03788 4.71433 3.00004 4.87193 3H19.1258ZM11.1893 15.4785H12.8163L17.7333 9.81348H15.2694L12.0028 13.1592L8.78111 9.81348H6.28892L11.1893 15.4785Z" fill="#202327"/>
</svg>
