<svg width="24" height="24" viewBox="0 0 24 24" fill="none" xmlns="http://www.w3.org/2000/svg">
<g clip-path="url(#clip0_150_268)">
<path d="M20 6C20 4.89543 19.1046 4 18 4H6C4.89543 4 4 4.89543 4 6V18C4 19.1046 4.89543 20 6 20H18C19.1046 20 20 19.1046 20 18V6ZM15 16V10C15 9.44772 15.4477 9 16 9C16.5523 9 17 9.44772 17 10V16C17 16.5523 16.5523 17 16 17C15.4477 17 15 16.5523 15 16ZM7 14V10C7 9.44772 7.44772 9 8 9C8.55228 9 9 9.44772 9 10V14C9 14.5523 8.55228 15 8 15C7.44772 15 7 14.5523 7 14ZM11 12V10C11 9.44772 11.4477 9 12 9C12.5523 9 13 9.44772 13 10V12C13 12.5523 12.5523 13 12 13C11.4477 13 11 12.5523 11 12ZM22 18C22 20.2091 20.2091 22 18 22H6C3.79086 22 2 20.2091 2 18V6C2 3.79086 3.79086 2 6 2H18C20.2091 2 22 3.79086 22 6V18Z" fill="#202327"/>
</g>
<defs>
<clipPath id="clip0_150_268">
<rect width="24" height="24" fill="white"/>
</clipPath>
</defs>
</svg>
