<svg width="24" height="24" viewBox="0 0 24 24" fill="none" xmlns="http://www.w3.org/2000/svg">
<g clip-path="url(#clip0_150_245)">
<path d="M18 2C20.2091 2 22 3.79086 22 6V18C22 20.2091 20.2091 22 18 22H6C3.79086 22 2 20.2091 2 18V6C2 3.79086 3.79086 2 6 2H18ZM16 9C15.4477 9 15 9.44772 15 10V16C15 16.5523 15.4477 17 16 17C16.5523 17 17 16.5523 17 16V10C17 9.44772 16.5523 9 16 9ZM8 9C7.44772 9 7 9.44772 7 10V14C7 14.5523 7.44772 15 8 15C8.55228 15 9 14.5523 9 14V10C9 9.44772 8.55228 9 8 9ZM12 9C11.4477 9 11 9.44772 11 10V12C11 12.5523 11.4477 13 12 13C12.5523 13 13 12.5523 13 12V10C13 9.44772 12.5523 9 12 9Z" fill="#202327"/>
</g>
<defs>
<clipPath id="clip0_150_245">
<rect width="24" height="24" fill="white"/>
</clipPath>
</defs>
</svg>
