<svg width="24" height="24" viewBox="0 0 24 24" fill="none" xmlns="http://www.w3.org/2000/svg">
<g clip-path="url(#clip0_18_15538)">
<path d="M11.0879 3.01067C11.3373 2.98014 11.5904 3.00518 11.8291 3.08391L11.9473 3.12785L12.0615 3.17961C12.2861 3.29262 12.4828 3.45428 12.6377 3.65227L12.7119 3.75481L12.7783 3.86223C12.9228 4.11713 12.9995 4.40571 13 4.70012V19.2968L12.9951 19.4228C12.9738 19.7158 12.8777 19.9994 12.7139 20.245C12.5266 20.5257 12.2599 20.7447 11.9482 20.874C11.6365 21.0032 11.2929 21.0366 10.9619 20.9706C10.6309 20.9047 10.3263 20.7427 10.0879 20.5038L6.7041 17.1181C6.6668 17.0806 6.62213 17.0505 6.57324 17.0302C6.52435 17.01 6.47186 16.9998 6.41895 16.9999H4C3.46958 16.9999 2.96101 16.789 2.58594 16.414C2.25767 16.0857 2.05515 15.6552 2.00977 15.1972L2 14.9999V8.99992C2.00001 8.46952 2.21089 7.96093 2.58594 7.58586C2.96101 7.2108 3.46957 6.99992 4 6.99992H6.41895L6.49805 6.99211C6.5237 6.98701 6.54896 6.97971 6.57324 6.96965C6.62213 6.9494 6.66679 6.91928 6.7041 6.88176L10.0908 3.49602L10.1826 3.41008C10.405 3.21878 10.6738 3.08759 10.9629 3.0302L11.0879 3.01067ZM19.2012 3.22453C19.594 2.90386 20.1738 2.92666 20.54 3.29289C20.9059 3.65897 20.9285 4.2381 20.6084 4.63078L20.54 4.70696L18.5801 6.66594L20.54 8.6259C20.9304 9.01632 20.9302 9.64944 20.54 10.04L18.5801 11.9999L20.54 13.9599C20.9302 14.3504 20.9304 14.9836 20.54 15.374L18.5801 17.3329L20.54 19.2929L20.6084 19.3691C20.9285 19.7618 20.9059 20.3409 20.54 20.707C20.1738 21.0732 19.594 21.0959 19.2012 20.7753L19.126 20.707L16.459 18.04C16.0686 17.6494 16.0685 17.0164 16.459 16.6259L18.418 14.6659L16.459 12.707C16.0685 12.3164 16.0685 11.6834 16.459 11.2929L18.418 9.33293L16.459 7.37395C16.0685 6.98348 16.0686 6.35042 16.459 5.95989L19.126 3.29289L19.2012 3.22453ZM8.12012 8.29387C7.89671 8.51807 7.63128 8.69614 7.33887 8.81731C7.0464 8.93846 6.73257 8.99949 6.41602 8.99895L4 8.99992V14.9999H6.41602C6.73258 14.9994 7.04639 15.0614 7.33887 15.1825C7.63128 15.3037 7.89671 15.4818 8.12012 15.706L11 18.5859V5.41399L8.12012 8.29387Z" fill="#151826"/>
</g>
<defs>
<clipPath id="clip0_18_15538">
<rect width="24" height="24" fill="white"/>
</clipPath>
</defs>
</svg>
