<svg width="24" height="24" viewBox="0 0 24 24" fill="none" xmlns="http://www.w3.org/2000/svg">
<path fill-rule="evenodd" clip-rule="evenodd" d="M18.6569 4.92888C19.0474 4.53836 19.6806 4.53835 20.0711 4.92888C20.9997 5.85746 21.7363 6.95986 22.2389 8.17312C22.7414 9.38639 23.0001 10.6868 23.0001 12C23.0001 13.3132 22.7414 14.6136 22.2389 15.8268C21.7363 17.0401 20.9997 18.1425 20.0711 19.0711C19.6806 19.4616 19.0474 19.4616 18.6569 19.0711C18.2664 18.6806 18.2664 18.0474 18.6569 17.6569C19.3998 16.914 19.9891 16.0321 20.3911 15.0615C20.7932 14.0909 21.0001 13.0506 21.0001 12C21.0001 10.9494 20.7932 9.90911 20.3911 8.9385C19.9891 7.96789 19.3998 7.08597 18.6569 6.3431C18.2664 5.95258 18.2664 5.31941 18.6569 4.92888ZM15.4 8.2C15.8418 7.86863 16.4686 7.95817 16.8 8.4C17.5789 9.43858 18 10.7018 18 12C18 13.2982 17.5789 14.5614 16.8 15.6C16.4686 16.0418 15.8418 16.1314 15.4 15.8C14.9582 15.4686 14.8686 14.8418 15.2 14.4C15.7193 13.7076 16 12.8655 16 12C16 11.1345 15.7193 10.2924 15.2 9.6C14.8686 9.15817 14.9582 8.53137 15.4 8.2Z" fill="#151826"/>
<path fill-rule="evenodd" clip-rule="evenodd" d="M1.58579 7.58582C1.96086 7.21074 2.46957 7.00003 3 7.00003H5.416C5.96828 7.00003 6.416 7.44774 6.416 8.00003C6.416 8.55231 6.98656 12.2746 6.98656 12.2746C6.98656 12.2746 6.416 15.4477 6.416 16C6.416 16.5523 5.96828 17 5.416 17H3C2.46957 17 1.96086 16.7893 1.58579 16.4142C1.21071 16.0392 1 15.5305 1 15V9.00003C1 8.4696 1.21071 7.96089 1.58579 7.58582Z" fill="#151826"/>
<path fill-rule="evenodd" clip-rule="evenodd" d="M11 3.70203C11.5523 3.70203 12 4.14974 12 4.70203V19.298C12 19.8503 11.5523 20.298 11 20.298C10.4477 20.298 6.98656 12.2746 6.98656 12.2746L10 4.70203C10 4.14974 10.4477 3.70203 11 3.70203Z" fill="#151826"/>
<path fill-rule="evenodd" clip-rule="evenodd" d="M9.96305 3.03067C10.2935 2.96509 10.6359 2.99885 10.9471 3.12769C11.2584 3.25654 11.5245 3.47469 11.7119 3.75463C11.8993 4.03456 11.9995 4.36373 12 4.70058C12.0008 5.25287 11.5537 5.70123 11.0014 5.70203C10.6514 5.70253 6.98656 12.2746 6.98656 12.2746C6.98656 12.2746 4.41439 8.54938 4.416 7.9971C4.41762 7.44481 4.86665 6.99841 5.41893 7.00003C5.47186 7.00019 5.52429 6.98984 5.57319 6.96958C5.62208 6.94933 5.66648 6.91957 5.70379 6.88203L5.70599 6.87981L9.09 3.49682C9.32844 3.25887 9.63263 3.09626 9.96305 3.03067Z" fill="#151826"/>
<path fill-rule="evenodd" clip-rule="evenodd" d="M5.57319 17.0305C5.52429 17.0102 5.47185 16.9999 5.41893 17C4.86665 17.0016 4.41762 16.5552 4.416 16.003C4.41439 15.4507 6.98656 12.2746 6.98656 12.2746C6.98656 12.2746 10.6491 18.2985 10.9986 18.298C11.5509 18.2973 11.9992 18.7444 12 19.2966C12.0005 19.6342 11.9007 19.9643 11.7134 20.2451C11.5261 20.5259 11.2596 20.7448 10.9478 20.8741C10.636 21.0033 10.2928 21.0371 9.96172 20.9711C9.63076 20.9052 9.32683 20.7425 9.0884 20.5036L5.70379 17.118C5.66647 17.0805 5.62209 17.0507 5.57319 17.0305Z" fill="#151826"/>
</svg>
