<svg width="24" height="24" viewBox="0 0 24 24" fill="none" xmlns="http://www.w3.org/2000/svg">
<path fill-rule="evenodd" clip-rule="evenodd" d="M15.2929 8.29289C15.6834 7.90237 16.3166 7.90237 16.7071 8.29289L19 10.5858L21.2929 8.29289C21.6834 7.90237 22.3166 7.90237 22.7071 8.29289C23.0976 8.68342 23.0976 9.31658 22.7071 9.70711L20.4142 12L22.7071 14.2929C23.0976 14.6834 23.0976 15.3166 22.7071 15.7071C22.3166 16.0976 21.6834 16.0976 21.2929 15.7071L19 13.4142L16.7071 15.7071C16.3166 16.0976 15.6834 16.0976 15.2929 15.7071C14.9024 15.3166 14.9024 14.6834 15.2929 14.2929L17.5858 12L15.2929 9.70711C14.9024 9.31658 14.9024 8.68342 15.2929 8.29289Z" fill="#202327"/>
<path fill-rule="evenodd" clip-rule="evenodd" d="M1.58579 7.58582C1.96086 7.21074 2.46957 7.00003 3 7.00003H5.416C5.96828 7.00003 6.416 7.44774 6.416 8.00003C6.416 8.55231 7.13432 12.2746 6.58204 12.2746C7.13432 12.2746 6.416 15.4477 6.416 16C6.416 16.5523 5.96828 17 5.416 17H3C2.46957 17 1.96086 16.7893 1.58579 16.4142C1.21071 16.0392 1 15.5305 1 15V9.00003C1 8.4696 1.21071 7.96089 1.58579 7.58582Z" fill="#202327"/>
<path fill-rule="evenodd" clip-rule="evenodd" d="M11 3.70203C11.5523 3.70203 12 4.14974 12 4.70203V19.298C12 19.8503 11.5523 20.298 11 20.298C10.4477 20.298 6.58204 12.8268 6.58204 12.2746L10 4.70203C10 4.14974 10.4477 3.70203 11 3.70203Z" fill="#202327"/>
<path fill-rule="evenodd" clip-rule="evenodd" d="M9.96305 3.03067C10.2935 2.96509 10.6359 2.99885 10.9471 3.12769C11.2584 3.25654 11.5245 3.47469 11.7119 3.75463C11.8993 4.03456 11.9995 4.36373 12 4.70058C12.0008 5.25287 11.5537 5.70123 11.0014 5.70203C10.6514 5.70253 6.76109 12.5466 6.58204 12.2746C6.35841 12.4992 6.87489 12.1532 6.58204 12.2746C6.28865 12.3961 6.8996 12.2755 6.58204 12.2746C6.02975 12.2729 4.41439 8.54938 4.416 7.9971C4.41762 7.44481 4.86665 6.99841 5.41893 7.00003C5.47186 7.00019 5.52429 6.98984 5.57319 6.96958C5.62208 6.94933 5.66648 6.91957 5.70379 6.88203L5.70599 6.87981L9.09 3.49682C9.32844 3.25887 9.63263 3.09626 9.96305 3.03067Z" fill="#202327"/>
<path fill-rule="evenodd" clip-rule="evenodd" d="M5.57319 17.0305C5.52429 17.0102 5.47185 16.9999 5.41893 17C4.86665 17.0016 4.41762 16.5552 4.416 16.003C4.41439 15.4507 6.02975 12.2762 6.58204 12.2746C6.28865 12.153 6.8996 12.2736 6.58204 12.2746C6.35839 12.0499 6.87493 12.3959 6.58204 12.2746C6.76045 12.0027 10.6491 18.2985 10.9986 18.298C11.5509 18.2973 11.9992 18.7444 12 19.2966C12.0005 19.6342 11.9007 19.9643 11.7134 20.2451C11.5261 20.5259 11.2596 20.7448 10.9478 20.8741C10.636 21.0033 10.2928 21.0371 9.96172 20.9711C9.63076 20.9052 9.32683 20.7425 9.0884 20.5036L5.70379 17.118C5.66647 17.0805 5.62209 17.0507 5.57319 17.0305Z" fill="#202327"/>
</svg>
