<svg width="24" height="24" viewBox="0 0 24 24" fill="none" xmlns="http://www.w3.org/2000/svg">
<path fill-rule="evenodd" clip-rule="evenodd" d="M18.4 8.20195C18.8418 7.87058 19.4686 7.96013 19.8 8.40195C20.5789 9.44053 21 10.7037 21 12.002C21 13.3002 20.5789 14.5634 19.8 15.602C19.4686 16.0438 18.8418 16.1333 18.4 15.802C17.9582 15.4706 17.8686 14.8438 18.2 14.402C18.7193 13.7096 19 12.8674 19 12.002C19 11.1365 18.7193 10.2943 18.2 9.60195C17.8686 9.16013 17.9582 8.53332 18.4 8.20195Z" fill="#151826"/>
<path fill-rule="evenodd" clip-rule="evenodd" d="M4.58579 7.58777C4.96086 7.2127 5.46957 7.00198 6 7.00198H8.416C8.96828 7.00198 9.416 7.4497 9.416 8.00198C9.416 8.55427 8.96828 9.00198 8.416 9.00198H6V15.002H8.416C8.96828 15.002 9.416 15.4497 9.416 16.002C9.416 16.5543 8.96828 17.002 8.416 17.002H6C5.46957 17.002 4.96086 16.7913 4.58579 16.4162C4.21071 16.0411 4 15.5324 4 15.002V9.00198C4 8.47155 4.21071 7.96284 4.58579 7.58777Z" fill="#151826"/>
<path fill-rule="evenodd" clip-rule="evenodd" d="M14 3.70398C14.5523 3.70398 15 4.1517 15 4.70398V19.3C15 19.8523 14.5523 20.3 14 20.3C13.4477 20.3 13 19.8523 13 19.3V4.70398C13 4.1517 13.4477 3.70398 14 3.70398Z" fill="#151826"/>
<path fill-rule="evenodd" clip-rule="evenodd" d="M12.963 3.03263C13.2935 2.96704 13.6359 3.0008 13.9471 3.12965C14.2584 3.25849 14.5245 3.47664 14.7119 3.75658C14.8993 4.03651 14.9995 4.36568 15 4.70254C15.0008 5.25482 14.5537 5.70318 14.0014 5.70398C13.6514 5.70449 13.3431 5.52509 13.1641 5.25302L10.1222 8.29398L10.121 8.2952C9.89737 8.51984 9.63145 8.69796 9.3386 8.81928C9.04522 8.94081 8.73063 9.00291 8.41307 9.00198C7.86079 9.00036 7.41439 8.55133 7.416 7.99905C7.41762 7.44677 7.86665 7.00037 8.41893 7.00199C8.47186 7.00214 8.52429 6.99179 8.57319 6.97154C8.62208 6.95128 8.66648 6.92152 8.70379 6.88399L8.70599 6.88177L12.09 3.49877C12.3284 3.26082 12.6326 3.09821 12.963 3.03263Z" fill="#151826"/>
<path fill-rule="evenodd" clip-rule="evenodd" d="M8.57319 17.0324C8.52429 17.0122 8.47185 17.0018 8.41893 17.002C7.86665 17.0036 7.41762 16.5572 7.416 16.0049C7.41439 15.4526 7.86079 15.0036 8.41307 15.002C8.73063 15.0011 9.04522 15.0632 9.3386 15.1847C9.63149 15.306 9.89744 15.4842 10.1211 15.7089L10.1222 15.71L13.1634 18.752C13.3418 18.4802 13.6491 18.3005 13.9986 18.3C14.5509 18.2992 14.9992 18.7463 15 19.2986C15.0005 19.6362 14.9007 19.9663 14.7134 20.2471C14.5261 20.5279 14.2596 20.7468 13.9478 20.876C13.636 21.0053 13.2928 21.0391 12.9617 20.9731C12.6308 20.9071 12.3268 20.7444 12.0884 20.5056L8.70379 17.12C8.66647 17.0824 8.62209 17.0527 8.57319 17.0324Z" fill="#151826"/>
</svg>
