<svg width="24" height="24" viewBox="0 0 24 24" fill="none" xmlns="http://www.w3.org/2000/svg">
<g clip-path="url(#clip0_18_15550)">
<path fill-rule="evenodd" clip-rule="evenodd" d="M9.99988 5.15725C9.6908 5.21093 9.36128 5.11876 9.12213 4.88052C8.73086 4.49074 8.72965 3.85758 9.11943 3.46631C9.35509 3.22975 9.65568 3.06849 9.9831 3.00298C10.3105 2.93747 10.65 2.97066 10.9586 3.09834C11.2671 3.22602 11.5308 3.44244 11.7162 3.72016C11.9014 3.99769 12.0002 4.32395 11.9999 4.65762C11.9999 4.65739 11.9999 4.65785 11.9999 4.65762V5.34307C11.9999 5.89535 11.5522 6.34307 10.9999 6.34307C10.4476 6.34307 9.99988 5.89535 9.99988 5.34307V5.15725Z" fill="#151826"/>
<path fill-rule="evenodd" clip-rule="evenodd" d="M1.29289 1.29289C1.68342 0.902369 2.31658 0.902369 2.70711 1.29289L22.7071 21.2929C23.0976 21.6834 23.0976 22.3166 22.7071 22.7071C22.3166 23.0976 21.6834 23.0976 21.2929 22.7071L1.29289 2.70711C0.902369 2.31658 0.902369 1.68342 1.29289 1.29289Z" fill="#151826"/>
<path fill-rule="evenodd" clip-rule="evenodd" d="M5.57319 17.0304C5.52429 17.0102 5.47185 16.9998 5.41893 17C4.86665 17.0016 4.41762 16.5552 4.416 16.0029C4.41439 15.4506 4.86079 15.0016 5.41307 15C5.73063 14.9991 6.04522 15.0612 6.3386 15.1827C6.63149 15.304 6.89745 15.4822 7.1211 15.7069C7.12147 15.7073 7.12184 15.7076 7.12221 15.708L10.1634 18.75C10.3418 18.4782 10.6491 18.2985 10.9986 18.298C11.5509 18.2972 11.9992 18.7443 12 19.2966C12.0005 19.6342 11.9007 19.9643 11.7134 20.2451C11.5261 20.5259 11.2596 20.7448 10.9478 20.8741C10.636 21.0033 10.2928 21.0371 9.96172 20.9711C9.63076 20.9051 9.32683 20.7424 9.0884 20.5036C9.08833 20.5035 9.08846 20.5037 9.0884 20.5036L5.70379 17.118C5.66647 17.0805 5.62209 17.0507 5.57319 17.0304Z" fill="#151826"/>
<path fill-rule="evenodd" clip-rule="evenodd" d="M11 10C11.5523 10 12 10.4477 12 11V19.298C12 19.8503 11.5523 20.298 11 20.298C10.4477 20.298 10 19.8503 10 19.298V11C10 10.4477 10.4477 10 11 10Z" fill="#151826"/>
<path fill-rule="evenodd" clip-rule="evenodd" d="M5.57319 17.0304C5.52429 17.0102 5.47185 16.9998 5.41893 17L5.416 17L3 17C2.44772 17 2 16.5523 2 16C2 15.4477 2.44772 15 3 15H5.41473" fill="#151826"/>
<path fill-rule="evenodd" clip-rule="evenodd" d="M6.29289 6.29289C6.68342 5.90237 7.31658 5.90237 7.70711 6.29289C8.09763 6.68342 8.09763 7.31658 7.70711 7.70711L7.12221 8.292L7.12101 8.2932C6.89738 8.51785 6.63146 8.69598 6.3386 8.81729C6.04573 8.93861 5.73172 9.00071 5.41473 9L5.41307 9L5.416 9H5.41473H3V15C3.55228 15 4 15.4477 4 16C4 16.5523 3.55228 17 3 17C2.46957 17 1.96086 16.7893 1.58579 16.4142C1.21071 16.0391 1 15.5304 1 15V9C1 8.46957 1.21071 7.96086 1.58579 7.58579C1.96086 7.21071 2.46957 7 3 7H5.41893C5.47186 7.00015 5.52429 6.98981 5.57319 6.96955C5.62208 6.9493 5.66648 6.91954 5.70379 6.882L5.70589 6.87989L6.29289 6.29289Z" fill="#151826"/>
<path fill-rule="evenodd" clip-rule="evenodd" d="M18.6567 4.92908C19.0471 4.53845 19.6803 4.53827 20.0709 4.92868C21.492 6.34897 22.4523 8.16441 22.8267 10.1384C23.2011 12.1124 22.9722 14.1533 22.1698 15.9953C21.9492 16.5017 21.36 16.7333 20.8537 16.5128C20.3473 16.2922 20.1157 15.703 20.3362 15.1966C20.9781 13.723 21.1613 12.0902 20.8617 10.5111C20.5622 8.93188 19.794 7.47953 18.6571 6.34329C18.2665 5.95288 18.2663 5.31972 18.6567 4.92908ZM15.3999 8.20006C15.8417 7.86864 16.4685 7.95813 16.7999 8.39992C17.4052 9.20673 17.7972 10.1531 17.9399 11.1515C18.0181 11.6983 17.6382 12.2048 17.0915 12.2829C16.5447 12.3611 16.0382 11.9812 15.9601 11.4345C15.8649 10.7689 15.6035 10.1379 15.2001 9.60008C14.8686 9.15828 14.9581 8.53147 15.3999 8.20006Z" fill="#151826"/>
</g>
<defs>
<clipPath id="clip0_18_15550">
<rect width="24" height="24" fill="white"/>
</clipPath>
</defs>
</svg>
