<svg width="24" height="24" viewBox="0 0 24 24" fill="none" xmlns="http://www.w3.org/2000/svg">
<path fill-rule="evenodd" clip-rule="evenodd" d="M10 2C10.5523 2 11 2.44772 11 3V21C11 21.5523 10.5523 22 10 22C9.44772 22 9 21.5523 9 21V3C9 2.44772 9.44772 2 10 2ZM18 4C18.5523 4 19 4.44772 19 5V18C19 18.5523 18.5523 19 18 19C17.4477 19 17 18.5523 17 18V5C17 4.44772 17.4477 4 18 4ZM6 5C6.55228 5 7 5.44772 7 6V17C7 17.5523 6.55228 18 6 18C5.44772 18 5 17.5523 5 17V6C5 5.44772 5.44772 5 6 5ZM14 7C14.5523 7 15 7.44772 15 8V15C15 15.5523 14.5523 16 14 16C13.4477 16 13 15.5523 13 15V8C13 7.44772 13.4477 7 14 7ZM2 9C2.55228 9 3 9.44772 3 10V13C3 13.5523 2.55228 14 2 14C1.44772 14 1 13.5523 1 13V10C1 9.44772 1.44772 9 2 9ZM22 9C22.5523 9 23 9.44772 23 10V13C23 13.5523 22.5523 14 22 14C21.4477 14 21 13.5523 21 13V10C21 9.44772 21.4477 9 22 9Z" fill="#202327"/>
</svg>
