<svg width="24" height="24" viewBox="0 0 24 24" fill="none" xmlns="http://www.w3.org/2000/svg">
<g clip-path="url(#clip0_18_15567)">
<path fill-rule="evenodd" clip-rule="evenodd" d="M12 3C8.13401 3 5 6.13401 5 10C5 13.866 8.13401 17 12 17C15.866 17 19 13.866 19 10C19 6.13401 15.866 3 12 3ZM3 10C3 5.02944 7.02944 1 12 1C16.9706 1 21 5.02944 21 10C21 14.6326 17.5 18.4476 13 18.9451V21H17C17.5523 21 18 21.4477 18 22C18 22.5523 17.5523 23 17 23H7C6.44772 23 6 22.5523 6 22C6 21.4477 6.44772 21 7 21H11V18.9451C6.50005 18.4476 3 14.6326 3 10ZM8 10C8 7.79086 9.79086 6 12 6C14.2091 6 16 7.79086 16 10C16 12.2091 14.2091 14 12 14C9.79086 14 8 12.2091 8 10Z" fill="#151826"/>
</g>
<defs>
<clipPath id="clip0_18_15567">
<rect width="24" height="24" fill="white"/>
</clipPath>
</defs>
</svg>
