<svg width="24" height="24" viewBox="0 0 24 24" fill="none" xmlns="http://www.w3.org/2000/svg">
<path d="M0.691406 6.99702C3.8905 4.40534 7.88425 2.99393 12.0014 3.00002C16.2864 3.00002 20.2214 4.49702 23.3114 6.99702L21.4264 9.33002C18.7604 7.17055 15.4323 5.99467 12.0014 6.00002C8.43141 6.00002 5.15141 7.24802 2.57641 9.33002L0.691406 6.99702ZM3.83241 10.887C6.14301 9.01502 9.02765 7.99556 12.0014 8.00002C15.0954 8.00002 17.9374 9.08102 20.1704 10.886L18.2854 13.22C16.5079 11.7802 14.2889 10.9963 12.0014 11C9.62141 11 7.43541 11.832 5.71741 13.22L3.83241 10.886V10.887ZM6.97441 14.777C8.39625 13.6249 10.1714 12.9974 12.0014 13C13.9054 13 15.6544 13.665 17.0284 14.776L15.1434 17.11C14.2546 16.3902 13.1451 15.9982 12.0014 16C10.8577 15.9982 9.7482 16.3902 8.85941 17.11L6.97441 14.776V14.777ZM10.1164 18.667C10.6495 18.2347 11.3151 17.9992 12.0014 18C12.7154 18 13.3714 18.25 13.8864 18.666L12.0014 21L10.1164 18.666V18.667Z" fill="#151826"/>
</svg>
