<svg width="24" height="24" viewBox="0 0 24 24" fill="none" xmlns="http://www.w3.org/2000/svg">
<path d="M0.691406 6.99702C3.8905 4.40534 7.88425 2.99393 12.0014 3.00002C16.2864 3.00002 20.2214 4.49702 23.3114 6.99702L22.0554 8.55302C19.2116 6.24909 15.6613 4.99446 12.0014 5.00002C8.19241 5.00002 4.69541 6.33002 1.94741 8.55302L0.691406 6.99702ZM3.83241 10.887C6.14301 9.01502 9.02765 7.99556 12.0014 8.00002C15.0954 8.00002 17.9374 9.08102 20.1704 10.886L18.9134 12.442C16.9582 10.8584 14.5175 9.99603 12.0014 10C9.38341 10 6.97841 10.915 5.08941 12.442L3.83241 10.886V10.887ZM6.97441 14.777C8.39625 13.6249 10.1714 12.9974 12.0014 13C13.9054 13 15.6544 13.665 17.0284 14.776L15.7714 16.332C14.705 15.4682 13.3738 14.9979 12.0014 15C10.5734 15 9.26141 15.499 8.23141 16.332L6.97441 14.776V14.777ZM10.1164 18.667C10.6495 18.2347 11.3151 17.9992 12.0014 18C12.7154 18 13.3714 18.25 13.8864 18.666L12.0014 21L10.1164 18.666V18.667Z" fill="#151826"/>
</svg>
