<svg width="24" height="24" viewBox="0 0 24 24" fill="none" xmlns="http://www.w3.org/2000/svg">
<path d="M11.9985 17.9996C12.7125 17.9996 13.3685 18.2496 13.8845 18.6656L11.9985 20.9996L10.1125 18.6656C10.646 18.2334 11.312 17.9982 11.9985 17.9996ZM2.8065 1.39258L20.4835 19.0706L19.0695 20.4846L13.8895 15.3046C13.2796 15.1022 12.6411 14.9992 11.9985 14.9996C10.5705 14.9996 9.2585 15.4986 8.2285 16.3316L6.9725 14.7756C8.28655 13.711 9.90539 13.0925 11.5945 13.0096L8.9985 10.4136C7.57067 10.8183 6.23981 11.5086 5.0865 12.4426L3.8285 10.8866C4.9063 10.0138 6.11698 9.31933 7.4145 8.82958L5.1305 6.54458C3.99359 7.08599 2.92454 7.75964 1.9455 8.55158L0.6875 6.99658C1.6025 6.25658 2.5905 5.60558 3.6395 5.05458L1.3915 2.80758L2.8065 1.39258ZM14.4985 10.2846L12.2145 8.00158L11.9985 7.99958C15.0935 7.99958 17.9355 9.08058 20.1685 10.8866L18.9105 12.4426C17.622 11.3987 16.1135 10.6609 14.4985 10.2846ZM11.9985 2.99958C16.2835 2.99958 20.2185 4.49658 23.3085 6.99658L22.0515 8.55158C19.2078 6.24823 15.658 4.99396 11.9985 4.99958C11.1205 4.99958 10.2585 5.06958 9.4185 5.20658L7.7235 3.50958C9.0925 3.17658 10.5255 2.99958 11.9985 2.99958Z" fill="#151826"/>
</svg>
