<svg width="24" height="24" viewBox="0 0 24 24" fill="none" xmlns="http://www.w3.org/2000/svg">
<path fill-rule="evenodd" clip-rule="evenodd" d="M12 7C8.84027 7 5.8065 8.23889 3.55 10.4507C2.95839 11.0306 2.00869 11.0211 1.42879 10.4295C0.848887 9.83788 0.858385 8.88818 1.45 8.30828C4.26728 5.54678 8.05501 4 12 4C15.945 4 19.7327 5.54678 22.55 8.30828C23.1416 8.88818 23.1511 9.83788 22.5712 10.4295C21.9913 11.0211 21.0416 11.0306 20.45 10.4507C18.1935 8.23889 15.1597 7 12 7ZM12 13.7847C10.6165 13.7847 9.28805 14.3272 8.3 15.2957C7.70838 15.8756 6.75869 15.8661 6.17879 15.2745C5.59889 14.6829 5.60839 13.7332 6.2 13.1533C7.74884 11.6351 9.83119 10.7847 12 10.7847C14.1688 10.7847 16.2512 11.6351 17.8 13.1533C18.3916 13.7332 18.4011 14.6829 17.8212 15.2745C17.2413 15.8661 16.2916 15.8756 15.7 15.2957C14.7119 14.3272 13.3835 13.7847 12 13.7847ZM10.5 19.0708C10.5 18.2423 11.1716 17.5708 12 17.5708H12.0136C12.842 17.5708 13.5136 18.2423 13.5136 19.0708C13.5136 19.8992 12.842 20.5708 12.0136 20.5708H12C11.1716 20.5708 10.5 19.8992 10.5 19.0708Z" fill="#202327"/>
</svg>
