<svg width="24" height="24" viewBox="0 0 24 24" fill="none" xmlns="http://www.w3.org/2000/svg">
<path d="M11.9985 17.9996C12.7125 17.9996 13.3685 18.2496 13.8845 18.6656L11.9985 20.9996L10.1125 18.6656C10.646 18.2334 11.312 17.9982 11.9985 17.9996ZM2.8065 1.39258L20.4835 19.0706L19.0695 20.4846L15.3875 16.8046L15.1405 17.1106C14.2518 16.3904 13.1423 15.9981 11.9985 15.9996C10.8551 15.998 9.74603 16.39 8.8575 17.1096L6.9725 14.7756C8.28655 13.711 9.90539 13.0925 11.5945 13.0096L9.8215 11.2376C8.31803 11.572 6.91257 12.2504 5.7155 13.2196L3.8285 10.8866C4.9063 10.0138 6.11698 9.31933 7.4145 8.82958L5.8835 7.29958C4.69682 7.83029 3.58417 8.51301 2.5735 9.33058L0.6875 6.99658C1.6025 6.25658 2.5905 5.60558 3.6395 5.05458L1.3915 2.80758L2.8065 1.39258ZM16.0825 11.8696L12.2145 8.00258L11.9985 7.99958C15.0935 7.99958 17.9355 9.08058 20.1685 10.8866L18.2825 13.2206C17.6107 12.6767 16.8712 12.2223 16.0825 11.8686V11.8696ZM11.9985 2.99958C16.2835 2.99958 20.2185 4.49658 23.3085 6.99658L21.4245 9.32958C18.7582 7.16989 15.4297 5.994 11.9985 5.99958C11.4265 5.99958 10.8625 6.03158 10.3085 6.09358L7.7215 3.51058C9.0925 3.17658 10.5255 2.99958 11.9985 2.99958Z" fill="#151826"/>
</svg>
