<svg width="24" height="24" viewBox="0 0 24 24" fill="none" xmlns="http://www.w3.org/2000/svg">
<path d="M6 9C6.55228 9 7 8.55228 7 8C7 7.44772 6.55228 7 6 7C5.44772 7 5 7.44772 5 8C5 8.55228 5.44772 9 6 9Z" fill="#202327"/>
<path d="M11 8C11 8.55228 10.5523 9 10 9C9.44772 9 9 8.55228 9 8C9 7.44772 9.44772 7 10 7C10.5523 7 11 7.44772 11 8Z" fill="#202327"/>
<path d="M14 9C14.5523 9 15 8.55228 15 8C15 7.44772 14.5523 7 14 7C13.4477 7 13 7.44772 13 8C13 8.55228 13.4477 9 14 9Z" fill="#202327"/>
<path fill-rule="evenodd" clip-rule="evenodd" d="M4 3C2.34315 3 1 4.34315 1 6V18C1 19.6569 2.34315 21 4 21H20C21.6569 21 23 19.6569 23 18V6C23 4.34315 21.6569 3 20 3H4ZM3 6C3 5.44772 3.44772 5 4 5H20C20.5523 5 21 5.44772 21 6V18C21 18.5523 20.5523 19 20 19H4C3.44772 19 3 18.5523 3 18V6Z" fill="#202327"/>
</svg>
