<svg width="24" height="24" viewBox="0 0 24 24" fill="none" xmlns="http://www.w3.org/2000/svg">
<g clip-path="url(#clip0_237_101)">
<path fill-rule="evenodd" clip-rule="evenodd" d="M4 11C4 7.13401 7.13401 4 11 4C14.866 4 18 7.13401 18 11C18 14.866 14.866 18 11 18C7.13401 18 4 14.866 4 11ZM11 2C6.02944 2 2 6.02944 2 11C2 15.9706 6.02944 20 11 20C13.125 20 15.078 19.2635 16.6177 18.0319L20.2928 21.7071C20.6834 22.0976 21.3165 22.0976 21.7071 21.7071C22.0976 21.3165 22.0976 20.6834 21.7071 20.2928L18.0319 16.6177C19.2635 15.078 20 13.125 20 11C20 6.02944 15.9706 2 11 2ZM14.5355 12C15.0878 12 15.5355 11.5523 15.5355 11C15.5355 10.4478 15.0878 10 14.5355 10H7.46447C6.91218 10 6.46447 10.4478 6.46447 11C6.46447 11.5523 6.91218 12 7.46447 12H14.5355Z" fill="#202327"/>
</g>
<defs>
<clipPath id="clip0_237_101">
<rect width="24" height="24" fill="white"/>
</clipPath>
</defs>
</svg>
