<svg width="24" height="24" viewBox="0 0 24 24" fill="none" xmlns="http://www.w3.org/2000/svg">
<g clip-path="url(#clip0_237_96)">
<path d="M11 2C15.9706 2 20 6.02944 20 11C20 13.125 19.2639 15.0785 18.0322 16.6182L21.707 20.293C22.0975 20.6835 22.0975 21.3165 21.707 21.707C21.3165 22.0975 20.6835 22.0975 20.293 21.707L16.6182 18.0322C15.0785 19.2639 13.125 20 11 20C6.02944 20 2 15.9706 2 11C2 6.02944 6.02944 2 11 2ZM11 6.46484C10.4477 6.46484 10 6.91256 10 7.46484V10H7.46484C6.91257 10 6.46487 10.4477 6.46484 11C6.46484 11.5523 6.91256 12 7.46484 12H10V14.5352C10 15.0874 10.4477 15.5352 11 15.5352C11.5523 15.5352 12 15.0874 12 14.5352V12H14.5352C15.0874 12 15.5352 11.5523 15.5352 11C15.5351 10.4477 15.0874 10 14.5352 10H12V7.46484C12 6.91256 11.5523 6.46484 11 6.46484Z" fill="#202327"/>
</g>
<defs>
<clipPath id="clip0_237_96">
<rect width="24" height="24" fill="white"/>
</clipPath>
</defs>
</svg>
